<svg width="40" height="40" viewBox="0 0 40 40" fill="none" xmlns="http://www.w3.org/2000/svg">
    <path fill-rule="evenodd" clip-rule="evenodd" d="M29.1109 26.3811C29.4697 26.3811 29.825 26.4518 30.1565 26.5891C30.4879 26.7264 30.7891 26.9277 31.0428 27.1814C31.2965 27.4351 31.4977 27.7364 31.635 28.0679C31.7723 28.3994 31.843 28.7547 31.843 29.1135C31.843 29.4724 31.7723 29.8277 31.635 30.1592C31.4977 30.4907 31.2965 30.792 31.0428 31.0457C30.7891 31.2994 30.4879 31.5007 30.1565 31.638C29.825 31.7753 29.4697 31.846 29.1109 31.846C28.3864 31.846 27.6915 31.5581 27.1791 31.0457C26.6667 30.5333 26.3789 29.8382 26.3789 29.1135C26.3789 28.3889 26.6667 27.6938 27.1791 27.1814C27.6915 26.669 28.3864 26.3811 29.1109 26.3811ZM10.732 26.1331C11.0908 26.1331 11.446 26.2038 11.7774 26.3411C12.1089 26.4784 12.41 26.6796 12.6637 26.9333C12.9173 27.187 13.1186 27.4882 13.2558 27.8197C13.3931 28.1512 13.4638 28.5065 13.4638 28.8653C13.4638 29.224 13.3931 29.5793 13.2558 29.9108C13.1186 30.2423 12.9173 30.5435 12.6637 30.7972C12.41 31.0509 12.1089 31.2521 11.7774 31.3894C11.446 31.5267 11.0908 31.5974 10.732 31.5974C10.0075 31.5974 9.31271 31.3096 8.80041 30.7972C8.28811 30.2848 8.0003 29.5899 8.0003 28.8653C8.0003 28.1406 8.28811 27.4457 8.80041 26.9333C9.31271 26.4209 10.0075 26.1331 10.732 26.1331ZM19.9215 26.8783C20.4484 26.8783 20.9537 27.0876 21.3263 27.4603C21.6989 27.8329 21.9082 28.3383 21.9082 28.8653C21.9082 29.3922 21.6989 29.8976 21.3263 30.2703C20.9537 30.6429 20.4484 30.8522 19.9215 30.8522C19.3946 30.8522 18.8893 30.6429 18.5167 30.2703C18.1441 29.8976 17.9348 29.3922 17.9348 28.8653C17.9348 28.3383 18.1441 27.8329 18.5167 27.4603C18.8893 27.0876 19.3946 26.8783 19.9215 26.8783ZM24.6405 28.1201C24.773 28.1168 24.9048 28.1401 25.0282 28.1886C25.1515 28.237 25.2639 28.3097 25.3588 28.4023C25.4536 28.4949 25.529 28.6055 25.5805 28.7276C25.632 28.8498 25.6585 28.981 25.6585 29.1135C25.6585 29.2461 25.632 29.3773 25.5805 29.4995C25.529 29.6216 25.4536 29.7322 25.3588 29.8248C25.2639 29.9174 25.1515 29.99 25.0282 30.0385C24.9048 30.087 24.773 30.1103 24.6405 30.107C24.3813 30.1007 24.1348 29.9932 23.9537 29.8076C23.7726 29.622 23.6712 29.3729 23.6712 29.1135C23.6712 28.8542 23.7726 28.6051 23.9537 28.4195C24.1348 28.2339 24.3813 28.1264 24.6405 28.1201ZM15.2025 28.1201C15.335 28.1168 15.4668 28.1401 15.5901 28.1886C15.7135 28.237 15.8259 28.3097 15.9208 28.4023C16.0156 28.4949 16.091 28.6055 16.1425 28.7276C16.1939 28.8498 16.2205 28.981 16.2205 29.1135C16.2205 29.2461 16.1939 29.3773 16.1425 29.4995C16.091 29.6216 16.0156 29.7322 15.9208 29.8248C15.8259 29.9174 15.7135 29.99 15.5901 30.0385C15.4668 30.087 15.335 30.1103 15.2025 30.107C14.9433 30.1007 14.6968 29.9932 14.5157 29.8076C14.3346 29.622 14.2332 29.3729 14.2332 29.1135C14.2332 28.8542 14.3346 28.6051 14.5157 28.4195C14.6968 28.2339 14.9433 28.1264 15.2025 28.1201ZM24.6405 22.4072C25.1674 22.4072 25.6727 22.6165 26.0453 22.9891C26.4179 23.3618 26.6272 23.8671 26.6272 24.3941C26.6272 24.9211 26.4179 25.4265 26.0453 25.7991C25.6727 26.1718 25.1674 26.3811 24.6405 26.3811C24.1136 26.3811 23.6083 26.1718 23.2357 25.7991C22.8631 25.4265 22.6538 24.9211 22.6538 24.3941C22.6538 23.8671 22.8631 23.3618 23.2357 22.9891C23.6083 22.6165 24.1136 22.4072 24.6405 22.4072ZM15.2025 22.4072C15.7294 22.4072 16.2347 22.6165 16.6073 22.9891C16.9798 23.3618 17.1892 23.8671 17.1892 24.3941C17.1892 24.9211 16.9798 25.4265 16.6073 25.7991C16.2347 26.1718 15.7294 26.3811 15.2025 26.3811C14.6756 26.3811 14.1703 26.1718 13.7977 25.7991C13.4251 25.4265 13.2158 24.9211 13.2158 24.3941C13.2158 23.8671 13.4251 23.3618 13.7977 22.9891C14.1703 22.6165 14.6756 22.4072 15.2025 22.4072ZM10.732 23.4003C10.9956 23.4003 11.2483 23.505 11.4346 23.6914C11.621 23.8778 11.7257 24.1306 11.7257 24.3941C11.7257 24.6577 11.621 24.9105 11.4346 25.0968C11.2483 25.2832 10.9956 25.3879 10.732 25.3879C10.4685 25.3879 10.2158 25.2832 10.0294 25.0968C9.84309 24.9105 9.73841 24.6577 9.73841 24.3941C9.73841 24.1306 9.84309 23.8778 10.0294 23.6914C10.2158 23.505 10.4685 23.4003 10.732 23.4003ZM29.1109 23.4003C29.3745 23.4003 29.6272 23.505 29.8136 23.6914C29.9999 23.8778 30.1046 24.1306 30.1046 24.3941C30.1046 24.6577 29.9999 24.9105 29.8136 25.0968C29.6272 25.2832 29.3745 25.3879 29.1109 25.3879C28.8474 25.3879 28.5947 25.2832 28.4083 25.0968C28.222 24.9105 28.1173 24.6577 28.1173 24.3941C28.1173 24.1306 28.222 23.8778 28.4083 23.6914C28.5947 23.505 28.8474 23.4003 29.1109 23.4003ZM19.9215 23.4003C20.185 23.4003 20.4378 23.505 20.6241 23.6914C20.8104 23.8778 20.9151 24.1306 20.9151 24.3941C20.9151 24.6577 20.8104 24.9105 20.6241 25.0968C20.4378 25.2832 20.185 25.3879 19.9215 25.3879C19.658 25.3879 19.4052 25.2832 19.2189 25.0968C19.0325 24.9105 18.9279 24.6577 18.9279 24.3941C18.9279 24.1306 19.0325 23.8778 19.2189 23.6914C19.4052 23.505 19.658 23.4003 19.9215 23.4003ZM19.9215 17.1908C20.2802 17.1908 20.6355 17.2615 20.9669 17.3988C21.2983 17.5361 21.5995 17.7374 21.8531 17.9911C22.1068 18.2448 22.308 18.546 22.4453 18.8774C22.5826 19.2089 22.6532 19.5642 22.6532 19.923C22.6532 20.2818 22.5826 20.6371 22.4453 20.9686C22.308 21.3 22.1068 21.6012 21.8531 21.8549C21.5995 22.1086 21.2983 22.3099 20.9669 22.4472C20.6355 22.5845 20.2802 22.6552 19.9215 22.6552C19.197 22.6552 18.5022 22.3673 17.9899 21.8549C17.4776 21.3425 17.1898 20.6476 17.1898 19.923C17.1898 19.1984 17.4776 18.5035 17.9899 17.9911C18.5022 17.4787 19.197 17.1908 19.9215 17.1908ZM29.1109 17.936C29.6378 17.936 30.1432 18.1454 30.5157 18.518C30.8883 18.8906 31.0976 19.396 31.0976 19.923C31.0976 20.45 30.8883 20.9554 30.5157 21.328C30.1432 21.7006 29.6378 21.91 29.1109 21.91C28.584 21.91 28.0787 21.7006 27.7062 21.328C27.3336 20.9554 27.1243 20.45 27.1243 19.923C27.1243 19.396 27.3336 18.8906 27.7062 18.518C28.0787 18.1454 28.584 17.936 29.1109 17.936ZM10.732 17.936C11.2589 17.936 11.7643 18.1454 12.1368 18.518C12.5094 18.8906 12.7187 19.396 12.7187 19.923C12.7187 20.45 12.5094 20.9554 12.1368 21.328C11.7643 21.7006 11.2589 21.91 10.732 21.91C10.2051 21.91 9.69983 21.7006 9.32725 21.328C8.95468 20.9554 8.74537 20.45 8.74537 19.923C8.74537 19.396 8.95468 18.8906 9.32725 18.518C9.69983 18.1454 10.2051 17.936 10.732 17.936ZM15.2025 18.9292C15.466 18.9292 15.7187 19.0339 15.9051 19.2203C16.0914 19.4067 16.1961 19.6594 16.1961 19.923C16.1961 20.1866 16.0914 20.4393 15.9051 20.6257C15.7187 20.8121 15.466 20.9168 15.2025 20.9168C14.939 20.9168 14.6862 20.8121 14.4999 20.6257C14.3135 20.4393 14.2089 20.1866 14.2089 19.923C14.2089 19.6594 14.3135 19.4067 14.4999 19.2203C14.6862 19.0339 14.939 18.9292 15.2025 18.9292ZM24.6405 18.9292C24.904 18.9292 25.1568 19.0339 25.3431 19.2203C25.5294 19.4067 25.6341 19.6594 25.6341 19.923C25.6341 20.1866 25.5294 20.4393 25.3431 20.6257C25.1568 20.8121 24.904 20.9168 24.6405 20.9168C24.377 20.9168 24.1242 20.8121 23.9379 20.6257C23.7516 20.4393 23.6469 20.1866 23.6469 19.923C23.6469 19.6594 23.7516 19.4067 23.9379 19.2203C24.1242 19.0339 24.377 18.9292 24.6405 18.9292ZM15.2025 13.2163C15.4634 13.2163 15.7218 13.2677 15.9629 13.3676C16.2039 13.4675 16.423 13.6138 16.6075 13.7984C16.792 13.9829 16.9383 14.202 17.0382 14.4431C17.1381 14.6842 17.1895 14.9426 17.1895 15.2036C17.1895 15.4646 17.1381 15.723 17.0382 15.9641C16.9383 16.2052 16.792 16.4243 16.6075 16.6088C16.423 16.7933 16.2039 16.9397 15.9629 17.0396C15.7218 17.1394 15.4634 17.1908 15.2025 17.1908C14.6755 17.1908 14.1701 16.9815 13.7975 16.6088C13.4249 16.2361 13.2155 15.7306 13.2155 15.2036C13.2155 14.6765 13.4249 14.1711 13.7975 13.7984C14.1701 13.4257 14.6755 13.2163 15.2025 13.2163ZM24.6405 13.2163C24.9014 13.2163 25.1598 13.2677 25.4009 13.3676C25.6419 13.4675 25.861 13.6138 26.0455 13.7984C26.23 13.9829 26.3764 14.202 26.4762 14.4431C26.5761 14.6842 26.6275 14.9426 26.6275 15.2036C26.6275 15.4646 26.5761 15.723 26.4762 15.9641C26.3764 16.2052 26.23 16.4243 26.0455 16.6088C25.861 16.7933 25.6419 16.9397 25.4009 17.0396C25.1598 17.1394 24.9014 17.1908 24.6405 17.1908C24.1135 17.1908 23.6081 16.9815 23.2355 16.6088C22.8629 16.2361 22.6535 15.7306 22.6535 15.2036C22.6535 14.6765 22.8629 14.1711 23.2355 13.7984C23.6081 13.4257 24.1135 13.2163 24.6405 13.2163ZM10.732 14.4581C10.8625 14.4581 10.9917 14.4838 11.1123 14.5337C11.2328 14.5837 11.3424 14.6569 11.4346 14.7492C11.5269 14.8414 11.6001 14.951 11.65 15.0716C11.7 15.1921 11.7257 15.3214 11.7257 15.4519C11.7257 15.5824 11.7 15.7116 11.65 15.8322C11.6001 15.9528 11.5269 16.0623 11.4346 16.1546C11.3424 16.2469 11.2328 16.3201 11.1123 16.37C10.9917 16.42 10.8625 16.4457 10.732 16.4457C10.4685 16.4457 10.2158 16.341 10.0294 16.1546C9.84309 15.9682 9.73841 15.7154 9.73841 15.4519C9.73841 15.1883 9.84309 14.9355 10.0294 14.7492C10.2158 14.5628 10.4685 14.4581 10.732 14.4581ZM29.1109 14.4581C29.2414 14.4581 29.3706 14.4838 29.4912 14.5337C29.6117 14.5837 29.7213 14.6569 29.8136 14.7492C29.9058 14.8414 29.979 14.951 30.0289 15.0716C30.0789 15.1921 30.1046 15.3214 30.1046 15.4519C30.1046 15.5824 30.0789 15.7116 30.0289 15.8322C29.979 15.9528 29.9058 16.0623 29.8136 16.1546C29.7213 16.2469 29.6117 16.3201 29.4912 16.37C29.3706 16.42 29.2414 16.4457 29.1109 16.4457C28.8474 16.4457 28.5947 16.341 28.4083 16.1546C28.222 15.9682 28.1173 15.7154 28.1173 15.4519C28.1173 15.1883 28.222 14.9355 28.4083 14.7492C28.5947 14.5628 28.8474 14.4581 29.1109 14.4581ZM19.9215 14.4581C20.052 14.4581 20.1812 14.4838 20.3017 14.5337C20.4223 14.5837 20.5318 14.6569 20.6241 14.7492C20.7164 14.8414 20.7896 14.951 20.8395 15.0716C20.8894 15.1921 20.9151 15.3214 20.9151 15.4519C20.9151 15.5824 20.8894 15.7116 20.8395 15.8322C20.7896 15.9528 20.7164 16.0623 20.6241 16.1546C20.5318 16.2469 20.4223 16.3201 20.3017 16.37C20.1812 16.42 20.052 16.4457 19.9215 16.4457C19.658 16.4457 19.4052 16.341 19.2189 16.1546C19.0325 15.9682 18.9279 15.7154 18.9279 15.4519C18.9279 15.1883 19.0325 14.9355 19.2189 14.7492C19.4052 14.5628 19.658 14.4581 19.9215 14.4581ZM10.732 8C11.4566 8 12.1515 8.28788 12.6639 8.80032C13.1762 9.31275 13.4641 10.0078 13.4641 10.7325C13.4641 11.4571 13.1762 12.1522 12.6639 12.6646C12.1515 13.177 11.4566 13.4649 10.732 13.4649C10.0075 13.4649 9.31255 13.177 8.8002 12.6646C8.28784 12.1522 8 11.4571 8 10.7325C8 10.0078 8.28784 9.31275 8.8002 8.80032C9.31255 8.28788 10.0075 8 10.732 8V8ZM29.1109 8C29.8355 8 30.5304 8.28788 31.0428 8.80032C31.5551 9.31275 31.843 10.0078 31.843 10.7325C31.843 11.4571 31.5551 12.1522 31.0428 12.6646C30.5304 13.177 29.8355 13.4649 29.1109 13.4649C28.3864 13.4649 27.6915 13.177 27.1791 12.6646C26.6667 12.1522 26.3789 11.4571 26.3789 10.7325C26.3789 10.0078 26.6667 9.31275 27.1791 8.80032C27.6915 8.28788 28.3864 8 29.1109 8V8ZM19.9215 8.74519C20.4485 8.74519 20.9539 8.95456 21.3265 9.32724C21.6991 9.69993 21.9085 10.2054 21.9085 10.7325C21.9085 11.2595 21.6991 11.765 21.3265 12.1377C20.9539 12.5103 20.4485 12.7197 19.9215 12.7197C19.3945 12.7197 18.8891 12.5103 18.5165 12.1377C18.1439 11.765 17.9345 11.2595 17.9345 10.7325C17.9345 10.2054 18.1439 9.69993 18.5165 9.32724C18.8891 8.95456 19.3945 8.74519 19.9215 8.74519ZM15.2025 9.73897C15.335 9.73572 15.4668 9.75902 15.5901 9.80749C15.7135 9.85596 15.8259 9.92862 15.9208 10.0212C16.0156 10.1138 16.091 10.2244 16.1425 10.3465C16.1939 10.4687 16.2205 10.5999 16.2205 10.7325C16.2205 10.865 16.1939 10.9962 16.1425 11.1184C16.091 11.2405 16.0156 11.3511 15.9208 11.4437C15.8259 11.5363 15.7135 11.609 15.5901 11.6574C15.4668 11.7059 15.335 11.7292 15.2025 11.7259C14.9433 11.7196 14.6968 11.6121 14.5157 11.4265C14.3346 11.2409 14.2332 10.9918 14.2332 10.7325C14.2332 10.4731 14.3346 10.224 14.5157 10.0384C14.6968 9.85278 14.9433 9.74532 15.2025 9.73897ZM24.6405 9.73897C24.773 9.73572 24.9048 9.75902 25.0282 9.80749C25.1515 9.85596 25.2639 9.92862 25.3588 10.0212C25.4536 10.1138 25.529 10.2244 25.5805 10.3465C25.632 10.4687 25.6585 10.5999 25.6585 10.7325C25.6585 10.865 25.632 10.9962 25.5805 11.1184C25.529 11.2405 25.4536 11.3511 25.3588 11.4437C25.2639 11.5363 25.1515 11.609 25.0282 11.6574C24.9048 11.7059 24.773 11.7292 24.6405 11.7259C24.3813 11.7196 24.1348 11.6121 23.9537 11.4265C23.7726 11.2409 23.6712 10.9918 23.6712 10.7325C23.6712 10.4731 23.7726 10.224 23.9537 10.0384C24.1348 9.85278 24.3813 9.74532 24.6405 9.73897Z" fill="url(#paint0_linear)"/>
    <defs>
        <linearGradient id="paint0_linear" x1="8" y1="19.923" x2="31.843" y2="19.923" gradientUnits="userSpaceOnUse">
            <stop stop-color="#1A2980"/>
            <stop offset="1" stop-color="#26D0CE"/>
        </linearGradient>
    </defs>
</svg>
