<svg width="80" height="80" viewBox="0 0 80 80" fill="none" xmlns="http://www.w3.org/2000/svg">
<circle cx="40" cy="40" r="40" fill="white"/>
<path fill-rule="evenodd" clip-rule="evenodd" d="M64.6684 41.2529L52.8939 34.458L52.843 34.3731C52.843 34.3646 52.8345 34.3562 52.8261 34.3562V20.6984C52.8261 20.4609 52.6988 20.2318 52.4867 20.1131L40.339 13.0891C40.1354 12.9703 39.8724 12.9703 39.6688 13.0891L27.5125 20.1131C27.3005 20.2318 27.1732 20.4609 27.1732 20.6984V34.424L15.3393 41.2529C15.1272 41.3717 15 41.6007 15 41.8382V55.8862C15 56.1322 15.1272 56.3528 15.3393 56.4716L27.4956 63.4871C27.5974 63.5464 27.7161 63.5804 27.8349 63.5804C27.9537 63.5804 28.0724 63.5464 28.1742 63.4871L39.9996 56.6667L51.8335 63.4871C52.0371 63.6058 52.3001 63.6058 52.5037 63.4871L64.66 56.4631C64.872 56.3443 64.9997 56.1153 64.9997 55.8777V41.8467C65.0078 41.6007 64.872 41.3802 64.6684 41.2529ZM61.8436 56.5394L52.1644 62.1298L42.4852 56.5394H61.8436ZM27.8179 62.1298L37.4886 56.5394H18.1387L27.8179 62.1298ZM26.028 36.6381L16.3403 53.4685V42.2284L26.028 36.6381ZM41.2551 55.1906H63.0566L52.2492 36.0867L41.2551 55.1906ZM41.8659 15.5407L51.4688 21.0886V32.3541L41.8659 15.5407ZM40.076 15.142L29.0819 34.0423H50.8749L40.076 15.142ZM28.5051 32.3457V21.0886L38.3624 15.3965L28.5051 32.3457ZM16.9087 55.1906H38.7102L27.9028 36.0867L16.9087 55.1906ZM39.2955 42.2284V53.477L29.8539 36.7823L39.2955 42.2284ZM39.9912 40.9814L49.6704 35.3911H30.312L39.9912 40.9814ZM50.366 36.6381L40.6783 53.4685V42.2284L50.366 36.6381ZM63.659 53.477V42.2284L54.2173 36.7823L63.659 53.477Z" fill="#4E19EB"/>
</svg>
