<svg id="Layer_1" data-name="Layer 1" xmlns="http://www.w3.org/2000/svg" viewBox="0 0 289.2 191.32"><defs><style>.cls-1{fill:#ec4942;}</style></defs><path class="cls-1" d="M289.07,5.78A5.94,5.94,0,0,0,283.53.16c-59-3.63-107.79,54.77-120.68,71.73a16.37,16.37,0,0,0-3.32,9.88h0a3.61,3.61,0,0,1-3.61,3.61h0a3.62,3.62,0,0,1-3.62-3.61v-1a3.11,3.11,0,0,0-2.43-3l23-40.06-1.67-1L147.7,77.67h-6.2L118,36.74l-1.68,1,23,40.06a3.11,3.11,0,0,0-2.43,3v1a3.61,3.61,0,0,1-3.61,3.61h0a3.61,3.61,0,0,1-3.61-3.61v-.09A16,16,0,0,0,126.39,72C113.59,55.09,64.71-3.47,5.67.16A5.93,5.93,0,0,0,.13,5.78c-.54,9.88,0,32.95,13,60.34C22,84.79,29.74,95.77,35.74,102.22a28.81,28.81,0,0,0,21.09,9.16h15c-16.74,9.22-26,37.11-16.26,58.75,3.14,7,11.65,15,18.73,17.87,28.29,11.6,55.32-8.89,55.32-35.69v-3.69a5.46,5.46,0,0,1,5.45-5.46h0a1.77,1.77,0,0,1,1.77,1.77l3.33,40.38a3.12,3.12,0,0,0,3.12,3.12h2.52a3.12,3.12,0,0,0,3.12-3.12l3.32-40.38a1.78,1.78,0,0,1,1.77-1.77h0a5.46,5.46,0,0,1,5.46,5.46v3.69c0,26.8,27,47.29,55.31,35.69,7.09-2.9,15.6-10.89,18.73-17.87,9.74-21.64.48-49.53-16.26-58.75h15.06a28.83,28.83,0,0,0,21.09-9.16c6-6.45,13.76-17.43,22.6-36.1C289,38.73,289.6,15.66,289.07,5.78Z"/></svg>