<svg width="80" height="80" viewBox="0 0 80 80" fill="none" xmlns="http://www.w3.org/2000/svg">
<g clip-path="url(#clip0_3491_953)">
<path d="M78.9647 15.578C78.9446 15.1814 78.7794 14.8061 78.5006 14.5234C78.2218 14.2406 77.8489 14.0701 77.4526 14.0443C61.3448 13.0526 48.0067 29.0021 44.4868 33.6333C43.8973 34.4092 43.578 35.3567 43.5778 36.3311C43.578 36.4608 43.5527 36.5892 43.5033 36.7091C43.4538 36.829 43.3812 36.938 43.2896 37.0298C43.198 37.1215 43.0891 37.1944 42.9693 37.2441C42.8495 37.2938 42.7211 37.3193 42.5914 37.3193C42.3297 37.3193 42.0788 37.2154 41.8939 37.0305C41.7089 36.8455 41.6049 36.5947 41.6049 36.3331V36.0683C41.6049 35.875 41.5392 35.6876 41.4185 35.5366C41.2979 35.3856 41.1295 35.2801 40.9409 35.2374L47.2263 24.2983L46.7697 24.0369L40.3468 35.2128H38.6532L32.2303 24.0348L31.7737 24.2963L38.0625 35.2354C37.874 35.2781 37.7056 35.3836 37.5849 35.5345C37.4643 35.6855 37.3985 35.873 37.3985 36.0662V36.3311C37.3988 36.4611 37.3733 36.5898 37.3237 36.7099C37.274 36.83 37.2011 36.9391 37.1091 37.031C37.0171 37.1228 36.9079 37.1956 36.7877 37.2451C36.6675 37.2945 36.5387 37.3198 36.4087 37.3193C36.147 37.3193 35.8961 37.2154 35.7112 37.0305C35.5262 36.8455 35.4222 36.5947 35.4222 36.3331V36.3099C35.422 35.3505 35.1075 34.4176 34.5269 33.6538C31.0289 29.0466 17.6764 13.054 1.54744 14.0463C1.15116 14.0722 0.778175 14.2427 0.49939 14.5254C0.220605 14.8082 0.0554473 15.1835 0.035308 15.58C-0.111182 18.2778 0.0442073 24.5789 3.58803 32.0585C6.00444 37.1592 8.12443 40.1575 9.76321 41.919C10.5001 42.7094 11.3919 43.3394 12.3831 43.7699C13.3743 44.2004 14.4436 44.4221 15.5242 44.4211H19.6362C15.0635 46.9397 12.5356 54.5547 15.1943 60.465C16.052 62.3717 18.3767 64.5535 20.3112 65.3467C28.0382 68.5154 35.4222 62.9199 35.4222 55.5998V54.5883C35.4222 54.1933 35.5792 53.8145 35.8585 53.5352C36.1379 53.256 36.5167 53.0991 36.9118 53.0991C36.9753 53.0991 37.0382 53.1116 37.0969 53.1359C37.1556 53.1602 37.2089 53.1959 37.2538 53.2408C37.2986 53.2858 37.3342 53.3391 37.3585 53.3978C37.3827 53.4565 37.3952 53.5194 37.3951 53.5829L38.3034 64.609C38.3034 64.7211 38.3256 64.8321 38.3685 64.9356C38.4114 65.0391 38.4744 65.1332 38.5537 65.2124C38.6331 65.2916 38.7273 65.3544 38.8309 65.3972C38.9346 65.44 39.0456 65.4619 39.1577 65.4617H39.8423C40.0685 65.4617 40.2854 65.3719 40.4454 65.2119C40.6053 65.052 40.6952 64.8351 40.6952 64.609L41.6036 53.5829C41.6035 53.5194 41.6159 53.4565 41.6402 53.3978C41.6644 53.3391 41.7 53.2858 41.7449 53.2408C41.7898 53.1959 41.8431 53.1602 41.9018 53.1359C41.9604 53.1116 42.0233 53.0991 42.0869 53.0991C42.4819 53.0991 42.8608 53.256 43.1401 53.5352C43.4195 53.8145 43.5764 54.1933 43.5764 54.5883V55.5977C43.5764 62.9206 50.9605 68.5133 58.6882 65.3447C60.622 64.5515 62.9466 62.3697 63.8044 60.463C66.4631 54.5527 63.9344 46.9376 59.3624 44.4191H63.4744C64.5551 44.42 65.6243 44.1983 66.6155 43.7678C67.6067 43.3373 68.4986 42.7073 69.2354 41.917C70.8742 40.1554 72.9942 37.1571 75.4106 32.0564C78.9558 24.5769 79.1112 18.2758 78.9647 15.578Z" fill="#EC4942"/>
</g>
<defs>
<clipPath id="clip0_3491_953">
<rect width="80" height="80" fill="white"/>
</clipPath>
</defs>
</svg>
