<svg width="40" height="40" viewBox="0 0 40 40" fill="none" xmlns="http://www.w3.org/2000/svg">
<circle cx="20" cy="20" r="20" fill="#F8F8FB"/>
<mask id="mask0" mask-type="alpha" maskUnits="userSpaceOnUse" x="5" y="5" width="30" height="30">
<path d="M19.9119 35C28.1475 35 34.8237 28.2843 34.8237 20C34.8237 11.7157 28.1475 5 19.9119 5C11.6763 5 5 11.7157 5 20C5 28.2843 11.6763 35 19.9119 35Z" fill="white"/>
</mask>
<g mask="url(#mask0)">
<path d="M19.9119 35C28.1475 35 34.8237 28.2843 34.8237 20C34.8237 11.7157 28.1475 5 19.9119 5C11.6763 5 5 11.7157 5 20C5 28.2843 11.6763 35 19.9119 35Z" fill="#0054FF"/>
<path fill-rule="evenodd" clip-rule="evenodd" d="M28.0485 28.7138C28.5214 28.238 29.2883 28.238 29.7613 28.7138L32.7269 31.6969C33.1999 32.1727 33.1999 32.9441 32.7269 33.4199C32.254 33.8957 31.4871 33.8957 31.0141 33.4199L28.0485 30.4367C27.5755 29.9609 27.5755 29.1895 28.0485 28.7138ZM23.4847 24.4276C24.3124 23.595 25.6499 23.5904 26.472 24.4174C27.2941 25.2444 27.2896 26.5898 26.4619 27.4224C25.6342 28.255 24.2967 28.2596 23.4746 27.4326C22.6524 26.6056 22.657 25.2602 23.4847 24.4276ZM20.178 28.7348C20.6478 28.2622 21.4095 28.2622 21.8793 28.7348C22.3491 29.2073 22.3491 29.9735 21.8793 30.4461L18.8703 33.4729C18.4005 33.9454 17.6388 33.9454 17.169 33.4729C16.6992 33.0003 16.6992 32.2341 17.169 31.7616L20.178 28.7348ZM17.2217 17.823C17.6947 17.3472 18.4615 17.3472 18.9345 17.823L21.9002 20.8062C22.3731 21.282 22.3731 22.0534 21.9002 22.5291C21.4272 23.0049 20.6603 23.0049 20.1873 22.5291L17.2217 19.546C16.7487 19.0702 16.7487 18.2988 17.2217 17.823ZM12.6579 13.5368C13.4856 12.7042 14.8231 12.6997 15.6452 13.5267C16.4674 14.3537 16.4628 15.699 15.6351 16.5316C14.8074 17.3643 13.4699 17.3688 12.6478 16.5418C11.8257 15.7148 11.8302 14.3695 12.6579 13.5368ZM20.2516 6.87926C20.7214 6.4067 21.4831 6.4067 21.9528 6.87926C22.4226 7.35183 22.4226 8.11801 21.9528 8.59058L18.9438 11.6174C18.4741 12.0899 17.7124 12.0899 17.2426 11.6174C16.7728 11.1448 16.7728 10.3786 17.2426 9.90605L20.2516 6.87926ZM6.39492 6.93226C6.8679 6.45648 7.63476 6.45648 8.10775 6.93226L11.0734 9.91543C11.5464 10.3912 11.5464 11.1626 11.0734 11.6384C10.6004 12.1142 9.83355 12.1142 9.36057 11.6384L6.39492 8.65521C5.92194 8.17943 5.92194 7.40804 6.39492 6.93226Z" fill="#373737"/>
</g>
</svg>
