<svg width="40" height="40" viewBox="0 0 40 40" fill="none" xmlns="http://www.w3.org/2000/svg">
<circle cx="20" cy="20" r="20" fill="white"/>
<path d="M20 35C28.2843 35 35 28.2843 35 20C35 11.7157 28.2843 5 20 5C11.7157 5 5 11.7157 5 20C5 28.2843 11.7157 35 20 35Z" fill="url(#paint0_linear)"/>
<path fill-rule="evenodd" clip-rule="evenodd" d="M11.934 18.4553C10.9571 19.4315 10.5615 20.8422 10.8977 22.154C11.2327 23.4665 12.2477 24.4815 13.5602 24.8165C14.8721 25.1522 16.2821 24.7565 17.259 23.7797L23.7802 17.2584C24.7015 16.3372 26.174 16.3184 27.0709 17.2147C27.9677 18.1115 27.9484 19.584 27.0271 20.5053L24.9259 22.6072L23.7359 21.4172L22.9309 25.6409L27.1546 24.8353L25.9646 23.6459L28.0665 21.544C29.0434 20.5678 29.439 19.1572 29.1027 17.8453C28.7677 16.5328 27.7527 15.5178 26.4402 15.1828C25.1284 14.8472 23.7184 15.2428 22.7415 16.2197L16.2202 22.7409C15.299 23.6622 13.8265 23.6809 12.9296 22.7847C12.0327 21.8878 12.0521 20.4153 12.9734 19.494L14.9002 17.5672L16.0896 18.7565L16.8934 14.5347L12.6715 15.3384L13.8615 16.5278L11.934 18.4553Z" fill="#373737"/>
<defs>
<linearGradient id="paint0_linear" x1="35" y1="5" x2="5" y2="35" gradientUnits="userSpaceOnUse">
<stop stop-color="#5F6BFB"/>
<stop offset="1" stop-color="#724DE4"/>
</linearGradient>
</defs>
</svg>
