<svg width="91" height="91" viewBox="0 0 91 91" fill="none" xmlns="http://www.w3.org/2000/svg">
<path opacity="0.8" d="M53.3003 61.1683C53.0887 60.7452 52.9089 60.2585 52.7607 59.7084C52.6126 59.1582 52.4857 58.5764 52.3799 57.9628C51.8932 58.4917 51.3325 58.989 50.6978 59.4545C50.063 59.92 49.3542 60.3326 48.5713 60.6923C47.8096 61.0308 46.9632 61.2953 46.0322 61.4857C45.1012 61.6973 44.0962 61.8031 43.0171 61.8031C41.2609 61.8031 39.6423 61.5492 38.1611 61.0414C36.7012 60.5336 35.4422 59.8247 34.3843 58.9149C33.3263 58.0051 32.5011 56.926 31.9087 55.6776C31.3162 54.4081 31.02 53.0328 31.02 51.5516C31.02 47.9335 32.3636 45.1405 35.0508 43.1727C37.7591 41.1838 41.7899 40.1893 47.1431 40.1893H52.0625V38.1581C52.0625 36.5077 51.5229 35.2064 50.4438 34.2543C49.3647 33.281 47.8096 32.7943 45.7783 32.7943C43.9798 32.7943 42.668 33.1858 41.8428 33.9686C41.0176 34.7303 40.605 35.7566 40.605 37.0472H31.7817C31.7817 35.5873 32.0991 34.2014 32.7339 32.8895C33.3898 31.5777 34.3314 30.4245 35.5586 29.4301C36.807 28.4356 38.3198 27.6527 40.0972 27.0814C41.8957 26.489 43.9481 26.1927 46.2544 26.1927C48.328 26.1927 50.2534 26.4467 52.0308 26.9545C53.8293 27.4623 55.3844 28.2134 56.6963 29.2079C58.0081 30.2024 59.0343 31.4613 59.7749 32.9847C60.5155 34.487 60.8857 36.2326 60.8857 38.2216V52.9481C60.8857 54.7889 61.0021 56.3124 61.2349 57.5184C61.4676 58.7245 61.8062 59.7613 62.2505 60.6288V61.1683H53.3003ZM44.8896 54.9794C45.7783 54.9794 46.6035 54.8736 47.3652 54.662C48.127 54.4504 48.8146 54.1753 49.4282 53.8368C50.0418 53.4983 50.5708 53.1174 51.0151 52.6942C51.4595 52.2499 51.8086 51.8055 52.0625 51.3612V45.4579H47.5557C46.1803 45.4579 45.006 45.5954 44.0327 45.8705C43.0594 46.1244 42.266 46.4947 41.6523 46.9813C41.0387 47.4468 40.5838 48.0181 40.2876 48.6952C39.9914 49.3511 39.8433 50.0705 39.8433 50.8534C39.8433 52.0383 40.2559 53.0222 41.0811 53.8051C41.9274 54.5879 43.1969 54.9794 44.8896 54.9794Z" fill="black"/>
<circle cx="45.5" cy="45.5" r="42" stroke="#222326" stroke-width="7"/>
</svg>
