<?xml version="1.0" encoding="UTF-8"?>
<svg xmlns="http://www.w3.org/2000/svg" xmlns:xlink="http://www.w3.org/1999/xlink" width="200px" height="200px" viewBox="0 0 200 200" version="1.1">
<defs>
<clipPath id="clip1">
  <path d="M 36.03125 33.675781 L 164 33.675781 L 164 139 L 36.03125 139 Z M 36.03125 33.675781 "/>
</clipPath>
</defs>
<g id="surface1">
<path style=" stroke:none;fill-rule:nonzero;fill:rgb(6.27451%,49.019608%,93.72549%);fill-opacity:1;" d="M 200 100 C 200 155.226562 155.226562 200 100 200 C 44.773438 200 0 155.226562 0 100 C 0 44.773438 44.773438 0 100 0 C 155.226562 0 200 44.773438 200 100 Z M 200 100 "/>
<path style=" stroke:none;fill-rule:nonzero;fill:rgb(6.27451%,49.019608%,93.72549%);fill-opacity:1;" d="M 155.460938 97.234375 C 155.460938 128.335938 130.246094 153.554688 99.140625 153.554688 C 68.039062 153.554688 42.820312 128.335938 42.820312 97.234375 C 42.820312 66.128906 68.039062 40.914062 99.140625 40.914062 C 130.246094 40.914062 155.460938 66.128906 155.460938 97.234375 Z M 155.460938 97.234375 "/>
<g clip-path="url(#clip1)" clip-rule="nonzero">
<path style=" stroke:none;fill-rule:nonzero;fill:rgb(100%,100%,100%);fill-opacity:1;" d="M 88.964844 34.742188 C 85.429688 36.34375 83.429688 38.875 77.03125 49.945312 C 74.164062 55.011719 65.097656 70.609375 56.898438 84.609375 C 39.296875 114.808594 37.363281 118.476562 36.898438 121.945312 C 36.363281 125.945312 38.230469 130.945312 41.363281 133.742188 C 46.230469 138.144531 46.496094 138.144531 89.496094 138.144531 C 110.699219 138.144531 128.03125 137.945312 128.03125 137.609375 C 127.964844 137.34375 125.363281 132.609375 122.164062 127.144531 L 116.296875 117.144531 L 89.496094 116.945312 C 74.765625 116.875 62.699219 116.609375 62.699219 116.410156 C 62.699219 115.675781 94.363281 61.476562 94.832031 61.476562 C 95.097656 61.476562 96.496094 63.675781 97.964844 66.277344 C 99.429688 68.945312 105.496094 79.609375 111.496094 89.945312 C 117.496094 100.34375 126.097656 115.410156 130.699219 123.476562 L 139.03125 138.078125 L 151.230469 138.144531 C 157.898438 138.144531 163.363281 138.011719 163.363281 137.875 C 163.363281 137.808594 160.496094 132.742188 156.964844 126.742188 C 153.429688 120.742188 148.832031 112.808594 146.699219 109.144531 C 137.097656 92.410156 129.699219 79.542969 123.03125 68.144531 C 119.097656 61.34375 113.898438 52.410156 111.496094 48.277344 C 109.164062 44.078125 106.296875 39.609375 105.164062 38.34375 C 101.097656 33.675781 94.496094 32.277344 88.964844 34.742188 Z M 88.964844 34.742188 "/>
</g>
</g>
</svg>
