<svg width="40" height="40" viewBox="0 0 40 40" fill="none" xmlns="http://www.w3.org/2000/svg">
<circle cx="20" cy="20" r="20" fill="white"/>
<g clip-path="url(#clip0)">
<path d="M19.8414 23.8452C20.0814 23.8452 20.2814 23.8853 20.4414 23.9656C20.6414 24.0459 20.7614 24.1664 20.8414 24.2869C20.9214 24.4274 20.9814 24.5479 20.9814 24.6884L20.9614 24.7487L20.8814 24.7687H20.7214L20.6814 24.6884C20.6614 24.5278 20.5814 24.3873 20.4214 24.2869C20.2414 24.1664 20.0414 24.1262 19.8414 24.1262C19.6414 24.1062 19.4414 24.1664 19.2614 24.2668C19.1214 24.3672 19.0614 24.5077 19.0614 24.7085C19.0614 24.829 19.0614 24.9294 19.1414 25.0097C19.2014 25.09 19.3014 25.1703 19.4414 25.2105C19.5614 25.2908 19.7614 25.351 20.0214 25.4514C20.2814 25.5317 20.4814 25.612 20.6214 25.6923C20.7814 25.7526 20.8814 25.853 20.9614 25.9534C21.0414 26.0738 21.0814 26.2144 21.0814 26.3951C21.0814 26.6561 20.9614 26.897 20.7614 27.0576C20.5014 27.2383 20.2014 27.3187 19.8814 27.2986C19.6614 27.2986 19.4214 27.2584 19.2214 27.1781C19.0614 27.1179 18.9014 26.9974 18.8014 26.8569C18.7014 26.7364 18.6414 26.5959 18.6414 26.4553C18.6414 26.4151 18.6414 26.3951 18.6814 26.375L18.7414 26.3348H18.8614C18.9014 26.3348 18.9414 26.375 18.9414 26.4352C18.9614 26.5959 19.0614 26.7364 19.2014 26.8368C19.3614 26.9573 19.6014 27.0175 19.8814 27.0175C20.1814 27.0175 20.4014 26.9573 20.5614 26.8569C20.7014 26.7364 20.7614 26.5758 20.7614 26.3951C20.7614 26.2545 20.7414 26.1541 20.6614 26.0939C20.6014 26.0136 20.4814 25.9333 20.3614 25.8931C20.1614 25.8128 19.9414 25.7325 19.7214 25.6522C19.5214 25.5919 19.3214 25.5116 19.1414 25.4112C19.0214 25.351 18.9214 25.2506 18.8414 25.1302C18.7814 25.0298 18.7414 24.8691 18.7414 24.7085C18.7414 24.5479 18.7814 24.3873 18.8814 24.2668C18.9614 24.1262 19.0814 24.0259 19.2614 23.9455C19.4214 23.8652 19.6214 23.8452 19.8614 23.8452H19.8414ZM24.1014 23.8452C24.4014 23.8452 24.6214 23.8853 24.8214 23.9857C25.1414 24.1664 25.3614 24.4877 25.3814 24.8691V24.9093L25.3614 24.9494L25.2814 24.9695H25.2014C25.1414 24.9695 25.1214 24.9294 25.1014 24.8691C25.0414 24.6081 24.9414 24.4073 24.7814 24.2869C24.6214 24.1865 24.3814 24.1262 24.1214 24.1262C23.8214 24.1262 23.6014 24.2066 23.4214 24.3873C23.2614 24.5479 23.1614 24.8089 23.1614 25.1703V25.9734C23.1614 26.3348 23.2614 26.5758 23.4214 26.7766C23.6214 26.9372 23.8614 27.0376 24.1214 27.0175C24.4014 27.0175 24.6214 26.9573 24.7814 26.8569C24.9414 26.7364 25.0414 26.5356 25.1014 26.2545C25.1014 26.1943 25.1614 26.1742 25.2214 26.1742H25.3214L25.3814 26.1943C25.4014 26.2144 25.4214 26.2344 25.4014 26.2746C25.4014 26.4352 25.3414 26.5959 25.2614 26.7565C25.1614 26.9171 25.0214 27.0376 24.8414 27.158C24.6414 27.2584 24.4214 27.2986 24.1214 27.2986C23.7214 27.2986 23.4014 27.1982 23.1814 26.9573C22.9614 26.6762 22.8614 26.3348 22.8614 25.9935V25.1502C22.8614 24.7487 22.9814 24.4274 23.1814 24.1865C23.3814 23.9455 23.7014 23.8452 24.1214 23.8452H24.1014ZM7.64142 23.8853H7.66142C7.72142 23.8853 7.76142 23.9255 7.78142 23.9857L8.98142 27.1179L9.00142 27.158V27.1781L8.98142 27.2383L8.90142 27.2584H8.80142L8.74142 27.2383L8.70142 27.1781L8.40142 26.4151H6.72142L6.40142 27.1781V27.1982L6.36142 27.2383L6.28142 27.2584H6.20142L6.14142 27.2383C6.12142 27.2183 6.12142 27.1781 6.12142 27.158V27.1179L7.34142 23.9857V23.9656C7.38142 23.9054 7.42142 23.8853 7.48142 23.8853H7.64142ZM10.4814 23.8853L10.5414 23.9054L10.5814 23.9656L11.6414 26.897L12.6814 23.9656V23.9455L12.7214 23.9054L12.7814 23.8853H12.9014L12.9614 23.9054L12.9814 23.9857V24.0259L11.8614 27.138V27.158C11.8214 27.2183 11.7614 27.2584 11.7014 27.2584H11.5414C11.4814 27.2584 11.4214 27.2183 11.4014 27.138L10.2814 24.0459V23.9656L10.3014 23.9054L10.3814 23.8853H10.4814ZM15.7814 23.8853C15.8614 23.8853 15.9014 23.9255 15.9214 23.9857L17.1214 27.1179L17.1414 27.158V27.1781L17.1214 27.2383L17.0414 27.2584H16.9414L16.8814 27.2383L16.8414 27.1781L16.5614 26.4151H14.8614L14.5614 27.1781V27.1982L14.5214 27.2383L14.4414 27.2584H14.3414L14.2814 27.2383C14.2614 27.2183 14.2614 27.1781 14.2614 27.158V27.1179L15.4814 23.9857V23.9656C15.5214 23.9054 15.5614 23.8853 15.6214 23.8853H15.7814ZM28.4614 23.8853C28.5414 23.8853 28.5814 23.9255 28.6014 23.9857L29.8014 27.1179V27.2383L29.7214 27.2584H29.6214L29.5614 27.2383L29.5214 27.1781L29.2214 26.4151H27.5214L27.2214 27.1781V27.1982L27.1814 27.2383L27.1214 27.2584H27.0214L26.9614 27.2383C26.9414 27.2183 26.9214 27.1982 26.9214 27.158V27.1179L28.1614 23.9857V23.9656C28.1814 23.9054 28.2414 23.8853 28.3014 23.8853H28.4614ZM31.8014 23.8853C31.8414 23.8853 31.8614 23.9054 31.9014 23.9455L33.6614 26.6561V23.9857C33.6614 23.9455 33.6614 23.9255 33.7014 23.9255L33.7614 23.8853H33.8614L33.9414 23.9054L33.9614 24.0058V27.158L33.9414 27.2183L33.8614 27.2584H33.7414C33.7014 27.2584 33.6814 27.2383 33.6614 27.1982L31.8814 24.4877V27.158L31.8614 27.2383L31.7814 27.2584H31.6814L31.6214 27.2383C31.6014 27.2183 31.5814 27.1982 31.5814 27.158V23.9857C31.5814 23.9455 31.5814 23.9255 31.6214 23.9255L31.6814 23.8853H31.8014ZM7.56142 24.2266L6.82142 26.1341H8.30142L7.56142 24.2266ZM15.7014 24.2266L14.9614 26.1341H16.4414L15.7014 24.2266ZM28.3814 24.2266L27.6414 26.1341H29.1014L28.3814 24.2266ZM12.2014 12.2601C13.1214 12.8022 13.4414 13.9868 12.9014 14.9104L9.62142 20.6728C9.08142 21.5964 7.88142 21.9177 6.96142 21.3555C6.04142 20.8134 5.74142 19.6488 6.26142 18.7252L9.56142 12.9628C10.1014 12.0392 11.2814 11.718 12.2014 12.2601C12.2214 12.2601 12.2214 12.2601 12.2014 12.2601ZM18.2614 12.9227L18.3014 12.9628L21.6014 18.7252C22.0614 19.689 21.6614 20.8535 20.7014 21.3354C19.8614 21.757 18.8214 21.496 18.2814 20.713L18.2414 20.6728L14.9414 14.9104C14.4814 13.9467 14.8814 12.7821 15.8414 12.3003C16.6814 11.8987 17.7014 12.1597 18.2614 12.9227ZM29.6014 12.2601C30.5214 12.8022 30.8414 13.9868 30.3014 14.9104L27.0014 20.6728C26.4614 21.5964 25.2614 21.9177 24.3414 21.3555C23.4214 20.8134 23.1214 19.6488 23.6414 18.7252L26.9414 12.9628C27.4814 12.0392 28.6614 11.718 29.6014 12.2601ZM32.0414 17.8017C33.0814 17.8017 33.9414 18.665 33.9414 19.7091C33.9414 20.7531 33.0814 21.6165 32.0414 21.6165C31.0014 21.6165 30.1414 20.7531 30.1414 19.7091C30.1414 18.665 31.0014 17.8017 32.0414 17.8017Z" fill="#6D6DF2"/>
</g>
<defs>
<clipPath id="clip0">
<rect width="28" height="15.4601" fill="white" transform="translate(6 12)"/>
</clipPath>
</defs>
</svg>
