<svg width="40" height="40" viewBox="0 0 40 40" fill="none" xmlns="http://www.w3.org/2000/svg">
<circle cx="20" cy="20" r="20" fill="white"/>
<path d="M32 18.8838H28.0464V28.7677H32V18.8838Z" fill="#121212"/>
<path d="M28.0463 17.6753L31.5605 16.1378C31.8076 16.0279 31.9998 15.7808 31.9998 15.4788V13.7217H31.9724L28.6228 15.1768C28.2659 15.3415 28.0188 15.6985 28.0188 16.0828V17.6753H28.0463Z" fill="#00B3ED"/>
<path d="M11.6006 18.8287C12.2595 15.8635 15.1698 13.9966 18.135 14.6555C20.6609 15.2046 22.4455 17.4285 22.4455 20.0093C22.4455 20.3388 22.418 20.6957 22.3356 21.0252L24.1752 25.0336C27.0031 21.0252 26.0421 15.4517 22.0336 12.6238C18.0252 9.79592 12.4517 10.7569 9.62382 14.7653C6.79591 18.7738 7.75685 24.3472 11.7653 27.1751C13.6872 28.5205 16.0758 29.0696 18.3821 28.6852L16.9544 25.5278C13.9343 25.5278 11.4633 23.0568 11.4908 20.0093C11.4633 19.5975 11.5182 19.2131 11.6006 18.8287Z" fill="#121212"/>
<path d="M24.2026 28.7676H20.0843L17.5035 23.002H21.5943L24.2026 28.7676Z" fill="#00B3ED"/>
</svg>
