<svg width="40" height="40" viewBox="0 0 40 40" fill="none" xmlns="http://www.w3.org/2000/svg">
<circle cx="20" cy="20" r="20" fill="white"/>
<path d="M28.4516 21.6183C28.3895 21.4574 28.32 21.2856 28.2469 21.1284C27.9188 21.5681 27.5369 21.9648 27.1099 22.3093L26.7809 22.5761C26.8028 22.6346 26.8211 22.6968 26.843 22.7626C26.8649 22.8284 26.9052 22.9966 26.9308 23.1099C26.96 23.2305 26.9819 23.3549 27.0002 23.4755V23.523C27.0002 23.6327 27.0295 23.746 27.0404 23.8667V23.8959C27.0404 23.8959 27.0404 23.9252 27.0404 23.9398C27.0404 24.0897 27.0404 24.225 27.0404 24.3529C27.0434 25.8754 26.4444 27.3373 25.374 28.42C24.3036 29.5028 22.8487 30.1184 21.3262 30.1329H13.8974V23.3183H21.3262C21.5054 23.3183 21.6918 23.3183 21.9039 23.2964H21.9733C22.1452 23.2964 22.3206 23.2598 22.5144 23.2305H22.5948C22.774 23.2013 22.9604 23.1647 23.1249 23.1209H23.1871C23.3772 23.0733 23.5527 23.0222 23.7245 22.9637L23.7574 23.0149V22.96C24.1341 22.8372 24.5007 22.6857 24.8542 22.5067C25.026 22.4189 25.1942 22.3202 25.3624 22.2179C25.5305 22.1155 25.6914 22.0058 25.8413 21.8961L26.2581 21.5269C26.7924 21.0958 27.2562 20.5839 27.6327 20.0097L27.7606 19.805L27.8045 19.7355C28.5366 18.5777 28.9442 17.2446 28.9849 15.8754C29.0256 14.5062 28.6978 13.1512 28.0358 11.952C27.3738 10.7528 26.4019 9.75334 25.2216 9.05815C24.0414 8.36297 22.696 7.99752 21.3262 8.00001H12V18.6022H21.3262C22.2144 18.5994 23.0909 18.8047 23.8854 19.2017L24.0791 19.3041C24.5813 18.8932 25.0198 18.4102 25.3806 17.871L25.1942 17.7613L25.1247 17.7247C25.026 17.6662 24.9273 17.6114 24.8249 17.5602L24.6422 17.4688L24.4301 17.3774L24.0901 17.2385L24.0645 17.2202C23.9219 17.1654 23.772 17.1142 23.6258 17.0667C22.8884 16.8297 22.1191 16.7064 21.3445 16.7011H13.8974V9.89743H21.3262C21.4652 9.89743 21.6041 9.89743 21.7357 9.89743H21.7576C23.2114 10.0109 24.5685 10.6696 25.557 11.7415C26.5455 12.8134 27.0924 14.2193 27.088 15.6774C27.0802 16.4322 26.9224 17.1778 26.6237 17.871C26.5404 18.0715 26.4452 18.2668 26.3385 18.4559C25.9785 19.0479 25.5407 19.5889 25.037 20.0645L24.9785 20.1157L24.9419 20.1486C24.7378 20.3139 24.5228 20.4653 24.2985 20.6019C23.4022 21.1451 22.3742 21.4321 21.3262 21.4318H12V32.034H21.3226C23.3588 32.034 25.3115 31.2251 26.7513 29.7853C28.1911 28.3455 29 26.3927 29 24.3566C28.9893 23.4176 28.8033 22.489 28.4516 21.6183Z" fill="url(#paint0_linear)"/>
<defs>
<linearGradient id="paint0_linear" x1="23.0774" y1="12.6065" x2="14.5043" y2="27.8151" gradientUnits="userSpaceOnUse">
<stop stop-color="#00F1FF"/>
<stop offset="0.21" stop-color="#00B1FF"/>
<stop offset="1" stop-color="#6600FF"/>
</linearGradient>
</defs>
</svg>
