<svg width="40" height="40" viewBox="0 0 40 40" fill="none" xmlns="http://www.w3.org/2000/svg">
<circle cx="20" cy="20" r="20" fill="white"/>
<path d="M13 6L16.1016 6.85001V29.8057C22.1376 28.9848 25.2736 25.2706 25.8406 18.3035L19.1616 16.4731V13.2828L28.9958 15.9778L29 16.6972L28.9975 17.5144C28.997 17.5434 28.9964 17.5699 28.9958 17.5936C28.9819 18.1248 28.9281 18.6389 28.8748 19.135C27.9979 27.301 23.7777 30.8737 19.179 32.2693L18.7839 32.3836L18.3875 32.4876C18.2551 32.5206 18.1226 32.5519 17.99 32.5817L17.5919 32.666L17.1936 32.7411L16.7955 32.8072L16.398 32.8647L16.0017 32.9139C15.9357 32.9214 15.8698 32.9286 15.804 32.9355L15.41 32.9728C15.3444 32.9784 15.279 32.9837 15.2137 32.9887L14.8229 33.015L13 33.1067V6ZM19.1613 7.79843L26.581 9.83187L25.7541 12.7953L19.1613 10.9895V7.79843Z" fill="#0D0C52"/>
</svg>
