<svg width="94" height="94" viewBox="0 0 94 94" fill="none" xmlns="http://www.w3.org/2000/svg">
<circle cx="47" cy="47" r="47" fill="#5C33FF"/>
<path d="M29.2193 23.49L29.2193 44.1223L35.4121 47.6719L29.2187 51.2222L29.2187 71.8545L47.2185 82.1713L65.2181 71.8545L65.2181 51.2207L59.0254 47.6715L65.2188 44.1218L65.2188 23.488L47.2175 13.1713L29.2193 23.49ZM45.9556 16.7941L45.9556 33.0813L31.747 41.2266L31.747 24.9394L45.9556 16.7941ZM31.7458 70.4056L31.7458 54.1168L45.9556 62.2609L45.9556 78.5496L31.7458 70.4056ZM48.4821 78.5502L48.4821 62.2615L62.6918 54.1174L62.6918 70.4062L48.4821 78.5502ZM61.4273 51.9453L47.2187 60.0894L33.0102 51.9453L37.9402 49.12L47.2187 54.4381L56.4984 49.12L61.4273 51.9453ZM40.466 47.6718L47.2187 43.8013L53.9715 47.6718L47.2187 51.5417L40.466 47.6718ZM47.2187 40.9036L37.9391 46.2224L33.0102 43.3971L47.2187 35.253L61.4285 43.3971L56.4985 46.2224L47.2187 40.9036ZM62.6915 24.9374L62.6915 41.2247L48.4818 33.08L48.4817 16.7927L62.6915 24.9374Z" fill="white"/>
<path d="M62.6915 24.9374L62.6915 41.2247L48.4818 33.08L48.4817 16.7927L62.6915 24.9374Z" fill="white"/>
<path d="M31.7458 70.4056L31.7458 54.1168L45.9556 62.2609L45.9556 78.5496L31.7458 70.4056Z" fill="white"/>
<path d="M40.466 47.6718L47.2187 43.8013L53.9715 47.6718L47.2187 51.5417L40.466 47.6718Z" fill="white"/>
</svg>
