<svg width="40" height="40" viewBox="0 0 40 40" fill="none" xmlns="http://www.w3.org/2000/svg">
<circle cx="20" cy="20" r="20" fill="white"/>
<path fill-rule="evenodd" clip-rule="evenodd" d="M16.5181 23.1555C16.5181 23.6381 16.1251 24.0289 15.6397 24.0289C15.1543 24.0289 14.7612 23.6381 14.7612 23.1555V13.8734C14.7612 13.3908 15.1543 13 15.6397 13C15.8824 13 16.1013 13.097 16.2596 13.257C16.4205 13.4144 16.5181 13.6321 16.5181 13.8734V23.1555Z" fill="#008FCA"/>
<path fill-rule="evenodd" clip-rule="evenodd" d="M9.95712 22.3005C8.74624 22.3005 7.76486 21.3379 7.74113 20.1419V20.0999C7.74113 20.0108 7.7464 19.9242 7.75694 19.8376C7.88624 18.7439 8.82275 17.8968 9.95712 17.8968C11.1786 17.8968 12.1705 18.8829 12.1705 20.0999C12.1705 21.3143 11.1786 22.3005 9.95712 22.3005ZM9.95712 16.1657C9.14461 16.1657 8.38747 16.4096 7.75694 16.8293V13.8734C7.75694 13.6321 7.65935 13.4144 7.50106 13.257C7.34015 13.097 7.12118 13 6.87849 13C6.39307 13 6 13.3908 6 13.8734V19.9898C6 20.0003 6 20.0134 6.00265 20.0239C6 20.0475 6 20.0737 6 20.0999C6 22.2716 7.77278 24.0315 9.95712 24.0315C12.1415 24.0315 13.9116 22.2716 13.9116 20.0999C13.9116 17.9256 12.1415 16.1657 9.95712 16.1657Z" fill="#008FCA"/>
<path fill-rule="evenodd" clip-rule="evenodd" d="M7.87601 19.8379V19.9964C7.87601 20.051 7.83105 20.103 7.74115 20.1549V20.1111C7.74115 20.0183 7.7861 19.9281 7.87601 19.8379Z" fill="#0A0B09"/>
<path fill-rule="evenodd" clip-rule="evenodd" d="M21.3699 17.8851C22.5929 17.8851 23.5847 18.8707 23.5847 20.0871C23.5847 21.3035 22.5929 22.2895 21.3699 22.2895C20.1464 22.2895 19.1546 21.3035 19.1546 20.0871C19.1546 18.8707 20.1464 17.8851 21.3699 17.8851ZM21.3699 24.0199C23.5541 24.0199 25.3251 22.2592 25.3251 20.0871C25.3251 17.9155 23.5541 16.1548 21.3699 16.1548C19.1852 16.1548 17.4142 17.9155 17.4142 20.0871C17.4142 22.2592 19.1852 24.0199 21.3699 24.0199Z" fill="#008FCA"/>
<path fill-rule="evenodd" clip-rule="evenodd" d="M32.2126 20.1104C32.2126 20.216 32.1677 20.3217 32.0775 20.4273V20.3084C32.0775 20.2391 32.1227 20.1731 32.2126 20.1104Z" fill="#0A0B09"/>
<path fill-rule="evenodd" clip-rule="evenodd" d="M29.8774 22.3003C28.6559 22.3003 27.664 21.3141 27.664 20.0997C27.664 18.8827 28.6559 17.8966 29.8774 17.8966C31.1014 17.8966 32.0933 18.8827 32.0933 20.0997V20.1102C32.0933 20.1942 32.0881 20.2781 32.0775 20.362C31.9482 21.4531 31.0117 22.3003 29.8774 22.3003ZM33.8345 20.0997C33.8345 17.9254 32.0617 16.1655 29.8774 16.1655C27.693 16.1655 25.9229 17.9254 25.9229 20.0997C25.9229 22.2714 27.693 24.0313 29.8774 24.0313C30.6925 24.0313 31.4496 23.7874 32.0775 23.3677V26.384C32.0775 26.6253 32.1751 26.843 32.336 27.0003C32.4943 27.1603 32.7133 27.2574 32.956 27.2574C33.4414 27.2574 33.8345 26.8666 33.8345 26.384V20.2676C33.8345 20.2492 33.8345 20.2335 33.8319 20.2151C33.8345 20.1784 33.8345 20.1391 33.8345 20.0997Z" fill="#008FCA"/>
</svg>
