<svg width="40" height="40" viewBox="0 0 40 40" fill="none" xmlns="http://www.w3.org/2000/svg">
<circle cx="20" cy="20" r="20" fill="white"/>
<path d="M7.99994 12.8005C7.99994 10.1495 10.149 8.00049 12.8 8.00049H27.2C29.851 8.00049 32 10.1495 32 12.8005V27.2006C32 29.8515 29.851 32.0006 27.2 32.0006H12.8C10.149 32.0006 7.99994 29.8515 7.99994 27.2006V12.8005Z" fill="url(#paint0_linear)"/>
<path d="M17.6121 8H15.2055V13.5341H17.6121V8Z" fill="#373737"/>
<path d="M21.6517 25.006H18.4716C16.6666 25.006 15.2055 23.5418 15.2055 21.7331V19.4076H17.6121V21.7158C17.6121 22.1982 17.9902 22.5772 18.4716 22.5772H21.6517C22.133 22.5772 22.5112 22.1982 22.5112 21.7158V18.5463C22.5112 18.064 22.133 17.685 21.6517 17.685H7.99994V15.2734H21.6517C23.4566 15.2734 24.9179 16.7376 24.9179 18.5463V21.7331C24.9179 23.5418 23.4566 25.006 21.6517 25.006Z" fill="#373737"/>
<defs>
<linearGradient id="paint0_linear" x1="30.44" y1="30.4406" x2="11.24" y2="11.2405" gradientUnits="userSpaceOnUse">
<stop offset="0.159375" stop-color="#003CDA"/>
<stop offset="1" stop-color="#33DFCC"/>
</linearGradient>
</defs>
</svg>
