<svg width="772" height="277" viewBox="0 0 772 277" fill="none" xmlns="http://www.w3.org/2000/svg">
<path fill-rule="evenodd" clip-rule="evenodd" d="M608.828 119.507C613.03 108.12 630.604 102.714 641.186 102.714H646V127.979C639.962 127.979 633.806 127.664 628.003 129.63C623.971 130.919 620.393 133.326 617.691 136.569C612.759 143.181 613.172 147.265 612.783 153.467C612.418 159.494 612.583 163.613 612.583 169.652V214.472H584.792V103.849H608.875L608.828 119.507ZM270.945 188.271C251.041 207.638 233.867 217 205.594 217C158.511 217 126 184.315 126 138.289C126 91.0232 162.866 60 206.041 60C231.243 60.0285 255.182 70.9754 271.604 89.9817L251.464 109.139C237.846 94.768 222.979 87.2784 205.382 87.2784C177.132 87.2784 154.073 108.928 154.073 138.289C154.073 169.114 176.273 189.722 206.018 189.722C224.651 189.722 237.222 182.232 251.464 168.072L270.945 188.271ZM390.185 192.401C378.25 209.276 362.512 216.813 339.077 216.813C303.682 216.813 280.859 190.997 280.859 158.511C280.859 128.319 302.846 100.409 338.665 100.409C373.848 100.409 397.719 125.405 397.719 160.384C397.719 162.888 397.518 164.128 397.518 166.633H307.872C310.591 183.086 323.174 192.238 339.077 192.238C351.012 192.238 358.981 188.914 366.726 181.413L390.185 192.401ZM369.657 144.714C365.891 131.841 353.955 123.895 339.053 123.895C325.234 123.895 314.546 130.765 309.108 144.714H369.657ZM411.836 60.5968H439.686V213.899H411.836V60.5968ZM563.13 192.401C551.194 209.276 535.48 216.813 512.021 216.813C476.626 216.813 453.803 190.997 453.803 158.511C453.803 128.319 475.791 100.409 511.609 100.409C546.792 100.409 570.675 125.405 570.675 160.384C570.675 162.888 570.463 164.128 570.463 166.633H480.817C483.536 183.086 496.119 192.238 512.021 192.238C523.968 192.238 531.926 188.914 539.671 181.413L563.13 192.401ZM542.602 144.714C538.835 131.841 526.899 123.895 511.998 123.895C498.179 123.895 487.503 130.765 482.053 144.714H542.602Z" fill="black"/>
</svg>
