<?xml version="1.0" encoding="UTF-8"?>
<svg width="80px" height="80px" viewBox="0 0 80 80" version="1.1" xmlns="http://www.w3.org/2000/svg" xmlns:xlink="http://www.w3.org/1999/xlink">
    <!-- Generator: Sketch 52 (66869) - http://www.bohemiancoding.com/sketch -->
    <title>Rectangle</title>
    <desc>Created with Sketch.</desc>
    <defs>
        <polygon id="path-1" points="0.172633302 0.0726336921 18.2013327 0.0726336921 18.2013327 15.4587098 0.172633302 15.4587098"></polygon>
    </defs>
    <g id="Page-1" stroke="none" stroke-width="1" fill="none" fill-rule="evenodd">
        <g id="Folding-Strategy-新增gas-balance-Copy-4" transform="translate(-548.000000, -227.000000)">
            <g id="Group-38" transform="translate(548.000000, 227.000000)">
                <rect id="Rectangle" x="0" y="0" width="80" height="80"></rect>
                <g id="Group-14" transform="translate(0.000000, 23.000000)">
                    <path d="M5.53958559,16.7008263 C5.53958559,10.2795395 10.0335675,4.91734579 16.0236949,3.63308843 C15.1302357,3.44181234 14.2040256,3.34014779 13.2539021,3.34014779 C10.6684849,3.34014779 8.25652636,4.08708529 6.21713125,5.37763118 C2.48283228,7.74072062 0,11.9281822 0,16.7008263 C0,21.4734704 2.48283228,25.660932 6.21713125,28.0240214 C8.25652636,29.3143926 10.6684849,30.0613301 13.2539021,30.0613301 C14.2040256,30.0613301 15.1302357,29.9598403 16.0236949,29.7683895 C10.0335675,28.4843068 5.53958559,23.1221131 5.53958559,16.7008263" id="Fill-1" fill="#000000"></path>
                    <path d="M24.0198504,3.10711847 C23.5722638,3.10711847 23.1448589,3.02309706 22.7520021,2.8716242 C22.616717,2.81940372 22.4851947,2.75981881 22.3586322,2.69203262 C20.494914,1.87290755 18.4285248,1.41681523 16.2528472,1.41681523 C15.3944456,1.41681523 14.5534892,1.48878576 13.7345957,1.62519502 C16.0563332,1.69649606 18.2424437,2.29435359 20.1726927,3.30060204 C23.7174686,5.14857096 26.3978569,8.37402238 27.4691913,12.2472086 L27.4691913,6.53710009 L27.4691913,6.38997894 L27.4691913,0 C27.3231314,1.739511 25.835338,3.10711847 24.0198504,3.10711847" id="Fill-3" fill="#000000"></path>
                    <path d="M20.1726927,30.1008759 C18.2424437,31.1071243 16.0566753,31.7049819 13.7345957,31.7764503 C14.5534892,31.9125248 15.3944456,31.9844953 16.2530182,31.9844953 C18.4285248,31.9844953 20.494914,31.5285704 22.3586322,30.7096127 C22.4851947,30.6416591 22.6168881,30.5820742 22.7521731,30.5298537 C23.1448589,30.3783809 23.5722638,30.2943595 24.0198504,30.2943595 C25.835338,30.2943595 27.3231314,31.6619669 27.4691913,33.4014779 L27.4691913,27.011499 L27.4691913,26.8643778 L27.4691913,21.1542694 C26.3978569,25.0274555 23.7174686,28.2527396 20.1726927,30.1008759" id="Fill-5" fill="#000000"></path>
                    <path d="M34.0523908,27.7488409 L34.0523908,14.5485409 C34.0523908,14.3199108 33.9896033,14.144662 33.8640283,14.0227946 C33.7384533,13.9010989 33.5147602,13.8027467 33.1919395,13.7260217 L33.1919395,13.3605912 L38.9146877,13.3605912 L38.9146877,13.7260217 C38.591867,13.7943362 38.3681739,13.8918301 38.2425989,14.017302 C38.1170239,14.142774 38.0542364,14.3199108 38.0542364,14.5485409 L38.0542364,27.7488409 C38.0542364,27.9850234 38.1192447,28.1657648 38.2492613,28.2912367 C38.3792778,28.4168803 38.6005483,28.5142025 38.9146877,28.582517 L38.9146877,28.9479475 L33.1919395,28.9479475 L33.1919395,28.582517 C33.5147602,28.5066502 33.7384533,28.4074398 33.8640283,28.2857441 C33.9896033,28.1638767 34.0523908,27.9850234 34.0523908,27.7488409" id="Fill-7" fill="#000000"></path>
                    <g id="Group-11" transform="translate(60.661131, 13.360591)">
                        <mask id="mask-2" fill="white">
                            <use xlink:href="#path-1"></use>
                        </mask>
                        <g id="Clip-10"></g>
                        <path d="M4.12132955,4.91962381 L4.12132955,14.2750873 C4.12132955,14.50822 4.17521143,14.6847637 4.28473603,14.8050574 C4.39426062,14.9251817 4.58918623,15.023111 4.87092153,15.0979981 L4.87092153,15.4587098 L0.172633302,15.4587098 L0.172633302,15.0979981 C0.454192513,15.023111 0.649294206,14.9251817 0.758818802,14.8050574 C0.868343398,14.6847637 0.923281781,14.50822 0.923281781,14.2750873 L0.923281781,1.2452434 C0.923281781,1.01939616 0.868343398,0.846579821 0.758818802,0.726286093 C0.649294206,0.606161792 0.454192513,0.50907967 0.172633302,0.43334545 L0.172633302,0.0726336921 L5.60889192,0.0726336921 L5.60889192,0.43334545 C5.27257041,0.516534493 5.10529007,0.689350835 5.10529007,0.951963904 C5.10529007,1.13223507 5.21393425,1.33097386 5.43298344,1.54919685 L14.2537634,10.3750291 L14.2537634,1.2452434 C14.2537634,1.01939616 14.198825,0.846579821 14.0903569,0.726286093 C13.9808323,0.606161792 13.7857306,0.50907967 13.5041714,0.43334545 L13.5041714,0.0726336921 L18.2014031,0.0726336921 L18.2014031,0.43334545 C17.9207243,0.50907967 17.7257987,0.606161792 17.6162741,0.726286093 C17.5067495,0.846579821 17.4518111,1.01939616 17.4518111,1.2452434 L17.4518111,14.2750873 C17.4518111,14.50822 17.5067495,14.6847637 17.6162741,14.8050574 C17.7257987,14.9251817 17.9207243,15.023111 18.2014031,15.0979981 L18.2014031,15.4587098 L13.1648565,15.4587098 L13.1648565,15.0979981 C13.4927259,15.0305658 13.6570128,14.8687623 13.6570128,14.613604 C13.6570128,14.4628133 13.4649045,14.2002002 13.0824489,13.8239011 L4.12132955,4.91962381 Z" id="Fill-9" fill="#000000" mask="url(#mask-2)"></path>
                    </g>
                    <path d="M57.6353299,28.2117573 C57.4522697,28.0253496 57.2394705,27.676908 56.9979235,27.1662607 L51.2822487,15.1536066 C51.1424753,14.8714204 51.072919,14.6204737 51.072919,14.3993935 C51.072919,14.0799601 51.2895182,13.8551037 51.7212297,13.7258541 L51.7212297,13.3605912 L46.4015795,13.3605912 L46.4015795,13.7258541 C46.8261866,13.8786192 47.0389858,14.1295658 47.0389858,14.4800672 C47.0389858,14.7085282 46.9515862,15.0128568 46.7757955,15.3932246 L41.2575547,27.3724077 C41.0601207,27.8137099 40.8841648,28.1104861 40.7301827,28.2632511 C40.5758702,28.415158 40.3523319,28.5219218 40.0592373,28.5826846 L40.0592373,28.9479475 L45.0220193,28.9479475 L45.0220193,28.5826846 C44.5323167,28.453435 44.287135,28.2211978 44.287135,27.8858013 C44.287135,27.7105506 44.356526,27.4709326 44.4964647,27.1662607 L48.949718,17.2864814 L53.3560498,27.1662607 C53.5029275,27.4791716 53.5761186,27.7144985 53.5761186,27.8744727 C53.5761186,28.2632511 53.3334151,28.4994362 52.8483386,28.5826846 L52.8483386,28.9479475 L58.3720316,28.9479475 L58.3720316,28.5826846 C58.0635718,28.5219218 57.8182249,28.398165 57.6353299,28.2117573" id="Fill-12" fill="#000000"></path>
                </g>
            </g>
        </g>
    </g>
</svg>