<svg width="228" height="228" viewBox="0 0 228 228" fill="none" xmlns="http://www.w3.org/2000/svg">
<rect width="228" height="228" rx="40" fill="#2C3832"/>
<path fill-rule="evenodd" clip-rule="evenodd" d="M150.17 178H89.49C75.9572 178 69.1908 178 64.0783 175.241C60.1291 173.111 56.8894 169.871 54.7585 165.922C52 160.809 52 154.043 52 140.51V121V98.8566C52 87.8197 56.7334 77.3128 65 70C65.2801 75.6018 69.9037 80 75.5125 80H140.51C154.043 80 160.809 80 165.922 82.7585C169.871 84.8894 173.111 88.1291 175.241 92.0783C177.264 95.8274 177.804 100.466 177.948 108.01C177.08 108 176.106 108 175 108H151C139.402 108 130 117.402 130 129C130 140.598 139.402 150 151 150H175C176.128 150 177.119 150 178 149.989V150.17C178 154.657 178 156.901 177.688 158.776C176.074 168.474 168.474 176.074 158.776 177.688C156.901 178 154.657 178 150.17 178Z" fill="#68C481"/>
<path fill-rule="evenodd" clip-rule="evenodd" d="M152 114C143.716 114 137 120.716 137 129C137 137.284 143.716 144 152 144H174.5C176.823 144 177.985 144 178.951 143.808C182.918 143.019 186.019 139.918 186.808 135.951C187 134.985 187 133.823 187 131.5V126.5C187 124.177 187 123.015 186.808 122.049C186.019 118.082 182.918 114.981 178.951 114.192C177.985 114 176.823 114 174.5 114H152ZM152 134C154.761 134 157 131.761 157 129C157 126.239 154.761 124 152 124C149.239 124 147 126.239 147 129C147 131.761 149.239 134 152 134Z" fill="#68C481"/>
<path fill-rule="evenodd" clip-rule="evenodd" d="M62.1432 155.071C62 152.822 62 150.044 62 146.46V93.54C62 85.5671 62 81.5807 63.5762 78.5464C64.9045 75.9894 66.9894 73.9045 69.5464 72.5762C72.5807 71 76.5671 71 84.54 71H155.46C161.845 71 165.674 71 168.504 71.8097C166.331 68.3327 163.261 65.4898 159.602 63.5895C154.617 61 148.068 61 134.97 61H89.03C75.9317 61 69.3826 61 64.3976 63.5895C60.1968 65.7716 56.7716 69.1968 54.5895 73.3976C52 78.3826 52 84.9317 52 98.03V121.97C52 135.068 52 141.617 54.5895 146.602C56.3669 150.024 58.969 152.931 62.1432 155.071Z" fill="#68C481"/>
<mask id="mask0_32_547" style="mask-type:alpha" maskUnits="userSpaceOnUse" x="75" y="15" width="77" height="60">
<rect x="75" y="15" width="77" height="60" fill="#C4C4C4"/>
</mask>
<g mask="url(#mask0_32_547)">
<circle cx="113.25" cy="61.05" r="36.45" fill="#FFC700"/>
<path fill-rule="evenodd" clip-rule="evenodd" d="M108.521 34.76H117.55V42.3136C123.838 43.0376 128.678 47.4656 128.678 53.9468C128.678 57.3508 127.328 60.0505 125.098 61.9873C128.15 63.924 130.145 67.0933 130.145 71.2602C130.145 78.3154 124.574 82.9987 117.55 83.2783V92.3205H108.521V83.2915H99.6268V42.209H108.521V34.76ZM115.708 51.0124C117.879 51.0124 119.288 52.5383 119.288 54.6511C119.288 56.7639 117.821 58.2899 115.708 58.2899H109.017V51.0124H115.708ZM116.882 74.4881H109.017V66.6237H116.882C119.229 66.6237 120.755 68.267 120.755 70.5559C120.755 72.8448 119.229 74.4881 116.882 74.4881Z" fill="#2C3832"/>
</g>
</svg>
