<svg xmlns="http://www.w3.org/2000/svg" xmlns:xlink="http://www.w3.org/1999/xlink" viewBox="0 0 920 167.56"><defs><style>.cls-1{fill:url(#radial-gradient);}.cls-2{fill:url(#radial-gradient-2);}.cls-3{fill:url(#radial-gradient-3);}.cls-4{fill:url(#radial-gradient-4);}.cls-5{fill:url(#radial-gradient-5);}.cls-6{fill:url(#linear-gradient);}.cls-7{fill:url(#linear-gradient-2);}.cls-8{fill:url(#linear-gradient-3);}.cls-9{fill:url(#linear-gradient-4);}.cls-10{fill:url(#linear-gradient-5);}.cls-11{fill:url(#linear-gradient-6);}</style><radialGradient id="radial-gradient" cx="508.16" cy="40.14" r="1202.6" gradientUnits="userSpaceOnUse"><stop offset="0" stop-color="#007bff"/><stop offset="0.49" stop-color="#ff79f4"/><stop offset="1" stop-color="#00fff6"/></radialGradient><radialGradient id="radial-gradient-2" cx="492.24" cy="39.21" r="1214.72" xlink:href="#radial-gradient"/><radialGradient id="radial-gradient-3" cx="490.65" cy="39.38" r="1206.97" xlink:href="#radial-gradient"/><radialGradient id="radial-gradient-4" cx="489.06" cy="39.38" r="1204.43" xlink:href="#radial-gradient"/><radialGradient id="radial-gradient-5" cx="502.59" cy="40.14" r="1202.6" xlink:href="#radial-gradient"/><linearGradient id="linear-gradient" x1="457.84" y1="-52.24" x2="531.94" y2="212.59" gradientUnits="userSpaceOnUse"><stop offset="0.14" stop-color="#ff79f4"/><stop offset="0.3" stop-color="#c19af4"/><stop offset="0.49" stop-color="#7dbdf5"/><stop offset="0.66" stop-color="#47daf5"/><stop offset="0.81" stop-color="#20eef6"/><stop offset="0.93" stop-color="#09faf6"/><stop offset="1" stop-color="#00fff6"/></linearGradient><linearGradient id="linear-gradient-2" x1="560.23" y1="29.82" x2="560.23" y2="137.52" gradientUnits="userSpaceOnUse"><stop offset="0" stop-color="#8773eb"/><stop offset="1" stop-color="#00c4f0"/></linearGradient><linearGradient id="linear-gradient-3" x1="431.57" y1="30.4" x2="431.57" y2="132.92" xlink:href="#linear-gradient-2"/><linearGradient id="linear-gradient-4" x1="547.38" y1="19.45" x2="464.9" y2="19.45" gradientUnits="userSpaceOnUse"><stop offset="0" stop-color="#008dee"/><stop offset="1" stop-color="#a26dea"/></linearGradient><linearGradient id="linear-gradient-5" x1="442.35" y1="148.2" x2="549.45" y2="148.2" gradientUnits="userSpaceOnUse"><stop offset="0" stop-color="#009bee"/><stop offset="1" stop-color="#00caf0"/></linearGradient><linearGradient id="linear-gradient-6" x1="495.9" y1="130.05" x2="495.9" y2="70.67" gradientUnits="userSpaceOnUse"><stop offset="0" stop-color="#ff79f4"/><stop offset="1" stop-color="#00fff6"/></linearGradient></defs><g id="Layer_2" data-name="Layer 2"><g id="Layer_1-2" data-name="Layer 1"><path class="cls-1" d="M118.41,156.71c-16.06,5.81-24.9,7.67-34.9,7.67-27,0-47.22-10.7-60-23.26A81.4,81.4,0,0,1,0,84.59,83.12,83.12,0,0,1,23.49,27.37,82.33,82.33,0,0,1,82.12,3.17c7.44,0,19.54,1.17,36.29,7.91V59.24c-13-16.05-28.38-17-35.13-17-11.63,0-20.47,3.49-27.92,10.23A43.37,43.37,0,0,0,41.87,84.36c0,10.7,4.42,22.57,12.56,30.24,6.75,6.28,17.45,10.7,28.85,10.7,6,0,20.94-.69,35.13-16.28Z"/><path class="cls-2" d="M355.51,4.74V128.1h48.38v34.19H315.26V4.74Z"/><path class="cls-3" d="M598.93,163.09V4.74h40.25l74.2,98.1V4.74h40.25V163.09H713.38l-74.2-94.91v94.91Z"/><path class="cls-4" d="M821.6,85.46,765.54,4.74h48.15L843,47.08,871.15,4.74H920L862.08,85.46v77.63H821.6Z"/><path class="cls-5" d="M216.17.17a83.61,83.61,0,1,0,83.62,83.61A83.61,83.61,0,0,0,216.17.17Zm0,128.51a44.9,44.9,0,1,1,44.91-44.9A44.9,44.9,0,0,1,216.17,128.68Z"/><path class="cls-6" d="M495.9,0a83.78,83.78,0,1,0,83.78,83.78A83.78,83.78,0,0,0,495.9,0Zm0,128.68a44.9,44.9,0,1,1,44.9-44.9A44.91,44.91,0,0,1,495.9,128.68Z"/><path class="cls-7" d="M579.59,83.78c0-.4,0-.78.06-1.18a83.44,83.44,0,0,0-19.41-52.47,83.75,83.75,0,0,0,0,107.3A83.44,83.44,0,0,0,579.65,85C579.64,84.56,579.59,84.18,579.59,83.78Z"/><path class="cls-8" d="M431.56,30.13A83.38,83.38,0,0,0,412.15,82.6c0,.4.06.78.06,1.18s0,.78-.06,1.17a83.39,83.39,0,0,0,19.41,52.48,83.78,83.78,0,0,0,0-107.3Z"/><path class="cls-9" d="M549.54,19.44A83.4,83.4,0,0,0,497.07,0c-.39,0-.77.06-1.17.06s-.78,0-1.18-.06a83.44,83.44,0,0,0-52.47,19.41A83.46,83.46,0,0,0,495.9,38.88,83.42,83.42,0,0,0,549.54,19.44Z"/><path class="cls-10" d="M442.35,148.2a83.74,83.74,0,0,0,107.1,0,83.77,83.77,0,0,0-107.1,0Z"/><circle class="cls-11" cx="495.9" cy="83.78" r="20.94"/></g></g></svg>