<svg width="80" height="80" viewBox="0 0 80 80" fill="none" xmlns="http://www.w3.org/2000/svg">
<circle cx="40" cy="40" r="40" fill="white"/>
<path d="M40.3301 23.1284L44.3581 20.8168V15.3116L40.3301 13V23.1284Z" fill="#A4A7A9"/>
<path d="M25.5156 47.1207V31.6195L38.9656 23.9119V13.002L16.6828 25.7791C16.4759 25.8975 16.3038 26.0681 16.184 26.2737C16.0641 26.4793 16.0007 26.7127 16 26.9505V52.4948C16 52.5215 16.0044 52.5482 16.0044 52.5701L25.5156 47.1207Z" fill="#6FC9C4"/>
<path d="M53.1076 48.2084L39.6456 55.9271L26.2668 48.255L16.75 53.7112L38.9648 66.4441C39.1729 66.562 39.4081 66.6244 39.6476 66.625C39.8859 66.6227 40.1198 66.5605 40.3276 66.4441L62.6116 53.6689L62.6204 53.6609L53.1076 48.2084Z" fill="#6D6E71"/>
<path d="M62.6132 25.7787L53.7768 20.7136V26.2195L44.2832 31.6633L53.7768 37.1008V47.0271L63.2924 52.4796V26.9501C63.2928 26.7125 63.2302 26.4791 63.1109 26.2734C62.9916 26.0677 62.8199 25.8971 62.6132 25.7787Z" fill="#A4A7A9"/>
<path d="M34.9336 37.0203V47.8234L44.1736 42.5263V31.7255L34.9336 37.0203Z" fill="#6D6E71"/>
</svg>
