<?xml version="1.0" encoding="utf-8"?>
<!-- Generator: Adobe Illustrator 23.0.3, SVG Export Plug-In . SVG Version: 6.00 Build 0)  -->
<svg version="1.1" id="Слой_1" xmlns="http://www.w3.org/2000/svg" xmlns:xlink="http://www.w3.org/1999/xlink" x="0px" y="0px"
	 viewBox="0 0 283.5 283.5" style="enable-background:new 0 0 283.5 283.5;" xml:space="preserve">
<style type="text/css">
	.st0{fill:#FFFFFF;}
</style>
<g>
	<g>
		<circle cx="69.4" cy="191.5" r="1.4"/>
		<circle cx="116.3" cy="191.5" r="1.4"/>
		<path d="M223.9,260.1H59.6c-20.4,0-36.9-16.5-36.9-36.9v-163c0-20.4,16.5-36.9,36.9-36.9h164.3c20.4,0,36.9,16.5,36.9,36.9v163
			C260.7,243.6,244.2,260.1,223.9,260.1z"/>
		<circle cx="214.4" cy="191.7" r="1.1"/>
		<circle cx="191.3" cy="191.7" r="1.1"/>
	</g>
</g>
<g>
	<path class="st0" d="M166.6,142.4c0-0.4-0.1-0.7-0.4-1L116,91.2c-0.5-0.5-1.4-0.5-1.9,0l-11.3,11.3c-0.3,0.3-0.4,0.6-0.4,1
		c0,0.4,0.1,0.7,0.4,1l25.7,25.8l-60.1,60c-0.4,0.4-0.5,1-0.3,1.5c0.2,0.5,0.7,0.8,1.3,0.8h46.9c0.4,0,0.7-0.1,1-0.4l49-48.8
		C166.4,143.1,166.6,142.8,166.6,142.4z"/>
	<path class="st0" d="M188.4,163.8c0,0,26.7-26.6,26.7-26.6c0.2-0.2,0.4-0.5,0.4-0.8c0-0.7-0.5-1.2-1.2-1.2c0,0-22.9,0-22.9,0
		c-0.4,0-0.7,0.1-1,0.4c0,0-27.5,27.5-27.5,27.5c-0.2,0.2-0.4,0.5-0.4,0.8c0,0.3,0.1,0.6,0.4,0.8c0,0,0,0,0,0l27.6,27.5
		c0.3,0.3,0.6,0.4,1,0.4h22.6c0.6,0,1.1-0.2,1.3-0.7c0.2-0.5,0.1-1.1-0.3-1.5L188.4,163.8z"/>
</g>
</svg>
