<svg width="80" height="80" viewBox="0 0 80 80" fill="none" xmlns="http://www.w3.org/2000/svg">
<path d="M27.4556 59.056L39.9959 38.2606L52.5362 59.056L39.9959 66.4763L27.4556 59.056Z" fill="#EC4942"/>
<path d="M39.9953 29.9395C47.1732 29.9395 52.9921 24.1206 52.9921 16.9427C52.9921 9.76478 47.1732 3.94592 39.9953 3.94592C32.8174 3.94592 26.9985 9.76478 26.9985 16.9427C26.9985 24.1206 32.8174 29.9395 39.9953 29.9395Z" fill="#EC4942"/>
<path d="M39.9956 14.3812C33.9113 14.3813 27.9617 16.1721 22.8881 19.5303C17.8145 22.8885 13.8415 27.6656 11.4641 33.2662C9.08679 38.8668 8.41029 45.0432 9.51894 51.0257C10.6276 57.0081 13.4724 62.5319 17.6987 66.9088L39.9956 29.9394L62.2895 66.9088C66.5171 62.5327 69.3631 57.009 70.4727 51.0263C71.5822 45.0437 70.9063 38.8668 68.529 33.2658C66.1518 27.6647 62.1785 22.8873 57.1045 19.5291C52.0305 16.1709 46.0803 14.3805 39.9956 14.3812V14.3812ZM17.7468 49.2154C17.1735 49.2154 16.6131 49.0454 16.1365 48.7268C15.6599 48.4082 15.2885 47.9555 15.0692 47.4258C14.85 46.8961 14.7928 46.3133 14.9048 45.7511C15.0169 45.1889 15.2932 44.6725 15.6987 44.2674C16.1043 43.8622 16.6209 43.5865 17.1833 43.475C17.7456 43.3635 18.3283 43.4213 18.8578 43.6411C19.3873 43.8609 19.8396 44.2328 20.1577 44.7098C20.4758 45.1867 20.6452 45.7473 20.6446 46.3206C20.6458 46.7019 20.5717 47.0796 20.4266 47.4323C20.2815 47.7849 20.0683 48.1054 19.799 48.3754C19.5298 48.6455 19.21 48.8597 18.8578 49.0059C18.5056 49.1521 18.1281 49.2274 17.7468 49.2274V49.2154ZM24.8578 37.618C24.2852 37.618 23.7255 37.4482 23.2495 37.1301C22.7734 36.812 22.4024 36.3599 22.1833 35.8309C21.9642 35.302 21.9068 34.7199 22.0185 34.1584C22.1302 33.5968 22.4059 33.081 22.8108 32.6762C23.2156 32.2713 23.7315 31.9956 24.293 31.8839C24.8546 31.7722 25.4366 31.8295 25.9656 32.0487C26.4945 32.2678 26.9466 32.6388 27.2647 33.1149C27.5828 33.5909 27.7526 34.1506 27.7526 34.7232C27.7542 35.1043 27.6805 35.482 27.5357 35.8346C27.3909 36.1872 27.178 36.5078 26.909 36.7779C26.64 37.0479 26.3204 37.2623 25.9683 37.4085C25.6163 37.5547 25.2389 37.63 24.8578 37.63V37.618ZM55.1425 37.618C54.57 37.618 54.0103 37.4482 53.5342 37.1301C53.0582 36.812 52.6871 36.3599 52.468 35.8309C52.2489 35.302 52.1916 34.7199 52.3033 34.1584C52.415 33.5968 52.6907 33.081 53.0956 32.6762C53.5004 32.2713 54.0162 31.9956 54.5778 31.8839C55.1393 31.7722 55.7214 31.8295 56.2503 32.0487C56.7793 32.2678 57.2314 32.6388 57.5495 33.1149C57.8676 33.5909 58.0374 34.1506 58.0374 34.7232C58.0386 35.1042 57.9646 35.4817 57.8197 35.8342C57.6748 36.1866 57.4618 36.507 57.1929 36.777C56.924 37.047 56.6045 37.2613 56.2526 37.4077C55.9008 37.5541 55.5236 37.6296 55.1425 37.63V37.618ZM62.2505 49.2154C61.6771 49.216 61.1164 49.0465 60.6394 48.7283C60.1624 48.4101 59.7905 47.9575 59.5708 47.4279C59.3511 46.8983 59.2935 46.3153 59.4052 45.7529C59.5169 45.1905 59.793 44.6739 60.1984 44.2684C60.6039 43.863 61.1205 43.5869 61.6829 43.4752C62.2453 43.3635 62.8282 43.4211 63.3579 43.6408C63.8875 43.8605 64.34 44.2324 64.6582 44.7094C64.9764 45.1864 65.1459 45.7472 65.1454 46.3206C65.1469 46.7017 65.0732 47.0794 64.9285 47.432C64.7837 47.7846 64.5707 48.1052 64.3017 48.3753C64.0328 48.6453 63.7131 48.8597 63.3611 49.0059C63.0091 49.1521 62.6317 49.2274 62.2505 49.2274V49.2154Z" fill="#EC4942"/>
<path d="M27.7405 5.78968C27.168 5.78968 26.6083 5.6199 26.1323 5.30181C25.6562 4.98372 25.2852 4.53161 25.0661 4.00264C24.847 3.47368 24.7896 2.89163 24.9013 2.33009C25.013 1.76854 25.2887 1.25275 25.6936 0.847894C26.0984 0.443043 26.6142 0.167322 27.1758 0.055624C27.7373 -0.0560743 28.3194 0.00125708 28.8484 0.220361C29.3773 0.439465 29.8294 0.810515 30.1475 1.28657C30.4656 1.76263 30.6354 2.32232 30.6354 2.89487C30.6358 3.27513 30.5612 3.65172 30.4158 4.00312C30.2705 4.35452 30.0573 4.67379 29.7884 4.94268C29.5195 5.21157 29.2002 5.4248 28.8488 5.57014C28.4974 5.71548 28.1208 5.79007 27.7405 5.78968V5.78968Z" fill="#EC4942"/>
<path d="M52.2449 5.78968C51.6725 5.78908 51.1131 5.61883 50.6374 5.30038C50.1617 4.98193 49.7912 4.52961 49.5725 4.00059C49.3539 3.47157 49.297 2.8896 49.409 2.32825C49.5211 1.76691 49.797 1.25138 50.202 0.84683C50.6069 0.442279 51.1228 0.166858 51.6842 0.0554029C52.2457 -0.0560522 52.8276 0.00146126 53.3564 0.220653C53.8852 0.439845 54.3371 0.810873 54.6551 1.28686C54.973 1.76285 55.1427 2.32245 55.1427 2.89486C55.1427 3.27527 55.0678 3.65192 54.9221 4.00334C54.7764 4.35475 54.5629 4.67401 54.2938 4.94286C54.0247 5.21171 53.7052 5.42491 53.3536 5.57021C53.002 5.71551 52.6253 5.79007 52.2449 5.78968V5.78968Z" fill="#EC4942"/>
<path d="M27.4702 63.5785L39.9955 71.1069V79.1788L27.4702 63.5785Z" fill="#EC4942"/>
<path d="M52.5209 63.5785L39.9956 71.1069V79.1788L52.5209 63.5785Z" fill="#EC4942"/>
</svg>
