
<?xml version="1.0" encoding="UTF-8"?>
<svg xmlns="http://www.w3.org/2000/svg" xmlns:xlink="http://www.w3.org/1999/xlink" width="80px" height="80px" viewBox="0 0 80 21" version="1.1">
<g id="surface1">
<path style=" stroke:none;fill-rule:nonzero;fill:rgb(7.45098%,44.313725%,98.039216%);fill-opacity:1;" d="M 74.511719 5.292969 C 73.898438 4.707031 73.074219 4.382812 72.214844 4.386719 C 71.355469 4.382812 70.527344 4.707031 69.914062 5.292969 C 69.300781 5.878906 68.953125 6.675781 68.945312 7.511719 C 68.953125 8.347656 69.300781 9.144531 69.914062 9.730469 C 70.527344 10.316406 71.355469 10.640625 72.214844 10.636719 C 73.074219 10.640625 73.898438 10.316406 74.511719 9.730469 C 75.125 9.144531 75.472656 8.347656 75.480469 7.511719 C 75.472656 6.675781 75.125 5.878906 74.511719 5.292969 Z M 74.191406 7.769531 L 72.480469 7.769531 L 72.480469 9.414062 L 71.945312 9.414062 L 71.945312 7.769531 L 70.230469 7.769531 L 70.230469 7.257812 L 71.945312 7.257812 L 71.945312 5.609375 L 72.480469 5.609375 L 72.480469 7.257812 L 74.191406 7.257812 Z M 37.34375 14.734375 L 37.34375 14.84375 L 33.257812 14.84375 L 33.257812 14.734375 C 33.464844 14.59375 33.628906 14.410156 33.746094 14.195312 C 33.847656 13.890625 33.890625 13.574219 33.878906 13.257812 C 33.882812 12.910156 33.890625 11.980469 33.890625 10.464844 C 33.910156 10.199219 33.835938 9.929688 33.675781 9.710938 C 33.617188 9.636719 33.542969 9.574219 33.457031 9.53125 C 33.371094 9.488281 33.277344 9.460938 33.179688 9.460938 C 33.03125 9.46875 32.890625 9.519531 32.765625 9.601562 C 32.640625 9.679688 32.542969 9.792969 32.476562 9.921875 C 32.484375 9.996094 32.492188 10.101562 32.492188 10.246094 L 32.492188 13.25 C 32.472656 13.566406 32.507812 13.882812 32.589844 14.1875 C 32.691406 14.402344 32.851562 14.589844 33.050781 14.730469 L 33.050781 14.832031 L 28.984375 14.832031 L 28.984375 14.726562 C 29.1875 14.582031 29.355469 14.394531 29.476562 14.179688 C 29.574219 13.878906 29.621094 13.5625 29.605469 13.246094 C 29.625 11.984375 29.628906 11.050781 29.628906 10.457031 C 29.652344 10.1875 29.570312 9.917969 29.402344 9.703125 C 29.34375 9.628906 29.265625 9.566406 29.175781 9.523438 C 29.089844 9.480469 28.992188 9.453125 28.894531 9.453125 C 28.746094 9.460938 28.605469 9.507812 28.484375 9.589844 C 28.363281 9.671875 28.265625 9.785156 28.203125 9.914062 L 28.203125 13.242188 C 28.1875 13.558594 28.21875 13.875 28.300781 14.179688 C 28.40625 14.394531 28.5625 14.582031 28.761719 14.722656 L 28.761719 14.828125 L 24.707031 14.828125 L 24.707031 14.722656 C 24.910156 14.582031 25.074219 14.398438 25.1875 14.1875 C 25.28125 13.878906 25.316406 13.558594 25.300781 13.242188 L 25.300781 10.617188 C 25.320312 10.214844 25.285156 9.816406 25.195312 9.425781 C 25.085938 9.164062 24.925781 8.925781 24.726562 8.722656 L 24.726562 8.632812 C 25.890625 8.558594 27.042969 8.351562 28.160156 8.015625 L 28.160156 9.410156 C 28.765625 8.5 29.515625 8.042969 30.40625 8.042969 C 30.574219 8.042969 30.742188 8.0625 30.90625 8.09375 C 31.101562 8.136719 31.292969 8.199219 31.472656 8.28125 C 31.699219 8.382812 31.894531 8.53125 32.054688 8.714844 C 32.238281 8.929688 32.363281 9.179688 32.425781 9.449219 C 33.03125 8.511719 33.792969 8.042969 34.710938 8.042969 C 34.902344 8.042969 35.09375 8.066406 35.277344 8.113281 C 35.507812 8.179688 35.730469 8.269531 35.9375 8.386719 C 36.207031 8.542969 36.425781 8.777344 36.554688 9.058594 C 36.726562 9.425781 36.808594 9.828125 36.796875 10.230469 L 36.75 13.257812 L 36.75 13.261719 C 36.734375 13.574219 36.769531 13.890625 36.855469 14.195312 C 36.96875 14.410156 37.136719 14.597656 37.34375 14.734375 Z M 24.921875 13.351562 C 24.777344 13.652344 24.601562 13.804688 24.394531 13.804688 C 24.195312 13.804688 24.097656 13.65625 24.097656 13.363281 L 24.148438 10.835938 C 24.15625 10.527344 24.15625 10.308594 24.144531 10.132812 C 24.117188 9.882812 24.058594 9.636719 23.964844 9.402344 C 23.878906 9.136719 23.726562 8.894531 23.523438 8.691406 C 23.269531 8.476562 22.972656 8.316406 22.648438 8.21875 C 22.195312 8.074219 21.722656 8.007812 21.246094 8.019531 C 20.410156 7.980469 19.578125 8.171875 18.847656 8.574219 C 18.308594 8.871094 17.875 9.328125 17.609375 9.878906 L 19.476562 10.6875 L 19.558594 10.675781 C 19.625 10.132812 19.773438 9.597656 19.992188 9.09375 C 20.195312 8.648438 20.460938 8.421875 20.777344 8.421875 C 21.144531 8.421875 21.332031 8.664062 21.332031 9.132812 L 21.320312 10.371094 C 20.773438 10.488281 20.230469 10.632812 19.703125 10.804688 C 19.246094 10.960938 18.804688 11.148438 18.382812 11.371094 C 18.003906 11.5625 17.675781 11.835938 17.417969 12.167969 C 17.199219 12.460938 17.082031 12.816406 17.082031 13.183594 C 17.078125 13.402344 17.121094 13.621094 17.210938 13.828125 C 17.296875 14.03125 17.429688 14.214844 17.597656 14.363281 C 17.976562 14.6875 18.472656 14.855469 18.976562 14.832031 C 19.484375 14.84375 19.984375 14.695312 20.398438 14.40625 C 20.785156 14.140625 21.09375 13.78125 21.292969 13.363281 L 21.320312 13.363281 C 21.285156 13.738281 21.40625 14.109375 21.65625 14.398438 C 21.8125 14.558594 22.007812 14.679688 22.21875 14.757812 C 22.433594 14.832031 22.660156 14.863281 22.886719 14.839844 L 22.890625 14.839844 C 23.40625 14.851562 23.910156 14.691406 24.320312 14.382812 C 24.652344 14.132812 24.902344 13.789062 25.039062 13.402344 Z M 21.253906 12.851562 C 21.199219 12.960938 21.117188 13.054688 21.015625 13.125 C 20.917969 13.203125 20.792969 13.25 20.660156 13.253906 L 20.660156 13.261719 C 20.292969 13.261719 20.105469 12.9375 20.105469 12.296875 C 20.105469 11.421875 20.507812 10.886719 21.304688 10.695312 Z M 12.140625 9.859375 L 17.082031 9.859375 L 17.082031 9.960938 C 16.902344 10.113281 16.761719 10.304688 16.667969 10.515625 C 16.59375 10.816406 16.566406 11.125 16.582031 11.433594 L 16.582031 14.613281 L 16.464844 14.613281 C 15.996094 14.324219 15.457031 14.164062 14.90625 14.148438 C 14.421875 14.191406 13.949219 14.308594 13.503906 14.492188 C 12.9375 14.710938 12.335938 14.828125 11.726562 14.839844 C 11.367188 14.835938 11.003906 14.804688 10.648438 14.753906 C 10.242188 14.660156 9.851562 14.515625 9.480469 14.324219 C 9.0625 14.121094 8.6875 13.847656 8.367188 13.515625 C 8.007812 13.117188 7.734375 12.648438 7.570312 12.144531 C 7.351562 11.507812 7.242188 10.839844 7.253906 10.171875 C 7.238281 9.410156 7.378906 8.652344 7.664062 7.945312 C 7.902344 7.347656 8.292969 6.820312 8.800781 6.410156 C 9.296875 6.023438 9.867188 5.734375 10.476562 5.5625 C 11.160156 5.371094 11.871094 5.277344 12.582031 5.285156 C 13.730469 5.273438 14.878906 5.4375 15.976562 5.773438 L 16.230469 9.03125 L 16.128906 9.03125 C 15.640625 8.195312 15.054688 7.421875 14.382812 6.71875 C 13.753906 6.070312 13.167969 5.742188 12.628906 5.742188 C 12.109375 5.742188 11.664062 6.078125 11.292969 6.75 C 10.921875 7.421875 10.738281 8.527344 10.738281 10.074219 C 10.730469 10.777344 10.785156 11.476562 10.910156 12.167969 C 10.976562 12.632812 11.132812 13.082031 11.363281 13.496094 C 11.511719 13.75 11.710938 13.96875 11.953125 14.140625 C 12.144531 14.269531 12.375 14.339844 12.605469 14.34375 C 13.21875 14.34375 13.519531 13.980469 13.519531 13.25 L 13.519531 11.691406 C 13.519531 10.617188 13.058594 10.0625 12.140625 10.03125 Z M 62.777344 13.351562 C 62.632812 13.652344 62.457031 13.808594 62.25 13.808594 C 62.054688 13.808594 61.953125 13.65625 61.953125 13.363281 L 62.007812 10.835938 C 62.015625 10.527344 62.011719 10.308594 62 10.132812 C 61.976562 9.882812 61.914062 9.636719 61.824219 9.402344 C 61.734375 9.136719 61.582031 8.894531 61.382812 8.695312 C 61.128906 8.480469 60.832031 8.316406 60.511719 8.21875 C 60.058594 8.074219 59.582031 8.007812 59.105469 8.019531 C 58.269531 7.980469 57.441406 8.171875 56.710938 8.574219 C 56.167969 8.871094 55.734375 9.328125 55.46875 9.878906 L 57.335938 10.6875 L 57.417969 10.675781 C 57.488281 10.132812 57.632812 9.597656 57.855469 9.09375 C 58.054688 8.648438 58.320312 8.421875 58.636719 8.421875 C 59.011719 8.421875 59.191406 8.65625 59.191406 9.132812 L 59.179688 10.371094 C 58.632812 10.488281 58.09375 10.632812 57.5625 10.804688 C 57.105469 10.960938 56.667969 11.148438 56.242188 11.371094 C 55.863281 11.5625 55.535156 11.835938 55.28125 12.167969 C 55.058594 12.460938 54.941406 12.816406 54.945312 13.183594 C 54.9375 13.402344 54.980469 13.625 55.070312 13.828125 C 55.160156 14.03125 55.292969 14.214844 55.457031 14.363281 C 55.835938 14.6875 56.332031 14.855469 56.835938 14.832031 C 57.347656 14.84375 57.84375 14.695312 58.261719 14.40625 C 58.644531 14.140625 58.953125 13.78125 59.152344 13.363281 L 59.179688 13.363281 C 59.144531 13.738281 59.265625 14.109375 59.515625 14.398438 C 59.671875 14.558594 59.867188 14.679688 60.078125 14.757812 C 60.292969 14.835938 60.523438 14.863281 60.75 14.839844 L 60.746094 14.84375 C 61.265625 14.859375 61.769531 14.695312 62.175781 14.386719 C 62.511719 14.132812 62.761719 13.792969 62.898438 13.402344 Z M 59.113281 12.851562 C 59.058594 12.957031 58.976562 13.050781 58.875 13.125 C 58.777344 13.203125 58.652344 13.25 58.523438 13.253906 L 58.519531 13.253906 L 58.519531 13.261719 C 58.152344 13.261719 57.964844 12.9375 57.964844 12.296875 C 57.964844 11.421875 58.367188 10.886719 59.164062 10.695312 Z M 54.855469 13.089844 L 54.941406 13.175781 C 54.710938 13.617188 54.382812 14.007812 53.976562 14.3125 C 53.511719 14.667969 52.929688 14.851562 52.339844 14.835938 L 52.339844 14.839844 C 51.820312 14.859375 51.3125 14.683594 50.925781 14.34375 C 50.730469 14.148438 50.582031 13.917969 50.488281 13.664062 C 50.390625 13.410156 50.355469 13.140625 50.375 12.871094 L 50.375 8.585938 L 49.796875 8.585938 L 49.796875 8.300781 C 51.484375 7.417969 52.589844 6.640625 53.109375 5.96875 L 53.285156 5.96875 L 53.285156 8.066406 L 54.671875 8.066406 L 54.585938 8.578125 L 53.3125 8.578125 L 53.273438 12.386719 C 53.265625 13.109375 53.527344 13.476562 54.070312 13.476562 C 54.222656 13.46875 54.371094 13.429688 54.503906 13.363281 C 54.640625 13.296875 54.761719 13.203125 54.855469 13.089844 Z M 67.925781 8.035156 C 68.125 8.042969 68.324219 8.074219 68.515625 8.128906 L 68.105469 11.09375 L 67.996094 11.09375 C 67.277344 10.101562 66.71875 9.601562 66.320312 9.597656 C 66.257812 9.589844 66.195312 9.605469 66.140625 9.636719 C 66.085938 9.667969 66.042969 9.71875 66.019531 9.773438 L 66.019531 13.25 C 65.996094 13.570312 66.046875 13.894531 66.171875 14.191406 C 66.347656 14.425781 66.578125 14.613281 66.84375 14.738281 L 66.84375 14.84375 L 62.449219 14.84375 L 62.429688 14.722656 C 62.636719 14.585938 62.804688 14.398438 62.921875 14.183594 C 63.019531 13.878906 63.054688 13.554688 63.035156 13.238281 L 63.035156 10.359375 C 63.054688 10.027344 63.015625 9.699219 62.917969 9.382812 C 62.800781 9.140625 62.644531 8.917969 62.449219 8.726562 L 62.449219 8.632812 C 63.640625 8.566406 64.820312 8.359375 65.957031 8.015625 L 65.925781 9.335938 L 65.972656 9.335938 C 66.085938 8.976562 66.316406 8.664062 66.625 8.433594 C 66.996094 8.15625 67.457031 8.015625 67.925781 8.035156 Z M 43.300781 8.726562 C 42.617188 8.222656 41.769531 7.972656 40.914062 8.015625 C 39.945312 7.984375 38.992188 8.277344 38.222656 8.851562 C 37.859375 9.160156 37.570312 9.546875 37.386719 9.980469 C 37.203125 10.414062 37.125 10.882812 37.160156 11.351562 C 37.132812 11.832031 37.210938 12.3125 37.394531 12.757812 C 37.582031 13.203125 37.863281 13.601562 38.226562 13.929688 C 38.96875 14.546875 39.921875 14.871094 40.898438 14.839844 L 40.914062 14.839844 C 41.679688 14.875 42.429688 14.636719 43.03125 14.179688 C 43.621094 13.652344 44.023438 12.953125 44.171875 12.183594 L 44.089844 12.144531 C 43.875 12.445312 43.585938 12.683594 43.246094 12.839844 C 42.90625 12.992188 42.53125 13.054688 42.160156 13.023438 C 41.894531 13.027344 41.632812 12.992188 41.375 12.925781 C 41.121094 12.855469 40.878906 12.742188 40.664062 12.59375 C 40.417969 12.421875 40.226562 12.183594 40.113281 11.910156 C 39.96875 11.570312 39.898438 11.203125 39.90625 10.835938 L 39.90625 10.808594 L 44.179688 10.796875 L 44.179688 10.648438 C 44.195312 10.285156 44.121094 9.921875 43.96875 9.585938 C 43.816406 9.253906 43.589844 8.960938 43.300781 8.726562 Z M 39.90625 10.40625 C 39.90625 9.90625 39.972656 9.40625 40.113281 8.921875 C 40.226562 8.59375 40.417969 8.425781 40.683594 8.425781 L 40.691406 8.433594 C 41.203125 8.433594 41.476562 9.097656 41.5 10.40625 Z M 49.554688 11.320312 C 49.90625 11.710938 50.09375 12.21875 50.074219 12.738281 C 50.085938 13.023438 50.03125 13.308594 49.914062 13.574219 C 49.792969 13.835938 49.617188 14.070312 49.394531 14.257812 C 48.832031 14.671875 48.132812 14.878906 47.425781 14.839844 C 46.539062 14.816406 45.660156 14.683594 44.804688 14.453125 L 44.519531 12.046875 L 44.621094 12.015625 C 45.027344 12.621094 45.492188 13.183594 46.011719 13.703125 C 46.339844 14.097656 46.808594 14.355469 47.328125 14.421875 C 47.484375 14.425781 47.640625 14.378906 47.765625 14.285156 C 47.824219 14.238281 47.871094 14.179688 47.902344 14.113281 C 47.933594 14.042969 47.945312 13.96875 47.941406 13.894531 C 47.933594 13.773438 47.898438 13.652344 47.839844 13.542969 C 47.777344 13.433594 47.695312 13.335938 47.59375 13.261719 C 47.226562 12.972656 46.839844 12.710938 46.429688 12.488281 C 46.195312 12.355469 45.96875 12.214844 45.75 12.0625 C 45.605469 11.960938 45.40625 11.804688 45.164062 11.597656 C 44.929688 11.40625 44.746094 11.167969 44.628906 10.898438 C 44.511719 10.625 44.457031 10.335938 44.460938 10.042969 C 44.449219 9.757812 44.507812 9.476562 44.632812 9.21875 C 44.753906 8.960938 44.9375 8.734375 45.167969 8.558594 C 45.703125 8.175781 46.359375 7.984375 47.023438 8.015625 C 47.828125 8.042969 48.625 8.15625 49.402344 8.34375 L 49.640625 10.589844 L 49.535156 10.613281 C 49.148438 10.0625 48.707031 9.546875 48.21875 9.078125 C 47.914062 8.71875 47.484375 8.484375 47.011719 8.417969 C 46.871094 8.414062 46.734375 8.464844 46.628906 8.554688 C 46.574219 8.601562 46.53125 8.664062 46.503906 8.730469 C 46.476562 8.796875 46.464844 8.871094 46.46875 8.941406 C 46.46875 9.066406 46.5 9.191406 46.558594 9.296875 C 46.65625 9.4375 46.785156 9.550781 46.929688 9.636719 C 47.082031 9.738281 47.238281 9.835938 47.398438 9.921875 L 47.472656 9.957031 C 47.605469 10.027344 47.820312 10.136719 48.105469 10.285156 C 48.648438 10.542969 49.140625 10.894531 49.554688 11.320312 Z M 49.554688 11.320312 "/>
</g>
</svg>
