<?xml version="1.0" encoding="UTF-8"?>
<svg xmlns="http://www.w3.org/2000/svg" xmlns:xlink="http://www.w3.org/1999/xlink" viewBox="206 206 88 88" width="40" height="40" version="1.1">
  <circle style="fill: rgb(116, 116, 219);" cx="107.936" cy="43.375" r="44" transform="matrix(1, 0, 0, 1, 142.063644, 206.625351)"></circle>
  <path style="stroke: none; fill-rule: evenodd; fill-opacity: 1; fill: rgb(255, 255, 255);" d="M 96.16 22.172 C 95.406 22.285 94.855 22.414 94.664 22.515 C 94.542 22.582 94.187 22.746 93.875 22.879 C 92.617 23.418 91.003 24.867 90.515 25.898 C 90.41 26.117 90.277 26.355 90.218 26.429 C 90.035 26.66 89.679 27.902 89.464 29.066 C 89.273 30.101 89.175 30.558 88.898 31.797 C 88.828 32.109 88.734 32.652 88.691 33 C 88.644 33.347 88.585 33.672 88.554 33.726 C 88.523 33.777 88.417 34.265 88.32 34.808 C 88.222 35.355 88.089 36.097 88.023 36.461 C 87.96 36.824 87.867 37.297 87.816 37.515 C 87.289 39.84 87.273 40.273 87.722 40.363 C 88.085 40.437 92.714 40.437 93.078 40.363 C 93.425 40.293 93.457 40.218 93.695 38.836 C 93.8 38.23 93.96 37.48 94.058 37.164 C 94.152 36.851 94.226 36.386 94.226 36.132 C 94.226 35.882 94.281 35.504 94.351 35.297 C 94.421 35.09 94.523 34.652 94.574 34.328 C 94.625 34.004 94.703 33.648 94.742 33.535 C 94.785 33.425 94.843 33.058 94.878 32.718 C 94.914 32.382 95.015 31.875 95.109 31.597 C 95.203 31.32 95.281 30.968 95.281 30.82 C 95.281 29.746 95.859 28.746 96.64 28.465 L 97.171 28.277 L 126.07 28.277 L 126.125 27.859 C 126.156 27.629 126.242 27.222 126.316 26.957 C 126.39 26.691 126.503 26.117 126.566 25.679 C 126.628 25.246 126.718 24.73 126.769 24.535 C 127.238 22.738 127.269 22.261 126.929 22.168 C 126.726 22.113 96.527 22.117 96.16 22.172 M 125.96 28.527 C 125.941 28.558 125.898 28.859 125.863 29.195 C 125.828 29.531 125.722 29.945 125.632 30.117 C 125.539 30.289 125.46 30.609 125.46 30.828 C 125.453 31.211 125.429 31.379 125.207 32.543 C 125.113 33.035 124.929 33.683 124.75 34.148 L 124.675 34.347 L 112.8 34.347 C 105.636 34.347 100.839 34.382 100.707 34.429 C 100.527 34.5 100.48 34.593 100.429 34.98 C 100.312 35.886 99.968 37.66 99.875 37.832 C 99.824 37.925 99.757 38.3 99.726 38.664 C 99.695 39.023 99.628 39.511 99.578 39.742 C 99.417 40.48 97.703 40.414 117.148 40.41 C 126.683 40.406 134.683 40.379 134.925 40.347 C 135.507 40.269 135.511 40.14 134.949 39.48 C 134.695 39.179 134.339 38.742 134.16 38.511 C 133.984 38.277 132.941 36.961 131.847 35.582 C 130.753 34.199 129.394 32.484 128.828 31.765 C 128.261 31.047 127.632 30.261 127.433 30.023 C 127.234 29.785 126.917 29.379 126.73 29.121 C 126.41 28.687 126.035 28.394 125.96 28.527 M 80.511 46.519 C 80.421 46.625 81.605 48.238 82.855 49.715 C 83.011 49.902 83.21 50.16 83.292 50.289 C 83.375 50.418 83.703 50.84 84.015 51.226 C 84.332 51.609 84.707 52.078 84.851 52.265 C 85 52.449 85.218 52.722 85.347 52.867 C 85.472 53.015 85.73 53.336 85.917 53.582 C 86.105 53.828 86.417 54.226 86.613 54.468 C 86.808 54.711 87.042 55.015 87.14 55.152 C 87.417 55.535 88.839 57.316 89.242 57.781 C 89.773 58.398 89.929 58.34 90.05 57.484 C 90.101 57.117 90.207 56.679 90.285 56.515 C 90.359 56.351 90.453 55.922 90.488 55.558 C 90.562 54.793 90.812 53.554 90.992 53.047 L 91.117 52.695 L 103.078 52.652 C 109.656 52.629 115.078 52.582 115.132 52.547 C 115.269 52.457 115.484 51.621 115.695 50.363 C 115.796 49.757 115.957 49.007 116.054 48.691 C 116.148 48.379 116.226 47.941 116.226 47.722 C 116.23 47.507 116.265 47.168 116.312 46.976 C 116.382 46.687 116.371 46.605 116.25 46.515 C 116.027 46.347 80.648 46.351 80.511 46.519 M 122.542 46.523 C 122.476 46.59 122.335 47.152 122.226 47.777 C 122.121 48.402 121.972 49.097 121.898 49.32 C 121.828 49.547 121.746 49.98 121.718 50.289 C 121.675 50.793 121.589 51.222 121.195 52.961 C 121.128 53.25 121.054 53.726 121.027 54.019 C 121.003 54.312 120.925 54.687 120.859 54.855 C 120.789 55.023 120.707 55.379 120.671 55.644 C 120.476 57.199 120.136 57.925 119.441 58.273 L 119.046 58.468 L 104.488 58.465 L 89.925 58.461 L 89.839 58.746 C 89.789 58.902 89.722 59.172 89.691 59.34 C 89.66 59.507 89.578 59.816 89.507 60.023 C 89.441 60.234 89.386 60.597 89.386 60.836 C 89.386 61.074 89.328 61.441 89.257 61.648 C 89.187 61.855 89.085 62.297 89.035 62.632 C 88.98 62.968 88.917 63.273 88.894 63.308 C 88.765 63.523 88.675 64.379 88.773 64.496 C 88.863 64.601 91.05 64.621 104.402 64.621 C 120.89 64.621 120.773 64.625 121.503 64.222 C 121.625 64.156 121.824 64.05 121.945 63.992 C 123.343 63.297 125.183 61.625 125.421 60.836 C 125.457 60.715 125.562 60.507 125.656 60.375 C 125.832 60.129 126.027 59.531 126.179 58.769 C 126.226 58.527 126.32 58.168 126.386 57.976 C 126.453 57.781 126.535 57.351 126.562 57.015 C 126.593 56.683 126.652 56.347 126.691 56.269 C 126.765 56.132 126.964 55.16 127.152 54.015 C 127.203 53.726 127.316 53.172 127.41 52.781 C 127.5 52.394 127.578 52 127.578 51.906 C 127.578 51.816 127.632 51.5 127.699 51.207 C 127.769 50.914 127.933 50.078 128.062 49.351 C 128.195 48.625 128.355 47.836 128.421 47.597 C 128.617 46.91 128.585 46.593 128.32 46.488 C 127.945 46.347 122.687 46.379 122.542 46.523" transform="matrix(1, 0, 0, 1, 142.063644, 206.625351)"></path>
</svg>