<svg width="80" height="80" viewBox="0 0 80 80" fill="none" xmlns="http://www.w3.org/2000/svg">
<circle cx="40" cy="40" r="40" fill="#798CE5"/>
<path fill-rule="evenodd" clip-rule="evenodd" d="M66.5389 16.4469C66.5961 16.5142 66.6305 16.5979 66.6372 16.6861C66.6727 17.1183 69.8081 59.9921 40.5108 69.9774C40.4228 70.0075 40.3273 70.0075 40.2393 69.9774C10.9428 59.9921 14.0783 17.1183 14.1128 16.6861C14.1199 16.5982 14.1543 16.5148 14.2113 16.4475C14.2683 16.3803 14.3449 16.3327 14.4303 16.3114L40.2757 10.0115C40.341 9.99615 40.409 9.99615 40.4743 10.0115L66.3187 16.3114C66.4046 16.3321 66.4816 16.3796 66.5389 16.4469ZM61.7822 21.0246C61.8288 21.0791 61.8572 21.1468 61.8632 21.2184H61.8661C61.8949 21.5709 64.4597 56.5733 40.4865 64.7242C40.4161 64.751 40.3383 64.751 40.2678 64.7242C16.2937 56.5733 18.8594 21.5709 18.8882 21.2184C18.8938 21.1468 18.9219 21.0789 18.9684 21.0244C19.0149 20.9699 19.0775 20.9315 19.1472 20.9148L40.2927 15.7685C40.3463 15.7551 40.4023 15.7551 40.4558 15.7685L61.6033 20.9148C61.6729 20.9317 61.7355 20.9701 61.7822 21.0246Z" fill="white"/>
<path d="M40.0757 23.4505L25.9761 26.8795C25.9296 26.8913 25.888 26.9174 25.857 26.9541C25.8261 26.9908 25.8073 27.0362 25.8034 27.084C25.7852 27.3194 24.0751 50.6547 40.0555 56.0893C40.1035 56.1046 40.1553 56.1046 40.2033 56.0893C56.1837 50.6538 54.4746 27.3194 54.4553 27.0831C54.4517 27.0351 54.433 26.9895 54.4018 26.9529C54.3706 26.9163 54.3285 26.8906 54.2818 26.8795L40.1831 23.4495C40.1479 23.4402 40.1109 23.4402 40.0757 23.4495" fill="white"/>
</svg>
