<svg width="40" height="40" viewBox="0 0 40 40" fill="none" xmlns="http://www.w3.org/2000/svg">
<circle cx="20" cy="20" r="20" fill="white"/>
<path fill-rule="evenodd" clip-rule="evenodd" d="M12.2516 18.1177L19.9972 25.9861L27.6602 18.2016L33.9431 24.5842L26.6432 31.9999L24.7652 30.1431L30.2373 24.5842L27.6602 21.9662L19.9972 29.7506L12.2516 21.8822L9.70587 24.4683L15.2612 30.1117L13.3832 31.9686L6 24.4683L12.2516 18.1177Z" fill="#05082B"/>
<path fill-rule="evenodd" clip-rule="evenodd" d="M27.6915 21.8823L19.9459 14.0139L12.283 21.7982L6 15.4157L13.3 8L15.1779 9.85688L9.70586 15.4157L12.283 18.0337L19.9459 10.2493L27.6915 18.1176L30.2372 15.5316L24.682 9.88819L26.5599 8.0313L33.9431 15.5316L27.6915 21.8823Z" fill="#05082B"/>
<path fill-rule="evenodd" clip-rule="evenodd" d="M18.7893 31.8158V26.8584H21.3187V31.8158H18.7893Z" fill="#05082B"/>
<path fill-rule="evenodd" clip-rule="evenodd" d="M18.7893 13.142V8.18457H21.3187V13.142H18.7893Z" fill="#05082B"/>
</svg>
