<svg id="Layer_1" data-name="Layer 1" xmlns="http://www.w3.org/2000/svg" xmlns:xlink="http://www.w3.org/1999/xlink" viewBox="0 0 1200 1200">
  <defs>
    <style>
      .cls-1 {
        fill: none;
      }

      .cls-2 {
        fill: #fff;
      }

      .cls-3 {
        clip-path: url(#clip-path);
      }

      .cls-4 {
        fill: url(#linear-gradient);
      }

      .cls-5 {
        fill: url(#linear-gradient-2);
      }

      .cls-10, .cls-11, .cls-12, .cls-6, .cls-7, .cls-8 {
        opacity: 0.49;
        isolation: isolate;
      }

      .cls-6 {
        fill: url(#linear-gradient-3);
      }

      .cls-7 {
        fill: url(#linear-gradient-4);
      }

      .cls-8 {
        fill: url(#linear-gradient-5);
      }

      .cls-9 {
        fill: url(#linear-gradient-6);
      }

      .cls-10 {
        fill: url(#linear-gradient-7);
      }

      .cls-11 {
        fill: url(#linear-gradient-8);
      }

      .cls-12 {
        fill: url(#linear-gradient-9);
      }
    </style>
    <clipPath id="clip-path" transform="translate(87.5 87.5)">
      <circle class="cls-1" cx="512.5" cy="512.5" r="512.5"/>
    </clipPath>
    <linearGradient id="linear-gradient" x1="512.5" y1="822.1848" x2="512.5" y2="83.02989" gradientTransform="matrix(1, 0, 0, -1, 87.5, 1113.5)" gradientUnits="userSpaceOnUse">
      <stop offset="0" stop-color="#1d2643"/>
      <stop offset="1" stop-color="#12142c"/>
    </linearGradient>
    <linearGradient id="linear-gradient-2" x1="344.13646" y1="-1015.39966" x2="344.13646" y2="-126.89331" gradientTransform="translate(0 1240)" gradientUnits="userSpaceOnUse">
      <stop offset="0.0051" stop-color="#00bfe1"/>
      <stop offset="0.9651" stop-color="#2738ab"/>
    </linearGradient>
    <linearGradient id="linear-gradient-3" x1="174.14593" y1="-703.68238" x2="231.38658" y2="-655.80817" gradientTransform="translate(-0.9371 1239.39001)" gradientUnits="userSpaceOnUse">
      <stop offset="0.03489" stop-color="#1b1464"/>
      <stop offset="1" stop-color="#1b1464" stop-opacity="0"/>
    </linearGradient>
    <linearGradient id="linear-gradient-4" x1="3291.73779" y1="1459.19926" x2="3264.47083" y2="1497.86885" gradientTransform="translate(3687.00146 2148.09302) rotate(180)" xlink:href="#linear-gradient-3"/>
    <linearGradient id="linear-gradient-5" x1="3368.57913" y1="1814.0298" x2="3389.04285" y2="1763.40903" gradientTransform="translate(3687.00146 2148.09302) rotate(180)" xlink:href="#linear-gradient-3"/>
    <linearGradient id="linear-gradient-6" x1="680.8636" y1="-1015.39966" x2="680.8636" y2="-126.89331" xlink:href="#linear-gradient-2"/>
    <linearGradient id="linear-gradient-7" x1="3033.35266" y1="1233.2948" x2="3090.5933" y2="1281.16874" gradientTransform="translate(3885.13013 1722.65997) rotate(180)" xlink:href="#linear-gradient-3"/>
    <linearGradient id="linear-gradient-8" x1="432.53967" y1="-477.7591" x2="405.27258" y2="-439.08956" gradientTransform="translate(197.1916 813.95709)" xlink:href="#linear-gradient-3"/>
    <linearGradient id="linear-gradient-9" x1="509.31195" y1="-122.96102" x2="529.77552" y2="-173.58187" gradientTransform="translate(197.1916 813.95709)" xlink:href="#linear-gradient-3"/>
  </defs>
  <title>circle</title>
  <circle class="cls-2" cx="600" cy="600" r="600"/>
  <g class="cls-3">
    <rect class="cls-4" x="87.5" y="87.5" width="1025" height="1025"/>
    <g>
      <g>
        <path class="cls-5" d="M547.16054,393.57342a5.64715,5.64715,0,0,0-3.96846-3.54628,5.86543,5.86543,0,0,0-5.74156,1.51982l-12.07419,12.07421-2.02646,2.02643L427.4318,310.23612a93.0556,93.0556,0,0,0-131.29634,0L159.60417,446.93629a93.77294,93.77294,0,0,0,0,131.88739L296.30434,714.76393a92.95347,92.95347,0,0,0,131.21192,0l31.072-31.072c4.05287-4.05286,8.95011-9.6256,11.652-16.887A38.63939,38.63939,0,0,0,465.512,631.5111a31.42237,31.42237,0,0,0-4.64392-5.40386,39.09315,39.09315,0,0,0-54.79827.2533l-33.60512,33.52068a14.75251,14.75251,0,0,1-7.34585,4.05287,13.19744,13.19744,0,0,1-7.93688-.50659,18.16644,18.16644,0,0,1-6.92368-4.475L214.57131,523.09661a15.3617,15.3617,0,0,1-4.13731-7.59914,14.93023,14.93023,0,0,1,1.85756-10.63881l.75991-.84435c1.60426-1.60426,137.03792-136.7846,138.22-137.96669a14.82466,14.82466,0,0,1,7.85244-4.13731,15.54574,15.54574,0,0,1,2.78634-.25329,14.22793,14.22793,0,0,1,10.55437,4.475L468.045,461.12137l-4.81281,4.8128-9.37228,9.54114a5.86534,5.86534,0,0,0-1.51982,5.74157,5.64717,5.64717,0,0,0,3.54628,3.96845l86.377,10.55437a13.69728,13.69728,0,0,0,13.50959-13.50959Z" transform="translate(87.5 87.5)"/>
        <path class="cls-6" d="M213.47366,521.9145a14.714,14.714,0,0,1-1.18208-17.14028s-44.91939,49.05668-23.30405,103.26392l28.45457,28.28571,41.37312-68.81448Z" transform="translate(87.5 87.5)"/>
        <path class="cls-7" d="M353.46678,661.65433c50.661,46.6081,106.47247,20.68656,106.47247,20.68656s7.34585-6.75479,10.30107-15.70488c-7.5147-3.63069-61.97524-42.63964-61.97524-42.63964l-32.16972,32.16969C364.52777,670.18229,353.46678,661.65433,353.46678,661.65433Z" transform="translate(87.5 87.5)"/>
        <path class="cls-8" d="M320.03054,397.373s32.423-32.67633,32.50746-32.50745c0,0,8.69678-6.92368,17.81577-.59106,0,0-53.95392-44.41278-111.623-16.54925l-16.80255,16.887Z" transform="translate(87.5 87.5)"/>
      </g>
      <g>
        <path class="cls-9" d="M477.83947,631.5111a5.64717,5.64717,0,0,0,3.96845,3.54628,5.86544,5.86544,0,0,0,5.74157-1.51982l12.07418-12.07419,2.02644-2.02646,95.9181,95.327a93.05564,93.05564,0,0,0,131.29633,0L865.39585,578.06374a93.773,93.773,0,0,0,0-131.88739L728.69571,310.23609a92.95342,92.95342,0,0,0-131.21192,0l-31.072,31.072c-4.05286,4.05287-8.95008,9.62558-11.652,16.887a38.63941,38.63941,0,0,0,4.72839,35.29382,31.42111,31.42111,0,0,0,4.64392,5.40383,39.09316,39.09316,0,0,0,54.7983-.25329l33.6051-33.52068a14.7526,14.7526,0,0,1,7.34585-4.05287,13.19729,13.19729,0,0,1,7.9369.50661,18.16643,18.16643,0,0,1,6.92368,4.47505l135.687,135.68693a15.36192,15.36192,0,0,1,4.13733,7.59915,14.92987,14.92987,0,0,1-1.85758,10.63878l-.75993.84435c-1.60429,1.60428-137.0379,136.7846-138.22,137.96671a14.825,14.825,0,0,1-7.85244,4.13734,15.54558,15.54558,0,0,1-2.78634.25329,14.22793,14.22793,0,0,1-10.55437-4.475L556.87071,564.132l4.8128-4.8128,9.37226-9.54114a5.86543,5.86543,0,0,0,1.51982-5.74156,5.64726,5.64726,0,0,0-3.54628-3.96845l-86.29252-10.55437a13.69727,13.69727,0,0,0-13.50959,13.50959Z" transform="translate(87.5 87.5)"/>
        <path class="cls-10" d="M811.52637,503.17a14.71411,14.71411,0,0,1,1.18211,17.14031s44.9194-49.05671,23.304-103.26392l-28.45458-28.28571L766.1848,457.57512Z" transform="translate(87.5 87.5)"/>
        <path class="cls-11" d="M671.5332,363.43013c-50.661-46.60809-106.47245-20.68656-106.47245-20.68656s-7.34585,6.7548-10.30107,15.70491c7.51473,3.63069,61.97527,42.63964,61.97527,42.63964l32.16969-32.16972C660.47224,354.9022,671.5332,363.43013,671.5332,363.43013Z" transform="translate(87.5 87.5)"/>
        <path class="cls-12" d="M704.885,627.71153s-32.423,32.67633-32.50746,32.50745c0,0-8.69678,6.92368-17.81575.591,0,0,53.954,44.41276,111.623,16.54923l16.80257-16.887Z" transform="translate(87.5 87.5)"/>
      </g>
    </g>
  </g>
</svg>
