<svg width="40" height="40" viewBox="0 0 40 40" fill="none" xmlns="http://www.w3.org/2000/svg">
<circle cx="20" cy="20" r="20" fill="white"/>
<path d="M24.1288 33.2391C24.0747 33.1704 23.9968 33.1245 23.9105 33.1103C22.2806 32.7644 20.714 32.1686 19.2662 31.3438C16.2931 29.6138 14.3979 26.9963 14.3251 24.0148C14.3045 22.8781 14.5389 21.7512 15.0109 20.7171C15.3133 20.0452 16.937 17.6376 17.2058 17.1981C18.3116 15.4653 17.956 15.5745 16.3995 13.4104L14.16 10.0931L12.6454 7.88428C11.7781 8.47493 10.9565 9.12999 10.1875 9.8439C8.62096 11.4155 7.44017 13.3289 6.73786 15.4338C6.03555 17.5387 5.83085 19.7777 6.13983 21.9751C6.44882 24.1725 7.26308 26.2683 8.51865 28.0979C9.77422 29.9274 11.4369 31.441 13.3761 32.5196C8.38742 28.8635 6.11145 23.3822 8.02069 17.8532C8.54179 16.3694 9.30415 14.9818 10.2771 13.7463L11.9176 16.1595C12.0116 16.2992 12.0585 16.4653 12.0514 16.6335C12.0444 16.8017 11.9837 16.9633 11.8784 17.0946C11.095 18.0553 10.4841 19.1446 10.0727 20.3139C7.9759 26.4 13.642 32.7044 19.6273 33.7318C20.7751 33.9278 22.8663 34.1461 23.9469 33.869C24.0105 33.8518 24.0686 33.8185 24.1156 33.7723C24.1625 33.7261 24.1968 33.6685 24.2151 33.6052C24.2334 33.542 24.235 33.475 24.2199 33.4108C24.2048 33.3467 24.1734 33.2876 24.1288 33.2391Z" fill="url(#paint0_linear)"/>
<path d="M16.5739 6.76109C16.628 6.82979 16.7059 6.87574 16.7922 6.88987C18.4219 7.23576 19.9883 7.83162 21.4359 8.65633C24.4084 10.3864 26.3034 13.0039 26.3762 15.9853C26.3968 17.1221 26.1625 18.2489 25.6904 19.2831C25.3881 19.955 23.7647 22.3625 23.496 22.8021C22.3903 24.5349 22.7458 24.4258 24.3021 26.5898L26.5413 29.9071L28.0556 32.1159C28.9228 31.5252 29.7443 30.8702 30.5132 30.1563C32.0794 28.5847 33.2601 26.6713 33.9622 24.5664C34.6645 22.4615 34.8692 20.2224 34.5602 18.0251C34.2513 15.8277 33.4371 13.7319 32.1817 11.9023C30.9263 10.0727 29.2639 8.55917 27.3251 7.48055C32.313 11.1367 34.5886 16.618 32.6796 22.147C32.1586 23.6307 31.3964 25.0183 30.4236 26.2538L28.7834 23.8407C28.6894 23.701 28.6425 23.535 28.6495 23.3667C28.6565 23.1985 28.7172 23.0369 28.8226 22.9057C29.6058 21.9449 30.2166 20.8557 30.6279 19.6862C32.7244 13.6002 27.0591 7.29579 21.0748 6.26838C19.9272 6.07242 17.8363 5.85406 16.7558 6.1312C16.6923 6.14843 16.6342 6.18174 16.5872 6.22794C16.5402 6.27414 16.506 6.33166 16.4877 6.39495C16.4694 6.45825 16.4678 6.52519 16.4828 6.58932C16.498 6.65345 16.5293 6.71261 16.5739 6.76109Z" fill="url(#paint1_linear)"/>
<defs>
<linearGradient id="paint0_linear" x1="11.3661" y1="31.3578" x2="21.8501" y2="13.1977" gradientUnits="userSpaceOnUse">
<stop stop-color="#174E5B"/>
<stop offset="0.07" stop-color="#195A6C"/>
<stop offset="0.21" stop-color="#1E779A"/>
<stop offset="0.4" stop-color="#27A7E3"/>
<stop offset="0.47" stop-color="#2ABAFF"/>
<stop offset="0.7" stop-color="#1DDAF0"/>
<stop offset="1" stop-color="#0EFFE0"/>
</linearGradient>
<linearGradient id="paint1_linear" x1="29.3348" y1="8.64233" x2="18.85" y2="26.8011" gradientUnits="userSpaceOnUse">
<stop stop-color="#174E5B"/>
<stop offset="0.07" stop-color="#195A6C"/>
<stop offset="0.21" stop-color="#1E779A"/>
<stop offset="0.4" stop-color="#27A7E3"/>
<stop offset="0.47" stop-color="#2ABAFF"/>
<stop offset="0.7" stop-color="#1DDAF0"/>
<stop offset="1" stop-color="#0EFFE0"/>
</linearGradient>
</defs>
</svg>
