<?xml version="1.0" encoding="UTF-8" standalone="no"?> <!-- Created with Vectornator for iOS (http://vectornator.io/) --><!DOCTYPE svg PUBLIC "-//W3C//DTD SVG 1.1//EN" "http://www.w3.org/Graphics/SVG/1.1/DTD/svg11.dtd">
<svg height="100%" style="fill-rule:nonzero;clip-rule:evenodd;stroke-linecap:round;stroke-linejoin:round;" xmlns:xlink="http://www.w3.org/1999/xlink" xmlns="http://www.w3.org/2000/svg" xml:space="preserve" width="100%" xmlns:vectornator="http://vectornator.io" version="1.1" viewBox="0 0 88 88">
<metadata>
<vectornator:setting key="DimensionsVisible" value="1"/>
<vectornator:setting key="PencilOnly" value="0"/>
<vectornator:setting key="SnapToPoints" value="0"/>
<vectornator:setting key="OutlineMode" value="0"/>
<vectornator:setting key="CMYKEnabledKey" value="0"/>
<vectornator:setting key="RulersVisible" value="1"/>
<vectornator:setting key="SnapToEdges" value="0"/>
<vectornator:setting key="GuidesVisible" value="1"/>
<vectornator:setting key="DisplayWhiteBackground" value="0"/>
<vectornator:setting key="doHistoryDisabled" value="0"/>
<vectornator:setting key="SnapToGuides" value="1"/>
<vectornator:setting key="TimeLapseWatermarkDisabled" value="0"/>
<vectornator:setting key="Units" value="Points"/>
<vectornator:setting key="DynamicGuides" value="0"/>
<vectornator:setting key="IsolateActiveLayer" value="0"/>
<vectornator:setting key="SnapToGrid" value="0"/>
</metadata>
<defs/>
<g id="Слой 1" vectornator:layerName="Слой 1" visibility="hidden">
<path d="M19.7757+30.6987C20.503+30.4286+21.1634+30.0051+21.7123+29.4568C22.2613+28.9087+22.6857+28.2487+22.9567+27.5218C22.5263+26.7324+22.363+25.8249+22.4913+24.935C22.6194+24.0451+23.0323+23.2206+23.6681+22.5848C24.3039+21.949+25.1284+21.5362+26.0183+21.4079C26.9081+21.2797+27.8157+21.443+28.6051+21.8734C29.3365+21.614+29.9983+21.1893+30.5389+20.6325C31.0956+20.091+31.5203+19.4286+31.7798+18.6966C31.4339+18.0628+31.2588+17.35+31.2717+16.6281C31.2847+15.9062+31.4852+15.2+31.8537+14.5791C32.2222+13.9582+32.7459+13.4438+33.3733+13.0865C34.0007+12.7292+34.7104+12.5414+35.4324+12.5414C36.1544+12.5414+36.8641+12.7292+37.4914+13.0865C38.1189+13.4438+38.6426+13.9582+39.0111+14.5791C39.3796+15.2+39.5801+15.9062+39.593+16.6281C39.606+17.35+39.4309+18.0628+39.085+18.6966C39.3451+19.4283+39.7696+20.0906+40.3259+20.6325C40.8676+21.189+41.5299+21.6136+42.2618+21.8734C42.634+21.8879+45.1139+22.0285+46.7251+24.1134C47.4708+25.0955+47.8858+26.2889+47.9102+27.5218C48.1816+28.2491+48.6067+28.9094+49.1563+29.4575C49.706+30.0058+50.3673+30.4291+51.0953+30.6987C51.729+30.3527+52.4419+30.1776+53.1638+30.1905C53.8857+30.2035+54.5919+30.4041+55.2128+30.7725C55.8337+31.141+56.3481+31.6647+56.7054+32.2921C57.0626+32.9196+57.2505+33.6292+57.2505+34.3512C57.2505+35.0732+57.0626+35.7828+56.7054+36.4103C56.3481+37.0377+55.8337+37.5614+55.2128+37.9299C54.5919+38.2983+53.8857+38.4989+53.1638+38.5118C52.4419+38.5248+51.729+38.3497+51.0953+38.0037C50.3687+38.2751+49.7089+38.6994+49.1605+39.2478C48.612+39.7962+48.1878+40.456+47.9164+41.1826C48.3468+41.9721+48.5101+42.8795+48.3818+43.7695C48.2536+44.6594+47.8407+45.4839+47.205+46.1196C46.5692+46.7554+45.7447+47.1683+44.8548+47.2965C43.9649+47.4248+43.0574+47.2615+42.2679+46.831C41.5409+47.1016+40.8807+47.5256+40.3322+48.0741C39.7836+48.6226+39.3596+49.2829+39.0891+50.01C39.435+50.6437+39.6102+51.3565+39.5972+52.0785C39.5842+52.8004+39.3837+53.5065+39.0152+54.1274C38.6467+54.7484+38.123+55.2628+37.4956+55.62C36.8682+55.9772+36.1586+56.1652+35.4365+56.1652C34.7145+56.1652+34.0049+55.9772+33.3775+55.62C32.75+55.2628+32.2263+54.7484+31.8578+54.1274C31.4894+53.5065+31.2889+52.8004+31.2759+52.0785C31.2629+51.3565+31.4381+50.6437+31.784+50.01C31.5126+49.2833+31.0884+48.6236+30.5399+48.0751C29.9915+47.5267+29.3316+47.1024+28.6051+46.831C27.8159+47.2609+26.9088+47.4238+26.0193+47.2956C25.1299+47.1673+24.3058+46.7546+23.6702+46.1193C23.0347+45.4839+22.6217+44.66+22.4931+43.7706C22.3645+42.8812+22.5271+41.9741+22.9567+41.1847C22.6851+40.4579+22.2605+39.798+21.7117+39.2496C21.1629+38.7011+20.5027+38.277+19.7757+38.0058C19.1419+38.3513+18.4292+38.526+17.7075+38.5128C16.9858+38.4996+16.2799+38.2989+15.6592+37.9304C15.0385+37.5618+14.5243+37.0382+14.1673+36.4108C13.8101+35.7835+13.6224+35.074+13.6224+34.3523C13.6224+33.6304+13.8101+32.921+14.1673+32.2936C14.5243+31.6663+15.0385+31.1426+15.6592+30.7741C16.2799+30.4056+16.9858+30.2048+17.7075+30.1916C18.4292+30.1784+19.1419+30.3531+19.7757+30.6987ZM21.4303+32.3533C21.7633+32.9654+21.9376+33.6513+21.9376+34.3481C21.9376+35.0449+21.7633+35.7308+21.4303+36.3429C21.7016+37.0713+22.1265+37.7327+22.6761+38.2822C23.2257+38.8318+23.8871+39.2567+24.6155+39.5281C25.4047+39.0967+26.3125+38.9329+27.2027+39.0608C28.093+39.1888+28.9179+39.6017+29.5538+40.2379C30.1896+40.8739+30.6023+41.6989+30.7299+42.5893C30.8575+43.4796+30.6933+44.3873+30.2618+45.1764C30.534+45.9025+30.9585+46.5619+31.5069+47.1102C32.0552+47.6585+32.7146+48.0831+33.4406+48.3553C34.0529+48.0215+34.7392+47.8466+35.4365+47.8466C36.1339+47.8466+36.8201+48.0215+37.4324+48.3553C38.1585+48.0831+38.8179+47.6585+39.3662+47.1102C39.9145+46.5619+40.3391+45.9025+40.6113+45.1764C40.182+44.3881+40.0191+43.4821+40.1469+42.5936C40.2747+41.7051+40.6865+40.8817+41.3207+40.2464C41.9548+39.6111+42.7774+39.1979+43.6657+39.0684C44.5539+38.9389+45.4602+39.1001+46.2493+39.5281C46.976+39.2566+47.6357+38.8323+48.1842+38.284C48.7326+37.7355+49.1569+37.0757+49.4283+36.3491C49.0954+35.7369+48.921+35.0511+48.921+34.3543C48.921+33.6575+49.0954+32.9717+49.4283+32.3595C49.1577+31.6324+48.7337+30.9722+48.1852+30.4237C47.6366+29.8751+46.9764+29.4511+46.2493+29.1806C45.0813+29.0095+43.9786+28.5345+43.0518+27.8031C41.7461+26.728+40.8782+25.2127+40.6113+23.5425C40.3407+22.8148+39.9167+22.1538+39.3683+21.6042C38.8198+21.0547+38.1596+20.6295+37.4324+20.3574C36.8199+20.6903+36.1337+20.8647+35.4365+20.8647C34.7393+20.8647+34.0532+20.6903+33.4406+20.3574C32.7145+20.6284+32.055+21.052+31.5065+21.5997C30.9582+22.1473+30.5336+22.8064+30.2618+23.5321C30.6933+24.3213+30.8575+25.229+30.7299+26.1194C30.6023+27.0096+30.1896+27.8346+29.5538+28.4708C28.9179+29.1068+28.093+29.5198+27.2027+29.6478C26.3125+29.7757+25.4047+29.6118+24.6155+29.1806C23.8879+29.4497+23.2268+29.8724+22.6772+30.4198C22.1275+30.9673+21.7023+31.6267+21.4303+32.3533Z" fill-rule="evenodd" fill="#217f52" opacity="1"/>
<path d="M57.5544+73.8135L55.8833+73.8135L58.6588+65.5053L60.5203+65.5053L63.2876+73.8135L61.6144+73.8135L61.0373+71.8817L58.117+71.8817L57.5544+73.8135ZM58.4272+70.8145L60.7271+70.8145L59.573+66.8393L59.5441+66.8393L58.4272+70.8145Z" opacity="1" fill="#217f52"/>
<path d="M73.2069+67.2323L71.995+67.6128C71.8171+66.9407+71.358+66.5787+70.6341+66.5787C69.6723+66.5787+69.2132+67.1247+69.2132+68.1278L69.2132+71.2923C69.2132+72.1795+69.6868+72.7773+70.6341+72.7773C71.3724+72.7773+71.7881+72.4857+72.0094+71.6852L73.238+72.0286C72.9112+73.3233+71.9971+73.921+70.4852+73.921C68.6961+73.921+67.5565+72.8869+67.5565+71.3047L67.5565+68.1403C67.5565+66.4256+68.6961+65.3853+70.4996+65.3853C71.9061+65.3916+72.9298+66.1919+73.2069+67.2323Z" opacity="1" fill="#217f52"/>
<path d="M83.1658+65.5053L83.1658+66.7462L79.6493+66.7462L79.6493+69.0069L82.3569+69.0069L82.3569+70.0864L79.6435+70.0864L79.6435+72.6014L83.298+72.6014L83.298+73.8217L78.0012+73.8217L78.0012+65.5053L83.1658+65.5053Z" opacity="1" fill="#217f52"/>
<path d="M42.299+29.1392C41.5719+29.4097+40.9117+29.8337+40.3631+30.3823C39.8146+30.9308+39.3907+31.5911+39.1201+32.3181C39.4539+32.93+39.6288+33.6159+39.6288+34.313C39.6288+35.01+39.4539+35.6959+39.1201+36.3077C39.3803+37.0395+39.8048+37.7018+40.3611+38.2437C40.9635+38.8722+41.7234+39.3279+42.5617+39.5632C43.2793+39.7369+42.7685+40.7441+42.33+41.1785C41.8915+41.6128+40.8822+42.1278+40.7147+41.4102C40.4799+40.5717+40.0241+39.8117+39.3952+39.2095C38.8541+38.6522+38.1916+38.2275+37.4593+37.9686C36.8255+38.3141+36.1127+38.4889+35.391+38.4756C34.6693+38.4624+33.9635+38.2616+33.3428+37.8931C32.722+37.5246+32.208+37.0009+31.8508+36.3736C31.4938+35.7463+31.306+35.0368+31.306+34.315C31.306+33.5931+31.4938+32.8837+31.8508+32.2564C32.208+31.629+32.722+31.1054+33.3428+30.7369C33.9635+30.3683+34.6693+30.1676+35.391+30.1544C36.1127+30.1411+36.8255+30.3159+37.4593+30.6614C38.1863+30.3909+38.8466+29.9669+39.3951+29.4184C39.9437+28.8698+40.3676+28.2095+40.6382+27.4826C40.2069+26.6932+40.043+25.7855+40.171+24.8952C40.2989+24.0049+40.7119+23.1801+41.348+22.5442C41.9841+21.9084+42.8091+21.4957+43.6995+21.368C44.5897+21.2404+45.4974+21.4047+46.2866+21.8362C47.0181+21.5758+47.6803+21.1513+48.2224+20.5952C48.7798+20.0542+49.2045+19.3917+49.4634+18.6594C49.1179+18.0256+48.9431+17.3128+48.9564+16.5911C48.9696+15.8694+49.1704+15.1635+49.5388+14.5428C49.9074+13.9222+50.4311+13.408+51.0584+13.0509C51.6857+12.6938+52.3952+12.506+53.117+12.506C53.8388+12.506+54.5482+12.6938+55.1756+13.0509C55.803+13.408+56.3266+13.9222+56.6951+14.5428C57.0637+15.1635+57.2644+15.8694+57.2776+16.5911C57.2908+17.3128+57.1161+18.0256+56.7705+18.6594C57.0294+19.3917+57.4542+20.0542+58.0115+20.5952C58.5533+21.1517+59.2155+21.5763+59.9474+21.8362C60.7365+21.4055+61.6439+21.2419+62.5336+21.37C63.4235+21.4979+64.2479+21.9107+64.8835+22.5464C65.5192+23.182+65.932+24.0065+66.06+24.8963C66.188+25.7861+66.0244+26.6934+65.5937+27.4826C65.8651+28.2091+66.2893+28.8689+66.8378+29.4173C67.3862+29.9658+68.0461+30.3901+68.7726+30.6614C69.4067+30.315+70.1199+30.1395+70.8424+30.1522C71.5648+30.165+72.2714+30.3655+72.8929+30.7341C73.5143+31.1028+74.0291+31.6267+74.3867+32.2546C74.7443+32.8824+74.9323+33.5925+74.9323+34.315C74.9323+35.0375+74.7443+35.7476+74.3867+36.3755C74.0291+37.0033+73.5143+37.5273+72.8929+37.8958C72.2714+38.2645+71.5648+38.465+70.8424+38.4777C70.1199+38.4905+69.4067+38.315+68.7726+37.9686C68.0461+38.24+67.3862+38.6642+66.8378+39.2127C66.2893+39.7611+65.8651+40.4209+65.5937+41.1475C66.0244+41.9366+66.188+42.8439+66.06+43.7337C65.932+44.6236+65.5192+45.448+64.8835+46.0837C64.2479+46.7193+63.4235+47.132+62.5336+47.2601C61.6439+47.3881+60.7365+47.2245+59.9474+46.7938C59.2208+47.0652+58.561+47.4895+58.0126+48.0379C57.4641+48.5863+57.0399+49.2461+56.7685+49.9727C57.1149+50.6067+57.2904+51.3201+57.2777+52.0424C57.2649+52.7649+57.0644+53.4716+56.6958+54.093C56.3272+54.7144+55.8032+55.2292+55.1753+55.5868C54.5475+55.9444+53.8374+56.1324+53.1149+56.1324C52.3924+56.1324+51.6823+55.9444+51.0545+55.5868C50.4266+55.2292+49.9026+54.7144+49.5341+54.093C49.1654+53.4716+48.9649+52.7649+48.9522+52.0424C48.9394+51.3201+49.1149+50.6067+49.4613+49.9727C49.2019+49.2412+48.7773+48.5795+48.2204+48.0389C47.6182+47.41+46.8582+46.9542+46.0198+46.7194C45.3021+46.5436+45.813+45.5384+46.2514+45.104C46.6899+44.6697+47.6992+44.1547+47.8667+44.8703C48.1015+45.7094+48.5572+46.4701+49.1862+47.073C49.7282+47.6293+50.3905+48.0538+51.1222+48.314C51.734+47.9802+52.4199+47.8052+53.117+47.8052C53.814+47.8052+54.4999+47.9802+55.1118+48.314C55.8389+48.0434+56.4991+47.6194+57.0476+47.0709C57.5962+46.5223+58.0202+45.8621+58.2907+45.135C57.8603+44.3456+57.697+43.4382+57.8253+42.5482C57.9534+41.6583+58.3663+40.8338+59.0021+40.1981C59.6379+39.5623+60.4624+39.1494+61.3523+39.0212C62.2422+38.8929+63.1497+39.0562+63.9391+39.4867C64.6657+39.2153+65.3255+38.791+65.8739+38.2426C66.4224+37.6941+66.8466+37.0343+67.118+36.3077C66.7842+35.6959+66.6093+35.01+66.6093+34.313C66.6093+33.6159+66.7842+32.93+67.118+32.3181C66.8466+31.5916+66.4224+30.9317+65.8739+30.3833C65.3255+29.8348+64.6657+29.4106+63.9391+29.1392C63.1497+29.5696+62.2422+29.7329+61.3523+29.6047C60.4624+29.4765+59.6379+29.0636+59.0021+28.4278C58.3663+27.792+57.9534+26.9675+57.8253+26.0776C57.697+25.1877+57.8603+24.2802+58.2907+23.4908C58.0202+22.7638+57.5962+22.1035+57.0476+21.555C56.4991+21.0065+55.8389+20.5824+55.1118+20.3119C54.4999+20.6457+53.814+20.8206+53.117+20.8206C52.4199+20.8206+51.734+20.6457+51.1222+20.3119C50.3951+20.5824+49.7348+21.0065+49.1863+21.555C48.6378+22.1035+48.2138+22.7638+47.9432+23.4908C48.3725+24.2798+48.5352+25.1865+48.4068+26.0755C48.2785+26.9645+47.8661+27.7882+47.2312+28.4235C46.5963+29.0589+45.773+29.4719+44.884+29.6009C43.9951+29.7299+43.0883+29.5679+42.299+29.1392Z" fill-rule="evenodd" fill="#2db269" opacity="1"/>
<path d="M44.2494+47.3233C46.5476+47.3233+48.4107+45.4602+48.4107+43.1619C48.4107+40.8637+46.5476+39.0006+44.2494+39.0006C41.9511+39.0006+40.0881+40.8637+40.0881+43.1619C40.0881+45.4602+41.9511+47.3233+44.2494+47.3233Z" opacity="1" fill="#217f52"/>
<path d="M6.95256+65.5053L6.95256+73.8135L5.29796+73.8135L5.29796+65.5053L6.95256+65.5053Z" opacity="1" fill="#2db269"/>
<path d="M13.6723+65.5053L17.0146+70.738L17.0456+70.738L17.0456+65.5053L18.4934+65.5053L18.4934+73.8135L17.3414+73.8135L13.9081+68.3884L13.8791+68.3884L13.8791+73.8135L12.4314+73.8135L12.4314+65.5053L13.6723+65.5053Z" opacity="1" fill="#2db269"/>
<path d="M28.8761+67.0793L27.7219+67.5384C27.4696+66.8641+26.8946+66.5332+26.1521+66.5332C25.2938+66.5332+24.9691+66.9158+24.9691+67.5239C24.9691+69.1247+28.8988+68.9221+28.8988+71.5777C28.8988+73.0875+27.8026+73.9272+26.0881+73.9272C24.7106+73.9272+23.5131+73.2033+23.1925+71.9831L24.4335+71.6149C24.5421+71.9623+24.7614+72.2644+25.0579+72.4755C25.3544+72.6865+25.7119+72.7946+26.0756+72.7834C26.9339+72.7834+27.3496+72.4402+27.3496+71.7494C27.3496+69.9727+23.3394+70.2002+23.3394+67.5963C23.3394+66.3554+24.361+65.3998+26.028+65.3998C27.5048+65.3916+28.4231+66.0513+28.8761+67.0793Z" opacity="1" fill="#2db269"/>
<path d="M39.8151+65.5053L39.8151+71.195C39.8151+72.9117+38.6754+73.9272+36.663+73.9272C34.6506+73.9272+33.5131+72.9365+33.5131+71.2592L33.5131+65.5053L35.1676+65.5053L35.1676+71.2592C35.1676+72.2933+35.7882+72.6697+36.661+72.6697C37.6227+72.6697+38.1708+72.2561+38.1708+71.2592L38.1708+65.5053L39.8151+65.5053Z" opacity="1" fill="#2db269"/>
<path d="M47.6723+70.3946L46.6382+70.3946L46.6382+73.8135L44.996+73.8135L44.996+65.5053L47.9039+65.5053C49.8274+65.5053+50.6857+66.3947+50.6857+67.8672C50.6857+69.0482+50.1521+69.8238+49.1615+70.103L51.2132+73.8135L49.4241+73.8135L47.6723+70.3946ZM46.6382+69.3026L47.8357+69.3026C48.783+69.3026+49.0643+68.8455+49.0643+67.9686C49.0643+67.042+48.754+66.6863+47.8502+66.6863L46.6382+66.6863L46.6382+69.3026Z" opacity="1" fill="#2db269"/>
</g>
<g id="Слой 2" vectornator:layerName="Слой 2">
<path d="M19.7779+30.703C20.5051+30.4329+21.1655+30.0093+21.7143+29.4611C22.2631+28.913+22.6874+28.253+22.9584+27.5262C22.5278+26.7368+22.3644+25.8293+22.4926+24.9393C22.6208+24.0493+23.0336+23.2248+23.6694+22.589C24.3052+21.9532+25.1297+21.5404+26.0197+21.4123C26.9096+21.284+27.8172+21.4475+28.6065+21.878C29.3385+21.6184+30.0009+21.1938+30.5426+20.6373C31.099+20.0954+31.5235+19.4331+31.7833+18.7012C31.4372+18.0674+31.262+17.3545+31.2749+16.6325C31.2878+15.9105+31.4883+15.2042+31.8568+14.5832C32.2252+13.9621+32.749+13.4477+33.3765+13.0903C34.004+12.733+34.7137+12.5451+35.4358+12.5451C36.1579+12.5451+36.8676+12.733+37.4951+13.0903C38.1226+13.4477+38.6464+13.9621+39.0148+14.5832C39.3833+15.2042+39.5838+15.9105+39.5967+16.6325C39.6096+17.3545+39.4344+18.0674+39.0883+18.7012C39.3479+19.4333+39.7727+20.0958+40.3298+20.6373C40.8704+21.1937+41.5318+21.6183+42.2629+21.878C42.6375+21.8926+45.1153+22.0329+46.7263+24.1181C47.4722+25.1+47.8873+26.2933+47.9118+27.5262C48.183+28.2535+48.608+28.9138+49.1576+29.4621C49.7072+30.0103+50.3686+30.4336+51.0966+30.703C51.7304+30.3569+52.4433+30.1817+53.1653+30.1945C53.8874+30.2074+54.5936+30.4079+55.2146+30.7764C55.8356+31.1449+56.3501+31.6686+56.7074+32.2961C57.0648+32.9236+57.2527+33.6333+57.2527+34.3555C57.2527+35.0776+57.0648+35.7873+56.7074+36.4148C56.3501+37.0423+55.8356+37.566+55.2146+37.9345C54.5936+38.303+53.8874+38.5035+53.1653+38.5164C52.4433+38.5292+51.7304+38.354+51.0966+38.0079C50.37+38.2794+49.7102+38.7037+49.1619+39.2522C48.6134+39.8006+48.1891+40.4604+47.9176+41.1869C48.3487+41.9763+48.5126+42.8841+48.3847+43.7744C48.2568+44.6647+47.844+45.4897+47.2081+46.1257C46.5722+46.7618+45.7474+47.1749+44.8571+47.303C43.9668+47.4311+43.0589+47.2674+42.2694+46.8365C41.5428+47.1079+40.883+47.5321+40.3346+48.0806C39.786+48.6291+39.3618+49.2889+39.0904+50.0155C39.4366+50.6493+39.6118+51.3623+39.5989+52.0842C39.586+52.8063+39.3855+53.5125+39.017+54.1335C38.6485+54.7546+38.1248+55.2691+37.4973+55.6264C36.8698+55.9837+36.1601+56.1716+35.438+56.1716C34.7159+56.1716+34.0062+55.9837+33.3787+55.6264C32.7511+55.2691+32.2274+54.7546+31.859+54.1335C31.4905+53.5125+31.2899+52.8063+31.2771+52.0842C31.2642+51.3623+31.4394+50.6493+31.7855+50.0155C31.515+49.2885+31.091+48.6282+30.5424+48.0796C29.9938+47.5311+29.3336+47.1071+28.6065+46.8365C27.8174+47.2665+26.9103+47.4296+26.0208+47.3013C25.1313+47.1731+24.3072+46.7605+23.6716+46.1252C23.036+45.4898+22.6232+44.6658+22.4946+43.7764C22.366+42.887+22.5287+41.9799+22.9584+41.1906C22.6869+40.4638+22.2625+39.8038+21.7137+39.2553C21.165+38.7068+20.5048+38.2827+19.7779+38.0116C19.1441+38.3572+18.4313+38.5321+17.7095+38.5188C16.9876+38.5057+16.2817+38.305+15.6609+37.9364C15.0402+37.5679+14.5259+37.0443+14.1687+36.4168C13.8116+35.7895+13.6238+35.0799+13.6238+34.358C13.6238+33.6361+13.8116+32.9265+14.1687+32.2992C14.5259+31.6717+15.0402+31.1481+15.6609+30.7796C16.2817+30.411+16.9876+30.2103+17.7095+30.1972C18.4313+30.1839+19.1441+30.3588+19.7779+30.7044L19.7779+30.703ZM21.4325+32.3576C21.7654+32.9698+21.9398+33.6557+21.9398+34.3525C21.9398+35.0494+21.7654+35.7353+21.4325+36.3475C21.7037+37.0758+22.1286+37.7372+22.6781+38.2867C23.2277+38.8362+23.889+39.2611+24.6173+39.5323C25.4066+39.1012+26.3142+38.9373+27.2044+39.0653C28.0945+39.1934+28.9193+39.6064+29.555+40.2425C30.1908+40.8785+30.6033+41.7034+30.7309+42.5936C30.8584+43.4839+30.6941+44.3914+30.2626+45.1805C30.5347+45.9066+30.9592+46.5661+31.5076+47.1144C32.0559+47.6628+32.7154+48.0873+33.4416+48.3595C34.0537+48.0255+34.7399+47.8505+35.4373+47.8505C36.1346+47.8505+36.8208+48.0255+37.4329+48.3595C38.1591+48.0873+38.8186+47.6628+39.3669+47.1144C39.9153+46.5661+40.3398+45.9066+40.6119+45.1805C40.1823+44.3922+40.0193+43.4861+40.147+42.5974C40.2747+41.7088+40.6864+40.8854+41.3207+40.2499C41.9549+39.6146+42.7777+39.2014+43.6661+39.072C44.5545+38.9427+45.4608+39.1042+46.2499+39.5323C46.9765+39.2608+47.6363+38.8365+48.1847+38.2881C48.7331+37.7397+49.1574+37.0799+49.4289+36.3533C49.096+35.7412+48.9216+35.0555+48.9216+34.3587C48.9216+33.6619+49.096+32.9762+49.4289+32.3641C49.1584+31.6371+48.7344+30.9768+48.1858+30.4282C47.6372+29.8797+46.977+29.4557+46.2499+29.1851C45.0809+29.0144+43.9773+28.5394+43.0498+27.8076C41.7439+26.7326+40.8759+25.2175+40.609+23.5472C40.3387+22.8199+39.9153+22.1593+39.3674+21.61C38.8196+21.0607+38.1601+20.6354+37.4337+20.3631C36.8211+20.6959+36.1351+20.8703+35.438+20.8703C34.7409+20.8703+34.0548+20.6959+33.4423+20.3631C32.7106+20.6221+32.0488+21.0466+31.5084+21.6038C30.9525+22.146+30.528+22.8083+30.2677+23.5399C30.6997+24.3294+30.8641+25.2376+30.7363+26.1284C30.6085+27.0192+30.1953+27.8446+29.5587+28.4807C28.9221+29.1168+28.0964+29.5294+27.2055+29.6565C26.3145+29.7836+25.4064+29.6185+24.6173+29.1859C23.8899+29.4549+23.2289+29.8774+22.6794+30.4247C22.1298+30.972+21.7045+31.6312+21.4325+32.3576L21.4325+32.3576Z" fill-rule="evenodd" fill="#f5fff5" opacity="1"/>
<path d="M42.3007+29.1437C41.5736+29.4142+40.9134+29.8382+40.3648+30.3868C39.8163+30.9354+39.3923+31.5956+39.1217+32.3227C39.4553+32.9345+39.63+33.6204+39.63+34.3173C39.63+35.0142+39.4553+35.7+39.1217+36.3119C39.3819+37.0436+39.8063+37.7059+40.3625+38.2479C40.9649+38.8766+41.7249+39.3322+42.5633+39.5672C43.2804+39.7411+42.7698+40.7484+42.3313+41.1826C41.8927+41.6167+40.884+42.1317+40.7159+41.4146C40.4812+40.5761+40.0256+39.816+39.3966+39.2138C38.8561+38.6569+38.1943+38.2322+37.4628+37.973C36.8291+38.3183+36.1164+38.493+35.3949+38.4796C34.6733+38.4663+33.9676+38.2655+33.3471+37.8969C32.7266+37.5284+32.2126+37.0048+31.8556+36.3776C31.4986+35.7504+31.3109+35.0411+31.3109+34.3195C31.3109+33.5978+31.4986+32.8885+31.8556+32.2613C32.2126+31.6341+32.7266+31.1105+33.3471+30.742C33.9676+30.3735+34.6733+30.1726+35.3949+30.1593C36.1164+30.146+36.8291+30.3206+37.4628+30.6659C38.189+30.3955+38.8487+29.9719+39.3969+29.424C39.9449+28.8761+40.3688+28.2167+40.6396+27.4905C40.2082+26.7013+40.0441+25.7935+40.1719+24.9032C40.2999+24.0128+40.7128+23.1879+41.3489+22.552C41.9851+21.9161+42.8102+21.5035+43.7005+21.3759C44.5909+21.2484+45.4987+21.4128+46.2877+21.8446C47.0207+21.5835+47.6841+21.1578+48.2267+20.6002C48.7824+20.0585+49.2054+19.396+49.4631+18.6641C49.1174+18.0303+48.9426+17.3175+48.9558+16.5957C48.969+15.8739+49.1696+15.1679+49.5382+14.5471C49.9067+13.9263+50.4304+13.4121+51.0578+13.055C51.6852+12.6978+52.3947+12.51+53.1167+12.51C53.8386+12.51+54.5481+12.6978+55.1755+13.055C55.8029+13.4121+56.3266+13.9263+56.6951+14.5471C57.0637+15.1679+57.2643+15.8739+57.2775+16.5957C57.2907+17.3175+57.1159+18.0303+56.7702+18.6641C57.0291+19.3964+57.4538+20.059+58.011+20.6002C58.5528+21.1565+59.2152+21.5811+59.947+21.8409C60.7364+21.4085+61.6448+21.2437+62.5358+21.3712C63.4268+21.4989+64.2525+21.9119+64.8888+22.5485C65.5251+23.1851+65.9379+24.0109+66.0651+24.902C66.1924+25.793+66.0272+26.7013+65.5945+27.4905C65.866+28.2171+66.2903+28.8769+66.8387+29.4253C67.3871+29.9737+68.0469+30.398+68.7735+30.6695C69.4074+30.3233+70.1207+30.1479+70.843+30.1607C71.5652+30.1735+72.2718+30.3741+72.8931+30.7427C73.5144+31.1113+74.0291+31.6352+74.3866+32.263C74.7441+32.8907+74.932+33.6007+74.932+34.3231C74.932+35.0455+74.7441+35.7555+74.3866+36.3832C74.0291+37.0109+73.5144+37.5349+72.8931+37.9035C72.2718+38.2721+71.5652+38.4727+70.843+38.4855C70.1207+38.4983+69.4074+38.3229+68.7735+37.9766C68.047+38.248+67.3872+38.6722+66.8387+39.2205C66.2903+39.7688+65.866+40.4285+65.5945+41.1549C66.025+41.944+66.1885+42.8513+66.0604+43.741C65.9324+44.6307+65.5198+45.455+64.8842+46.0907C64.2486+46.7263+63.4243+47.1392+62.5346+47.2673C61.6449+47.3955+60.7376+47.2321+59.9485+46.8016C59.2218+47.073+58.562+47.4972+58.0135+48.0457C57.4651+48.5942+57.0408+49.254+56.7695+49.9806C57.1158+50.6146+57.2911+51.3278+57.2783+52.0501C57.2655+52.7724+57.0649+53.4789+56.6963+54.1002C56.3277+54.7216+55.8038+55.2363+55.1761+55.5937C54.5483+55.9513+53.8384+56.1392+53.1159+56.1392C52.3935+56.1392+51.6835+55.9513+51.0558+55.5937C50.4281+55.2363+49.9041+54.7216+49.5355+54.1002C49.1669+53.4789+48.9664+52.7724+48.9536+52.0501C48.9408+51.3278+49.1161+50.6146+49.4624+49.9806C49.2034+49.249+48.7788+48.5871+48.2216+48.0467C47.6195+47.4176+46.8594+46.9617+46.0208+46.7267C45.3037+46.5514+45.8143+45.5463+46.2528+45.1114C46.6914+44.6765+47.7001+44.1623+47.8681+44.8779C48.1028+45.7171+48.5584+46.4779+49.1875+47.0809C49.7297+47.6368+50.3919+48.0613+51.1235+48.3217C51.7353+47.9877+52.4211+47.8127+53.1181+47.8127C53.8151+47.8127+54.5009+47.9877+55.1127+48.3217C55.8398+48.0511+56.5+47.6271+57.0486+47.0786C57.5971+46.53+58.0212+45.8697+58.2917+45.1427C57.8597+44.3533+57.695+43.4451+57.8226+42.5542C57.9501+41.6634+58.3628+40.8378+58.9989+40.2013C59.6351+39.5648+60.4604+39.1514+61.3511+39.0234C62.2419+38.8953+63.1502+39.0594+63.9399+39.4909C64.6669+39.2203+65.3272+38.7963+65.8758+38.2478C66.4243+37.6992+66.8483+37.0389+67.1189+36.3119C66.7849+35.7001+66.6099+35.0142+66.6099+34.3173C66.6099+33.6203+66.7849+32.9345+67.1189+32.3227C66.8483+31.5956+66.4243+30.9354+65.8758+30.3868C65.3272+29.8382+64.6669+29.4142+63.9399+29.1437C63.1505+29.5742+62.243+29.7377+61.353+29.6094C60.463+29.4813+59.6385+29.0685+59.0027+28.4327C58.3669+27.7969+57.9541+26.9723+57.826+26.0823C57.6977+25.1924+57.8612+24.2848+58.2917+23.4955C58.0212+22.7684+57.5971+22.1082+57.0486+21.5596C56.5+21.0111+55.8398+20.5871+55.1127+20.3165C54.5009+20.6505+53.8151+20.8255+53.1181+20.8255C52.4211+20.8255+51.7353+20.6505+51.1235+20.3165C50.3964+20.5871+49.7362+21.0111+49.1876+21.5596C48.6391+22.1082+48.2151+22.7684+47.9445+23.4955C48.3739+24.2845+48.5366+25.1911+48.4083+26.0801C48.28+26.9691+47.8677+27.7928+47.2328+28.4282C46.5979+29.0635+45.7746+29.4765+44.8857+29.6054C43.9968+29.7345+43.09+29.5724+42.3007+29.1437L42.3007+29.1437Z" fill-rule="evenodd" fill="#2db269" opacity="1"/>
<path d="M44.2506+47.3275C46.549+47.3275+48.4122+45.4643+48.4122+43.1659C48.4122+40.8675+46.549+39.0043+44.2506+39.0043C41.9522+39.0043+40.089+40.8675+40.089+43.1659C40.089+45.4643+41.9522+47.3275+44.2506+47.3275Z" opacity="1" fill="#f5fff5"/>
<path d="M57.5557+73.8191L55.8829+73.8191L58.6583+65.5112L60.5201+65.5112L63.2839+73.8191L61.6111+73.8191L61.0336+71.8874L58.1179+71.8874L57.5557+73.8191ZM58.4284+70.8205L60.7281+70.8205L59.5725+66.8429L59.5434+66.8429L58.4284+70.8205Z" opacity="1" fill="#f5fff5"/>
<path d="M73.2078+67.2356L71.9954+67.616C71.8179+66.944+71.359+66.5825+70.6346+66.5825C69.6731+66.5825+69.2142+67.128+69.2142+68.1317L69.2142+71.2954C69.2142+72.1827+69.6877+72.7805+70.6346+72.7805C71.3728+72.7805+71.7888+72.4896+72.0099+71.6896L73.2383+72.0329C72.9118+73.3275+71.9976+73.9238+70.4862+73.9238C68.6971+73.9238+67.5574+72.8896+67.5574+71.3056L67.5574+68.1462C67.5574+66.4313+68.6971+65.3912+70.5001+65.3912C71.9066+65.3949+72.9307+66.1956+73.2078+67.2356Z" opacity="1" fill="#f5fff5"/>
<path d="M83.1659+65.5091L83.1659+66.7498L79.6501+66.7498L79.6501+69.0102L82.3571+69.0102L82.3571+70.0903L79.6458+70.0903L79.6458+72.6045L83.3004+72.6045L83.3004+73.8249L78.0021+73.8249L78.0021+65.5091L83.1659+65.5091Z" opacity="1" fill="#f5fff5"/>
<path d="M6.955+65.5091L6.955+73.8191L5.30041+73.8191L5.30041+65.5091L6.955+65.5091Z" opacity="1" fill="#2db269"/>
<path d="M13.6745+65.5091L17.02+70.7412L17.0491+70.7412L17.0491+65.5091L18.4971+65.5091L18.4971+73.8191L17.3437+73.8191L13.9101+68.3942L13.881+68.3942L13.881+73.8191L12.4337+73.8191L12.4337+65.5091L13.6745+65.5091Z" opacity="1" fill="#2db269"/>
<path d="M28.8807+67.0829L27.7265+67.5418C27.4741+66.8676+26.8996+66.5367+26.1592+66.5367C25.2988+66.5367+24.9737+66.9193+24.9737+67.5273C24.9737+69.1273+28.9011+68.9259+28.9011+71.5812C28.9011+73.0911+27.805+73.9304+26.0908+73.9304C24.7133+73.9304+23.5155+73.2067+23.1947+71.9863L24.4362+71.6183C24.5431+71.9668+24.762+72.2701+25.0589+72.4815C25.3559+72.6928+25.7142+72.8002+26.0784+72.7871C26.9345+72.7871+27.3498+72.4438+27.3498+71.7529C27.3498+69.9761+23.3402+70.2037+23.3402+67.6C23.3402+66.3593+24.3584+65.4036+26.0312+65.4036C27.5069+65.3949+28.4247+66.0545+28.8807+67.0829Z" opacity="1" fill="#2db269"/>
<path d="M39.8163+65.5091L39.8163+71.2008C39.8163+72.9173+38.6766+73.9326+36.6642+73.9326C34.6518+73.9326+33.515+72.942+33.515+71.2648L33.515+65.5091L35.1689+65.5091L35.1689+71.2627C35.1689+72.2969+35.79+72.6729+36.6627+72.6729C37.6242+72.6729+38.1726+72.2598+38.1726+71.2627L38.1726+65.5091L39.8163+65.5091Z" opacity="1" fill="#2db269"/>
<path d="M47.6732+70.4008L46.6397+70.4008L46.6397+73.8191L44.9975+73.8191L44.9975+65.5091L47.9067+65.5091C49.8304+65.5091+50.6886+66.3985+50.6886+67.8706C50.6886+69.0517+50.1548+69.827+49.1613+70.1063L51.213+73.8155L49.4238+73.8155L47.6732+70.4008ZM46.6397+69.3099L47.8369+69.3099C48.7824+69.3099+49.0653+68.8524+49.0653+67.976C49.0653+67.0495+48.7554+66.6931+47.8514+66.6931L46.6397+66.6931L46.6397+69.3099Z" opacity="1" fill="#2db269"/>
</g>
</svg>
