<?xml version="1.0" encoding="utf-8"?>
<!-- Generator: Adobe Illustrator 25.2.3, SVG Export Plug-In . SVG Version: 6.00 Build 0)  -->
<svg version="1.1" id="Layer_1" xmlns="http://www.w3.org/2000/svg" xmlns:xlink="http://www.w3.org/1999/xlink" x="0px" y="0px"
	 viewBox="0 0 1271.8 609.7" style="enable-background:new 0 0 1271.8 609.7;" xml:space="preserve">
<style type="text/css">
	.st0{fill:url(#SVGID_1_);}
</style>
<linearGradient id="SVGID_1_" gradientUnits="userSpaceOnUse" x1="635" y1="47.8036" x2="635" y2="566">
	<stop  offset="0" style="stop-color:#F1A2FF"/>
	<stop  offset="1" style="stop-color:#FFFFFF"/>
</linearGradient>
<path class="st0" d="M35.8,276.8c-3.2,0-6.5-0.9-9.4-2.6c-5.4-3.3-8.7-9.1-8.7-15.4V65.9c0-10,8.1-18,18-18s18,8.1,18,18V229
	L397.3,49.9c8.9-4.6,19.7-1.2,24.4,7.7c4.6,8.8,1.2,19.7-7.6,24.3L44.2,274.8C41.6,276.1,38.7,276.8,35.8,276.8z M403.6,562.1
	c7.8-6.2,9.2-17.5,3-25.3l-189.5-241c-5.3-6.7-14.5-8.8-22.2-5L27.8,373.1c-6.2,3-10.1,9.3-10.1,16.2V548c0,10,8.1,18,18,18
	s18-8.1,18-18V400.5l143.9-71l180.4,229.5c3.6,4.5,8.8,6.9,14.2,6.9C396.4,566,400.3,564.7,403.6,562.1z M813,373.8V65.9
	c0-10-8.1-18-18-18c-10,0-18,8.1-18,18v307.9c0,86.1-70.1,156.1-156.1,156.1s-156.1-70-156.1-156.1V185c0-10-8.1-18-18-18
	s-18,8.1-18,18v188.7c0,106,86.2,192.2,192.2,192.2S813,479.8,813,373.8z M1252.2,373.8V65.9c0-10-8.1-18-18-18s-18,8.1-18,18v307.9
	c0,86.1-70,156.1-156.1,156.1s-156.1-70-156.1-156.1V185c0-10-8.1-18-18-18c-10,0-18,8.1-18,18v188.7c0,106,86.2,192.2,192.2,192.2
	C1166,566,1252.2,479.8,1252.2,373.8z"/>
</svg>
