<svg width="40" height="40" viewBox="0 0 40 40" fill="none" xmlns="http://www.w3.org/2000/svg">
<circle cx="20" cy="20" r="20" fill="white"/>
<path d="M27.4361 9.00002H17.3789V22.5685H30.9577V12.5108C30.9577 12.0489 30.8666 11.5914 30.6895 11.1647C30.5123 10.7381 30.2528 10.3506 29.9256 10.0244C29.5984 9.69824 29.2101 9.43987 28.7829 9.26409C28.3557 9.0883 27.898 8.99856 27.4361 9.00002Z" fill="#121212"/>
<path d="M14.2439 9H12.5106C11.5796 9 10.6866 9.36989 10.0282 10.0283C9.36987 10.6867 9 11.5797 9 12.5108V14.2441H14.2439V9Z" fill="#121212"/>
<path d="M8.99988 17.3794H14.2437V22.6235H8.99988V17.3794Z" fill="#121212"/>
<path d="M25.7579 30.9593H27.4912C27.9531 30.9593 28.4105 30.8681 28.8372 30.691C29.2638 30.5138 29.6513 30.2542 29.9775 29.9271C30.3036 29.5999 30.562 29.2115 30.7377 28.7843C30.9135 28.3571 31.0032 27.8994 31.0018 27.4374V25.7593H25.7579V30.9593Z" fill="#121212"/>
<path d="M17.3789 25.7593H22.6228V31.0034H17.3789V25.7593Z" fill="#121212"/>
<path d="M8.99988 25.7593V27.4926C8.99988 28.4237 9.36975 29.3167 10.0281 29.9751C10.6865 30.6335 11.5794 31.0034 12.5105 31.0034H14.2437V25.7593H8.99988Z" fill="#121212"/>
</svg>
