<svg
  width="162"
  height="156"
  viewBox="0 0 162 156"
  fill="none"
  xmlns="http://www.w3.org/2000/svg"
>
<path
    fill-rule="evenodd"
    clip-rule="evenodd"
    d="M120.593 59.8382C125.685 40.8326 114.43 21.3036 95.4526 16.219C76.4754 11.1344 56.9627 22.4196 51.8698 41.4252C48.8791 52.5861 51.5261 63.9274 58.0638 72.4181C55.8507 73.3305 53.7346 74.4632 51.7493 75.7965L42.0788 30.3063C42.0455 30.1493 41.8626 30.0773 41.7311 30.1694L16.5734 47.7837C16.1314 48.0932 15.9173 48.6368 16.0295 49.1645L25.9281 95.7273C26.0332 96.2218 26.4068 96.6155 26.8952 96.7463L36.5054 99.3215C33.3799 117.286 44.416 134.978 62.3424 139.781C81.3196 144.866 100.832 133.58 105.925 114.575C108.047 106.656 107.331 98.646 104.401 91.6281L107.886 89.6161C108.018 89.54 108.185 89.6147 108.217 89.7636L114.333 118.536C114.438 119.03 114.812 119.424 115.3 119.555L142.483 126.838C142.645 126.882 142.795 126.739 142.761 126.575L132.153 76.6789C132.032 76.1092 132.292 75.5263 132.796 75.2351L145.328 68.0004C145.832 67.7092 146.092 67.1263 145.971 66.5567L142.76 51.455C142.729 51.3093 142.567 51.2338 142.436 51.3038L119.367 63.5839C119.838 62.3724 120.248 61.1229 120.593 59.8382Z"
    fill="#DF0078"
  />
</svg>
