<svg xmlns="http://www.w3.org/2000/svg" viewBox="0 0 765.06 882.94"><g id="Calque_2" data-name="Calque 2"><g id="logos"><path d="M251.39,607.76c-.39-.17-.68-.42-.95-.4-6.49.56-10.11-3.44-13.23-8.27-8.34-12.92-11.68-27.23-11.85-42.43-.09-8-.28-16-.24-23.94a8.89,8.89,0,0,0-4-8.07c-9.79-7.26-18.49-15.7-25.11-26.06-5.45-8.53-8.56-17.79-7-28a71.37,71.37,0,0,1,4.13-14.53,66.2,66.2,0,0,1,5.66-11.05c6.86-11.21,10.43-23.49,12.33-36.36,2.42-16.39,4.73-32.8,7.34-49.17A201.33,201.33,0,0,1,230.18,317a114.53,114.53,0,0,1,42.42-53.21c22.49-15.5,47.43-25,74.22-29.63,44.23-7.62,86.43-.21,127,18a136.42,136.42,0,0,1,29.63,18.45A248.74,248.74,0,0,1,534,300c11.73,13.31,19.6,28.9,26.22,45.18a213.58,213.58,0,0,1,15.52,92.33,137.53,137.53,0,0,1-6.71,37c-7.06,21-19.5,38.11-36.71,51.89a195.64,195.64,0,0,1-27.71,18.14c-15.19,8.4-30.63,16.44-47,22.11-19.07,6.59-30.1,20.3-37.39,38.05-1.93,4.68-3.77,9.39-5.6,14.11-9.6,24.8-31.55,31.85-53.31,30.67-4.23-.23-7.87-2.26-11.05-5.19-2.79-2.57-4.68-2.87-7.27-.34-7.27,7.1-16,7.77-25.29,6.5a60.53,60.53,0,0,1-18.86-5.69c-4.92-2.46-8.94-5.81-11.39-10.94-1.83-3.84-2.79-4.16-6.92-2.57a12.76,12.76,0,0,1-12.25-1.48c-7.68-5-13.81-11.22-16.05-20.49A7,7,0,0,0,251.39,607.76Zm216.66-89.11.61.81c-.89,1.08-1.72,2.22-2.68,3.23-6.37,6.77-11,14.74-15.49,22.77-1.48,2.64-1.88,5.66.54,8.12,2.25,2.29,4.81,1.2,7.27.21.42-.18.84-.36,1.26-.56,10.67-5.06,21.42-9.94,32-15.22a199.1,199.1,0,0,0,30.22-18.44c15.75-11.75,27.59-26.51,34.58-45a124,124,0,0,0,7.51-37.78c2.52-49.46-12-94.15-38.38-135.42a85.25,85.25,0,0,0-20.29-21.81c-12.39-9.46-25.7-17.47-40.46-22.5-36.68-12.5-74.25-17.73-112.85-11.67a179,179,0,0,0-65,23.31c-21.87,13.12-38,31.26-48.19,54.69a213.1,213.1,0,0,0-12,36.67c-3.3,14.11-4.31,28.53-5.39,42.89-1.3,17.25-5.36,33.55-13.34,48.91-1.77,3.39-3.23,6.95-4.68,10.5-4.29,10.46-3.25,20.49,3.08,29.79a84.88,84.88,0,0,0,9.57,11.74,174.34,174.34,0,0,0,13.4,11.92c4.72,3.9,7.1,8.74,6.9,14.85-.06,1.68-.1,3.37-.18,5.06-.49,10-.91,19.92-1.48,29.88-.48,8.31,2.82,15.23,7.67,21.61a14.5,14.5,0,0,0,2.53,2.66c1.73,1.37,3.15,1,4.07-.89a8.7,8.7,0,0,0,.73-2.65c1.11-8.83,2.18-17.66,3.27-26.48.17-1.42.42-2.83.64-4.27,4.57,1.25,5.66,3.78,5.49,8-.55,13-.58,26.07-.86,39.1a15.41,15.41,0,0,0,3.14,9.91,57.16,57.16,0,0,0,7.35,8.18c6.39,5.61,8.66,4.93,10.52-3.46,2.16-9.72,3.81-19.55,5.63-29.35,1-5.52,1.92-11.06,2.92-16.84l5.53,1.35c0,1.24,0,2.29,0,3.34-.4,12.58-.95,25.15-1.16,37.73a86.62,86.62,0,0,0,1.07,13.25A11.39,11.39,0,0,0,299,635.2a49.85,49.85,0,0,0,28.64,6.88c5.86-.38,8.09-2.66,9.4-8.36.17-.75.28-1.51.38-2.27,1.48-11.87,2.93-23.75,4.45-35.61.58-4.5,1.32-9,2-13.43h7c.09,1.25.22,2.29.22,3.33,0,8.75-.22,17.51.07,26.24a165.06,165.06,0,0,0,1.81,19.22c1.05,6.88,4.11,9.54,11.06,10.09a48.23,48.23,0,0,0,11-.18c7.54-1.15,14.63-3.43,19.58-9.94a194.38,194.38,0,0,0,23.5-39.44c3.28-7.44,6.31-15,9.5-22.46,7-16.36,15.27-31.86,29.33-43.44,2.71-2.23,5.48-4.4,8.32-6.45C465.94,518.85,467.09,518.88,468.05,518.65Z"/><path d="M345.5,472.41c.05-23.28,14.78-41.62,37.06-46.17,16.86-3.45,33.73,5.18,40.13,21.12,7.1,17.7,4.72,34.74-5.79,50.36-8.46,12.59-23.81,17.82-39,14.27a52.66,52.66,0,0,1-7-2.22C354.62,503.38,345.46,489.87,345.5,472.41Z"/><path d="M282.39,444.09c0,8.42-.6,14.72-3.13,20.56a43.35,43.35,0,0,1-5.93,10.28c-6.61,8.08-17.4,9.34-26.06,3.48a28.12,28.12,0,0,1-10-12.34c-7.54-17.33-5.37-34.11,4.62-49.56,8.66-13.41,26.72-12,34.29,2.12A55.5,55.5,0,0,1,282.39,444.09Z"/><path d="M322.22,504c-.15,3.21-.23,6.42-.51,9.62a11.36,11.36,0,0,1-1.1,3.95c-1.73,3.48-5.24,4.19-7.85,1.28a23.12,23.12,0,0,1-3.81-6.71c-2.81-6.82-3.86-7-8.62-1.35a18.12,18.12,0,0,1-3.6,3.51c-4.1,2.73-8.56.73-9.25-4.12a17,17,0,0,1,0-5c2.51-15,4.12-30.09,8.62-44.65,2-6.43,4.35-12.75,6.75-19.05a39.79,39.79,0,0,1,3.67-6.87c1.36-2.17,3.28-3.78,6.09-3.27s3.9,2.75,4.41,5.27a37,37,0,0,1,.73,5q2,31.22,3.84,62.42Z"/><path d="M129.49,348.86c-2.79,3.86-5.39,7.44-8.16,11.25-1-.82-1.76-1.37-2.42-2.05Q71,308.65,23.07,259.21c-3.88-4-7.58-8.21-11.1-12.54a78.42,78.42,0,0,1-6.92-10.1,24.65,24.65,0,0,1-2.7-7.28C.22,219,7.79,210.83,18.13,212.39a56.44,56.44,0,0,1,13.21,3.66c15.55,6.51,31,13.28,46.42,20.07,9,3.95,17.8,8.18,26.75,12.17a23.4,23.4,0,0,0,6.35,1.92,4.83,4.83,0,0,0,3.53-1.37c1.13-1.13.27-2.54-.53-3.7-.36-.51-.73-1-1.09-1.51-14.25-19.7-28.54-39.36-42.69-59.13a112.32,112.32,0,0,1-8.68-13.85,70.85,70.85,0,0,1-4.66-12.48,14.94,14.94,0,0,1,.41-9.17,13.6,13.6,0,0,1,16.33-8.87,31.52,31.52,0,0,1,7.15,3.06c3.66,2.08,7.2,4.39,10.72,6.71,35.15,23.08,70.07,46.48,104.13,71.15,2.59,1.88,5.21,3.71,8.1,5.76L196,238.39a26.2,26.2,0,0,1-2.68-1.41c-3.37-2.33-6.72-4.67-10-7.07-33.27-24.07-67.45-46.8-101.75-69.37-.72-.47-1.44-1-2.19-1.4-2.7-1.51-4.31-.87-4.62,2.23a10.76,10.76,0,0,0,1,5.32,46.57,46.57,0,0,0,4.24,7C99.31,201.29,118.6,229,140,255.1c2.28,2.78,4.43,5.67,6.47,8.63a18.62,18.62,0,0,1,2.49,5c1.7,5.51-2,10.45-7.72,10.33a18.2,18.2,0,0,1-5.77-1.22c-3.6-1.35-7.11-2.92-10.62-4.5Q82.15,254,39.43,234.74c-3.83-1.72-7.88-3-11.85-4.38a10.49,10.49,0,0,0-2.52-.59c-3.46-.33-4.86,1.36-3.2,4.39a49.24,49.24,0,0,0,6.44,9.49c7.92,8.72,16,17.28,24.22,25.75Q87.71,305.77,123,342C125.09,344.16,127.11,346.34,129.49,348.86Z"/><path d="M70,139.67a13.46,13.46,0,0,1,3.47.46,31.52,31.52,0,0,1,7.15,3.06c3.66,2.08,7.2,4.39,10.72,6.71,35.15,23.08,70.07,46.48,104.13,71.15,2.59,1.88,5.21,3.71,8.1,5.76L196,238.39a26.2,26.2,0,0,1-2.68-1.41c-3.37-2.33-6.72-4.67-10-7.07-33.27-24.07-67.45-46.8-101.75-69.37-.72-.47-1.44-1-2.19-1.4a5.16,5.16,0,0,0-2.39-.79c-1.26,0-2,1-2.23,3a10.76,10.76,0,0,0,1,5.32,46.57,46.57,0,0,0,4.24,7C99.31,201.29,118.6,229,140,255.1c2.28,2.78,4.43,5.67,6.47,8.63a18.62,18.62,0,0,1,2.49,5c1.68,5.44-1.88,10.33-7.5,10.33h-.22a18.2,18.2,0,0,1-5.77-1.22c-3.6-1.35-7.11-2.92-10.62-4.5Q82.15,254,39.43,234.74c-3.83-1.72-7.88-3-11.85-4.38a10.49,10.49,0,0,0-2.52-.59,7.88,7.88,0,0,0-.82,0c-2.85,0-3.9,1.65-2.38,4.43a49.24,49.24,0,0,0,6.44,9.49c7.92,8.72,16,17.28,24.22,25.75Q87.71,305.77,123,342c2.07,2.13,4.09,4.31,6.47,6.83-2.79,3.86-5.39,7.44-8.16,11.25-1-.82-1.76-1.37-2.42-2.05Q71,308.65,23.07,259.21c-3.88-4-7.58-8.21-11.1-12.54a78.42,78.42,0,0,1-6.92-10.1,24.65,24.65,0,0,1-2.7-7.28C.4,219.89,6.61,212.2,15.63,212.2a16.47,16.47,0,0,1,2.5.19,56.44,56.44,0,0,1,13.21,3.66c15.55,6.51,31,13.28,46.42,20.07,9,3.95,17.8,8.18,26.75,12.17a23.4,23.4,0,0,0,6.35,1.92,1.83,1.83,0,0,0,.33,0,5.05,5.05,0,0,0,3.2-1.39c1.13-1.13.27-2.54-.53-3.7-.36-.51-.73-1-1.09-1.51-14.25-19.7-28.54-39.36-42.69-59.13a112.32,112.32,0,0,1-8.68-13.85,70.85,70.85,0,0,1-4.66-12.48,14.94,14.94,0,0,1,.41-9.17A13.69,13.69,0,0,1,70,139.67m0-2a15.7,15.7,0,0,0-14.75,10.68,17,17,0,0,0-.44,10.39,72.45,72.45,0,0,0,4.8,12.83,115.54,115.54,0,0,0,8.83,14.1c10.42,14.54,21.08,29.27,31.39,43.51l11.31,15.62.39.54.67.93a4.88,4.88,0,0,1,.7,1.22,3.11,3.11,0,0,1-1.72.74h-.06a21.67,21.67,0,0,1-5.81-1.76c-4-1.81-8.12-3.69-12.07-5.51-4.8-2.21-9.76-4.5-14.68-6.67-14.92-6.56-30.79-13.52-46.46-20.08a58.51,58.51,0,0,0-13.68-3.8,19.05,19.05,0,0,0-2.8-.21,15.55,15.55,0,0,0-12.17,5.59A16.51,16.51,0,0,0,.4,229.7a26.65,26.65,0,0,0,2.92,7.88,79.61,79.61,0,0,0,7.1,10.35c3.59,4.43,7.36,8.69,11.21,12.67,28.54,29.5,57.6,59.44,85.7,88.4l10.14,10.45a19.64,19.64,0,0,0,1.68,1.47l.89.72,1.65,1.38,1.26-1.73,8-11,.18-.25,1-1.35-1.14-1.2-2.24-2.38c-1.47-1.56-2.85-3-4.25-4.48L101.5,317C85.91,301,69.78,284.36,54,268c-9.38-9.7-17.06-17.87-24.18-25.7a47.5,47.5,0,0,1-6.16-9.11,2.67,2.67,0,0,1-.45-1.3,2.32,2.32,0,0,1,1.07-.17l.63,0a8.44,8.44,0,0,1,2,.49c1.12.4,2.24.78,3.37,1.17,2.78,1,5.65,1.94,8.33,3.14,18.76,8.43,37.82,17.05,56.25,25.38L124,275.13c3.57,1.61,7.08,3.17,10.74,4.54a19.76,19.76,0,0,0,6.42,1.35h.27a9.86,9.86,0,0,0,8.07-3.9,10.06,10.06,0,0,0,1.34-9,20.65,20.65,0,0,0-2.75-5.5c-2.16-3.14-4.37-6.09-6.57-8.77-20.48-25-39.35-51.89-57.59-77.91l-2.39-3.4a44.81,44.81,0,0,1-4.06-6.67,8.79,8.79,0,0,1-.8-4.28,3,3,0,0,1,.29-1.21,3.45,3.45,0,0,1,1.36.52c.5.29,1,.62,1.53,1l.54.37c32.72,21.52,67.53,44.61,101.68,69.31,3.57,2.59,7.1,5,10.07,7.09a13.81,13.81,0,0,0,2,1.09l.91.45,1.61.84,1-1.52,3.52-5.38,4.05-6.2,1.05-1.61-1.56-1.11L202,223.24c-1.86-1.31-3.61-2.55-5.35-3.81-36.08-26.14-72.92-50.66-104.2-71.21-3.29-2.15-7-4.6-10.84-6.77A33,33,0,0,0,74,138.2a15.46,15.46,0,0,0-4-.53Z"/><path d="M348.64,2.05c12.23-.37,25.95,1.14,39.05,6.51,16.56,6.78,29.51,18.09,40,32.34,11.84,16.12,18.42,34.45,21.69,54,1.9,11.33,2.38,22.69.1,34a59.28,59.28,0,0,1-19.53,33.83A92,92,0,0,1,409,176.2c-13.93,6.72-28.67,11.05-43.6,14.77-8.17,2-16.4,3.89-24.67,5.49-6.51,1.25-9.93-.66-12-7-3.19-9.78-6-19.68-8.79-29.58-12.34-43.69-22.58-87.9-33.16-132a51.37,51.37,0,0,1-1.09-5.47c-.71-5.65,1.4-9.32,6.64-11.5A46,46,0,0,1,298,9C311.66,5.33,332.59,2.38,348.64,2.05Zm3.54,13.52c-4.73.38-11.19.68-17.58,1.48-7.37.91-14.72,2.11-22,3.45-5.07.92-8,4.42-9,9.3a18.11,18.11,0,0,0,.17,7.33c10,43,20.53,85.86,32.52,128.35a36.72,36.72,0,0,0,1.53,4.58,12.19,12.19,0,0,0,9,7.63,26.08,26.08,0,0,0,12.87,0c7.29-2,14.62-3.87,21.84-6.1a133,133,0,0,0,30.93-13.52c16.15-9.94,24-24.49,24.31-43.34a113.88,113.88,0,0,0-5.36-35.16c-4.75-15.59-11.73-30-22.63-42.32a59.8,59.8,0,0,0-31.61-19.12C369.47,16.31,361.72,15.67,352.18,15.57Z"/><path d="M352.11,2a93.88,93.88,0,0,1,35.58,6.56c16.56,6.78,29.51,18.09,40,32.34,11.84,16.12,18.42,34.45,21.69,54,1.9,11.33,2.38,22.69.1,34a59.28,59.28,0,0,1-19.53,33.83A92,92,0,0,1,409,176.2c-13.93,6.72-28.67,11.05-43.6,14.77-8.17,2-16.4,3.89-24.67,5.49a18.85,18.85,0,0,1-3.4.36c-4.36,0-6.92-2.24-8.61-7.38-3.19-9.78-6-19.68-8.79-29.58-12.34-43.69-22.58-87.9-33.16-132a51.37,51.37,0,0,1-1.09-5.47c-.71-5.65,1.4-9.32,6.64-11.5A46,46,0,0,1,298,9c13.69-3.7,34.62-6.65,50.67-7,1.14,0,2.3,0,3.47,0m1.47,176.5a22.56,22.56,0,0,0,6.07-.8c7.29-2,14.62-3.87,21.84-6.1a133,133,0,0,0,30.93-13.52c16.15-9.94,24-24.49,24.31-43.34a113.88,113.88,0,0,0-5.36-35.16c-4.75-15.59-11.73-30-22.63-42.32a59.8,59.8,0,0,0-31.61-19.12c-7.66-1.83-15.41-2.47-24.95-2.57-4.73.38-11.19.68-17.58,1.48-7.37.91-14.72,2.11-22,3.45-5.07.92-8,4.42-9,9.3a18.11,18.11,0,0,0,.17,7.33c10,43,20.53,85.86,32.52,128.35a36.72,36.72,0,0,0,1.53,4.58,12.19,12.19,0,0,0,9,7.63,31,31,0,0,0,6.8.81M352.11,0c-1.17,0-2.35,0-3.53.05-15.93.32-37,3.22-51.13,7.05A48.45,48.45,0,0,0,291.55,9c-6,2.51-8.67,7.08-7.85,13.6a52.35,52.35,0,0,0,1.13,5.68q2.18,9.06,4.33,18.11c8.94,37.48,18.19,76.24,28.84,114,2.58,9.15,5.51,19.52,8.82,29.66,2,6,5.29,8.76,10.51,8.76a19.69,19.69,0,0,0,3.77-.4c8-1.54,16.08-3.34,24.78-5.51,13.37-3.33,29.05-7.71,44-14.91a93.27,93.27,0,0,0,21.38-13.68,61.49,61.49,0,0,0,20.18-34.95c2.1-10.46,2.08-21.83-.08-34.76C447.71,73,440.5,55,429.28,39.71c-11.52-15.67-24.87-26.47-40.83-33A95.49,95.49,0,0,0,352.11,0Zm1.47,176.5a29.23,29.23,0,0,1-6.36-.76,10.24,10.24,0,0,1-7.56-6.46,37.44,37.44,0,0,1-1.45-4.34c-10.4-36.88-20.43-76.43-32.5-128.26a16.21,16.21,0,0,1-.14-6.5c.58-3,2.33-6.8,7.35-7.72,8.39-1.53,15.36-2.62,21.93-3.43,4.51-.56,9-.87,13-1.15,1.57-.1,3-.21,4.38-.31,10.21.11,17.51.87,24.41,2.51a57.46,57.46,0,0,1,30.59,18.51C417,49.65,424.3,63.25,429.46,80.16a111.5,111.5,0,0,1,5.27,34.55c-.28,18.54-7.92,32.17-23.35,41.67a131.56,131.56,0,0,1-30.47,13.31c-5,1.53-10.12,2.92-15.08,4.25-2.24.61-4.48,1.21-6.71,1.83a20.58,20.58,0,0,1-5.54.73Z"/><path d="M87.2,749.2l12.89-5c.57,1.74,1.13,3.34,1.64,5a140,140,0,0,0,21.55,42.62c7.22,9.59,15.57,18,26,24.15,5.79,3.42,11.82,6.45,18.55,7.36a30.94,30.94,0,0,0,9.93-.29c5.77-1.14,9.1-5.36,9.65-11.25a19.08,19.08,0,0,0-1.84-10.51,96.13,96.13,0,0,0-8-13.79c-4.5-6.06-9.55-11.73-14.56-17.39C155.88,762,148.4,754.21,141.38,746a210,210,0,0,1-13.32-17.42,48.77,48.77,0,0,1-8.44-22c-1.83-15.42,2.83-28.86,13.65-39.74,16.59-16.69,36.78-22.07,59.46-16.12,20.33,5.34,37.77,16.12,52.45,31.17,7.62,7.82,12.85,17,14,28.09a79,79,0,0,1,0,8.43c-3.18.57-9.15-.07-13.71-1.46-.08-.64-.21-1.35-.24-2.07a34.77,34.77,0,0,0-6.13-19.25c-14.18-20.33-33.51-32.06-58.44-33.51-13.18-.77-25,3.54-34.89,12.32-8.87,7.87-13.3,17.76-12.11,29.81a32.51,32.51,0,0,0,5.12,14.62,136.44,136.44,0,0,0,10,13.86c6.64,7.86,13.68,15.38,20.49,23.1,6,6.79,12,13.54,17.79,20.51a72.6,72.6,0,0,1,11.8,19.73c2.73,7,3.82,14.11,1.93,21.49-3.08,12-12.39,19.43-24.75,19.88a43.2,43.2,0,0,1-16.38-2.87c-17.88-6.44-33.18-16.69-45.38-31.32-13-15.59-21.45-33.56-27.21-52.89A4.4,4.4,0,0,1,87.2,749.2Z"/><path d="M175.39,648.36a68.37,68.37,0,0,1,17.34,2.34c20.33,5.34,37.77,16.12,52.45,31.17,7.62,7.82,12.85,17,14,28.09a79,79,0,0,1,0,8.43,16.4,16.4,0,0,1-2.8.21,40.46,40.46,0,0,1-10.91-1.67c-.08-.64-.21-1.35-.23-2.07a34.86,34.86,0,0,0-6.14-19.25c-14.18-20.33-33.51-32.06-58.44-33.51-1-.06-2-.09-3-.09a47.06,47.06,0,0,0-31.91,12.41c-8.87,7.87-13.3,17.76-12.11,29.81a32.51,32.51,0,0,0,5.12,14.62,136.44,136.44,0,0,0,10,13.86c6.64,7.86,13.68,15.38,20.49,23.1,6,6.79,12,13.54,17.79,20.51a72.6,72.6,0,0,1,11.8,19.73c2.73,7,3.82,14.11,1.93,21.49-3.08,12-12.39,19.43-24.75,19.88-.43,0-.86,0-1.3,0a44.22,44.22,0,0,1-15.08-2.89c-17.88-6.44-33.18-16.69-45.38-31.32-13-15.59-21.45-33.56-27.21-52.89a4.4,4.4,0,0,1,0-1.14l12.89-5c.57,1.74,1.13,3.34,1.64,5a140,140,0,0,0,21.55,42.62c7.22,9.59,15.57,18,26,24.15,5.79,3.42,11.82,6.45,18.55,7.36a30.05,30.05,0,0,0,4,.27,31.08,31.08,0,0,0,5.88-.56c5.77-1.13,9.1-5.36,9.65-11.25a19.08,19.08,0,0,0-1.84-10.51,96.13,96.13,0,0,0-8-13.79c-4.5-6.06-9.55-11.73-14.56-17.39C155.88,762,148.4,754.21,141.38,746a210,210,0,0,1-13.32-17.42,48.77,48.77,0,0,1-8.44-22c-1.83-15.42,2.83-28.86,13.65-39.74,12.23-12.31,26.42-18.46,42.12-18.46m0-2c-16.32,0-31,6.41-43.54,19-11.34,11.4-16.12,25.33-14.21,41.39a50.62,50.62,0,0,0,8.78,22.93,210.3,210.3,0,0,0,13.44,17.59c4.07,4.75,8.36,9.44,12.51,14,3,3.3,6.15,6.72,9.15,10.12l.68.76c4.68,5.3,9.52,10.78,13.77,16.5a93.66,93.66,0,0,1,7.77,13.41l0,.1a17,17,0,0,1,1.64,9.41c-.49,5.19-3.35,8.55-8,9.48a29.2,29.2,0,0,1-5.49.52,27.84,27.84,0,0,1-3.79-.25c-6.57-.89-12.44-3.94-17.79-7.1-9.24-5.45-17.55-13.18-25.42-23.64a138.8,138.8,0,0,1-21.25-42c-.34-1.11-.71-2.21-1.1-3.36-.18-.53-.36-1.07-.54-1.63l-.66-2-2,.76-12.89,5-1.21.47-.07,1.3c0,.21,0,.37,0,.5a3.17,3.17,0,0,0,.07,1.31c6.39,21.45,15.42,39,27.59,53.6s27.61,25.21,46.24,31.93a46.13,46.13,0,0,0,15.76,3c.46,0,.92,0,1.38,0,13.34-.49,23.29-8.48,26.6-21.38,1.84-7.15,1.18-14.58-2-22.72a74.75,74.75,0,0,0-12.12-20.27c-5-6-10.2-11.94-15.27-17.67l-2.56-2.89c-2.51-2.85-5.08-5.7-7.58-8.47-4.28-4.74-8.7-9.65-12.89-14.6a134.55,134.55,0,0,1-9.83-13.66A30.38,30.38,0,0,1,135.74,704c-1.08-11,2.77-20.42,11.45-28.11,8.9-7.9,19.19-11.91,30.58-11.91.94,0,1.9,0,2.86.09,23.62,1.37,42.77,12.36,56.92,32.66a32.76,32.76,0,0,1,5.78,18.15,11.91,11.91,0,0,0,.17,1.69c0,.19.05.38.07.56l.15,1.3,1.25.38a42.51,42.51,0,0,0,11.5,1.76,18,18,0,0,0,3.15-.24l1.65-.29v-1.68c0-.85,0-1.69.05-2.59a45.65,45.65,0,0,0-.11-6.06c-1.15-10.66-6.06-20.51-14.6-29.27-15.4-15.79-33.36-26.45-53.38-31.7a70.39,70.39,0,0,0-17.84-2.41Z"/><path d="M389.74,867.45c-2.23,4.47-4.2,8.45-6.35,12.74-1.4-.76-2.69-1.43-3.95-2.14a548.82,548.82,0,0,0-95.55-42.82,10.61,10.61,0,0,0-9.24.67,9.57,9.57,0,0,0-4.76,6.34C268,849.93,266,857.61,264,865.3c-.33,1.29-.7,2.57-1.16,4.26l-14-3.3c16-58.68,27.47-118.07,43.83-176.36l13.24,1.91c-.28,1.76-.4,3.22-.75,4.63-3.89,15.76-7.89,31.5-11.71,47.28-4.4,18.2-8.65,36.42-12.94,54.64a23.6,23.6,0,0,0-.76,4.76c-.11,4,2.46,6,6.3,5a9.18,9.18,0,0,0,2-.88c11.27-6.05,22.18-12.64,32.19-20.67a92.56,92.56,0,0,0,26.3-32.82c4.6-9.74,8.51-19.8,12.69-29.74,1.24-2.94,2.35-5.93,3.6-9.08l11.87,3.61a15.18,15.18,0,0,1-.24,2.57c-5.1,18-11.9,35.23-22,51a109.15,109.15,0,0,1-25.24,27.09,213.61,213.61,0,0,1-26.09,17.14,14.56,14.56,0,0,0-3.75,3c-1.58,1.79-1.49,3.29.33,4.85a13.69,13.69,0,0,0,4.18,2.28,549.27,549.27,0,0,1,74.5,33.61C380.81,862.42,385.1,864.87,389.74,867.45Z"/><path d="M292.7,689.9l13.24,1.91c-.28,1.76-.4,3.22-.75,4.63-3.89,15.76-7.89,31.5-11.71,47.28-4.4,18.2-8.65,36.43-12.94,54.64a23.6,23.6,0,0,0-.76,4.76c-.09,3.3,1.67,5.23,4.48,5.23a7.6,7.6,0,0,0,1.82-.24,9.18,9.18,0,0,0,2-.88c11.27-6.05,22.18-12.64,32.19-20.67a92.56,92.56,0,0,0,26.3-32.82c4.6-9.74,8.51-19.8,12.69-29.74,1.24-2.94,2.36-5.93,3.6-9.08l11.87,3.61a15.18,15.18,0,0,1-.24,2.57c-5.1,18-11.9,35.23-22,51a109.15,109.15,0,0,1-25.24,27.09,213.61,213.61,0,0,1-26.09,17.14,14.56,14.56,0,0,0-3.75,3c-1.58,1.79-1.49,3.29.33,4.85a13.69,13.69,0,0,0,4.18,2.28,549.27,549.27,0,0,1,74.5,33.61c4.35,2.35,8.64,4.8,13.28,7.38-2.23,4.47-4.2,8.45-6.35,12.74-1.4-.76-2.69-1.43-3.95-2.14a548.82,548.82,0,0,0-95.55-42.82,12.68,12.68,0,0,0-4.11-.74,10.24,10.24,0,0,0-5.13,1.41,9.57,9.57,0,0,0-4.76,6.34C268,849.93,266,857.61,264,865.3c-.33,1.29-.7,2.57-1.16,4.26l-14-3.3c16-58.68,27.47-118.07,43.83-176.36m-1.45-2.24-.47,1.69c-8.59,30.6-16,62-23.08,92.39-6.47,27.58-13.16,56.1-20.76,84l-.54,2,2,.48,7.73,1.82,6.24,1.48,1.88.44.51-1.86c.15-.56.29-1.08.43-1.57.27-1,.52-1.85.74-2.73l1.19-4.62c1.55-6,3.16-12.29,4.7-18.45a7.61,7.61,0,0,1,3.8-5.08,8.27,8.27,0,0,1,4.15-1.15,10.74,10.74,0,0,1,3.47.63,550.78,550.78,0,0,1,95.21,42.67c.87.49,1.74,1,2.66,1.45l1.32.71,1.82,1,.92-1.86,6.35-12.74.86-1.71-1.67-.93-4.35-2.43c-3.08-1.72-6-3.35-9-5a549.13,549.13,0,0,0-74.77-33.74,11.32,11.32,0,0,1-3.56-1.91c-.53-.45-.73-.79-.74-.95s.14-.53.61-1.06a12.41,12.41,0,0,1,3.24-2.53,214.4,214.4,0,0,0,26.34-17.3c10.86-8.5,19.26-17.53,25.69-27.59,9.21-14.43,16.48-31.3,22.23-51.58a9.07,9.07,0,0,0,.27-2.13c0-.26,0-.53,0-.81l.14-1.62-1.55-.47-9.16-2.79-2.7-.83-1.77-.54-.68,1.72c-.4,1-.78,2-1.16,3-.82,2.1-1.59,4.09-2.42,6.07-1.19,2.81-2.37,5.69-3.52,8.46-2.88,7-5.86,14.26-9.14,21.2A90.77,90.77,0,0,1,319.06,785c-8.59,6.9-18.72,13.4-31.89,20.47a7.1,7.1,0,0,1-1.58.7,5.43,5.43,0,0,1-1.33.18,2.33,2.33,0,0,1-1.75-.62,3.46,3.46,0,0,1-.73-2.55,22.75,22.75,0,0,1,.7-4.36l2.6-11c3.36-14.3,6.83-29.09,10.34-43.61,2.38-9.81,4.86-19.77,7.27-29.4q2.24-8.94,4.44-17.87a29.71,29.71,0,0,0,.55-3.18q.1-.76.24-1.62l.31-2-2-.29L293,687.92l-1.74-.26Z"/><path d="M732.29,453.73,719,456.66c-.36-2-.72-3.62-1-5.29-3.28-23.07-6.18-46.21-11.19-69-4-17.92-8.17-35.77-14.39-53.08-9.51-26.45-24.13-49.91-41.59-71.76-14-17.55-29.23-34.06-44.64-50.39-4.93-5.23-9.91-10.43-14.67-15.82a147.51,147.51,0,0,0-27.67-24.17C547.7,156.12,531,146,513,138a47.94,47.94,0,0,1-5.27-2.75,9.43,9.43,0,0,1-4.32-5.4c-1.24-4,1.16-7.76,5.36-7.87a14.92,14.92,0,0,1,6.1,1.23c19.87,8.67,38.69,18.92,54.62,34.06,8.34,7.93,17.56,15,26.59,22.11a227.42,227.42,0,0,1,24.51,22.22c14,14.89,27.86,30,40.56,46.05a174.81,174.81,0,0,1,23.63,38.6q7.77,17.91,15.55,35.81c1.87,4.32,3.55,8.73,5.61,13a191.59,191.59,0,0,1,16.41,52c3.54,20.65,6.48,41.39,9.64,62.1C732.22,450.49,732.19,452,732.29,453.73Z"/><path d="M509.08,121.94a15,15,0,0,1,5.8,1.23c19.87,8.67,38.69,18.92,54.62,34.06,8.34,7.93,17.56,15,26.59,22.11a227.42,227.42,0,0,1,24.51,22.22c14,14.89,27.86,30,40.56,46.05a174.81,174.81,0,0,1,23.63,38.6q7.77,17.91,15.55,35.81c1.87,4.32,3.55,8.73,5.61,13a191.59,191.59,0,0,1,16.41,52c3.54,20.65,6.48,41.39,9.64,62.1.22,1.45.19,2.93.29,4.68L719,456.66c-.36-2-.72-3.62-1-5.29-3.29-23.07-6.18-46.21-11.19-69-4-17.92-8.17-35.77-14.39-53.08-9.51-26.45-24.13-49.91-41.59-71.76-14-17.55-29.23-34.06-44.64-50.39-4.93-5.23-9.91-10.43-14.67-15.82a147.16,147.16,0,0,0-27.67-24.17C547.7,156.12,531,146,513,138a47.94,47.94,0,0,1-5.27-2.75,9.46,9.46,0,0,1-4.32-5.4c-1.24-4,1.16-7.76,5.36-7.87h.3m0-2h-.35a7.77,7.77,0,0,0-6.19,3.16,8.24,8.24,0,0,0-1,7.31,11.41,11.41,0,0,0,5.2,6.52,51.33,51.33,0,0,0,5.49,2.86c15.64,7,31.72,16.17,50.6,29a146.27,146.27,0,0,1,27.29,23.84c4,4.56,8.29,9.06,12.39,13.4l2.33,2.46c17.11,18.15,31.24,33.64,44.53,50.27,19.17,24,32.67,47.28,41.27,71.18,6.4,17.8,10.74,36.61,14.31,52.84,4.22,19.18,7,39,9.66,58.12q.75,5.37,1.51,10.74c.16,1.16.39,2.31.62,3.53.12.58.23,1.19.35,1.83l.38,2,2-.45,9.68-2.14,3.58-.79,1.66-.37-.1-1.7c0-.56,0-1.09-.06-1.6a29.25,29.25,0,0,0-.24-3.26q-1.32-8.6-2.6-17.21c-2.2-14.74-4.48-30-7-44.93a194.76,194.76,0,0,0-16.59-52.51c-1.34-2.74-2.54-5.64-3.71-8.44-.6-1.46-1.23-3-1.87-4.44q-6.45-14.88-12.92-29.76l-2.63-6a175.92,175.92,0,0,0-23.89-39c-13.06-16.53-27.27-32-40.67-46.18a228.71,228.71,0,0,0-24.73-22.42l-4-3.13c-7.58-6-15.43-12.15-22.48-18.86-14-13.26-31-23.88-55.2-34.44a17,17,0,0,0-6.6-1.4Z"/><path d="M285.05,172.43l-10.25,9.65c-.79-1.08-1.53-2-2.16-3-3.83-6.09-7.61-12.21-11.45-18.29-3-4.69-5.07-5.72-10.2-3.48A90.36,90.36,0,0,0,226.07,174c-4,3.63-4.63,8.63-2.72,13.77,1.33,3.59,2.71,7.17,4.19,11.06l-13.07,4.32c-.51-1-1.1-1.88-1.49-2.86-14.26-35.7-28.31-71.47-40-108.13a141.92,141.92,0,0,1-3.84-17,26.31,26.31,0,0,1,1-12.5c3.85-12.71,20.29-21.9,34.09-10.29a53.6,53.6,0,0,1,7.5,7.71c4.22,5.35,8.32,10.82,12.15,16.45,21,30.87,40.71,62.58,60.33,94.34C284.5,171.26,284.68,171.71,285.05,172.43ZM183,72a92.27,92.27,0,0,0,1.94,9.8c2.91,9.47,5.88,18.93,9.19,28.26,5.29,14.94,10.8,29.81,16.38,44.65,2.25,6,5.5,6.4,10.89,4a13.74,13.74,0,0,0,2.21-1.37c3.18-2.15,6.45-4.19,9.49-6.52a110.68,110.68,0,0,0,9.06-7.68c3-2.88,3.47-6.47,1.6-10.17a22,22,0,0,0-1.34-2.23c-10.17-15.55-20.28-31.14-30.58-46.61-3.5-5.26-7.39-10.26-11.26-15.24a34.47,34.47,0,0,0-5.44-5.56c-4.15-3.38-9.16-2-11.05,3.1A33.42,33.42,0,0,0,183,72Z"/><path d="M190.62,47a21,21,0,0,1,13.65,5.32,53.6,53.6,0,0,1,7.5,7.71c4.22,5.35,8.32,10.82,12.15,16.45,21,30.87,40.71,62.58,60.33,94.34.25.41.43.86.8,1.58l-10.25,9.65c-.79-1.08-1.54-2-2.16-3-3.83-6.09-7.61-12.21-11.45-18.29-2-3.12-3.56-4.62-5.91-4.62a11.11,11.11,0,0,0-4.29,1.14A90.36,90.36,0,0,0,226.07,174c-4,3.63-4.63,8.63-2.72,13.77,1.33,3.59,2.71,7.17,4.19,11.06l-13.07,4.32c-.51-1-1.1-1.88-1.49-2.86-14.26-35.7-28.31-71.47-40-108.13a141.92,141.92,0,0,1-3.84-17,26.31,26.31,0,0,1,1-12.5C172.79,54,181.18,47,190.62,47m25.7,113a13.12,13.12,0,0,0,5.05-1.34,13.74,13.74,0,0,0,2.21-1.37c3.18-2.15,6.45-4.19,9.49-6.52a110.68,110.68,0,0,0,9.06-7.68c3-2.88,3.47-6.47,1.6-10.17a22,22,0,0,0-1.34-2.23c-10.17-15.55-20.28-31.14-30.58-46.61-3.5-5.25-7.39-10.25-11.26-15.24a34.47,34.47,0,0,0-5.44-5.56,7.5,7.5,0,0,0-4.73-1.84c-2.68,0-5.13,1.75-6.32,4.94A33.42,33.42,0,0,0,183,72a92.27,92.27,0,0,0,1.94,9.8c2.91,9.47,5.88,18.93,9.19,28.26,5.29,14.94,10.8,29.81,16.38,44.65,1.44,3.84,3.29,5.38,5.84,5.38M190.62,45h0c-10,0-19.36,7.16-22.35,17a28.07,28.07,0,0,0-1.06,13.44l.16.87a134.12,134.12,0,0,0,3.75,16.39c11.64,36.65,25.56,72.12,40,108.26a19.28,19.28,0,0,0,1.1,2.18q.25.44.48.87l.8,1.49,1.6-.53,6.48-2.14,6.58-2.17,2-.66-.74-1.95c-.47-1.22-.92-2.41-1.36-3.58-1-2.57-1.91-5-2.83-7.46-1.2-3.27-1.8-7.93,2.2-11.61a88.88,88.88,0,0,1,24.37-16.29,9.45,9.45,0,0,1,3.49-1c1.2,0,2.27.61,4.22,3.69,2.13,3.37,4.28,6.82,6.36,10.15,1.7,2.71,3.39,5.43,5.09,8.13.47.74,1,1.41,1.5,2.11.24.32.49.64.73,1l1.34,1.83,1.65-1.55,1.67-1.57,8.58-8.08,1.08-1-.66-1.33-.32-.64a10.31,10.31,0,0,0-.57-1.1c-20.87-33.79-39.82-64.21-60.37-94.41C222,70.19,218,64.77,213.34,58.82a54.92,54.92,0,0,0-7.79-8A23.12,23.12,0,0,0,190.62,45ZM185,72c.09-.52.16-1,.23-1.52a16.13,16.13,0,0,1,.69-3.3c.86-2.28,2.52-3.64,4.45-3.64a5.54,5.54,0,0,1,3.46,1.39A32.5,32.5,0,0,1,199,70.13l.16.2c3.74,4.82,7.6,9.8,11,14.93,7.56,11.34,15.13,22.95,22.46,34.17q4.07,6.21,8.12,12.42a22.56,22.56,0,0,1,1.23,2c1.51,3,1.11,5.63-1.2,7.82a107.81,107.81,0,0,1-8.89,7.54c-2.12,1.62-4.41,3.14-6.63,4.61-.93.61-1.86,1.22-2.77,1.84L222,156a9.12,9.12,0,0,1-1.44.89,11.38,11.38,0,0,1-4.25,1.17c-1.27,0-2.62-.49-4-4.08-4.59-12.23-10.6-28.36-16.37-44.62-3.44-9.72-6.53-19.64-9.16-28.18a48.22,48.22,0,0,1-1.34-6.44c-.15-.91-.3-1.85-.47-2.78Z"/><path d="M615,580.53l-12-7.24c.71-1.4,1.24-2.5,1.82-3.56q22.93-41.51,45.9-83a23.63,23.63,0,0,1,2.38-3.76,7.09,7.09,0,0,1,11.9.88,23.82,23.82,0,0,1,1.92,4.42q19.58,54.4,39.12,108.83c1.68,4.66,3.48,9.28,5.23,13.92.31.81.62,1.62,1,2.4.86,1.82,1.75,3.81,4.06,3.92,2.51.11,4-1.71,5.2-3.67a25.58,25.58,0,0,0,1.6-3.76q12.33-31.11,24.68-62.22c.72-1.82,1.59-3.58,2.54-5.68l12.25,6c-.57,1.68-1,3.1-1.53,4.47q-18,45.68-36,91.33c-1.86,4.71-4.43,6.78-8,6.5-4.29-.32-6-3.34-7.23-7-4.43-13.28-8.47-26.72-13.46-39.79-10.64-27.91-21.76-55.64-32.77-83.41a18.55,18.55,0,0,0-3.78-6.32c-3.08-3.07-5.88-3.12-8.16.77-.69,1.17-1.35,2.37-2,3.56l-32.39,58.6C616.61,578,615.89,579.09,615,580.53Z"/><path d="M658.81,480.13a7.24,7.24,0,0,1,6.2,3.71,23.82,23.82,0,0,1,1.92,4.42q19.58,54.4,39.12,108.83c1.68,4.66,3.48,9.28,5.23,13.92.31.81.62,1.62,1,2.4.86,1.82,1.75,3.81,4.06,3.92h.22c2.39,0,3.84-1.77,5-3.67a25.58,25.58,0,0,0,1.6-3.76q12.33-31.11,24.68-62.22c.72-1.82,1.59-3.58,2.54-5.68l12.25,6c-.57,1.68-1,3.1-1.53,4.47q-18,45.68-36,91.33c-1.75,4.43-4.13,6.53-7.39,6.53l-.62,0c-4.28-.32-6-3.34-7.22-7-4.43-13.28-8.47-26.72-13.46-39.79-10.64-27.91-21.76-55.64-32.77-83.41a18.55,18.55,0,0,0-3.78-6.32c-1.46-1.46-2.86-2.23-4.17-2.23s-2.79,1-4,3c-.69,1.17-1.35,2.37-2,3.56l-32.39,58.6c-.65,1.17-1.37,2.31-2.22,3.75l-12-7.24c.71-1.4,1.24-2.5,1.82-3.56q22.93-41.51,45.9-83a23.63,23.63,0,0,1,2.38-3.76,7.44,7.44,0,0,1,5.7-2.83m0-2a9.4,9.4,0,0,0-7.24,3.55,23.5,23.5,0,0,0-2.45,3.82l-.14.26q-23,41.49-45.9,83c-.41.75-.77,1.48-1.2,2.32-.2.41-.41.84-.65,1.3l-.85,1.66,1.6,1,5.9,3.56,6.12,3.68,1.73,1,1-1.73.81-1.34c.52-.85,1-1.65,1.45-2.47q11.36-20.52,22.69-41l9.7-17.55.28-.5c.55-1,1.12-2,1.7-3s1.37-2,2.27-2a4.66,4.66,0,0,1,2.76,1.65,16.51,16.51,0,0,1,3.34,5.64q3,7.67,6.09,15.35c8.84,22.26,18,45.28,26.66,68,3.53,9.25,6.64,18.87,9.65,28.16,1.23,3.79,2.5,7.71,3.78,11.55,1.22,3.66,3.34,7.91,9,8.34l.77,0c4.1,0,7.21-2.62,9.25-7.79,12.16-30.78,24.46-62,36-91.34.38-1,.7-2,1-3,.16-.5.33-1,.52-1.56l.56-1.67-1.57-.77-8-4-4.21-2.07-1.86-.92-.85,1.89c-.31.68-.6,1.33-.89,2-.6,1.31-1.17,2.54-1.68,3.81q-8.44,21.27-16.88,42.55l-7.8,19.68c-.14.34-.26.68-.39,1a15.3,15.3,0,0,1-1.07,2.44c-1.14,1.91-2.09,2.69-3.26,2.69h-.13c-.9,0-1.36-.7-2.28-2.66l-.06-.11c-.35-.74-.65-1.52-.93-2.26l-1.5-3.95c-1.24-3.25-2.53-6.62-3.72-9.94q-10.14-28.17-20.26-56.36-9.42-26.24-18.85-52.47l-.05-.12a25.14,25.14,0,0,0-2-4.66,9.31,9.31,0,0,0-7.91-4.67Z"/><path d="M397.06,709.27l13.23-1.85c.64,3.19,1.37,6.05,1.79,9q6.07,42,12.06,83.92c1.37,9.45,2.85,18.87,4.35,28.3a39.16,39.16,0,0,0,1.43,5.38c2.85,9.18,9.09,14.56,18.52,16.13a32,32,0,0,0,21.88-3.88,13.18,13.18,0,0,0,6.9-10.41c.8-6.76-.27-13.38-1.45-20-6.58-36.85-13.91-73.55-22.46-110a19.9,19.9,0,0,1-.29-2.31l13.42-3.29c.52,1.8,1.12,3.52,1.5,5.28,3.15,14.53,6.42,29,9.35,43.62q6.52,32.45,12.62,65a75,75,0,0,1,1.26,21.47c-.88,8.89-5,15.8-12.7,20.27-12.66,7.32-26,8.59-39.71,3.45C428.85,855.6,422,848.47,418,838.7a96,96,0,0,1-5.82-23c-3.56-24.16-7-48.34-10.43-72.51-1.36-9.45-2.77-18.89-4.12-28.33C397.37,713.13,397.27,711.41,397.06,709.27Z"/><path d="M466.44,700.26c.52,1.8,1.12,3.52,1.5,5.28,3.15,14.53,6.42,29,9.35,43.62q6.52,32.45,12.62,65a75,75,0,0,1,1.26,21.47c-.88,8.89-5,15.8-12.7,20.27a46,46,0,0,1-23.24,6.56,46.5,46.5,0,0,1-16.47-3.11C428.85,855.6,422,848.47,418,838.7a96,96,0,0,1-5.82-23c-3.56-24.16-7-48.34-10.43-72.51-1.36-9.45-2.77-18.89-4.12-28.33-.25-1.71-.35-3.43-.56-5.57l13.23-1.85c.64,3.19,1.37,6.06,1.79,9q6.07,42,12.06,83.92c1.37,9.45,2.85,18.87,4.35,28.3a39.16,39.16,0,0,0,1.43,5.38c2.85,9.18,9.09,14.56,18.52,16.13a34.73,34.73,0,0,0,5.79.49,31.74,31.74,0,0,0,16.09-4.37,13.18,13.18,0,0,0,6.9-10.41c.8-6.76-.27-13.38-1.45-20-6.58-36.85-13.91-73.55-22.46-110a19.9,19.9,0,0,1-.29-2.31l13.42-3.29m1.39-2.4-1.87.46-13.42,3.28-1.72.42.21,1.77c0,.27.06.52.08.77a12.29,12.29,0,0,0,.25,1.75c7.92,33.76,15.26,69.71,22.44,109.9,1.23,6.86,2.18,13,1.43,19.37a11.23,11.23,0,0,1-5.91,8.92,29.9,29.9,0,0,1-15.09,4.1,33,33,0,0,1-5.46-.46c-8.77-1.46-14.31-6.29-16.94-14.75l-.15-.48a33,33,0,0,1-1.21-4.63c-1.44-9-3-18.61-4.35-28.26q-3-20.81-6-41.61-3-21.15-6.08-42.31c-.29-2-.72-4-1.18-6.1-.21-1-.42-2-.63-3l-.38-1.85-1.86.26-7.79,1.1-5.44.76-1.9.27.18,1.91c.07.7.13,1.35.19,2,.11,1.27.22,2.48.39,3.67.68,4.76,1.38,9.52,2.07,14.28s1.38,9.37,2.05,14.06q1.69,11.76,3.37,23.53c2.29,16.06,4.65,32.66,7.06,49,1,6.59,2.52,15.21,5.95,23.49,4.41,10.62,11.78,17.93,21.92,21.73a48.84,48.84,0,0,0,17.17,3.24,48,48,0,0,0,24.24-6.83c8.11-4.69,12.72-12,13.69-21.81a76.73,76.73,0,0,0-1.29-22c-4.52-24-8.64-45.23-12.62-65-2.19-10.89-4.6-21.91-6.93-32.58q-1.21-5.54-2.42-11.08c-.28-1.28-.67-2.53-1-3.74-.17-.55-.34-1.1-.5-1.66l-.53-1.85Z"/><path d="M18.16,373.23l13.16,4c-.4,1.6-.69,2.9-1.05,4.18-8.74,31-11.56,62.66-10.12,94.69,1,23.1,6.64,45.3,15.21,66.8,9.81,24.63,21.29,48.34,37,69.85,1.83,2.5,3.7,5,5.55,7.46a4.59,4.59,0,0,1,.25.91l-10.3,9c-1-1.21-2-2.28-2.85-3.42-15.64-20.12-27.57-42.36-37.59-65.7a194.45,194.45,0,0,1-13-46.44c-3-18.87-5.6-37.78-7.27-56.81C5.65,441,7,424.33,9.9,407.8c1.82-10.24,4.52-20.31,6.87-30.45C17.07,376.05,17.62,374.8,18.16,373.23Z"/><path d="M18.16,373.23l13.16,4c-.4,1.6-.69,2.9-1.05,4.18-8.74,31-11.56,62.66-10.12,94.69,1,23.1,6.64,45.3,15.21,66.8,9.81,24.63,21.29,48.34,37,69.85,1.83,2.5,3.7,5,5.55,7.46a4.59,4.59,0,0,1,.25.91l-10.3,9c-1-1.21-2-2.28-2.85-3.42-15.64-20.12-27.57-42.36-37.59-65.7a194.45,194.45,0,0,1-13-46.44c-3-18.87-5.6-37.78-7.27-56.81C5.65,441,7,424.33,9.9,407.8c1.82-10.24,4.52-20.32,6.87-30.45.3-1.3.85-2.55,1.39-4.12m-1.27-2.47-.63,1.83q-.26.75-.51,1.41a24.25,24.25,0,0,0-.93,2.89c-.67,2.9-1.38,5.85-2.07,8.7-1.73,7.13-3.51,14.5-4.82,21.86C4.67,425.78,3.76,442.32,5.14,458c1.49,17,3.81,35.13,7.29,57a195.66,195.66,0,0,0,13.11,46.91C36.81,588.09,49.19,609.73,63.39,628c.62.8,1.26,1.55,1.93,2.35.32.36.64.74,1,1.13l1.32,1.57,1.54-1.35,5.92-5.2,4.38-3.85.93-.82-.32-1.2c-.07-.25-.1-.41-.13-.53a2.63,2.63,0,0,0-.44-1.05l-2.07-2.77c-1.14-1.53-2.33-3.11-3.47-4.68-13.64-18.72-25.31-40.78-36.72-69.41C28,519.16,23.11,497.52,22.15,476,20.62,442.12,23.91,411.35,32.2,382c.25-.9.46-1.8.69-2.75l.37-1.5.45-1.84-1.81-.56L27.54,374l-8.8-2.69-1.85-.56Z"/><path d="M631.56,785.23l6.73,12.1c-1.51.84-2.67,1.54-3.88,2.14-12.33,6.12-24.64,12.26-37,18.31A136.44,136.44,0,0,0,576,830.53a34.58,34.58,0,0,1-4.69,3A7.87,7.87,0,0,1,560.82,831a23.47,23.47,0,0,1-1.92-3.19q-35-66.32-69.89-132.64c-1.14-2.17-2.16-4.41-3.36-6.89l11.6-7.07c.84,1.38,1.65,2.56,2.32,3.82q11.37,21.36,22.68,42.72c12.74,24.13,25.41,48.29,38.23,72.38a76,76,0,0,0,6.32,9.14c4.45,6,10.48,6,17,3.45a47.5,47.5,0,0,0,6.52-3.56q18.61-10.92,37.21-21.86C628.74,786.65,630,786.06,631.56,785.23Z"/><path d="M497.24,681.24c.85,1.38,1.66,2.56,2.34,3.82q11.35,21.36,22.67,42.72c12.74,24.13,25.41,48.29,38.23,72.38a76,76,0,0,0,6.32,9.14,11.36,11.36,0,0,0,9.57,5.07,20.89,20.89,0,0,0,7.47-1.62,47.5,47.5,0,0,0,6.52-3.56q18.61-10.92,37.21-21.86c1.17-.68,2.39-1.27,4-2.1l6.73,12.1c-1.51.84-2.67,1.54-3.88,2.14-12.33,6.12-24.64,12.26-37,18.31A136.44,136.44,0,0,0,576,830.53a34.58,34.58,0,0,1-4.69,3,8.92,8.92,0,0,1-4.05,1.05,8,8,0,0,1-6.48-3.56,23.47,23.47,0,0,1-1.92-3.19q-35-66.32-69.89-132.64c-1.14-2.17-2.16-4.41-3.36-6.89l11.59-7.07m.67-2.75-1.71,1-7.51,4.59-4.08,2.48-1.56.95.8,1.64c.39.8.76,1.58,1.12,2.33.76,1.6,1.48,3.11,2.27,4.61,21.37,40.59,44.23,84,69.89,132.65a25.88,25.88,0,0,0,2.08,3.44,10,10,0,0,0,8.09,4.37,10.85,10.85,0,0,0,5-1.27,37.23,37.23,0,0,0,5-3.18,134.82,134.82,0,0,1,21.07-12.56c9.73-4.77,19.59-9.66,29.12-14.4l7.89-3.92c.85-.42,1.68-.89,2.56-1.39l1.4-.79,1.76-1-1-1.75-.82-1.48-5.92-10.63-.95-1.7-1.73.91-1.47.76c-.95.48-1.77.9-2.59,1.39l-17.32,10.17-19.89,11.68-1.5.91a31.51,31.51,0,0,1-4.73,2.52,18.83,18.83,0,0,1-6.75,1.48,9.32,9.32,0,0,1-8-4.26L567,806.28a54.52,54.52,0,0,1-4.78-7.06c-8.6-16.15-17.27-32.6-25.65-48.51q-6.29-11.94-12.58-23.86c-7.37-14-14.91-28.13-22.2-41.83l-.48-.9c-.49-.91-1-1.76-1.59-2.65-.26-.41-.53-.83-.8-1.27l-1-1.71Z"/><path d="M689.27,691.25l10.19,9.2c-1.14,1.31-2.07,2.43-3.06,3.52q-19.23,21.21-38.47,42.43c-.66.73-1.32,1.48-2,2.15-3.6,3.34-7.59,3.4-11.31.15a34.35,34.35,0,0,1-2.63-2.63c-4.57-5.06-9.08-10.17-13.68-15.2-6.28-6.86-12.45-13.82-19-20.45-20.91-21.34-42-42.54-62.94-63.82-2.08-2.11-4-4.34-6.37-6.88l9.54-9.73c1.36,1.28,2.49,2.22,3.48,3.28q16.66,17.78,33.29,35.57c13.14,14,26.23,28.09,39.48,42,4.53,4.75,9.46,9.11,14.27,13.58a16.66,16.66,0,0,0,8.07,4.36,9.59,9.59,0,0,0,10-3.23c9-10.1,18.12-20,27.21-30.06C686.55,694.14,687.82,692.8,689.27,691.25Z"/><path d="M549.54,630c1.36,1.27,2.49,2.21,3.48,3.27q16.66,17.78,33.29,35.57c13.14,14,26.23,28.09,39.48,42,4.53,4.75,9.46,9.11,14.27,13.58a16.66,16.66,0,0,0,8.07,4.36,13.08,13.08,0,0,0,2.64.29,9.4,9.4,0,0,0,7.33-3.52c9-10.1,18.12-20,27.21-30.06,1.24-1.36,2.51-2.7,4-4.25l10.19,9.2c-1.14,1.31-2.07,2.43-3.06,3.52q-19.23,21.21-38.47,42.43c-.66.73-1.32,1.48-2,2.15a8.4,8.4,0,0,1-5.7,2.55,8.56,8.56,0,0,1-5.61-2.4,34.35,34.35,0,0,1-2.63-2.63c-4.57-5.06-9.08-10.17-13.68-15.2-6.28-6.86-12.45-13.82-19-20.45-20.91-21.34-42-42.54-62.94-63.82-2.08-2.11-4-4.34-6.37-6.88l9.54-9.72m-.06-2.8-1.37,1.39-9.54,9.73-1.33,1.36,1.29,1.4c.76.82,1.49,1.62,2.18,2.39,1.45,1.59,2.81,3.09,4.24,4.54q10.8,10.95,21.61,21.88c13.56,13.72,27.59,27.91,41.32,41.93,4.93,5,9.76,10.35,14.43,15.49l4.47,4.91c2.81,3.06,5.63,6.21,8.35,9.26,1.78,2,3.55,4,5.33,5.93a33.19,33.19,0,0,0,2.79,2.79,10.49,10.49,0,0,0,6.93,2.9,10.34,10.34,0,0,0,7.06-3.08,27.59,27.59,0,0,0,1.92-2l.25-.28q19.25-21.21,38.47-42.43c.68-.75,1.34-1.51,2-2.32l1.06-1.24,1.28-1.48L700.8,699l-9.06-8.17-1.13-1-1.46-1.32-1.35,1.44-1.36,1.46c-.91,1-1.77,1.88-2.61,2.81q-3.52,3.89-7.06,7.75c-6.64,7.29-13.5,14.82-20.17,22.32a7.37,7.37,0,0,1-5.83,2.85,11.63,11.63,0,0,1-2.24-.25,14.63,14.63,0,0,1-7.1-3.86l-3.35-3.09c-3.64-3.35-7.4-6.81-10.84-10.41C617.16,698.88,607,688,597.18,677.53l-9.41-10.06q-7.66-8.18-15.32-16.37-9-9.6-18-19.2c-.72-.77-1.49-1.47-2.31-2.21l-1.26-1.15-1.43-1.34Z"/></g></g></svg>