<svg width="40" height="40" viewBox="0 0 40 40" fill="none" xmlns="http://www.w3.org/2000/svg">
<circle cx="20" cy="20" r="20" fill="white"/>
<path fill-rule="evenodd" clip-rule="evenodd" d="M20 5.3999C21.2522 6.92641 22.6333 8.34405 24.1268 9.63635C23.1316 12.8491 22.5958 16.2625 22.5958 19.8004C22.5958 23.3384 23.1316 26.7518 24.1269 29.9646C22.6333 31.257 21.2522 32.6746 20 34.2012C18.7477 32.6746 17.3666 31.2569 15.8731 29.9646C16.8682 26.7518 17.404 23.3384 17.404 19.8005C17.404 16.2626 16.8682 12.8493 15.8731 9.63645C17.3666 8.34412 18.7477 6.92645 20 5.3999ZM13.0184 27.7435C11.4374 26.6405 9.75957 25.6658 8.00002 24.8344C8.48809 23.2421 8.75065 21.5518 8.75065 19.8006C8.75065 18.0492 8.48809 16.359 8 14.7666C9.75957 13.9353 11.4375 12.9605 13.0185 11.8576C13.623 14.4074 13.9429 17.0667 13.9429 19.8004C13.9429 22.5342 13.623 25.1935 13.0184 27.7435ZM26.0573 19.8005C26.0573 22.5342 26.3772 25.1935 26.9817 27.7433C28.5627 26.6404 30.2405 25.6656 32 24.8343C31.5119 23.242 31.2494 21.5517 31.2494 19.8005C31.2494 18.0492 31.5119 16.359 32 14.7667C30.2405 13.9354 28.5626 12.9607 26.9817 11.8578C26.3772 14.4076 26.0573 17.0669 26.0573 19.8005Z" fill="#6851FF"/>
</svg>
