<svg width="40" height="40" viewBox="0 0 40 40" fill="none" xmlns="http://www.w3.org/2000/svg">
<circle cx="20" cy="20" r="20" fill="white"/>
<path d="M30.0998 9L21.0173 15.7493L22.7063 11.7717L30.0998 9Z" fill="#E17726" stroke="#E17726" stroke-width="0.158112" stroke-linecap="round" stroke-linejoin="round"/>
<path d="M9.1499 9L18.1515 15.8123L16.5434 11.7717L9.1499 9Z" fill="#E27625" stroke="#E27625" stroke-width="0.158112" stroke-linecap="round" stroke-linejoin="round"/>
<path d="M26.8296 24.6494L24.413 28.357L29.5875 29.7879L31.0698 24.7304L26.8296 24.6494Z" fill="#E27625" stroke="#E27625" stroke-width="0.158112" stroke-linecap="round" stroke-linejoin="round"/>
<path d="M8.1886 24.7304L9.66191 29.7879L14.8275 28.357L12.4199 24.6494L8.1886 24.7304Z" fill="#E27625" stroke="#E27625" stroke-width="0.158112" stroke-linecap="round" stroke-linejoin="round"/>
<path d="M14.549 18.3859L13.1116 20.5636L18.2322 20.7976L18.0616 15.2632L14.549 18.3859Z" fill="#E27625" stroke="#E27625" stroke-width="0.158112" stroke-linecap="round" stroke-linejoin="round"/>
<path d="M24.7005 18.3859L21.134 15.2002L21.0172 20.7976L26.1379 20.5636L24.7005 18.3859Z" fill="#E27625" stroke="#E27625" stroke-width="0.158112" stroke-linecap="round" stroke-linejoin="round"/>
<path d="M14.8276 28.3572L17.927 26.8544L15.2589 24.7666L14.8276 28.3572Z" fill="#E27625" stroke="#E27625" stroke-width="0.158112" stroke-linecap="round" stroke-linejoin="round"/>
<path d="M21.3228 26.8544L24.4131 28.3572L23.9909 24.7666L21.3228 26.8544Z" fill="#E27625" stroke="#E27625" stroke-width="0.158112" stroke-linecap="round" stroke-linejoin="round"/>
<path d="M24.413 28.3568L21.3226 26.854L21.5742 28.8698L21.5472 29.7247L24.413 28.3568Z" fill="#D5BFB2" stroke="#D5BFB2" stroke-width="0.158112" stroke-linecap="round" stroke-linejoin="round"/>
<path d="M14.8275 28.3573L17.7023 29.7252L17.6843 28.8703L17.9269 26.8545L14.8275 28.3573Z" fill="#D5BFB2" stroke="#D5BFB2" stroke-width="0.158112" stroke-linecap="round" stroke-linejoin="round"/>
<path d="M17.7562 23.4346L15.1869 22.6787L17.0016 21.8418L17.7562 23.4346Z" fill="#233447" stroke="#233447" stroke-width="0.158112" stroke-linecap="round" stroke-linejoin="round"/>
<path d="M21.4934 23.4346L22.248 21.8418L24.0717 22.6787L21.4934 23.4346Z" fill="#233447" stroke="#233447" stroke-width="0.158112" stroke-linecap="round" stroke-linejoin="round"/>
<path d="M14.8275 28.3565L15.2767 24.6489L12.4199 24.7299L14.8275 28.3565Z" fill="#CC6228" stroke="#CC6228" stroke-width="0.158112" stroke-linecap="round" stroke-linejoin="round"/>
<path d="M23.9728 24.6489L24.413 28.3565L26.8296 24.7299L23.9728 24.6489Z" fill="#CC6228" stroke="#CC6228" stroke-width="0.158112" stroke-linecap="round" stroke-linejoin="round"/>
<path d="M26.1379 20.5635L21.0172 20.7975L21.4933 23.4342L22.248 21.8413L24.0716 22.6783L26.1379 20.5635Z" fill="#CC6228" stroke="#CC6228" stroke-width="0.158112" stroke-linecap="round" stroke-linejoin="round"/>
<path d="M15.1868 22.6783L17.0015 21.8413L17.7561 23.4342L18.2322 20.7975L13.1116 20.5635L15.1868 22.6783Z" fill="#CC6228" stroke="#CC6228" stroke-width="0.158112" stroke-linecap="round" stroke-linejoin="round"/>
<path d="M13.1117 20.5645L15.2588 24.767L15.1869 22.6792L13.1117 20.5645Z" fill="#E27525" stroke="#E27525" stroke-width="0.158112" stroke-linecap="round" stroke-linejoin="round"/>
<path d="M24.0717 22.6783L23.9908 24.766L26.1379 20.5635L24.0717 22.6783Z" fill="#E27525" stroke="#E27525" stroke-width="0.158112" stroke-linecap="round" stroke-linejoin="round"/>
<path d="M18.2324 20.7974L17.7562 23.4341L18.3581 26.5478L18.4929 22.4442L18.2324 20.7974Z" fill="#E27525" stroke="#E27525" stroke-width="0.158112" stroke-linecap="round" stroke-linejoin="round"/>
<path d="M21.0173 20.7974L20.7657 22.4352L20.8915 26.5478L21.4934 23.4341L21.0173 20.7974Z" fill="#E27525" stroke="#E27525" stroke-width="0.158112" stroke-linecap="round" stroke-linejoin="round"/>
<path d="M21.4934 23.4346L20.8915 26.5483L21.3227 26.8543L23.9908 24.7665L24.0717 22.6787L21.4934 23.4346Z" fill="#F5841F" stroke="#F5841F" stroke-width="0.158112" stroke-linecap="round" stroke-linejoin="round"/>
<path d="M15.1869 22.6787L15.2588 24.7665L17.9269 26.8543L18.3581 26.5483L17.7562 23.4346L15.1869 22.6787Z" fill="#F5841F" stroke="#F5841F" stroke-width="0.158112" stroke-linecap="round" stroke-linejoin="round"/>
<path d="M21.5473 29.7248L21.5742 28.8699L21.3407 28.6719H17.9089L17.6843 28.8699L17.7023 29.7248L14.8275 28.3569L15.8337 29.1848L17.873 30.5977H21.3676L23.4159 29.1848L24.4131 28.3569L21.5473 29.7248Z" fill="#C0AC9D" stroke="#C0AC9D" stroke-width="0.158112" stroke-linecap="round" stroke-linejoin="round"/>
<path d="M21.3227 26.8543L20.8915 26.5483H18.3581L17.9269 26.8543L17.6843 28.8701L17.9089 28.6721H21.3407L21.5742 28.8701L21.3227 26.8543Z" fill="#161616" stroke="#161616" stroke-width="0.158112" stroke-linecap="round" stroke-linejoin="round"/>
<path d="M30.4859 16.1903L31.2496 12.4646L30.0996 9L21.3226 15.5243L24.7005 18.386L29.4708 19.7809L30.5219 18.548L30.0637 18.215L30.7914 17.5491L30.2344 17.1172L30.9621 16.5592L30.4859 16.1903Z" fill="#763E1A" stroke="#763E1A" stroke-width="0.158112" stroke-linecap="round" stroke-linejoin="round"/>
<path d="M8 12.4646L8.77259 16.1903L8.27849 16.5592L9.01515 17.1172L8.45817 17.5491L9.18584 18.215L8.72767 18.548L9.77876 19.7809L14.5491 18.386L17.9269 15.5243L9.14991 9L8 12.4646Z" fill="#763E1A" stroke="#763E1A" stroke-width="0.158112" stroke-linecap="round" stroke-linejoin="round"/>
<path d="M29.4709 19.7811L24.7006 18.3862L26.1379 20.564L23.9908 24.7666L26.8297 24.7306H31.0699L29.4709 19.7811Z" fill="#F5841F" stroke="#F5841F" stroke-width="0.158112" stroke-linecap="round" stroke-linejoin="round"/>
<path d="M14.549 18.3862L9.7787 19.7811L8.1886 24.7306H12.4199L15.2587 24.7666L13.1116 20.564L14.549 18.3862Z" fill="#F5841F" stroke="#F5841F" stroke-width="0.158112" stroke-linecap="round" stroke-linejoin="round"/>
<path d="M21.0173 20.798L21.3227 15.5246L22.7062 11.772H16.5435L17.9269 15.5246L18.2324 20.798L18.3492 22.4539L18.3582 26.5484H20.8915L20.9005 22.4539L21.0173 20.798Z" fill="#F5841F" stroke="#F5841F" stroke-width="0.158112" stroke-linecap="round" stroke-linejoin="round"/>
</svg>
