<svg width="1705" height="1051" viewBox="0 0 1705 1051" fill="none" xmlns="http://www.w3.org/2000/svg">
<path d="M1657.03 937.477H0L40.4153 669.672H1692.39L1657.03 937.477Z" fill="#22FFC0"/>
<path d="M1690.88 1.67501C1680.27 -0.346165 1670.17 0.664422 1659.56 2.1803C1650.97 3.69618 1646.42 7.73853 1645.41 16.8338C1639.85 55.7414 1632.28 113.345 1618.64 199.75C1612.57 236.131 1614.09 236.637 1576.71 236.131C1535.28 235.626 1526.69 226.025 1532.75 184.591C1544.37 104.25 1550.94 56.2467 1556.5 16.3285C1557.51 9.75971 1557 3.69618 1548.92 3.19089C1534.77 1.67501 1520.63 1.16972 1506.99 4.20148C1498.4 6.22265 1493.85 10.7703 1492.84 19.8656C1491.83 32.4979 1468.09 198.74 1470.11 231.078C1472.64 263.922 1489.31 283.629 1521.64 290.703C1536.29 294.24 1551.45 293.735 1566.1 293.229C1575.19 293.229 1583.78 293.735 1592.87 293.229C1601.97 292.219 1603.48 295.756 1602.47 304.346C1598.43 332.642 1594.39 360.939 1590.85 389.235C1585.8 428.648 1574.68 438.249 1534.77 436.733C1533.76 436.733 1532.25 436.733 1531.24 436.733C1511.03 435.217 1503.96 427.132 1505.47 406.92C1506.99 391.762 1508.5 376.603 1512.04 361.444C1514.57 349.822 1510.53 345.78 1499.92 345.275C1490.32 344.769 1480.72 344.769 1471.12 344.769C1461.52 344.264 1455.46 348.812 1454.45 358.412C1451.42 380.14 1445.86 401.868 1446.87 424.1C1447.88 449.365 1456.98 471.598 1480.72 482.714C1520.12 500.905 1560.54 498.884 1599.44 479.683C1625.71 466.545 1639.35 442.291 1646.42 413.995C1651.98 392.267 1703 39.0667 1704.01 17.3391C1703.51 7.73853 1699.47 3.19089 1690.88 1.67501Z" fill="white"/>
<path d="M796.683 8.24515C762.836 -3.3766 728.483 -2.8713 695.14 10.7716C655.735 26.941 639.064 60.7957 633.002 99.7033C616.33 207.331 602.185 315.464 589.555 423.596C586.524 449.872 598.143 469.578 621.382 482.21C640.074 491.811 659.777 495.348 680.995 495.348C744.649 494.843 784.559 463.009 797.694 400.353C812.344 330.117 843.666 114.357 844.677 76.9651C845.687 43.6157 828.511 19.3616 796.683 8.24515ZM783.043 103.746C768.393 198.741 753.742 293.736 739.092 388.731C737.576 398.837 735.05 408.438 729.998 417.028C718.379 436.734 698.171 446.335 675.438 441.282C656.745 437.239 648.662 426.628 651.188 407.427C656.24 368.519 684.026 166.402 693.119 104.756C697.666 73.428 715.348 57.2586 744.144 57.2586C773.95 57.7639 787.59 74.4386 783.043 103.746Z" fill="white"/>
<path d="M1346.84 3.19218C1284.19 -6.4084 1231.65 13.2981 1211.45 75.4492C1207.91 86.0603 1204.88 97.1768 1203.36 108.293C1195.28 165.897 1187.2 224.005 1179.62 281.609C1173.56 328.096 1166.99 375.088 1161.43 421.575C1157.9 450.882 1172.04 471.094 1197.81 483.726C1221.55 495.853 1247.31 498.38 1273.08 494.843C1313.49 489.285 1346.84 472.61 1361.49 430.671C1371.09 403.385 1372.6 374.583 1377.15 346.792C1378.16 340.728 1375.63 337.191 1369.57 336.686C1356.44 335.675 1343.3 335.17 1329.66 336.686C1321.58 337.697 1317.54 341.739 1316.53 350.834C1315.01 366.498 1311.98 381.657 1308.95 397.321C1302.38 428.144 1279.65 446.335 1251.86 442.798C1232.66 440.271 1220.54 427.639 1223.06 409.448C1228.62 364.477 1234.68 320.011 1240.24 275.545C1241.25 267.966 1244.28 265.945 1251.86 265.945C1271.56 266.45 1345.83 265.945 1363 265.945C1384.73 265.945 1386.75 264.429 1389.78 242.701C1396.85 194.698 1403.92 147.201 1410.49 99.198C1418.57 44.121 1397.36 10.7716 1346.84 3.19218ZM1352.9 94.145C1348.35 130.526 1342.8 166.907 1337.74 202.783C1337.24 208.341 1334.71 210.363 1329.16 210.363C1317.54 209.857 1270.55 210.868 1258.93 210.868C1252.87 210.868 1249.33 210.363 1250.85 202.278C1256.41 167.413 1260.95 132.042 1266.51 97.1768C1272.07 64.838 1296.32 50.1845 1328.14 58.7745C1345.32 63.8274 1354.92 75.9545 1352.9 94.145Z" fill="white"/>
<path d="M1056.86 3.19218C1040.69 0.160418 1024.53 1.6763 1008.87 4.70806C957.843 14.8139 929.553 45.1315 922.985 96.6715C921.975 104.251 920.964 111.83 919.954 119.41C902.777 234.111 882.065 347.802 868.424 463.009C864.888 491.306 864.888 491.306 893.684 490.8C900.251 490.8 906.314 490.8 912.881 490.8C920.964 490.8 923.995 487.263 925.511 479.684C944.708 350.834 963.906 221.984 983.103 92.6291C987.144 65.8486 1008.36 51.1951 1037.66 54.7321C1057.87 57.2586 1068.99 75.4492 1065.45 101.724C1059.39 146.19 1023.01 386.205 1010.89 461.999C1006.34 490.8 1005.84 492.316 1034.13 491.306C1073.53 489.79 1067.98 496.359 1075.05 458.967C1075.55 456.441 1076.06 453.409 1076.56 450.882C1089.19 360.94 1102.33 270.998 1114.45 180.55C1119 147.706 1126.07 115.367 1124.56 82.018C1124.05 39.068 1099.8 10.7716 1056.86 3.19218Z" fill="white"/>
<path d="M329.385 3.19218C313.219 0.160418 297.053 1.6763 281.392 4.70806C230.368 14.8139 202.077 45.1315 195.509 96.6715C194.499 104.251 193.489 111.83 192.478 119.41C175.302 234.111 154.589 347.802 140.949 463.009C137.412 491.306 137.412 491.306 166.208 490.8C172.776 490.8 178.838 490.8 185.406 490.8C193.489 490.8 196.52 487.263 198.035 479.684C217.233 350.834 236.43 221.984 255.627 92.6291C259.669 65.8486 280.887 51.1951 310.188 54.7321C330.396 57.2586 341.51 75.4492 337.973 101.724C331.911 146.19 295.537 386.205 283.413 461.999C278.866 490.8 278.361 492.316 306.652 491.306C346.056 489.79 340.499 496.359 347.572 458.967C348.077 456.441 348.582 453.409 349.088 450.882C361.717 360.94 374.852 270.998 386.977 180.55C391.524 147.706 398.596 115.367 397.081 82.018C396.576 39.068 372.326 10.7716 329.385 3.19218Z" fill="white"/>
<path d="M475.891 3.19218C459.724 0.160418 443.558 1.6763 427.897 4.70806C376.873 14.8139 348.582 45.1315 342.015 96.6715C341.005 104.251 339.994 111.83 338.984 119.41C321.807 234.111 301.094 347.802 287.454 463.009C283.918 491.306 283.918 491.306 312.714 490.8C319.281 490.8 325.344 490.8 331.911 490.8C339.994 490.8 343.025 487.263 344.541 479.684C363.738 350.834 382.935 221.984 402.133 92.6291C406.174 65.8486 427.392 51.1951 456.693 54.7321C476.901 57.2586 488.015 75.4492 484.479 101.724C478.417 146.19 442.043 386.205 429.918 461.999C425.371 490.8 424.866 492.316 453.157 491.306C492.562 489.79 487.005 496.359 494.078 458.967C494.583 456.441 495.088 453.409 495.593 450.882C508.223 360.94 521.358 270.998 533.482 180.55C538.029 147.706 545.102 115.367 543.586 82.018C543.081 39.068 518.832 10.7716 475.891 3.19218Z" fill="white"/>
<path d="M70.7245 1049.66C59.1051 1049.66 55.5688 1045.11 57.5895 1033.49C79.818 892.511 112.655 642.391 122.759 568.618C124.78 553.964 126.801 551.943 141.956 551.943C178.33 552.449 375.86 550.933 412.234 553.459C442.04 555.48 459.722 571.144 469.32 597.925C475.383 614.6 477.909 632.285 475.383 649.97C465.279 722.733 446.082 866.236 433.452 956.178C425.369 1014.79 389.5 1046.63 328.877 1049.66C313.216 1050.16 87.3958 1050.16 70.7245 1049.66ZM189.95 612.073C180.351 611.063 176.815 614.6 175.804 624.706C172.773 653.002 168.226 681.298 164.185 709.595C143.472 858.151 147.514 825.307 126.801 973.863C123.77 994.58 123.77 994.58 143.977 995.591C150.545 996.096 318.773 996.096 324.836 996.096C346.054 995.086 360.704 984.98 367.777 964.768C370.808 956.683 373.334 947.588 374.344 938.998C389.5 809.643 384.954 862.699 403.14 733.344C407.182 704.542 414.255 676.245 412.739 646.938C411.223 624.2 399.099 612.578 376.365 611.568C372.829 611.063 193.991 612.578 189.95 612.073Z" fill="white"/>
<path d="M676.451 552.447C687.06 552.952 699.184 553.457 711.309 557.5C743.641 568.111 762.838 592.365 763.849 626.22C764.859 666.643 756.776 706.561 751.219 745.974C741.62 816.715 728.991 886.951 720.402 957.187C713.33 1014.79 673.925 1039.55 633.509 1046.62C608.25 1051.17 582.99 1050.16 558.741 1039.55C527.419 1025.4 510.748 1000.64 514.284 966.788C518.326 929.396 518.831 890.994 527.924 854.107C542.575 795.998 572.381 771.239 633.004 768.713C647.655 768.207 662.811 768.713 677.461 768.713C681.503 768.713 685.039 768.713 686.049 762.649C691.606 724.752 700.195 687.36 703.226 649.463C703.731 643.905 703.731 638.347 703.226 632.789C701.71 616.619 693.122 608.029 677.461 606.008C650.686 602.471 632.499 613.587 622.395 638.852C614.817 658.053 613.807 678.265 611.786 697.971C610.776 706.561 607.745 711.109 598.651 711.109C585.516 711.109 571.876 710.604 558.741 710.604C553.184 710.604 550.658 707.572 551.668 702.014C555.71 678.77 556.72 654.516 563.288 631.778C577.433 579.227 614.312 552.952 676.451 552.447ZM648.16 828.842C645.634 828.842 639.572 828.843 633.509 829.348C606.734 832.38 589.558 846.023 586.021 869.771C581.475 898.573 577.938 927.375 574.402 955.671C572.381 972.346 581.98 985.484 598.146 990.536C624.921 998.621 654.222 979.42 658.264 951.629C662.811 918.279 667.357 884.425 671.904 851.075C674.43 828.842 674.43 828.842 648.16 828.842Z" fill="white"/>
<path d="M1517.09 817.725C1496.88 817.725 1476.68 818.231 1456.47 817.725C1449.9 817.725 1447.37 819.747 1446.36 826.315C1440.3 872.297 1433.73 917.774 1428.68 964.261C1426.16 987.504 1450.41 1002.66 1476.68 995.083C1498.9 989.02 1510.02 971.84 1514.56 950.618C1517.6 935.964 1520.63 921.311 1521.64 906.657C1522.65 894.53 1528.2 889.982 1539.82 888.972C1551.44 887.961 1563.06 888.467 1574.68 889.477C1580.74 889.982 1583.78 893.014 1582.77 898.572C1578.22 927.374 1576.7 956.176 1567.1 983.967C1552.45 1025.91 1519.11 1043.09 1478.7 1048.64C1452.93 1052.18 1427.17 1049.66 1403.42 1037.53C1377.66 1024.9 1364.02 1004.68 1367.05 975.377C1371.6 934.954 1377.15 894.53 1382.2 854.612C1390.79 789.934 1399.38 725.257 1408.47 660.579C1409.99 648.452 1413.02 636.83 1417.06 625.209C1436.77 565.584 1485.26 546.888 1544.37 551.941C1553.46 552.952 1562.56 554.468 1571.15 558.005C1599.44 569.121 1615.6 589.333 1617.12 619.65C1618.63 651.989 1611.06 683.823 1607.01 715.656C1603.48 743.447 1598.93 771.238 1594.38 799.03C1591.86 815.704 1589.33 817.22 1572.16 817.22C1554.47 817.725 1535.78 817.725 1517.09 817.725ZM1499.41 762.648C1504.46 762.648 1510.02 762.648 1515.07 762.143C1542.35 761.133 1542.35 761.133 1546.39 734.857C1550.43 707.066 1554.47 679.275 1558.52 650.979C1561.04 631.777 1554.98 618.64 1541.34 612.071C1511.53 598.428 1479.2 613.082 1473.64 645.42C1467.08 681.296 1463.04 717.677 1457.48 754.058C1456.47 760.627 1458.49 762.648 1465.06 762.648C1475.66 762.648 1487.79 762.648 1499.41 762.648Z" fill="white"/>
<path d="M957.842 552.447C999.268 552.447 1027.05 568.616 1040.19 601.46C1047.77 620.156 1048.78 639.863 1046.25 659.569C1038.67 718.183 1030.08 776.797 1022 835.411C1014.93 887.457 1007.86 938.997 1000.28 991.042C998.258 1005.19 995.732 1019.84 993.206 1033.99C991.69 1041.07 988.154 1045.11 980.071 1045.11C967.441 1045.61 954.306 1046.12 941.676 1045.61C930.562 1045.11 929.046 1040.06 930.562 1030.96C934.098 1009.74 937.129 988.01 940.666 966.282C952.285 890.994 963.399 815.705 974.514 740.921C978.05 716.667 982.092 692.413 985.628 668.159C986.638 662.601 987.143 657.043 987.649 651.484C989.669 626.22 979.06 609.545 959.358 606.513C931.572 602.471 909.849 615.609 905.302 640.368C898.735 679.276 893.178 718.183 887.621 757.091C876.001 835.411 864.382 913.732 852.763 992.558C850.742 1006.2 848.216 1019.34 846.7 1032.98C845.69 1042.08 841.648 1044.6 833.565 1044.6C822.451 1044.6 810.832 1044.1 799.717 1044.6C789.614 1045.11 786.582 1041.57 787.593 1030.96C792.645 986.999 798.202 943.039 805.275 899.078C818.915 811.663 832.555 724.247 845.69 636.831C850.742 602.471 869.434 579.733 899.745 565.079C917.427 556.995 937.13 552.447 957.842 552.447Z" fill="white"/>
<path d="M1173.55 1049.65C1160.42 1050.16 1147.79 1047.63 1135.66 1043.59C1097.27 1030.96 1078.58 1002.15 1083.63 960.721C1089.69 912.718 1096.26 864.715 1102.83 817.217C1109.9 766.183 1116.47 715.148 1123.54 664.113C1126.07 647.439 1130.11 630.764 1136.68 615.1C1154.86 571.645 1190.23 553.959 1234.68 551.433C1252.36 550.422 1270.05 552.443 1287.22 558.507C1317.53 569.623 1333.7 593.372 1333.19 627.732C1333.19 651.986 1328.14 675.735 1324.61 699.484C1323.6 705.547 1319.05 709.084 1313.49 711.106C1299.85 715.148 1286.72 715.148 1273.08 712.116C1267.01 710.6 1264.49 707.569 1266 700.494C1269.04 682.809 1271.56 665.629 1273.58 647.944C1277.12 619.647 1268.02 609.036 1239.73 608.531C1205.38 608.026 1191.74 618.637 1187.19 652.997C1174.56 740.413 1162.94 828.334 1150.82 916.255C1149.3 928.382 1147.28 941.014 1145.77 953.141C1141.22 985.48 1162.94 1003.67 1194.27 994.07C1212.96 988.512 1223.57 974.869 1228.62 956.678C1233.67 939.498 1235.69 921.813 1238.22 904.633C1239.23 895.032 1242.77 890.485 1252.87 888.969C1266 886.948 1278.63 887.453 1291.26 888.969C1296.82 889.474 1299.35 892.001 1298.84 897.559C1294.8 928.382 1293.28 959.71 1278.63 987.501C1255.9 1029.95 1220.03 1048.64 1173.55 1049.65Z" fill="white"/>
</svg>
