<?xml version="1.0" encoding="UTF-8"?>
<svg width="80px" height="80px" viewBox="0 0 80 80" version="1.1" xmlns="http://www.w3.org/2000/svg" xmlns:xlink="http://www.w3.org/1999/xlink">
    <title>Group 3</title>
    <defs>
        <linearGradient x1="33.7780896%" y1="33.1343231%" x2="100%" y2="100%" id="linearGradient-1">
            <stop stop-color="#CCFF00" offset="0%"></stop>
            <stop stop-color="#ABE300" offset="100%"></stop>
        </linearGradient>
        <linearGradient x1="100%" y1="11.279999%" x2="3.68993031e-14%" y2="88.720001%" id="linearGradient-2">
            <stop stop-color="#333333" offset="0%"></stop>
            <stop stop-color="#111111" offset="100%"></stop>
            <stop stop-color="#333333" offset="100%"></stop>
        </linearGradient>
        <linearGradient x1="100%" y1="11.279999%" x2="3.68993031e-14%" y2="88.720001%" id="linearGradient-3">
            <stop stop-color="#333333" offset="0%"></stop>
            <stop stop-color="#111111" offset="100%"></stop>
        </linearGradient>
    </defs>
    <g id="Page-1" stroke="none" stroke-width="1" fill="none" fill-rule="evenodd">
        <g id="Group-3">
            <rect id="Rectangle" fill="url(#linearGradient-1)" x="0" y="0" width="80" height="80"></rect>
            <g id="Group" transform="translate(41.000000, 42.000000) scale(-1, 1) translate(-41.000000, -42.000000) translate(16.000000, 20.000000)" fill="url(#linearGradient-2)" fill-rule="nonzero" stroke="url(#linearGradient-3)" stroke-width="0.625">
                <path d="M0.399097251,9.56046718 L0.467285562,9.61128708 C1.03520191,10.0420991 2.66799593,11.4443763 7.20616265,15.4764097 C9.1606171,17.2128874 13.3384853,20.6561143 15.7634808,22.7798755 C22.0688731,28.3020081 27.947902,33.8199241 28.3742654,34.1804074 L28.7418202,34.4854318 L28.6444965,37.9816303 L28.6441259,39.201134 C28.6440559,39.2952829 28.643974,39.3876089 28.6438787,39.4781468 L28.6431334,40.0001943 C28.6363061,43.6752581 28.5975072,44.0228521 28.3945593,43.9989287 C28.2475374,43.9711992 26.1972964,41.9359783 24.7711841,40.77134 C23.8204426,39.9949144 19.1964882,35.7790926 10.899321,28.1238748 C7.29623969,24.7393419 2.52215693,20.9094757 0.180154066,18.3265427 C0.0245664636,15.7112218 0.00334997231,14.158812 0.000456814406,12.6939717 L0,12.0028101 C0,10.8182236 0.0743107053,10.0673711 0.12898283,9.70444998 L0.150937474,9.57252972 C0.164407122,9.50023877 0.175178003,9.45908154 0.181058878,9.44798974 C0.191560442,9.42818297 0.242967638,9.44650908 0.399097251,9.56046718 Z M4.10056695,9.85561652 C5.35174206,10.3844823 6.45957709,10.8527019 7.42407205,11.2602756 C11.4830969,12.9755272 17.2982669,15.4321976 23.0912458,17.8780538 L24.6692628,18.5442722 C28.3437837,20.0955188 31.9438497,21.6146931 35.0111817,22.9079439 L39.5510642,24.8139703 L39.5510642,28.8041565 C39.5510642,30.9773829 39.4970179,32.7765294 39.4249563,32.758716 C39.3348793,32.758716 36.6505837,31.6721028 33.4258259,30.3539163 C30.4563317,29.1330092 26.4629165,27.4763694 21.4455805,25.3839969 L3.95757864,10.0933408 C3.89426867,10.0449907 3.88738205,9.95407544 3.93920937,9.89375304 C3.97919321,9.84721541 4.0442734,9.83112376 4.10056695,9.85561652 Z M15.2499184,0.788829732 L15.3392974,0.818814505 C15.9270779,1.02478407 17.9539695,1.86650311 24.3280455,4.50677279 C26.8141717,5.539946 31.3540541,7.41034577 34.4166733,8.69290562 C42.1993289,11.9171186 49.027168,14.7672516 49.5496148,14.9988249 L50,15.1947715 L50,19.095891 L49.9999555,19.379076 L49.9999555,19.379076 L49.9990497,20.1459425 C49.9929465,22.7380992 49.9508228,22.9772715 49.6937381,22.9613839 C49.513584,22.9435706 47.9462436,22.320104 46.1987492,21.5719441 C44.4512548,20.8237842 40.5238961,19.1849577 37.461277,17.9023978 L31.9305471,15.5866648 L28.5796815,12.6474651 C26.74211,11.0442653 23.8055988,8.47914564 22.0761197,6.94719916 C21.5518714,6.49295922 20.9789815,5.99382968 20.4056051,5.49261598 L19.8338501,4.99229294 C18.69715,3.99659898 17.6227112,3.0496423 16.995775,2.49386637 C15.9328661,1.56757314 15.0861419,0.801599903 15.1221728,0.765973241 C15.1238617,0.764303241 15.1266238,0.763155116 15.1306345,0.762598993 L15.1465877,0.762776757 C15.1666373,0.76487078 15.1995024,0.772923963 15.2499184,0.788829732 Z M11.4290144,0 C11.5551222,0 14.8879725,2.796693 15.2302652,3.20639961 L15.2399436,3.21543685 L15.2896597,3.26039627 C15.6718929,3.60398327 17.8214812,5.51174156 20.3646561,7.74879906 C29.9668678,16.2012247 32.7900791,18.7033019 33.9750319,19.774385 L34.0630375,19.8540297 L34.1451005,19.9284866 C34.2904198,20.0605148 34.4084001,20.1686923 34.5134599,20.2656949 L34.5695705,20.3175733 C34.5787376,20.3260604 34.5878196,20.3344742 34.5968273,20.3428242 C35.1012587,20.8059708 35.4615668,21.1800508 35.4075206,21.1800508 C35.3768125,21.1800508 34.2119993,20.6854916 32.4219741,19.9185589 L31.9806246,19.7293793 C30.6975991,19.1791978 29.1443007,18.5112899 27.4807417,17.7955179 C23.1750595,15.9607447 19.2837317,14.2862916 18.8333465,14.090345 C18.3829614,13.8943983 16.5093591,12.4515185 14.6537722,10.866132 L11.2668757,8.01599903 L11.2668757,4.00799952 C11.2668757,1.72789312 11.3389374,0 11.4290144,0 Z" id="Path-128"></path>
            </g>
        </g>
    </g>
</svg>
