<?xml version="1.0" encoding="UTF-8"?>
<svg width="916px" height="337px" viewBox="0 0 916 337" version="1.1" xmlns="http://www.w3.org/2000/svg" xmlns:xlink="http://www.w3.org/1999/xlink">
    <title>Nereus Logo / Color / Nereus Logo Color@2x</title>
    <g id="Nereus-Logo-/-Color-/-Nereus-Logo-Color" stroke="none" stroke-width="1" fill="none" fill-rule="evenodd">
        <path d="M600.402084,209.359114 C602.678534,209.324636 604.945275,209.660706 607.112056,210.353942 C609.058632,210.976867 610.831087,212.043275 612.287461,213.467755 C613.754325,214.972856 614.792591,216.836835 615.296417,218.869673 L607.322683,222.063073 C606.83122,219.904295 606.028832,218.412052 604.915518,217.606241 C603.679658,216.771355 602.20734,216.349633 600.71301,216.402499 C597.539674,216.275533 594.656152,218.222643 593.611873,221.197572 C592.895805,223.105309 592.555324,225.131576 592.608888,227.166542 C592.549318,229.193623 592.855007,231.214978 593.511574,233.135513 C594.001665,234.600959 594.954793,235.870763 596.229665,236.756688 C597.58176,237.598573 599.157748,238.017961 600.753129,237.96043 C602.307101,238.00697 603.828774,237.514425 605.055936,236.567671 C606.355551,235.470551 607.219441,233.950763 607.493191,232.27996 L615.717671,234.548169 C615.164022,236.773343 614.057129,238.825475 612.498088,240.517139 C611.039199,242.058174 609.225532,243.225594 607.212355,243.919452 C605.037413,244.658022 602.750944,245.02142 600.452233,244.993867 C597.273814,245.075245 594.127584,244.345611 591.315036,242.874883 C588.762115,241.48309 586.697775,239.352248 585.397423,236.766636 C582.643103,230.665044 582.643103,223.687937 585.397423,217.586345 C586.700921,215.002934 588.764459,212.872921 591.315036,211.478099 C594.110767,210.010633 597.239995,209.280937 600.402084,209.359114 Z M648.485204,209.866477 L648.485204,216.830275 L630.431467,216.830275 L630.431467,223.853764 L644.804247,223.853764 L644.804247,230.409683 L630.411407,230.409683 L630.411407,237.482913 L649.167234,237.482913 L649.167234,244.446711 L621.324359,244.45666 L621.324359,209.866477 L648.485204,209.866477 Z M460.916906,209.866477 L460.916906,244.45666 L451.829858,244.45666 L451.829858,209.866477 L460.916906,209.866477 Z M479.251479,209.866477 L490.083721,228.56925 L492.721573,233.712513 L492.771722,233.712513 L492.561095,227.315767 L492.561095,209.866477 L500.595008,209.866477 L500.595008,244.45666 L490.504975,244.45666 L479.672733,225.743938 L477.024851,220.610623 L476.974702,220.610623 L477.185329,226.997421 L477.185329,244.45666 L469.161446,244.45666 L469.161446,209.866477 L479.251479,209.866477 Z M528.337584,209.866477 L540.533886,244.45666 L531.186062,244.45666 L528.758838,236.647257 L516.813282,236.647257 L514.335908,244.45666 L505.188681,244.45666 L517.445163,209.866477 L528.337584,209.866477 Z M555.227622,209.866477 L566.059864,228.56925 L568.697716,233.712513 L568.747865,233.712513 L568.537238,227.315767 L568.537238,209.866477 L576.571151,209.866477 L576.571151,244.45666 L566.481118,244.45666 L555.648876,225.743938 L553.011024,220.610623 L552.950845,220.610623 L553.161472,226.997421 L553.161472,244.45666 L545.137589,244.45666 L545.137589,209.866477 L555.227622,209.866477 Z M446.012543,209.866477 L446.062692,216.830275 L428.008955,216.830275 L428.008955,224.172109 L442.381736,224.172109 L442.381736,231.135908 L428.049075,231.135908 L428.049075,244.446711 L418.931938,244.446711 L418.931938,209.866477 L446.012543,209.866477 Z M522.740925,216.541775 L518.468208,230.529062 L527.023673,230.529062 L522.740925,216.541775 Z M137.683774,137.361894 L152.929,152.484 L168.170565,137.367909 L183.409,152.483 L198.650263,137.36689 L215.955176,154.531067 L186.274413,183.970446 L171.035,168.855 L155.794715,183.971465 L140.548,168.849 L125.307924,183.96545 L108.003011,166.801273 L137.683774,137.361894 Z M790.768711,95.4114704 C797.189994,97.6032528 803.064934,101.130754 808,105.757686 L796.054444,123.276614 C792.192801,120.002133 787.858675,117.319526 783.196171,115.317986 C778.429162,113.360421 773.310357,112.385603 768.15139,112.452881 C765.880651,112.385273 763.612422,112.653503 761.421359,113.248743 C759.997689,113.61294 758.711698,114.380333 757.720342,115.457262 C756.979115,116.335725 756.574205,117.445455 756.576939,118.590972 C756.576939,120.013576 757.449536,121.177526 759.204761,122.062923 C761.542637,123.153859 764.004229,123.96215 766.536584,124.470408 L780.006678,127.544427 C788.98674,129.593774 795.67331,132.598156 800.066386,136.557573 C804.459462,140.51699 806.659343,145.92554 806.666029,152.783224 C806.666029,159.46847 804.994387,165.032877 801.651102,169.476444 C798.112015,174.056859 793.322093,177.533765 787.850024,179.494366 C781.517652,181.808208 774.808704,182.941444 768.061122,182.836989 C762.331939,182.846873 756.617373,182.263393 751.01037,181.09604 C745.779027,180.046931 740.69407,178.376864 735.865291,176.121898 C731.54268,174.116118 727.546738,171.480529 724.010003,168.302546 L735.875321,150.246411 C738.526332,152.725109 741.518253,154.818498 744.761771,156.464089 C748.317658,158.305187 752.063857,159.759459 755.935028,160.80154 C759.661034,161.837355 763.509604,162.375988 767.379092,162.403214 C769.533035,162.45627 771.68379,162.208449 773.768109,161.667041 C775.14265,161.353181 776.388159,160.631387 777.338737,159.597798 C778.061982,158.686734 778.441585,157.553667 778.411931,156.394451 C778.454282,154.949544 777.793724,153.572541 776.636647,152.693689 C775.466497,151.75855 773.266616,150.932843 770.037003,150.216566 L755.232939,146.913736 C750.600318,145.914381 746.085743,144.437321 741.762845,142.506646 C737.8359,140.799346 734.424338,138.108064 731.863379,134.697243 C729.386005,131.35462 728.162363,126.967427 728.162363,121.535664 C728.066927,116.056015 729.712679,110.685561 732.866364,106.185462 C736.009052,101.728631 740.589352,98.2566796 746.607264,95.7696086 C752.625177,93.2825376 759.853358,92.0290539 768.291808,92.0091573 C775.923496,91.8844315 783.521923,93.0346001 790.768711,95.4114704 Z M659.508013,93.3621239 L659.508013,145.978597 C659.508013,151.31751 660.674819,155.323352 663.008432,157.996124 C665.342045,160.668897 668.795658,161.995334 673.369271,161.975438 C677.956258,161.975438 681.413214,160.649 683.74014,157.996124 C686.067066,155.343249 687.233873,151.337406 687.240559,145.978597 L687.240559,93.3621239 L714.702299,93.3621239 L714.702299,144.506251 C714.702299,157.326273 711.248686,166.919735 704.34146,173.286637 C697.434234,179.653538 687.110171,182.836989 673.369271,182.836989 C659.548133,182.836989 649.18395,179.653538 642.276724,173.286637 C635.369498,166.919735 631.912542,157.326273 631.905855,144.506251 L631.905855,93.3621239 L659.508013,93.3621239 Z M292.365211,93.3621239 L316.627428,137.025142 L322.414654,148.963083 L322.555072,148.963083 L322.013459,131.603327 L322.013459,93.3621239 L346.085109,93.3621239 L346.085109,181.543712 L315.925338,181.543712 L291.693211,137.830953 L286.036374,125.893012 L285.765567,125.893012 L286.30718,143.252768 L286.30718,181.543712 L262.345859,181.543712 L262.345859,93.3621239 L292.365211,93.3621239 Z M436.153197,93.3621239 L436.153197,113.795899 L392.02184,113.795899 L392.02184,128.081635 L427.296836,128.081635 L427.296836,147.043064 L391.99175,147.043064 L391.99175,161.070144 L437.898391,161.070144 L437.898391,181.543712 L364.53001,181.543712 L364.53001,93.3621239 L436.153197,93.3621239 Z M496.603126,93.3621239 C507.635965,93.3621239 516.184744,95.8757236 522.249463,100.902923 C528.314181,105.930123 531.343197,112.63195 531.336521,121.008405 C531.336521,130.35316 528.37436,137.429705 522.45006,142.238043 C520.126805,144.123665 517.403538,145.639558 514.28026,146.78572 L514.108,146.847 L514.308949,147.160475 L514.285,147.167 L536.451736,181.543712 L506.432383,181.543712 L489.96,152.193 L489.908747,152.18946 L489.195,150.912 L478.017807,150.912946 L478.017807,181.543712 L451.097679,181.543712 L451.097679,93.3621239 L496.603126,93.3621239 Z M618.716597,93.3621239 L618.716597,113.795899 L574.58524,113.795899 L574.58524,128.081635 L609.860236,128.081635 L609.860236,147.043064 L574.555151,147.043064 L574.555151,161.070144 L620.461792,161.070144 L620.461792,181.543712 L547.083381,181.543712 L547.083381,93.3621239 L618.716597,93.3621239 Z M198.657282,92.0057015 L215.962195,109.169879 L186.281432,138.609257 L171.041,123.493 L155.791704,138.620225 L140.544,123.497 L125.304914,138.61421 L108,121.450033 L137.680764,92.0106546 L152.927,107.133 L168.167554,92.0166694 L183.407,107.132 L198.657282,92.0057015 Z M492.149871,113.258692 L478.007777,113.258692 L478.007777,132.359397 L492.149871,132.359397 C496.001335,132.359397 498.896619,131.623224 500.835725,130.150878 C502.761456,128.678532 503.724322,126.261099 503.724322,122.878682 C503.724322,119.496266 502.721337,117.048988 500.835725,115.5269 C498.950112,114.004813 496.001335,113.258692 492.149871,113.258692 Z" id="Combined-Shape" fill="#5C31FF" fill-rule="nonzero"></path>
    </g>
</svg>
