<?xml version="1.0" encoding="utf-8"?>
<!-- Generator: Adobe Illustrator 26.2.1, SVG Export Plug-In . SVG Version: 6.00 Build 0)  -->
<svg version="1.1" id="Layer_1" xmlns="http://www.w3.org/2000/svg" xmlns:xlink="http://www.w3.org/1999/xlink" x="0px" y="0px"
	 viewBox="0 0 80 80" style="enable-background:new 0 0 80 80;" xml:space="preserve">
<style type="text/css">
	.st0{fill:url(#Shape_00000053546830854532511170000002171965835486487466_);}
	.st1{fill:#0E0E22;}
</style>
<g>
	<g id="Logo-light-BG-Copy-18_00000043418200726005780460000010946262697441763996_" transform="translate(0.000000, -0.000000)">
		
			<g id="logo-nested-finance-3-02_00000116196533928497588170000011014634320645845438_" transform="translate(0.000000, -0.000000)">
			
				<linearGradient id="Shape_00000020399888861363836300000008527085852506121909_" gradientUnits="userSpaceOnUse" x1="-907.8846" y1="753.5743" x2="-907.5358" y2="753.8812" gradientTransform="matrix(85 0 0 -97.5132 77195.9922 73528.5547)">
				<stop  offset="0" style="stop-color:#00E3DF"/>
				<stop  offset="0.5645" style="stop-color:#FF7CCB"/>
				<stop  offset="1" style="stop-color:#FFD67A"/>
			</linearGradient>
			
				<path id="Shape_00000096759327431587330630000002109985982969115796_" style="fill:url(#Shape_00000020399888861363836300000008527085852506121909_);" d="
				M58.11,20.4C58.11,20.4,58.11,20.4,58.11,20.4c-0.01-0.02-0.02-0.03-0.02-0.04c-0.07-0.13-0.17-0.23-0.31-0.31L40.55,10.02
				c-0.25-0.15-0.57-0.15-0.82,0l-17.44,9.91c-0.15,0.08-0.26,0.21-0.34,0.36c-0.1,0.14-0.15,0.3-0.15,0.48l0.01,20.06
				c0,0.3,0.16,0.57,0.41,0.72l17.23,9.94c0.15,0.12,0.34,0.19,0.53,0.19c0,0,0.01,0,0.01,0c0,0,0.01,0,0.01,0
				c0.14,0,0.29-0.04,0.42-0.11c0.04-0.02,0.08-0.05,0.11-0.08l17.24-9.93c0.26-0.15,0.41-0.42,0.41-0.72l0.02-20.06
				C58.21,20.65,58.17,20.52,58.11,20.4z M40.87,36.13l-0.04-4.87l4.2-2.46c0.52-0.3,0.81-0.32,0.9-0.3
				c0.03,0.08,0.04,0.35-0.15,0.73c-0.06,0.12-0.14,0.27-0.23,0.42c-0.56,0.99-1.5,2.64-0.74,4.48c0,0.01,0.01,0.02,0.01,0.03
				c0.62,1.35,1.72,1.85,2.32,2.03c0.3,0.09,0.61,0.13,0.92,0.13c1.63,0,3.27-1.15,4.04-2.45c0.64-1.11,0.94-2.36,0.85-3.6
				c-0.09-1.29-0.56-2.23-1.44-2.86c-0.57-0.41-0.87-0.81-0.86-1.13c0.02-0.38,0.49-0.88,1.28-1.33l4.6-2.72l-0.02,18.13
				l-15.72,9.06l-0.06-5.36c0-1.55-0.43-2.61-1.28-3.15c-0.78-0.5-1.78-0.48-2.98,0.06c-0.52,0.24-1.07,0.19-1.79-0.16
				c-0.83-0.41-1.5-1.04-1.99-1.87c-0.57-1-0.62-2.68,0.17-3.44c0.3-0.29,0.83-0.62,1.61-0.56c1.17,0.16,1.79,1.22,2.29,2.07
				c0.1,0.17,0.19,0.32,0.29,0.47c0.64,0.96,1.59,1.42,2.43,1.17C39.92,38.54,40.87,38.04,40.87,36.13z M40.13,11.69l15.63,9.09
				l-4.64,2.75c-1.34,0.77-2.04,1.68-2.09,2.68c-0.05,0.93,0.47,1.79,1.54,2.55c0.47,0.34,0.7,0.84,0.75,1.63
				c0.06,0.93-0.15,1.82-0.63,2.66c-0.58,1-2.02,1.88-3.06,1.57c-0.4-0.12-0.95-0.41-1.29-1.12c-0.44-1.09,0.17-2.16,0.65-3.02
				c0.09-0.17,0.18-0.32,0.27-0.49c0.52-1.03,0.44-2.09-0.2-2.69c-0.31-0.29-1.21-0.87-2.86,0.08L40,29.84l-4.21-2.43
				c-0.52-0.3-0.68-0.55-0.71-0.63c0.05-0.07,0.28-0.21,0.7-0.23c0.14-0.01,0.3-0.01,0.48-0.01c1.14,0,3.04,0,4.26-1.58
				c0.01-0.01,0.01-0.02,0.02-0.03c0.86-1.21,0.75-2.41,0.61-3.02c-0.45-1.93-2.67-3.14-4.47-3.16c-1.29-0.01-2.51,0.35-3.55,1.04
				c-1.08,0.72-1.66,1.59-1.77,2.66c-0.07,0.7-0.27,1.16-0.56,1.3c-0.34,0.17-1.01,0.01-1.79-0.45l-4.64-2.65L40.13,11.69z
				 M23.45,22.03l4.73,2.7c1.34,0.78,2.47,0.95,3.36,0.49c0.83-0.42,1.32-1.29,1.46-2.6c0.06-0.57,0.38-1.02,1.04-1.46
				c0.77-0.51,1.65-0.77,2.62-0.76c1.15,0.01,2.63,0.82,2.88,1.89c0.1,0.41,0.11,1.03-0.34,1.67c-0.73,0.92-1.96,0.93-2.95,0.93
				c-0.19,0-0.37,0-0.55,0.01c-1.15,0.06-2.03,0.65-2.24,1.5c-0.1,0.42-0.16,1.48,1.49,2.45l4.22,2.43l0.04,4.87
				c0,0.6-0.13,0.87-0.19,0.93c-0.08-0.01-0.33-0.14-0.56-0.49c-0.07-0.12-0.16-0.26-0.25-0.41c-0.58-0.98-1.54-2.62-3.52-2.88
				c-0.01,0-0.02,0-0.03,0c-1.48-0.13-2.46,0.57-2.91,1c-1.43,1.36-1.36,3.89-0.46,5.46c0.64,1.11,1.57,1.99,2.69,2.54
				c1.16,0.57,2.21,0.63,3.19,0.18c0.64-0.29,1.14-0.35,1.41-0.18c0.32,0.21,0.52,0.87,0.52,1.77l0.06,5.34l-15.71-9.06L23.45,22.03
				z"/>
		</g>
	</g>
	<path id="Nested_00000121971766931551728460000005193322109868177819_" class="st1" d="M15.51,62.41v-5.05l4.17,7.17h2.27V53.45
		H19.4v6.31l-3.66-6.33l-2.76,0.04v8.94H15.51z M28.11,64.72c1.72,0,2.95-0.55,3.71-1.64l0,0l-1.76-1.19
		c-0.41,0.51-1,0.76-1.77,0.76c-0.51,0-0.96-0.12-1.34-0.35c-0.38-0.24-0.6-0.57-0.66-0.99l0,0h5.95c0.02-0.37,0.03-0.62,0.03-0.74
		c0-1.25-0.4-2.27-1.2-3.05c-0.79-0.79-1.77-1.19-2.96-1.19c-1.21,0-2.22,0.39-3.03,1.16c-0.81,0.77-1.22,1.78-1.22,3.02
		c0,1.24,0.41,2.26,1.22,3.05C25.9,64.32,26.91,64.72,28.11,64.72z M29.78,59.75h-3.44c0.09-0.42,0.31-0.75,0.66-0.99
		c0.35-0.24,0.72-0.35,1.11-0.35c0.39,0.01,0.75,0.12,1.08,0.36C29.53,59,29.73,59.33,29.78,59.75L29.78,59.75z M37.17,64.72
		c0.92,0,1.74-0.22,2.44-0.66c0.7-0.43,1.06-1.05,1.06-1.86c0-0.58-0.26-1.11-0.78-1.6c-0.37-0.35-0.84-0.59-1.42-0.74l0,0
		l-1.37-0.36c-0.46-0.13-0.7-0.33-0.71-0.6c-0.01-0.18,0.06-0.33,0.22-0.44c0.16-0.11,0.37-0.16,0.63-0.16
		c0.59,0,0.89,0.24,0.92,0.71l0,0h2.27c-0.01-0.92-0.34-1.59-0.99-2.02c-0.65-0.44-1.43-0.66-2.34-0.66c-0.83,0-1.56,0.24-2.2,0.71
		c-0.62,0.46-0.94,0.99-0.95,1.59c-0.01,0.46,0.08,0.9,0.28,1.33c0.29,0.56,1,0.99,2.15,1.29l0,0l1.06,0.28
		c0.29,0.08,0.49,0.17,0.61,0.28s0.18,0.24,0.18,0.41c0,0.2-0.09,0.35-0.28,0.47c-0.18,0.12-0.42,0.19-0.71,0.2
		c-0.31,0-0.59-0.09-0.82-0.28c-0.24-0.19-0.36-0.41-0.37-0.65l0,0h-2.25c0.02,0.86,0.36,1.54,1.02,2.04
		C35.48,64.47,36.27,64.72,37.17,64.72z M45.66,64.52V58.4h1.69v-1.6h-1.69v-3.35h-2.38v3.35H42.1v1.6h1.18v6.12H45.66z
		 M52.74,64.72c1.72,0,2.95-0.55,3.71-1.64l0,0l-1.76-1.19c-0.41,0.51-1,0.76-1.77,0.76c-0.51,0-0.96-0.12-1.34-0.35
		c-0.38-0.24-0.6-0.57-0.66-0.99l0,0h5.95c0.02-0.37,0.03-0.62,0.03-0.74c0-1.25-0.4-2.27-1.2-3.05c-0.79-0.79-1.77-1.19-2.96-1.19
		c-1.21,0-2.22,0.39-3.03,1.16c-0.81,0.77-1.22,1.78-1.22,3.02c0,1.24,0.41,2.26,1.22,3.05C50.54,64.32,51.55,64.72,52.74,64.72z
		 M54.42,59.75h-3.44c0.09-0.42,0.31-0.75,0.66-0.99c0.35-0.24,0.72-0.35,1.11-0.35s0.75,0.12,1.08,0.36
		C54.17,59,54.36,59.33,54.42,59.75L54.42,59.75z M62.31,64.72c0.53,0,1-0.1,1.42-0.31c0.42-0.21,0.73-0.49,0.93-0.86v1h2.37V53.49
		l-2.37-0.03v4.02c-0.19-0.36-0.51-0.64-0.93-0.84c-0.43-0.21-0.9-0.31-1.42-0.31c-1.05,0-1.97,0.39-2.74,1.17
		c-0.75,0.77-1.13,1.79-1.13,3.05c0,1.23,0.38,2.24,1.13,3.02C60.33,64.33,61.24,64.72,62.31,64.72z M62.25,62.42
		c-0.54,0-1-0.18-1.36-0.54c-0.37-0.36-0.55-0.82-0.55-1.39c0-0.55,0.18-1,0.55-1.36c0.37-0.36,0.82-0.54,1.36-0.54
		c0.54,0,1,0.17,1.36,0.52c0.37,0.35,0.55,0.8,0.55,1.37c0,0.55-0.19,1-0.56,1.37C63.23,62.24,62.78,62.42,62.25,62.42z"/>
</g>
</svg>
