<svg width="81" height="80" viewBox="0 0 81 80" fill="none" xmlns="http://www.w3.org/2000/svg">
<circle cx="40.668" cy="40" r="40" fill="#1E4DD8"/>
<path d="M40.4824 55.6628C40.3204 53.7251 38.7062 52.1963 36.7296 52.1798C36.1661 52.1798 35.6148 52.2985 35.1044 52.5366C33.7044 53.1908 32.9219 54.579 32.9219 56.0964C32.9987 58.1549 34.7585 59.8456 36.8202 59.8456H38.9834C39.0987 59.8456 39.1948 59.7523 39.1948 59.6343V58.3965C39.1948 58.2812 39.1015 58.1851 38.9834 58.1851H36.7268C35.7824 58.1851 34.9808 57.4825 34.6926 56.6344H40.227C40.378 56.6344 40.4988 56.5219 40.4988 56.3846C40.496 56.2115 40.4824 55.6628 40.4824 55.6628ZM38.7034 55.2648H34.7008C35.0276 54.3455 35.9364 53.7556 36.9053 53.8486C37.7453 53.9282 38.4234 54.5045 38.7034 55.2648Z" fill="white"/>
<path d="M28.0793 52.1831C27.3632 52.2001 26.6679 52.4273 26.08 52.8363V52.4052C26.08 52.3705 26.0662 52.3373 26.0417 52.3128C26.0172 52.2883 25.984 52.2745 25.9493 52.2745H24.5511C24.5164 52.2745 24.4832 52.2883 24.4587 52.3128C24.4342 52.3373 24.4204 52.3705 24.4204 52.4052V55.8868C24.4172 55.9456 24.4172 56.0045 24.4204 56.0632V59.6167C24.4204 59.6728 24.4422 59.7267 24.4812 59.7669C24.5203 59.8071 24.5734 59.8306 24.6295 59.8323H25.8709C25.8989 59.8323 25.9266 59.8267 25.9524 59.8158C25.9782 59.8049 26.0016 59.7889 26.0211 59.7688C26.0406 59.7487 26.0559 59.7249 26.066 59.6987C26.0761 59.6726 26.0808 59.6447 26.08 59.6167V55.9783C26.0804 55.6795 26.1432 55.3842 26.2646 55.1111C26.3859 54.8381 26.563 54.5935 26.7845 54.393C27.006 54.1924 27.267 54.0404 27.5508 53.9467C27.8345 53.853 28.1347 53.8196 28.4321 53.8488C28.9732 53.9056 29.4738 54.1619 29.8362 54.5677C30.1986 54.9735 30.3968 55.4996 30.3922 56.0436V59.6298C30.3913 59.6578 30.3961 59.6857 30.4062 59.7118C30.4163 59.7379 30.4316 59.7617 30.4511 59.7818C30.4706 59.802 30.4939 59.8179 30.5197 59.8289C30.5455 59.8398 30.5733 59.8454 30.6013 59.8454H31.8361C31.8933 59.8454 31.9482 59.8227 31.9886 59.7822C32.029 59.7418 32.0518 59.687 32.0518 59.6298V55.9783C32.0505 55.4652 31.9455 54.9577 31.7432 54.4862C31.5408 54.0148 31.2453 53.589 30.8743 53.2345C30.5032 52.8801 30.0644 52.6042 29.5841 52.4235C29.1038 52.2429 28.592 52.1611 28.0793 52.1831V52.1831Z" fill="white"/>
<path d="M47.7522 52.2339C47.7328 52.2156 47.7071 52.2053 47.6803 52.2053C47.6536 52.2053 47.6279 52.2156 47.6085 52.2339L44.9623 54.8468L42.3488 52.2339C42.3294 52.2156 42.3037 52.2053 42.277 52.2053C42.2502 52.2053 42.2245 52.2156 42.2051 52.2339L41.1401 53.3379C41.1217 53.3573 41.1115 53.383 41.1115 53.4097C41.1115 53.4365 41.1217 53.4622 41.1401 53.4816L43.7536 56.0945L41.1009 58.7466C41.0825 58.766 41.0723 58.7917 41.0723 58.8184C41.0723 58.8451 41.0825 58.8709 41.1009 58.8903L42.1463 59.9289C42.1579 59.9416 42.172 59.9517 42.1878 59.9586C42.2035 59.9655 42.2206 59.9691 42.2378 59.9691C42.255 59.9691 42.272 59.9655 42.2877 59.9586C42.3035 59.9517 42.3176 59.9416 42.3292 59.9289L44.9427 57.316L47.5562 59.9289C47.5756 59.9473 47.6013 59.9575 47.6281 59.9575C47.6548 59.9575 47.6805 59.9473 47.6999 59.9289L48.7649 58.8707C48.7833 58.8513 48.7935 58.8256 48.7935 58.7988C48.7935 58.7721 48.7833 58.7464 48.7649 58.727L46.1514 56.1141L48.8041 53.5012C48.8225 53.4818 48.8327 53.4561 48.8327 53.4293C48.8327 53.4026 48.8225 53.3769 48.8041 53.3575L47.7522 52.2339Z" fill="white"/>
<path d="M53.0716 52.1798C52.2976 52.1695 51.5381 52.3895 50.8895 52.8119C50.241 53.2342 49.7327 53.8399 49.4294 54.5518C49.126 55.2638 49.0413 56.0498 49.1859 56.81C49.3306 57.5702 49.6981 58.2702 50.2417 58.8211C50.7853 59.3719 51.4805 59.7487 52.2389 59.9035C52.9973 60.0583 53.7845 59.9842 54.5006 59.6905C55.2167 59.3968 55.8293 58.8968 56.2604 58.2541C56.6916 57.6114 56.9218 56.8551 56.9219 56.0813C56.922 55.0555 56.518 54.0709 55.7974 53.3407C55.0768 52.6105 54.0975 52.1935 53.0716 52.1798ZM53.0716 58.3051C52.7663 58.3215 52.4609 58.2756 52.174 58.1701C51.8871 58.0646 51.6246 57.9018 51.4027 57.6916C51.1808 57.4813 51.0041 57.2281 50.8833 56.9473C50.7626 56.6666 50.7003 56.3641 50.7003 56.0585C50.7003 55.7529 50.7626 55.4504 50.8833 55.1697C51.0041 54.8889 51.1808 54.6357 51.4027 54.4254C51.6246 54.2152 51.8871 54.0524 52.174 53.9469C52.4609 53.8414 52.7663 53.7955 53.0716 53.8119C53.6466 53.8428 54.1879 54.093 54.5841 54.511C54.9802 54.9289 55.201 55.4827 55.201 56.0585C55.201 56.6343 54.9802 57.1881 54.5841 57.606C54.1879 58.024 53.6466 58.2742 53.0716 58.3051Z" fill="white"/>
<path d="M40.6849 24.6861L48.7991 20.0001L56.604 24.5054C56.6975 24.5623 56.7752 24.6417 56.83 24.7364C56.8847 24.8311 56.9148 24.938 56.9175 25.0474V43.4222L49.0801 47.9279C48.9808 47.9852 48.8682 48.0154 48.7535 48.0154C48.6389 48.0154 48.5263 47.9852 48.427 47.9279L40.6655 43.4312L32.569 48.1107L24.7315 43.6052C24.638 43.5483 24.5603 43.4689 24.5055 43.3742C24.4507 43.2795 24.4206 43.1726 24.418 43.0632V24.6817L29.4482 27.567L24.4511 24.6817L32.2886 20.1827C32.3806 20.1357 32.4825 20.1112 32.5858 20.1112C32.6891 20.1112 32.791 20.1357 32.883 20.1827L40.6849 24.6861Z" fill="white"/>
<path d="M32.8831 20.183L48.7998 29.3704V38.7407L24.4512 24.682L32.2887 20.183C32.3807 20.136 32.4826 20.1115 32.5859 20.1115C32.6892 20.1115 32.7911 20.136 32.8831 20.183V20.183Z" fill="#D9EEFF"/>
<path d="M48.7961 20L40.6777 24.6884L48.7961 29.3703V20Z" fill="#BBDDFF"/>
<path d="M48.8008 20L56.6057 24.5056C56.6992 24.5624 56.7769 24.6419 56.8316 24.7366C56.8864 24.8313 56.9165 24.9382 56.9192 25.0476V43.4225L48.8008 38.7406V20Z" fill="#A0CCFF"/>
<path d="M56.917 43.4223L49.0795 47.9279C48.9802 47.9852 48.8675 48.0153 48.7529 48.0153C48.6383 48.0153 48.5256 47.9852 48.4263 47.9279L32.5684 38.7404V29.3571L56.917 43.4223Z" fill="#BBDDFF"/>
<path d="M24.418 24.6816V43.0631C24.4206 43.1724 24.4507 43.2794 24.5055 43.3741C24.5603 43.4688 24.638 43.5482 24.7315 43.6051L32.569 48.1106V29.357L24.418 24.6816Z" fill="white"/>
<path d="M32.5684 48.1108L40.6802 43.4224L32.5684 38.7405V48.1108Z" fill="#D9EEFF"/>
</svg>
