<svg width="40" height="40" viewBox="0 0 40 40" fill="none" xmlns="http://www.w3.org/2000/svg">
<circle cx="20" cy="20" r="20" fill="white"/>
<g clip-path="url(#clip0)">
<path d="M6.69188 18.0811V22.8191H5.37272L3.56395 20.6667V22.8191H2V18.0811H3.31917L5.12792 20.2335V18.0811H6.69188Z" fill="#121212"/>
<path d="M6.78706 19.2859V20.0981H8.77261V21.303H6.78706V22.8191H5.69229V18.0811L9.05141 18.0811V19.2859H6.78706Z" fill="#FFCA0E"/>
<path d="M8.10628 19.2869H6.71231V18.0811H11.105V19.2869H9.71103V22.8191H8.10628V19.2869Z" fill="#121212"/>
<path d="M6.78706 19.2869V19.2859H9.0514V18.0811L6.78699 18.0811L6.78706 19.2869Z" fill="#3D4DE3"/>
<path d="M8.1062 20.0986V21.3035H8.77259V20.0986H8.1062Z" fill="#3D4DE3"/>
<path d="M6.79512 22.8191V18.0811H5.69229V22.8191H6.79512Z" fill="#DF1212"/>
<path d="M14.6681 22.9005C14.2919 22.9005 13.927 22.8509 13.5734 22.7516C13.2243 22.6478 12.9433 22.5147 12.7302 22.3523L13.1042 21.5265C13.3082 21.6754 13.5507 21.795 13.8318 21.8852C14.1128 21.9755 14.3939 22.0206 14.6749 22.0206C14.9877 22.0206 15.2189 21.9755 15.3685 21.8852C15.5181 21.7905 15.5929 21.6664 15.5929 21.5129C15.5929 21.4001 15.5476 21.3076 15.4569 21.2354C15.3708 21.1587 15.2575 21.0978 15.1169 21.0527C14.9809 21.0075 14.7951 20.9579 14.5593 20.9038C14.1967 20.818 13.8998 20.7323 13.6686 20.6466C13.4374 20.5608 13.2379 20.4232 13.0702 20.2337C12.907 20.0441 12.8254 19.7914 12.8254 19.4756C12.8254 19.2003 12.9002 18.9521 13.0498 18.731C13.1994 18.5054 13.4238 18.3272 13.723 18.1963C14.0267 18.0654 14.3961 18 14.8313 18C15.1351 18 15.432 18.0361 15.7221 18.1083C16.0122 18.1805 16.2661 18.2843 16.4837 18.4197L16.1437 19.2522C15.704 19.004 15.2643 18.8799 14.8245 18.8799C14.5163 18.8799 14.2873 18.9296 14.1378 19.0288C13.9927 19.1281 13.9202 19.259 13.9202 19.4214C13.9202 19.5839 14.004 19.7057 14.1718 19.7869C14.344 19.8636 14.6047 19.9403 14.9537 20.0171C15.3164 20.1028 15.6133 20.1885 15.8445 20.2743C16.0757 20.36 16.2729 20.4954 16.4361 20.6804C16.6038 20.8654 16.6877 21.1158 16.6877 21.4317C16.6877 21.7025 16.6106 21.9506 16.4565 22.1763C16.3069 22.3974 16.0802 22.5734 15.7765 22.7042C15.4728 22.8351 15.1033 22.9005 14.6681 22.9005Z" fill="#121212"/>
<path d="M19.04 18.9745H17.5168V18.0811H21.6646V18.9745H20.1416V22.8191H19.04V18.9745Z" fill="#121212"/>
<path d="M25.8331 21.8038H23.6231L23.2016 22.8191H22.0728L24.1943 18.0811H25.2822L27.4106 22.8191H26.2546L25.8331 21.8038ZM25.4862 20.9713L24.7314 19.1573L23.9766 20.9713H25.4862Z" fill="#121212"/>
<path d="M31.6171 22.8191L30.6991 21.4992H30.6447H29.686V22.8191H28.5844V18.0811H30.6447C31.0663 18.0811 31.4312 18.151 31.7395 18.2909C32.0523 18.4308 32.2926 18.6293 32.4603 18.8865C32.628 19.1437 32.7118 19.4483 32.7118 19.8003C32.7118 20.1523 32.6257 20.4569 32.4535 20.7141C32.2858 20.9668 32.0455 21.1608 31.7327 21.2962L32.8003 22.8191H31.6171ZM31.5967 19.8003C31.5967 19.5341 31.5106 19.331 31.3383 19.1911C31.166 19.0467 30.9144 18.9745 30.5835 18.9745H29.686V20.6261H30.5835C30.9144 20.6261 31.166 20.5539 31.3383 20.4095C31.5106 20.2651 31.5967 20.062 31.5967 19.8003Z" fill="#121212"/>
<path d="M35.8286 22.9005C35.4523 22.9005 35.0874 22.8509 34.7339 22.7516C34.3848 22.6478 34.1037 22.5147 33.8906 22.3523L34.2646 21.5265C34.4686 21.6754 34.7112 21.795 34.9922 21.8852C35.2732 21.9755 35.5543 22.0206 35.8354 22.0206C36.1482 22.0206 36.3794 21.9755 36.5289 21.8852C36.6786 21.7905 36.7534 21.6664 36.7534 21.5129C36.7534 21.4001 36.708 21.3076 36.6174 21.2354C36.5312 21.1587 36.418 21.0978 36.2774 21.0527C36.1414 21.0075 35.9555 20.9579 35.7199 20.9038C35.3571 20.818 35.0602 20.7323 34.8291 20.6466C34.5979 20.5608 34.3983 20.4232 34.2306 20.2337C34.0674 20.0441 33.9859 19.7914 33.9859 19.4756C33.9859 19.2003 34.0606 18.9521 34.2103 18.731C34.3599 18.5054 34.5843 18.3272 34.8834 18.1963C35.1872 18.0654 35.5566 18 35.9919 18C36.2955 18 36.5925 18.0361 36.8826 18.1083C37.1728 18.1805 37.4266 18.2843 37.6442 18.4197L37.3042 19.2522C36.8645 19.004 36.4248 18.8799 35.9851 18.8799C35.6768 18.8799 35.4479 18.9296 35.2982 19.0288C35.1532 19.1281 35.0806 19.259 35.0806 19.4214C35.0806 19.5839 35.1645 19.7057 35.3322 19.7869C35.5045 19.8636 35.7651 19.9403 36.1142 20.0171C36.4769 20.1028 36.7739 20.1885 37.0049 20.2743C37.2362 20.36 37.4334 20.4954 37.5966 20.6804C37.7643 20.8654 37.8482 21.1158 37.8482 21.4317C37.8482 21.7025 37.7711 21.9506 37.6169 22.1763C37.4674 22.3974 37.2408 22.5734 36.9369 22.7042C36.6332 22.8351 36.2639 22.9005 35.8286 22.9005Z" fill="#121212"/>
</g>
<defs>
<clipPath id="clip0">
<rect width="36" height="4.90052" fill="white" transform="translate(2 18)"/>
</clipPath>
</defs>
</svg>
