<?xml version="1.0" encoding="UTF-8"?>
<svg xmlns="http://www.w3.org/2000/svg" xmlns:xlink="http://www.w3.org/1999/xlink" viewBox="206 206 88 88" width="40" height="40" version="1.1">
  <circle style="fill: rgb(163, 251, 52);" cx="96.763" cy="184.39" r="44" transform="matrix(1, 0, 0, 1, 153.236725, 65.610229)"></circle>
  <path style=" stroke:none;fill-rule:evenodd;fill:rgb(1.568627%,2.352941%,1.568627%);fill-opacity:1;" d="M 111.417 161.81 C 107.414 161.9 105.183 162.029 104.859 162.201 C 104.718 162.271 104.503 162.33 104.378 162.33 C 104.253 162.33 104.042 162.385 103.91 162.451 C 103.781 162.517 103.449 162.619 103.175 162.678 C 102.902 162.732 102.628 162.838 102.57 162.908 C 102.511 162.978 102.398 163.033 102.312 163.033 C 102.117 163.033 100.574 163.83 99.96 164.248 C 99.695 164.428 99.347 164.654 99.187 164.752 C 97.667 165.662 95.156 168.529 94.218 170.428 C 94.062 170.74 93.898 171.056 93.855 171.131 C 93.812 171.201 93.734 171.361 93.687 171.482 C 93.636 171.603 93.539 171.806 93.464 171.935 C 93.394 172.064 93.335 172.295 93.335 172.447 C 93.335 172.599 93.257 172.869 93.164 173.049 C 92.812 173.724 92.66 174.478 92.851 174.615 C 93.031 174.748 122.496 174.803 122.687 174.67 C 122.808 174.588 123.05 173.904 123.249 173.064 C 123.339 172.701 123.496 172.107 123.601 171.744 C 123.703 171.385 123.828 170.869 123.878 170.603 C 123.925 170.334 124.023 170.013 124.093 169.888 C 124.16 169.763 124.242 169.486 124.273 169.275 C 124.308 169.06 124.363 168.845 124.402 168.799 C 124.437 168.748 124.499 168.47 124.531 168.181 C 124.566 167.892 124.66 167.537 124.738 167.388 C 124.859 167.154 124.996 166.642 125.281 165.33 C 125.328 165.119 125.402 164.9 125.445 164.845 C 125.492 164.795 125.589 164.451 125.664 164.092 C 125.878 163.029 126.019 162.537 126.226 162.142 C 126.406 161.791 119.374 161.635 111.417 161.81 M 89.48 161.982 C 88.761 162.037 88.335 162.107 88.207 162.197 C 88.101 162.271 87.874 162.33 87.703 162.33 C 87.531 162.33 87.308 162.385 87.21 162.455 C 87.113 162.525 86.878 162.607 86.691 162.642 C 86.499 162.678 86.066 162.834 85.726 162.99 C 85.386 163.146 84.957 163.318 84.777 163.381 C 84.593 163.439 84.445 163.521 84.445 163.56 C 84.445 163.599 84.328 163.674 84.183 163.724 C 84.035 163.775 83.707 163.959 83.445 164.131 C 83.187 164.303 82.953 164.443 82.925 164.443 C 82.847 164.443 81.757 165.271 81.148 165.795 C 80.503 166.353 79.773 167.115 79.156 167.892 C 78.257 169.013 78.199 169.107 77.496 170.494 C 77.242 170.99 77.003 171.416 76.968 171.439 C 76.929 171.463 76.871 171.631 76.839 171.81 C 76.781 172.15 76.503 172.939 76.304 173.33 C 76.246 173.451 76.167 173.787 76.136 174.076 C 76.105 174.369 76.023 174.744 75.957 174.916 C 75.578 175.873 75.585 180.697 75.968 181.174 C 76.023 181.24 76.089 181.533 76.124 181.822 C 76.183 182.326 76.41 183.053 76.667 183.553 C 76.734 183.681 76.789 183.849 76.789 183.928 C 76.789 184.006 77.042 184.556 77.347 185.146 C 78.07 186.537 78.171 186.709 78.593 187.267 C 78.789 187.521 79.085 187.916 79.253 188.142 C 79.624 188.638 80.734 189.791 81.281 190.248 C 81.91 190.775 82.984 191.541 83.093 191.545 C 83.148 191.545 83.238 191.603 83.296 191.67 C 83.449 191.853 84.335 192.267 84.507 192.232 C 84.605 192.217 84.707 192.037 84.792 191.748 C 84.871 191.498 84.96 191.263 84.996 191.228 C 85.031 191.193 85.062 191.049 85.062 190.912 C 85.062 190.771 85.117 190.549 85.183 190.42 C 85.249 190.287 85.351 189.904 85.41 189.564 C 85.468 189.228 85.566 188.892 85.628 188.818 C 85.695 188.744 85.765 188.549 85.789 188.377 C 85.878 187.736 86.199 186.428 86.292 186.314 C 86.347 186.248 86.425 186.002 86.468 185.767 C 86.589 185.127 86.878 184.025 86.98 183.838 C 87.027 183.744 87.097 183.47 87.128 183.228 C 87.191 182.775 87.339 182.236 87.617 181.47 C 87.703 181.228 87.804 180.795 87.835 180.51 C 87.867 180.22 87.945 179.904 88.011 179.803 C 88.074 179.705 88.152 179.455 88.187 179.248 C 88.218 179.045 88.277 178.857 88.316 178.83 C 88.355 178.806 88.414 178.56 88.449 178.279 C 88.484 178.002 88.585 177.607 88.679 177.404 C 88.769 177.201 88.847 176.955 88.847 176.861 C 88.847 176.763 88.882 176.588 88.929 176.467 C 88.976 176.349 89.078 175.939 89.152 175.56 C 89.234 175.181 89.347 174.814 89.41 174.74 C 89.476 174.666 89.55 174.388 89.582 174.123 C 89.613 173.857 89.695 173.478 89.765 173.287 C 89.835 173.092 89.898 172.83 89.898 172.701 C 89.902 172.576 89.96 172.424 90.027 172.365 C 90.097 172.31 90.183 172.037 90.218 171.763 C 90.249 171.486 90.351 171.029 90.441 170.744 C 90.531 170.459 90.605 170.178 90.605 170.115 C 90.605 170.056 90.664 169.896 90.734 169.76 C 90.804 169.623 90.89 169.295 90.921 169.025 C 90.957 168.756 91.031 168.455 91.093 168.357 C 91.152 168.26 91.23 168.025 91.265 167.83 C 91.296 167.635 91.359 167.439 91.398 167.388 C 91.433 167.342 91.507 166.994 91.558 166.615 C 91.605 166.24 91.699 165.869 91.765 165.791 C 91.828 165.713 91.925 165.428 91.98 165.154 C 92.124 164.431 92.363 163.556 92.496 163.256 C 93.066 161.951 92.613 161.76 89.48 161.982 M 108.867 176.607 C 108.703 177.107 108.468 178.002 108.468 178.138 C 108.468 178.228 108.39 178.451 108.292 178.635 C 108.199 178.814 108.117 179.021 108.117 179.095 C 108.117 179.334 107.664 181.115 107.578 181.22 C 107.531 181.275 107.453 181.595 107.398 181.924 C 107.347 182.256 107.249 182.635 107.183 182.763 C 107.117 182.892 107.062 183.111 107.062 183.252 C 107.062 183.388 107.007 183.576 106.937 183.674 C 106.871 183.771 106.789 184.088 106.753 184.377 C 106.718 184.666 106.621 185.06 106.535 185.256 C 106.386 185.584 106.187 186.373 106.042 187.189 C 106.011 187.385 105.945 187.592 105.898 187.65 C 105.796 187.775 105.394 189.306 105.39 189.568 C 105.39 189.67 105.316 189.896 105.226 190.072 C 105.132 190.252 105.031 190.627 104.996 190.908 C 104.96 191.185 104.878 191.521 104.808 191.65 C 104.742 191.783 104.687 191.978 104.687 192.092 C 104.687 192.201 104.624 192.408 104.55 192.553 C 104.476 192.693 104.378 193.088 104.332 193.431 C 104.285 193.775 104.191 194.174 104.124 194.318 C 103.984 194.619 103.851 195.107 103.671 195.967 C 103.601 196.291 103.507 196.627 103.46 196.713 C 103.355 196.904 102.925 198.619 102.925 198.845 C 102.925 198.939 102.867 199.072 102.796 199.142 C 102.726 199.213 102.624 199.541 102.574 199.873 C 102.48 200.447 102.328 201.041 102.121 201.623 C 102.07 201.767 101.992 202.084 101.945 202.326 C 101.867 202.748 101.785 203.041 101.472 203.998 C 101.394 204.24 101.289 204.697 101.242 205.01 C 101.191 205.326 101.097 205.646 101.027 205.72 C 100.96 205.799 100.902 205.959 100.902 206.08 C 100.902 206.205 100.859 206.431 100.8 206.592 C 100.722 206.822 100.726 206.892 100.824 206.955 C 101.042 207.092 103.507 207.049 103.867 206.9 C 104.039 206.83 104.535 206.728 104.968 206.681 C 105.402 206.631 105.871 206.533 106.011 206.459 C 106.148 206.388 106.359 206.33 106.48 206.33 C 106.601 206.33 106.722 206.291 106.753 206.244 C 106.781 206.197 106.972 206.115 107.175 206.064 C 108.195 205.806 111.007 204.256 111.851 203.486 C 111.968 203.381 112.156 203.217 112.269 203.127 C 112.777 202.709 113.417 202.095 113.722 201.732 C 114.507 200.806 114.644 200.631 114.929 200.213 C 115.351 199.595 116.039 198.435 116.039 198.338 C 116.039 198.291 116.093 198.209 116.16 198.154 C 116.23 198.095 116.312 197.943 116.343 197.814 C 116.41 197.556 116.679 196.908 116.871 196.56 C 116.933 196.439 117.074 195.967 117.179 195.506 C 117.289 195.045 117.46 194.474 117.566 194.236 C 117.832 193.623 117.859 188.002 117.597 187.517 C 117.511 187.361 117.406 187.064 117.359 186.857 C 117.164 185.959 116.984 185.334 116.886 185.209 C 116.828 185.138 116.687 184.842 116.578 184.549 C 116.472 184.26 116.328 183.924 116.261 183.803 C 116.195 183.681 116.011 183.345 115.859 183.053 C 115.707 182.763 115.527 182.463 115.457 182.388 C 115.39 182.31 115.335 182.22 115.335 182.181 C 115.335 182.146 115.062 181.752 114.73 181.303 C 113.531 179.685 111.257 177.603 110.113 177.068 C 109.96 176.998 109.66 176.838 109.445 176.717 C 109.007 176.47 108.921 176.451 108.867 176.607 M 84.429 193.99 L 70.996 194.01 L 70.812 194.24 C 70.71 194.369 70.628 194.556 70.628 194.658 C 70.628 194.763 70.566 194.967 70.492 195.111 C 70.414 195.256 70.32 195.533 70.277 195.724 C 69.921 197.326 69.832 197.654 69.71 197.787 C 69.636 197.873 69.574 198.056 69.574 198.197 C 69.57 198.513 69.171 200.15 69.062 200.291 C 69.015 200.345 68.953 200.588 68.921 200.83 C 68.886 201.072 68.785 201.498 68.691 201.775 C 68.593 202.056 68.519 202.353 68.519 202.439 C 68.519 202.529 68.48 202.635 68.433 202.681 C 68.386 202.728 68.304 203.064 68.249 203.428 C 68.191 203.787 68.089 204.162 68.023 204.26 C 67.957 204.353 67.902 204.513 67.902 204.611 C 67.902 204.709 67.82 205.041 67.726 205.349 C 67.628 205.654 67.55 206.049 67.55 206.22 C 67.55 206.396 67.484 206.611 67.398 206.701 C 67.269 206.845 67.265 206.881 67.378 206.951 C 67.609 207.095 86.699 207.056 86.984 206.912 C 87.113 206.842 87.617 206.74 88.097 206.681 C 88.578 206.623 89.05 206.521 89.148 206.455 C 89.246 206.385 89.437 206.33 89.574 206.33 C 89.71 206.33 89.929 206.275 90.062 206.205 C 90.195 206.138 90.46 206.053 90.652 206.021 C 90.843 205.99 91.101 205.892 91.222 205.806 C 91.343 205.724 91.679 205.564 91.968 205.459 C 92.261 205.349 92.558 205.213 92.628 205.15 C 92.703 205.088 92.98 204.928 93.246 204.795 C 93.71 204.56 94.468 204.06 94.742 203.806 C 94.816 203.74 95.124 203.494 95.429 203.256 C 96.14 202.697 96.999 201.803 97.652 200.939 C 98.109 200.334 98.3 200.045 98.726 199.334 C 98.785 199.236 98.953 198.959 99.105 198.717 C 99.253 198.474 99.457 198.099 99.558 197.881 C 99.656 197.666 99.843 197.26 99.968 196.986 C 100.093 196.709 100.199 196.42 100.199 196.334 C 100.199 196.252 100.273 196.064 100.363 195.912 C 100.453 195.76 100.554 195.478 100.589 195.287 C 100.621 195.092 100.71 194.763 100.789 194.556 C 101.031 193.904 102.574 193.959 84.429 193.99" transform="matrix(1, 0, 0, 1, 153.236725, 65.610229)"></path>
</svg>