<svg xmlns="http://www.w3.org/2000/svg" width="172.982" height="138.359" viewBox="0 0 172.982 138.359"><defs><style>.a{fill:#353340;}.b{fill:#00000e;}</style></defs><path class="a" d="M364.232,223.92c-25.992-14.5-36.114-3.17-38.409,16.968-5.975-38.738,6.222-53.381,27.91-43.559a103.049,103.049,0,0,1,25.7,16.831,24.034,24.034,0,0,0,16.232,5.957" transform="translate(-309.378 -191.166)"/><path class="a" d="M420.522,220.117a25.7,25.7,0,0,0,16.341-6.163,110.238,110.238,0,0,1,26.065-16.625c21.721-9.822,33.935,4.821,27.952,43.559-2.707,1.919-5.357,3.861-8.157,5.984.256-6.1-.583-13.177-.676-18.5-.3-17.336-24.672-11.051-37.262,3.548-7.311,8.477,2.641,20.073,14.011,27.778a40.912,40.912,0,0,0,6.211,1.257c-4.594,3.759-9.873,8.123-16.162,13.34-7.9-7.419-18.009-16.929-28.113-25.854" transform="translate(-334.344 -191.166)"/><path class="a" d="M395.874,220.116a25.624,25.624,0,0,1-16.113-6.16,110.142,110.142,0,0,0-26.029-16.625c-21.69-9.819-33.886,4.821-27.91,43.557,2.7,1.918,5.347,3.858,8.146,5.983-.252-6.1.585-13.174.674-18.505.3-17.336,24.637-11.049,37.2,3.547,7.3,8.479-2.636,20.076-13.988,27.777a41.309,41.309,0,0,1-6.206,1.259c4.584,3.762,9.856,8.123,16.136,13.344,7.892-7.421,17.992-16.939,28.087-25.867S395.874,220.116,395.874,220.116Z" transform="translate(-309.378 -191.167)"/><path class="a" d="M433.635,323.168A59.942,59.942,0,0,0,457,350.149c24.789,12.253,39.185-6.806,32.9-27.285-2.821-9.19-13.382-27.372-29.806-34.063C455.972,287.121,429.073,312.219,433.635,323.168Zm11.252-18.147c1.167-6.561,4.336-6.021,6.083-5.272,7.1,3.041,15.635,10.514,18.654,18.046,4.313,10.762-3.087,17.524-12.737,11.25C448.082,323.32,443.266,314.146,444.887,305.021Z" transform="translate(-337.612 -215.649)"/><path class="a" d="M361.393,288.8c-16.423,6.691-26.984,24.873-29.805,34.063-6.286,20.479,8.11,39.538,32.9,27.285a59.941,59.941,0,0,0,23.366-26.981C392.414,312.219,365.516,287.121,361.393,288.8Zm3.208,40.244c-9.65,6.274-17.05-.488-12.737-11.25,3.018-7.532,11.557-15,18.654-18.046,1.747-.749,4.916-1.289,6.083,5.272C378.222,314.146,373.406,323.32,364.6,329.045Z" transform="translate(-310.885 -215.649)"/><path class="b" d="M432.776,196.207c47.374-16.4,19.393,67.609-42.138,67.609S301.126,179.8,348.5,196.207c-51.633-26.822-65.015,40.389-3.108,77.149,18.392,10.921,36.923,31.037,12.355,51.189,15.56-7.744,19.413-21.747,32.89-21.747s17.33,14,32.89,21.747c-24.568-20.153-6.038-40.268,12.355-51.189C497.79,236.6,484.408,169.385,432.776,196.207Z" transform="translate(-304.147 -190.044)"/></svg>