<svg width="40" height="40" viewBox="0 0 40 40" fill="none" xmlns="http://www.w3.org/2000/svg">
<circle cx="20" cy="20" r="20" fill="white"/>
<path d="M11.2305 26.8895C11.2994 27.0139 11.342 27.1049 11.3602 27.1453C11.791 27.9787 12.3191 28.8191 13.0419 29.2965L13.1128 29.341C13.9299 29.8457 15.3936 30.2826 16.8989 30.5243C16.9992 29.3653 17.6956 28.3145 18.3859 27.5408C17.4837 27.812 16.5467 27.9503 15.6044 27.9514C14.0821 27.9531 12.5818 27.5889 11.2305 26.8895ZM22.7528 22.4789C21.8942 22.2028 20.6079 20.9174 18.6545 21.3836C17.0428 21.7679 16.5593 22.8885 16.3028 23.2961C15.7017 22.7055 15.0641 22.305 14.535 22.214C14.1326 22.1462 13.869 22.2686 13.718 22.3818C13.4443 22.5902 13.4372 22.5973 15.2608 26.3828L15.4128 26.6973C15.4149 26.7034 15.4199 26.7074 15.423 26.7135L15.5872 27.0513C15.5872 27.0513 15.6916 27.4053 16.2978 27.2374C16.2978 27.2374 20.4964 26.8369 22.0939 23.9383C22.3269 23.4577 22.5466 22.9707 22.7528 22.4779V22.4789ZM6.14899 17.4191C6.16217 17.1764 6.14595 16.6353 5.79725 16.3572C5.51679 17.3855 5.35558 18.4426 5.31677 19.5076C5.6471 19.5413 5.96033 19.6707 6.21792 19.8797C6.13987 19.3791 5.97464 18.5316 6.15 17.4191H6.14899ZM21.9601 30.1157C21.2748 29.3754 21.1583 27.9908 21.6164 25.9813C21.6529 25.8235 21.6925 25.6667 21.732 25.512C21.0802 26.2088 19.9936 26.8895 19.3256 27.5347C18.5866 28.2487 17.6561 29.3916 17.5669 30.6183C18.3545 30.7134 19.1289 30.7589 19.804 30.7094C21.1015 30.6143 21.7259 30.2199 21.9601 30.1157ZM29.8717 12.6718C30.1975 13.0746 30.47 13.5175 30.6826 13.9896C31.1509 14.8695 32.6785 17.3726 34.6947 16.8932C34.5804 16.1717 34.4213 15.458 34.2183 14.7562C34.2041 14.7137 34.1899 14.6713 34.1737 14.6278L34.1808 14.6257C33.978 13.9502 33.7246 13.2705 33.4134 12.598C32.2558 13.0814 30.8945 12.9257 29.8717 12.6718ZM27.7704 7.49973C27.8213 7.54631 27.8567 7.60736 27.8717 7.67464C27.8868 7.74192 27.8808 7.81219 27.8545 7.87595C27.3548 9.07947 26.2175 10.0706 25.2443 10.7421C26.1364 10.729 27.3163 10.904 28.6979 11.5735C29.1388 11.7596 31.4409 12.6657 33.1175 11.9942C33.1124 11.9851 33.1053 11.974 33.1012 11.9639C33.0678 11.8991 33.0313 11.8354 32.9968 11.7717C31.8291 9.7115 30.1744 7.96723 28.1769 6.69064C26.7119 5.80377 25.0755 5.23579 23.3751 5.02393C23.5381 5.85855 23.4478 6.72271 23.1157 7.5058C25.6883 6.37914 27.0588 6.85044 27.7704 7.49973ZM22.6271 29.8123C23.6829 29.3298 24.7171 28.8017 25.7268 28.2295C25.6589 28.2022 25.5961 28.1729 25.5383 28.1415C24.2885 27.4599 23.589 25.1135 23.2738 23.0635C23.2294 23.1796 23.1821 23.2946 23.1319 23.4084C22.7817 24.2971 22.4955 25.2097 22.2753 26.139C21.73 28.5289 22.1395 29.4603 22.6271 29.8113V29.8123ZM30.712 17.9956C29.1409 18.8664 27.593 19.3043 26.0847 19.3043C25.2369 19.3041 24.395 19.164 23.5931 18.8896C23.8718 20.0062 23.6681 21.1318 23.8323 22.1492C23.9083 22.1755 23.9864 22.2028 24.0655 22.2271C26.3817 22.9846 28.1809 23.1161 29.2686 22.6074C29.5662 22.472 29.8277 22.2686 30.0319 22.0137C30.7921 21.058 30.7465 19.0626 30.711 17.9956H30.712Z" fill="#FF6B00"/>
<path d="M27.0125 27.5014L27.0145 27.5044C28.6371 26.5512 29.6119 24.3495 29.9541 23.0677C29.8166 23.163 29.6689 23.2482 29.509 23.3233C28.9498 23.5839 28.2898 23.6914 27.5839 23.6914C26.382 23.6914 25.0477 23.3811 23.858 22.9988C24.1615 24.9793 24.8256 27.1373 25.7994 27.6677C26.163 27.8654 26.5602 27.8117 27.0125 27.5014ZM23.3436 18.199C23.6206 18.3102 23.9039 18.4051 24.1921 18.483C26.2404 19.0285 28.4089 18.6401 30.6396 17.3269C30.6172 16.0998 30.3768 15.1273 30.0264 14.3566C29.9317 14.1761 29.8808 14.0625 29.8736 14.0483H29.8746C29.4906 13.3126 28.9327 12.681 28.249 12.2077C26.7354 11.4998 25.4958 11.437 24.6851 11.5272C27.0033 12.4348 27.3985 13.742 27.4168 13.8049L27.4331 13.8597C27.4501 13.9195 27.4456 13.9833 27.4203 14.0402C27.395 14.097 27.3505 14.1433 27.2946 14.171L27.2437 14.1963C25.0151 15.32 22.9067 14.6922 21.7547 14.1537C22.0938 14.9518 22.544 16.0187 22.7192 16.4314L22.7233 16.4294C22.7956 16.5937 22.8659 16.7651 22.9352 16.9425L22.9392 16.9527C23.089 17.3441 23.2275 17.7599 23.3426 18.199H23.3436ZM30.8983 27.9577C30.3024 27.1018 30.1069 25.8555 30.0784 24.7096C29.8716 25.1953 29.6567 25.6283 29.4499 26.0005L29.4509 26.0015C29.4204 26.0725 29.3827 26.1415 29.3399 26.2125C28.9936 26.8899 27.8752 29.2629 28.3947 30.7871C28.5454 31.2313 28.8225 31.5578 29.236 31.7799C29.6567 31.4706 30.88 30.5021 32.0717 28.8796C31.5925 28.7041 31.1816 28.3817 30.8983 27.9587V27.9577ZM8.15074 24.6244C7.38071 23.6204 6.82457 22.7564 6.54447 21.8457C6.39066 21.3448 5.8712 20.4016 5.14191 20.286C5.15209 21.7646 5.38127 23.1925 5.79888 24.5392C6.71253 24.385 7.49275 24.4439 8.15074 24.6244Z" fill="#FF6B00"/>
<path d="M27.6746 30.8926C27.3197 29.8518 27.5825 28.5489 27.9404 27.495C27.7371 27.6534 27.5288 27.8054 27.3156 27.9506L27.3177 27.9536L27.2072 28.0225C26.945 28.1995 26.6784 28.3699 26.4076 28.5337L26.4096 28.5368C26.2501 28.635 22.5707 30.9391 24.3266 34.2283C25.86 33.7589 27.3068 33.0475 28.6113 32.1216C28.1681 31.8281 27.838 31.395 27.6746 30.8926ZM34.7183 17.5656C34.5127 17.6092 34.3072 17.6324 34.1027 17.6324C33.0923 17.6324 32.0922 17.0969 31.1698 16.0511C31.1674 16.0478 31.1647 16.0447 31.1616 16.042C31.224 16.4793 31.2568 16.939 31.2568 17.4168C31.267 17.5585 31.2752 17.7003 31.2813 17.841C31.3529 18.6438 31.6351 20.4256 32.7283 21.3813C33.2611 21.848 33.935 22.0606 34.7357 22.0181C34.7428 21.9867 34.75 21.9502 34.7561 21.9128C34.8318 21.3072 34.8697 20.6976 34.8696 20.0875C34.8706 19.3251 34.8308 18.4717 34.7183 17.5656Z" fill="#FF6B00"/>
<path d="M32.341 21.8934C31.8458 21.4567 31.4953 20.8932 31.2477 20.3124C31.1795 20.8582 31.0829 21.4001 30.9583 21.936C30.8697 22.4569 30.346 25.8941 31.4617 27.4964C31.7286 27.8813 32.0639 28.1179 32.4826 28.2214C32.9997 27.4439 33.4386 26.6174 33.793 25.754L33.797 25.756C34.2005 24.7863 34.5052 23.7658 34.6947 22.7067C33.7726 22.7301 32.9829 22.4579 32.341 21.8934ZM11.3166 28.6621C10.9867 28.1758 10.6948 27.6649 10.4434 27.1339C10.0185 26.3937 8.73165 24.702 6.01624 25.1061C6.56346 26.617 7.35283 28.0295 8.35363 29.2886C9.16367 28.4377 10.3049 28.4032 11.3166 28.6621ZM19.9051 31.4312C18.9147 31.5134 17.7531 31.4291 16.6283 31.2392C15.807 31.1529 13.5175 31.0687 11.9158 32.5288C13.7936 33.7523 15.9259 34.5342 18.1515 34.8155C18.124 33.8215 18.5866 32.7949 19.5067 31.8241C19.6392 31.682 19.7737 31.552 19.9041 31.4312H19.9051ZM12.5903 29.9375C12.2163 29.7141 10.0043 28.4804 8.81011 29.7882C9.14024 30.1934 9.99511 31.156 11.3472 32.1348C12.2265 31.2788 13.2862 30.8575 14.2542 30.6655C13.6688 30.4997 13.109 30.2547 12.5903 29.9375ZM24.2335 29.7994C23.398 30.2177 21.1482 30.9763 19.8613 32.4405C19.2846 33.0964 18.7792 33.9362 18.8322 34.8643C19.2866 34.914 20.3269 34.9882 21.6852 34.8399L21.8849 34.8176L21.9664 34.8074C22.5736 34.7292 23.1707 34.6145 23.7546 34.4642C22.806 32.5593 23.399 30.9417 24.2335 29.7994ZM11.0283 22.1797C11.0701 22.2122 11.1424 22.2589 11.3768 22.2589C11.658 22.2589 12.1736 22.1909 13.1538 21.9431C13.9995 21.7299 15.2731 21.3491 16.6945 20.7246C16.8524 20.6515 17.2549 20.4565 17.7195 20.2271C17.8744 20.3997 18.0089 20.6028 18.0965 20.8424C20.7457 20.2656 21.7534 21.411 22.862 21.8395C23.0892 20.7612 23.0525 19.3487 22.7764 18.6024C20.2026 17.457 18.5632 15.2343 17.958 14.293C17.3527 14.7621 16.45 15.3866 15.9018 16.4913C14.7871 18.7374 13.6112 20.7571 11.5102 21.4009C11.1506 21.5116 10.9162 21.5999 10.8856 21.8598C10.88 21.9209 10.8902 21.9823 10.9151 22.0383C10.9401 22.0943 10.9791 22.143 11.0283 22.1797Z" fill="#FF6B00"/>
<path d="M12.7979 17.4678C13.4097 17.0262 14.5126 16.2366 14.8982 15.9192C15.6003 15.3402 17.5412 13.8027 18.0303 13.4151C18.0441 13.4042 18.0601 13.3965 18.0772 13.3926C18.0944 13.3887 18.1121 13.3887 18.1293 13.3926C18.1464 13.3965 18.1624 13.4042 18.1762 13.4152C18.19 13.4261 18.2011 13.44 18.2089 13.4558C19.7206 16.4727 22.4814 17.7893 22.4814 17.7893C22.3627 17.421 22.2206 17.0466 22.0552 16.666L22.0583 16.665L21.48 15.2964L21.1147 14.4326C20.9077 13.9472 20.7474 13.5677 20.7007 13.4639L20.2604 12.4535C20.2462 12.4199 20.2847 12.3894 20.3152 12.4108L21.208 13.0549C21.2334 13.0732 23.8085 14.8772 26.5703 13.6928C26.2902 13.2451 25.4643 12.309 23.2565 11.7464L22.5027 11.554C22.4489 11.5408 22.4418 11.4665 22.4925 11.4421L23.1957 11.1104C23.2251 11.0972 26.0427 9.75 27.0005 7.84624C25.7403 6.98136 23.5406 7.92764 22.3008 8.59309L20.8874 9.35419C20.8539 9.37149 20.8205 9.32977 20.8448 9.30026L21.8838 8.0762C21.9284 8.02329 22.938 6.7921 22.5737 5.0776C21.8848 4.97076 19.5502 4.80796 17.4854 6.9722L17.0735 7.40464C17.0651 7.41321 17.0545 7.41921 17.0429 7.42195C17.0313 7.42469 17.0191 7.42404 17.0078 7.42009C16.9965 7.41614 16.9866 7.40905 16.9792 7.39965C16.9718 7.39024 16.9672 7.37891 16.966 7.36699L16.7935 5.65452C15.7626 6.09714 13.0384 7.62646 12.6356 11.5459C12.4925 12.9399 12.2673 14.1385 11.9599 15.157L11.9578 15.155L11.9173 15.2985C11.8097 15.6373 11.693 15.9548 11.5672 16.2529C11.4689 16.4673 11.3543 16.6738 11.2243 16.8705C10.998 17.2104 11.0995 17.4373 11.1938 17.5309C11.3765 17.7181 12.2795 17.8422 12.7979 17.4678ZM15.856 11.0514C16.3136 10.7563 16.7996 11.2447 16.5063 11.7046C16.4871 11.7352 16.4607 11.7616 16.4302 11.7809C15.9716 12.076 15.4856 11.5876 15.7789 11.1287C15.7992 11.0982 15.8255 11.0717 15.856 11.0514ZM13.4422 11.0514C13.9008 10.7563 14.3858 11.2447 14.0926 11.7046C14.0733 11.7352 14.0469 11.7616 14.0165 11.7809C13.5579 12.076 13.0719 11.5876 13.3661 11.1287C13.3864 11.0982 13.4118 11.0717 13.4422 11.0514Z" fill="#FF6B00"/>
</svg>
