<?xml version="1.0" standalone="no"?><!DOCTYPE svg PUBLIC "-//W3C//DTD SVG 1.1//EN" "http://www.w3.org/Graphics/SVG/1.1/DTD/svg11.dtd"><svg t="1645771694061" class="icon" viewBox="0 0 1024 1024" version="1.1" xmlns="http://www.w3.org/2000/svg" p-id="1222" xmlns:xlink="http://www.w3.org/1999/xlink" width="200" height="200"><defs><style type="text/css"></style></defs><path d="M770.666667 149.333333l-18.56-10.666666-18.346667-10.666667-18.56 10.666667-18.346667 10.666666-18.56 10.666667-18.56 10.666667-18.346666 10.666666-18.56 10.666667-18.56 10.666667-18.346667 10.666666-18.56 10.666667-18.346667 10.666667-18.56 10.666666-18.346666 10.666667-18.56 10.666667-18.56 10.666666-18.346667 10.666667-18.56 10.666667-18.56 10.666666-18.346667 10.666667-18.56 10.666667-18.346666 10.666666-18.56 10.666667-18.56 10.666667-18.346667 10.666666-18.56 10.666667v512l18.56 10.666667 18.346667 10.666666 18.56 10.666667V416l18.56-10.666667 18.346666-10.666666 18.56-10.666667 18.346667-10.666667 18.56-10.666666 18.56-10.666667 18.346667-10.666667 18.56-10.666666 18.56-10.666667 18.346666-10.666667 18.56-10.666666 18.346667-10.666667 18.56-10.666667 18.346667-10.666666 18.56-10.666667 18.56-10.666667 18.346666-10.666666 18.56-10.666667 18.56-10.666667 18.346667-10.666666 18.56-10.666667 18.346667-10.666667 18.56-10.666666 18.56-10.666667z" fill="#2502cf" p-id="1223"></path><path d="M549.013333 21.333333l-18.56-10.666666-18.346666-10.666667-18.56 10.666667-18.56 10.666666-18.346667 10.666667-18.56 10.666667-18.56 10.666666-18.346667 10.666667-18.56 10.666667-18.346666 10.666666-18.56 10.666667-18.56 10.666667-18.346667 10.666666-18.56 10.666667-18.346667 10.666667-18.56 10.666666-18.56 10.666667-18.346666 10.666667-18.56 10.666666-18.346667 10.666667-18.56 10.666667-18.56 10.666666-18.346667 10.666667-18.56 10.666667-18.346666 10.666666-18.56 10.666667v512l18.56 10.666667 18.346666 10.666666 18.56 10.666667V288l18.346667-10.666667 18.56-10.666666 18.56-10.666667 18.346667-10.666667 18.56-10.666666 18.346666-10.666667 18.56-10.666667 18.56-10.666666 18.346667-10.666667 18.56-10.666667 18.346667-10.666666 18.56-10.666667 18.56-10.666667 18.346666-10.666666 18.56-10.666667 18.346667-10.666667 18.56-10.666666 18.56-10.666667 18.346667-10.666667 18.56-10.666666 18.56-10.666667 18.346666-10.666667 18.56-10.666666 18.346667-10.666667z" fill="#2502cf" p-id="1224"></path><path d="M659.733333 85.333333l-18.346666-10.666666-18.56-10.666667-18.56 10.666667-18.346667 10.666666-18.56 10.666667-18.346667 10.666667-18.56 10.666666-18.346666 10.666667-18.56 10.666667-18.56 10.666666-18.346667 10.666667-18.56 10.666667-18.56 10.666666-18.346667 10.666667-18.56 10.666667-18.346666 10.666666-18.56 10.666667-18.56 10.666667-18.346667 10.666666-18.56 10.666667-18.346667 10.666667-18.56 10.666666-18.56 10.666667-18.346666 10.666667-18.56 10.666666-18.346667 10.666667v512l18.346667 10.666667 18.56 10.666666 18.346666 10.666667V352l18.56-10.666667 18.56-10.666666 18.346667-10.666667 18.56-10.666667 18.346667-10.666666 18.56-10.666667 18.56-10.666667 18.346666-10.666666 18.56-10.666667 18.346667-10.666667 18.56-10.666666 18.56-10.666667 18.346667-10.666667 18.56-10.666666 18.56-10.666667 18.346666-10.666667 18.56-10.666666 18.346667-10.666667 18.56-10.666667 18.346667-10.666666 18.56-10.666667 18.56-10.666667 18.346666-10.666666 18.56-10.666667z" fill="#2502cf" p-id="1225"></path><path d="M881.386667 213.333333l-18.346667-10.666666-18.56-10.666667-18.346667 10.666667-18.56 10.666666-18.346666 10.666667-18.56 10.666667-18.56 10.666666-18.346667 10.666667-18.56 10.666667-18.346667 10.666666-18.56 10.666667-18.56 10.666667-18.346666 10.666666-18.56 10.666667-18.56 10.666667-18.346667 10.666666-18.56 10.666667-18.346667 10.666667-18.56 10.666666-18.346666 10.666667-18.56 10.666667-18.56 10.666666-18.346667 10.666667-18.56 10.666667-18.56 10.666666-18.346667 10.666667v512l18.346667 10.666667 18.56 10.666666 18.56 10.666667V480l18.346667-10.666667 18.56-10.666666 18.56-10.666667 18.346666-10.666667 18.56-10.666666 18.346667-10.666667 18.56-10.666667 18.346667-10.666666 18.56-10.666667 18.56-10.666667 18.346666-10.666666 18.56-10.666667 18.56-10.666667 18.346667-10.666666 18.56-10.666667 18.346667-10.666667 18.56-10.666666 18.56-10.666667 18.346666-10.666667 18.56-10.666666 18.346667-10.666667 18.56-10.666667 18.346667-10.666666 18.56-10.666667z" fill="#2502cf" p-id="1226"></path><path d="M955.413333 256l-18.56 10.666667-18.56 10.666666-18.56 10.666667-18.56 10.666667-18.56 10.666666-18.56 10.666667-18.56 10.666667-18.56 10.666666-18.56 10.666667-18.56 10.666667-18.56 10.666666-18.56 10.666667-18.56 10.666667-18.56 10.666666-18.56 10.666667-18.56 10.666667-18.56 10.666666-18.56 10.666667-18.56 10.666667-18.56 10.666666-18.56 10.666667-18.56 10.666667-18.56 10.666666-18.56 10.666667v512l18.56-10.666667 18.56-10.666666 18.56-10.666667V544l18.56-10.666667 18.56-10.666666 18.56-10.666667 18.56-10.666667 18.56-10.666666 18.56-10.666667 18.56-10.666667 18.56-10.666666 18.56-10.666667 18.56-10.666667 18.56-10.666666 18.56-10.666667 18.56-10.666667 18.56-10.666666 18.56-10.666667 18.56-10.666667 18.56-10.666666 18.56-10.666667v384l-18.56 10.666667-18.56 10.666666-18.56 10.666667-18.56 10.666667-18.56 10.666666-18.56 10.666667-18.56 10.666667-18.56 10.666666-18.56 10.666667-18.56 10.666667-18.56 10.666666v-85.333333l18.56-10.666667 18.56-10.666666 18.56-10.666667 18.56-10.666667 18.56-10.666666 18.56-10.666667 18.56-10.666667V480l-18.56 10.666667-18.56 10.666666-18.56 10.666667-18.56 10.666667-18.56 10.666666-18.56 10.666667-18.56 10.666667-18.56 10.666666-18.56 10.666667-18.56 10.666667v362.666666l18.56-10.666666 18.56-10.666667 18.56-10.666667 18.56-10.666666 18.56-10.666667 18.56-10.666667 18.56-10.666666 18.56-10.666667 18.56-10.666667 18.56-10.666666 18.56-10.666667 18.56-10.666667 18.56-10.666666 18.56-10.666667 18.56-10.666667 18.56-10.666666 18.56-10.666667V256zM696.853333 682.666667v-64l18.56-10.666667 18.56-10.666667 18.56-10.666666 18.56-10.666667v85.333333l-18.56 10.666667-18.56 10.666667-18.56 10.666666-18.56 10.666667v-21.333333z" fill="#2502cf" p-id="1227"></path></svg>
