<svg width="40" height="40" viewBox="0 0 40 40" fill="none" xmlns="http://www.w3.org/2000/svg">
<circle cx="20" cy="20" r="20" fill="white"/>
<path d="M20 35C28.2843 35 35 28.2843 35 20C35 11.7157 28.2843 5 20 5C11.7157 5 5 11.7157 5 20C5 28.2843 11.7157 35 20 35Z" fill="black"/>
<path d="M27.3908 27.9058L26.3817 28.2351C26.3817 28.2351 26.3817 28.2351 26.3657 28.2489L25.9973 29.1273C25.9493 29.237 25.7731 29.237 25.725 29.1273L25.3406 28.2626C25.3406 28.2626 25.3406 28.2626 25.3246 28.2489L24.2995 27.9332C24.1713 27.892 24.1713 27.7411 24.2995 27.6999L25.3086 27.3705C25.3086 27.3705 25.3086 27.3705 25.3246 27.3568L25.693 26.4784C25.741 26.3685 25.9172 26.3685 25.9652 26.4784L26.3497 27.343C26.3497 27.343 26.3497 27.343 26.3657 27.3568L27.3908 27.6724C27.519 27.6999 27.519 27.8646 27.3908 27.9058Z" fill="white"/>
<path d="M21.8159 29.21L20.7908 29.5257C20.7908 29.5257 20.7908 29.5257 20.7748 29.5394L20.3904 30.4178C20.3423 30.5276 20.1501 30.5276 20.1181 30.4178L19.7497 29.5394C19.7497 29.5394 19.7497 29.5394 19.7336 29.5257L18.7085 29.1963C18.5804 29.1551 18.5804 28.9905 18.7085 28.963L19.7336 28.6473C19.7336 28.6473 19.7336 28.6473 19.7497 28.6336L20.1341 27.7552C20.1821 27.6454 20.3743 27.6454 20.4064 27.7552L20.7748 28.6336C20.7748 28.6336 20.7748 28.6336 20.7908 28.6473L21.8159 28.9767C21.9601 29.0179 21.9601 29.1826 21.8159 29.21Z" fill="white"/>
<path d="M9.14664 21.016L8.76223 20.1376C8.76223 20.1376 8.76223 20.1376 8.74621 20.1239L7.72111 19.8082C7.59296 19.767 7.59296 19.6161 7.72111 19.5749L8.74621 19.2455C8.74621 19.2455 8.74621 19.2455 8.76223 19.2318L9.13063 18.3534C9.17866 18.2435 9.35488 18.2435 9.40291 18.3534L9.78733 19.2318C9.78733 19.2318 9.78733 19.2318 9.80334 19.2455L10.8285 19.5611C10.9566 19.6024 10.9566 19.7533 10.8285 19.7945L9.80334 20.1239C9.80334 20.1239 9.80334 20.1239 9.78733 20.1376L9.41893 21.016C9.37089 21.1258 9.19471 21.1258 9.14664 21.016Z" fill="white"/>
<path d="M11.2547 14.7966L12.2959 15.126C12.424 15.1672 12.424 15.3182 12.2959 15.3593L11.2708 15.6888C11.2708 15.6888 11.2708 15.6888 11.2547 15.7024L10.8863 16.5808C10.8383 16.6906 10.6621 16.6906 10.6141 16.5808L10.2296 15.7162C10.2296 15.7162 10.2296 15.7162 10.2136 15.7024L9.18853 15.3868C9.06039 15.3456 9.06039 15.1946 9.18853 15.1535L10.2136 14.824C10.2136 14.824 10.2136 14.8241 10.2296 14.8104L10.598 13.932C10.6461 13.8222 10.8223 13.8222 10.8703 13.932L11.2547 14.7966Z" fill="white"/>
<path d="M25.8142 10.432L26.1826 11.3104C26.1826 11.3104 26.1826 11.3104 26.1986 11.3241L27.2237 11.6535C27.3519 11.6947 27.3519 11.8594 27.2237 11.8868L26.1986 12.2025C26.1986 12.2025 26.1986 12.2025 26.1826 12.2162L25.7982 13.0946C25.7501 13.2044 25.5579 13.2044 25.5259 13.0946L25.1575 12.2162C25.1575 12.2162 25.1575 12.2162 25.1415 12.2025L24.1164 11.8731C23.9882 11.8319 23.9882 11.6672 24.1164 11.6398L25.1415 11.3241C25.1415 11.3241 25.1415 11.3241 25.1575 11.3104L25.5419 10.432C25.59 10.3222 25.7662 10.3222 25.8142 10.432Z" fill="white"/>
<path d="M29.7766 13.7147L30.161 14.5931C30.161 14.5931 30.161 14.5931 30.177 14.6068L31.2021 14.9362C31.3303 14.9774 31.3303 15.1283 31.2021 15.1695L30.177 15.4989C30.177 15.4989 30.177 15.4989 30.161 15.5126L29.7766 16.391C29.7285 16.5008 29.5524 16.5008 29.5043 16.391L29.1199 15.5126C29.1199 15.5126 29.1199 15.5126 29.1039 15.4989L28.0788 15.1695C27.9506 15.1283 27.9506 14.9774 28.0788 14.9362L29.1039 14.6068C29.1039 14.6068 29.1039 14.6068 29.1199 14.5931L29.5043 13.7147C29.5363 13.6049 29.7285 13.6049 29.7766 13.7147Z" fill="white"/>
<path d="M21.2879 10.4225C21.3167 9.93803 20.8816 9.5253 20.3162 9.50067C19.7508 9.47603 19.2691 9.84882 19.2404 10.3333C19.2116 10.8178 19.6467 11.2305 20.2121 11.2551C20.7775 11.2798 21.2592 10.907 21.2879 10.4225Z" fill="white"/>
<path d="M15.1451 12.4507C15.6485 12.2287 15.8466 11.6991 15.5875 11.2677C15.3284 10.8363 14.7103 10.6666 14.2069 10.8886C13.7034 11.1106 13.5054 11.6402 13.7645 12.0716C14.0235 12.5029 14.6417 12.6727 15.1451 12.4507Z" fill="white"/>
<path d="M11.3381 25.2519C11.8393 25.0261 12.032 24.495 11.7686 24.0656C11.5052 23.6362 10.8854 23.471 10.3842 23.6968C9.88303 23.9225 9.69032 24.4536 9.95375 24.883C10.2172 25.3125 10.837 25.4776 11.3381 25.2519Z" fill="white"/>
<path d="M15.7963 28.494C16.1041 28.0869 15.9682 27.543 15.493 27.2794C15.0178 27.0157 14.3831 27.1321 14.0754 27.5392C13.7677 27.9465 13.9035 28.4903 14.3787 28.7539C14.854 29.0176 15.4886 28.9012 15.7963 28.494Z" fill="white"/>
<path d="M30.677 24.8958C30.9738 24.4827 30.8237 23.9416 30.3416 23.6873C29.8596 23.4328 29.2281 23.5614 28.9312 23.9746C28.6343 24.3876 28.7844 24.9287 29.2665 25.1831C29.7486 25.4375 30.38 25.3089 30.677 24.8958Z" fill="white"/>
<path d="M32.1236 19.7254C32.1546 19.241 31.7215 18.8268 31.1562 18.8002C30.5909 18.7736 30.1075 19.1447 30.0764 19.6291C30.0454 20.1135 30.4785 20.5277 31.0438 20.5543C31.6091 20.5809 32.0925 20.2098 32.1236 19.7254Z" fill="white"/>
<path d="M25.4212 22.1004C25.277 22.32 25.0688 22.5121 24.7484 22.6494L21.2888 24.3925C20.6801 24.6944 19.9433 24.6944 19.3346 24.4062L15.7467 22.6357C15.4745 22.4984 15.2663 22.32 15.1221 22.0867L20.2476 19.6162L25.4212 22.1004Z" fill="white"/>
<path d="M25.6276 17.8449V21.2624C25.6276 21.5643 25.5635 21.8525 25.4193 22.0859L20.2457 19.6154V14.5098C20.534 14.5235 20.8224 14.6196 21.1427 14.7705L24.6025 16.445C25.1951 16.7469 25.6276 17.2547 25.6276 17.8449Z" fill="#646464"/>
<path opacity="0.7" d="M20.2878 14.6466V19.7522L15.1623 22.2227C14.9861 21.9619 14.906 21.66 14.906 21.3306V17.9405C14.906 17.3367 15.2104 16.9249 15.835 16.623L19.503 14.8113C19.7593 14.6877 20.0316 14.6329 20.2878 14.6466Z" fill="#C4C4C4"/>
</svg>
