<svg width="40" height="40" viewBox="0 0 40 40" fill="none" xmlns="http://www.w3.org/2000/svg">
<circle cx="20" cy="20" r="20" fill="white"/>
<path d="M30.0198 19.6994C30.0208 17.7065 29.4415 15.7564 28.3525 14.0874L32.3995 10.0401L29.3601 7L25.3157 11.0473C23.6463 9.95865 21.6962 9.37899 19.7032 9.37899C17.7102 9.37899 15.7601 9.95865 14.0907 11.0473L10.0401 7L7 10.0401L11.0473 14.087C9.95865 15.7565 9.37899 17.7065 9.37899 19.6995C9.37899 21.6926 9.95865 23.6426 11.0473 25.312L7 29.3597L10.0401 32.3998L14.0874 28.3525C15.7568 29.4412 17.7069 30.0208 19.6999 30.0208C21.693 30.0208 23.643 29.4412 25.3124 28.3525L29.3597 32.3998L32.3995 29.3597L28.3525 25.3157C29.4423 23.6454 30.0217 21.6937 30.0198 19.6994ZM13.6795 19.6994C13.6779 18.8012 13.8773 17.914 14.2631 17.1029C14.6489 16.2918 15.2112 15.5772 15.909 15.0117C16.6067 14.4461 17.4222 14.0438 18.2956 13.8343C19.169 13.6247 20.0782 13.6133 20.9566 13.8007C21.835 13.9882 22.6603 14.3698 23.3721 14.9176C24.0839 15.4654 24.6641 16.1656 25.0702 16.9667C25.4763 17.7678 25.6979 18.6497 25.719 19.5476C25.74 20.4456 25.5599 21.3368 25.1918 22.1561L21.2205 18.1793L18.1793 21.2201L22.1521 25.1918C21.2361 25.6037 20.2315 25.7794 19.23 25.7028C18.2286 25.6263 17.2624 25.2999 16.4196 24.7536C15.5769 24.2073 14.8845 23.4584 14.4058 22.5755C13.9272 21.6925 13.6774 20.7037 13.6795 19.6994Z" fill="#4CBBFD"/>
</svg>
