<svg width="384" height="384" viewBox="0 0 384 384" fill="none" xmlns="http://www.w3.org/2000/svg">
<rect width="384" height="384" fill="white"/>
<g clip-path="url(#clip0_274_1627)">
<path fill-rule="evenodd" clip-rule="evenodd" d="M192 272C213.732 272 233.44 263.335 247.857 249.271C248.252 248.885 248.885 248.885 249.276 249.276L282.51 282.51L317.005 317.004C317.751 317.751 316.982 318.994 315.981 318.66L260.931 300.31C260.646 300.215 260.333 300.254 260.079 300.414C240.36 312.822 217.018 320 192 320C121.308 320 64 262.692 64 192C64 121.307 121.308 63.9999 192 63.9999C262.692 63.9999 320 121.307 320 192C320 222.194 309.545 249.946 292.059 271.834C291.689 272.297 290.999 272.332 290.58 271.913L222.995 204.329C222.249 203.582 223.017 202.339 224.019 202.673L266.966 216.989C267.49 217.163 268.057 216.88 268.225 216.354C270.677 208.675 272 200.492 272 192C272 147.817 236.183 112 192 112C147.817 112 112 147.817 112 192C112 236.183 147.817 272 192 272Z" fill="#00A4D6"/>
</g>
<defs>
<clipPath id="clip0_274_1627">
<rect width="256" height="256" fill="white" transform="translate(64 64)"/>
</clipPath>
</defs>
</svg>
