<svg width="40" height="40" viewBox="0 0 40 40" fill="none" xmlns="http://www.w3.org/2000/svg">
<circle cx="20" cy="20" r="20" fill="white"/>
<path fill-rule="evenodd" clip-rule="evenodd" d="M11.6874 12.6668L13.6709 11.5284L13.9381 11.9868L21.2499 7.7732L20.7155 7.46594L20.1787 7.15363L19.9115 7L8 13.8757V14.183L11.4202 12.2059L11.6874 12.6668Z" fill="#121212"/>
<path fill-rule="evenodd" clip-rule="evenodd" d="M11.6874 16.9963L17.4188 13.6869L17.686 14.1528L24.9977 9.9367L24.4634 9.6244L23.9265 9.31713L23.6594 9.16602L8 18.2001V18.5074L11.4202 16.5303L11.6874 16.9963Z" fill="#121212"/>
<path fill-rule="evenodd" clip-rule="evenodd" d="M11.6874 19.1594L19.2915 14.772L19.5612 15.2329L26.8704 11.0118L26.3361 10.7096L25.8017 10.3973L25.5321 10.2437L8 20.3582V20.6705L11.4202 18.696L11.6874 19.1594Z" fill="#121212"/>
<path fill-rule="evenodd" clip-rule="evenodd" d="M11.6874 21.3204L21.2196 15.8224L21.4893 16.2833L28.7456 12.0974L28.2113 11.7851L27.6744 11.4779L27.4072 11.3242L8 22.5243V22.8316L11.4202 20.8545L11.6874 21.3204Z" fill="#121212"/>
<path fill-rule="evenodd" clip-rule="evenodd" d="M11.6874 23.4789L23.0948 16.9004L23.362 17.3664L30.6183 13.1755L30.0839 12.8707L29.5496 12.5584L29.2799 12.4048L8 24.6828V24.9901L11.4202 23.018L11.6874 23.4789Z" fill="#121212"/>
<path fill-rule="evenodd" clip-rule="evenodd" d="M31.4223 13.6415L31.1551 13.4854L8 26.8489V27.1562L11.4202 25.1841L11.6874 25.645L23.0948 19.0665L23.362 19.5274L31.823 14.6489V14.0294V13.8757L31.4223 13.6415Z" fill="#121212"/>
<path fill-rule="evenodd" clip-rule="evenodd" d="M9.46684 28.4686L11.3849 27.363L11.652 27.8239L23.0393 21.2554L23.3065 21.7214L31.823 16.8076V16.1881V15.5685V15.2612L9.20471 28.315L9.46684 28.4686Z" fill="#121212"/>
<path fill-rule="evenodd" clip-rule="evenodd" d="M23.0394 23.4214L23.3065 23.8874L31.823 18.9736V18.3541V17.7345V17.4272L11.0775 29.3955L11.3471 29.5491L13.2929 28.4233L13.5626 28.8893" fill="#121212"/>
<path fill-rule="evenodd" clip-rule="evenodd" d="M13.2198 30.6318L15.1681 29.5035L15.4352 29.9694L23.0393 25.5796L23.3065 26.0455L31.823 21.1318V20.5122V19.8977V19.5879L12.9476 30.4732L13.2198 30.6318Z" fill="#121212"/>
<path fill-rule="evenodd" clip-rule="evenodd" d="M15.0924 31.7124L17.0407 30.5891L17.3104 31.05L23.0393 27.7457L23.3065 28.2066L31.823 23.2928V22.6783V22.0587V21.7515L14.8253 31.5588L15.0924 31.7124Z" fill="#121212"/>
<path fill-rule="evenodd" clip-rule="evenodd" d="M16.7005 32.639L16.9677 32.7927L18.921 31.6669L19.1831 32.1328L23.0394 29.9039L23.3065 30.3698L31.823 25.4561V24.8365V24.2169V23.9097L16.7005 32.639Z" fill="#121212"/>
<path fill-rule="evenodd" clip-rule="evenodd" d="M18.8403 33.8782L20.7886 32.7474L21.0557 33.2133L23.0393 32.0648L23.3065 32.5308L31.823 27.6221V27.0025V26.3829V26.0757L18.5731 33.7246L18.8403 33.8782Z" fill="#121212"/>
<path fill-rule="evenodd" clip-rule="evenodd" d="M23.1251 8.85377L22.5882 8.5465L22.0539 8.23924L21.7867 8.08057L8 16.0342V16.3415L11.4202 14.372L11.6874 14.8303L15.5436 12.6064L15.8184 13.0724L23.1251 8.85377Z" fill="#121212"/>
</svg>
