<svg width="40" height="40" viewBox="0 0 40 40" fill="none" xmlns="http://www.w3.org/2000/svg">
<circle cx="20" cy="20" r="20" fill="white"/>
<path d="M18.1925 23.5018C18.1113 23.5119 18.0289 23.5037 17.9512 23.4778C17.8736 23.4519 17.8027 23.409 17.7438 23.3522L15.3504 20.9589C15.2936 20.8999 15.2507 20.829 15.2248 20.7514C15.1989 20.6738 15.1907 20.5913 15.2008 20.5101C15.1907 20.4289 15.1989 20.3464 15.2248 20.2688C15.2507 20.1911 15.2936 20.1203 15.3504 20.0613L21.3338 14.2275C21.3928 14.1707 21.4636 14.1278 21.5413 14.1019C21.6189 14.076 21.7014 14.0678 21.7826 14.0779C21.8638 14.0678 21.9462 14.076 22.0239 14.1019C22.1015 14.1278 22.1724 14.1707 22.2313 14.2275L24.7743 16.6209C24.9239 16.6209 24.9239 16.92 24.9239 17.0696C24.934 17.1508 24.9257 17.2333 24.8999 17.3109C24.874 17.3886 24.8311 17.4594 24.7743 17.5184L18.6413 23.3522C18.5823 23.409 18.5115 23.4519 18.4338 23.4778C18.3562 23.5037 18.2737 23.5119 18.1925 23.5018Z" fill="url(#paint0_radial)"/>
<path d="M24.7744 11.8338L19.838 7.0471C19.0881 6.39801 18.1369 6.02809 17.1455 6C16.0782 6.01243 15.0581 6.44194 14.3033 7.19669C14.0042 7.34627 14.0042 7.49586 14.0042 7.64544C13.9941 7.72666 14.0023 7.80911 14.0282 7.88675C14.0541 7.96439 14.097 8.03527 14.1538 8.0942L20.8851 14.5264C21.0347 14.676 21.1843 14.676 21.1843 14.8256C21.9114 15.5776 22.3422 16.5671 22.3971 17.6117C22.4521 18.6563 22.1276 19.6856 21.4835 20.5098L24.7744 17.3685C25.1574 17.0336 25.4629 16.6192 25.6696 16.1542C25.8763 15.6892 25.9791 15.1848 25.971 14.676C25.9586 13.6087 25.5291 12.5886 24.7744 11.8338Z" fill="url(#paint1_linear)"/>
<path d="M18.9403 22.6042C18.1996 21.8521 17.7721 20.8468 17.7443 19.7916C17.7166 18.7363 18.0905 17.7099 18.7907 16.9199L15.4998 20.0612C15.121 20.4313 14.82 20.8734 14.6145 21.3615C14.409 21.8496 14.3032 22.3738 14.3032 22.9034C14.3032 23.4329 14.409 23.9572 14.6145 24.4452C14.82 24.9333 15.121 25.3754 15.4998 25.7455L22.6799 33.0752C22.7388 33.132 22.8097 33.1749 22.8873 33.2008C22.965 33.2266 23.0474 33.2348 23.1287 33.2248C23.2099 33.2348 23.2923 33.2266 23.37 33.2008C23.4476 33.1749 23.5185 33.132 23.5774 33.0752C23.9562 32.7051 24.2572 32.263 24.4627 31.7749C24.6681 31.2869 24.774 30.7626 24.774 30.2331C24.774 29.7035 24.6681 29.1793 24.4627 28.6912C24.2572 28.2031 23.9562 27.761 23.5774 27.3909L19.0898 22.9034C19.0898 22.7538 18.9403 22.7538 18.9403 22.6042Z" fill="url(#paint2_linear)"/>
<defs>
<radialGradient id="paint0_radial" cx="0" cy="0" r="1" gradientUnits="userSpaceOnUse" gradientTransform="translate(19.9155 18.771) scale(4.80918 4.81045)">
<stop stop-color="#BE4650"/>
<stop offset="1" stop-color="#9B375A"/>
</radialGradient>
<linearGradient id="paint1_linear" x1="14" y1="13.3129" x2="25.9715" y2="13.3129" gradientUnits="userSpaceOnUse">
<stop stop-color="#FF3C55"/>
<stop offset="0.514" stop-color="#FF3D56"/>
<stop offset="1" stop-color="#FF8B65"/>
</linearGradient>
<linearGradient id="paint2_linear" x1="14.188" y1="25.0744" x2="24.7531" y2="25.0744" gradientUnits="userSpaceOnUse">
<stop stop-color="#FF3C55"/>
<stop offset="0.514" stop-color="#FF3C55"/>
<stop offset="1" stop-color="#FF8B65"/>
</linearGradient>
</defs>
</svg>
