<svg xmlns="http://www.w3.org/2000/svg" xmlns:xlink="http://www.w3.org/1999/xlink" viewBox="0 0 189.9 236.73"><defs><style>.cls-1{fill:url(#linear-gradient);}.cls-2{fill:url(#linear-gradient-2);}</style><linearGradient id="linear-gradient" x1="94.95" y1="238.64" x2="94.95" y2="1.91" gradientTransform="matrix(1, 0, 0, -1, 0, 238.64)" gradientUnits="userSpaceOnUse"><stop offset="0" stop-color="#f77423"/><stop offset="1" stop-color="#fbce5b"/></linearGradient><linearGradient id="linear-gradient-2" x1="86.4" y1="1.92" x2="86.4" y2="99.13" xlink:href="#linear-gradient"/></defs><title>Asset 1</title><g id="Layer_2" data-name="Layer 2"><g id="Long"><path class="cls-1" d="M189.9,197.87h0a12.44,12.44,0,0,1-.18,2.11,13.71,13.71,0,0,1-1.43,4.36l-.42.72a11.5,11.5,0,0,1-1.81,2.35l-.64.64-.26.2h0l-.62.44v.06c-.68.46-1.59,1.06-2.07,1.33q-4.93,3.34-10.1,6.27c-1.61.94-3.25,1.81-4.88,2.67-1.21.64-2.45,1.25-3.68,1.85-.5.26-1,.5-1.49.72-1.12.54-2.21,1.06-3.35,1.55l-.34.14c-1.37.67-2.77,1.26-4.18,1.79a3.07,3.07,0,0,1-.5.2c-1.25.52-2.51,1-3.76,1.47-.38.14-.76.3-1.16.44-2.91,1.08-5.86,2-8.82,2.93l-.42.14c-1.47.44-3,.86-4.48,1.25-2.45.64-4.94,1.24-7.45,1.77-1.59.34-3.19.66-4.78.94l-2.65.46c-1.65.28-3.31.52-5,.74s-3.39.4-5.1.56-3.37.3-5.06.42c-3.39.22-6.79.34-10.2.34a155.45,155.45,0,0,1-20-1.27c-3.94-.52-7.87-1.16-11.73-2s-7.34-1.64-11-2.67h0c-2.81-.79-5.57-1.69-8.32-2.63a152.34,152.34,0,0,1-16.34-6.65A156.93,156.93,0,0,1,8,210.23l-.68-.44c-.4-.26-.8-.52-1.18-.8L5,208.18c-.28-.26-.54-.52-.8-.8s-.5-.54-.72-.8a10.44,10.44,0,0,1-1.18-1.69h0a12.48,12.48,0,0,1-1.5-3.57,13.11,13.11,0,0,1-.44-3.47,16.15,16.15,0,0,1,.1-1.7,13.12,13.12,0,0,1,1.17-4.07c.12-.26.24-.52.38-.76s.3-.52.46-.78.34-.52.52-.78a152.86,152.86,0,0,1,23.2-29.68q1.35-1.35,2.73-2.67c.92-.88,1.85-1.73,2.79-2.59.72-.66,1.43-1.29,2.17-1.93h0a.16.16,0,0,1,.06-.08c3.09-2.69,6.29-5.3,9.62-7.77l.38-.3.42-.32h0a12.86,12.86,0,0,1,1.45-1.1,14.62,14.62,0,0,1,1.59-1,19.44,19.44,0,0,1,2.41-1.22c.4-.18.84-.34,1.25-.48a20.35,20.35,0,0,1,2.65-.72,21,21,0,0,1,4.18-.42,20.32,20.32,0,0,1,4.66.54c.5.12,1,.26,1.49.4a20.76,20.76,0,0,1,6.43,3.3c.3.22.6.45.89.69s.65.55,1,.85a21.17,21.17,0,0,1,1.8,1.87l.4.5c.92,1.2,1.85,2.37,2.81,3.55q2.86,3.49,5.94,6.81c1,1.12,2.07,2.21,3.13,3.29,2.23,2.25,4.54,4.46,6.89,6.57,2.15,1.93,4.34,3.78,6.61,5.6H100l1.19,1c.46.38,1,.78,1.41,1.1l.18.14a10,10,0,0,0,5.82,1.42,10.29,10.29,0,0,0,9.53-9.06,10.13,10.13,0,0,0-2.92-8.35l-5.7-5.7c-.06,0-.1-.08-.16-.14l-13.6-13.62L82.29,126.78,4.38,48.87l.08-.06A14,14,0,0,1,0,38.75H0a13.75,13.75,0,0,1,1.61-6.47l.07-.12a21.65,21.65,0,0,1,2.74-3.51h0l.3-.24h0q.24-.15.6-.42h0c.7-.48,1.59-1.06,2.07-1.35,2.53-1.71,5.12-3.35,7.73-4.88a156.66,156.66,0,0,1,166.8,4.72l.66.44c.8.52,1.57,1.08,2.33,1.63a14.44,14.44,0,0,1,2.71,3.27,13.39,13.39,0,0,1,1.91,7.27,14.34,14.34,0,0,1-1,4.79,12.07,12.07,0,0,1-1.62,3,153,153,0,0,1-16,21.95,158.11,158.11,0,0,1-24.58,22.74l-.84.64a16.26,16.26,0,0,1-3,2.15A20.32,20.32,0,0,1,132,97.13h-.1a18.34,18.34,0,0,1-12.65-5.47C111.32,83.84,90,63.32,90,63.32l-1.25-1.06a16.37,16.37,0,0,0-1.39-1.1L87.18,61a9.85,9.85,0,0,0-4.69-1.42A10.33,10.33,0,0,0,72,67.67,10.2,10.2,0,0,0,74.79,77L185.46,187.83A13.93,13.93,0,0,1,189.9,197.87Z"/><path class="cls-2" d="M93.3,167.85c-2.36-2.11-4.68-4.33-6.89-6.58a152.72,152.72,0,0,1-11.89-13.65l-.39-.49a20.18,20.18,0,0,0-4.5-4,20.88,20.88,0,0,0-22.23-.81,17.64,17.64,0,0,0-3,2.15l-.42.32-.39.32A155.4,155.4,0,0,0,3,189.8a13.73,13.73,0,0,0-1,1.52,14.1,14.1,0,0,0-1.65,6.54,13.28,13.28,0,0,0,1.93,7A13.1,13.1,0,0,0,5,208.16c.74.56,1.51,1.13,2.32,1.65l.67.42a154.38,154.38,0,0,0,55.46,23.25,156.86,156.86,0,0,0,109-17.13A247.55,247.55,0,0,1,93.3,167.85Z"/></g></g></svg>