<svg width="40" height="40" viewBox="0 0 40 40" fill="none" xmlns="http://www.w3.org/2000/svg">
<circle cx="20" cy="20" r="20" fill="white"/>
<path d="M32.3043 13.3871L16.4638 13.3871C14.5613 13.3871 13.0724 15.0472 13.0724 17.1222C13.0724 19.1557 14.5613 20.8573 16.4638 20.8573L23.1226 20.8573C23.9911 20.8573 24.6942 21.3968 24.6942 22.2683C24.6942 23.1398 23.9911 23.6793 23.1226 23.6793L16.4638 23.6793C12.8242 23.6793 10.0118 20.8158 10.0118 17.1637C10.0118 13.5116 12.8656 10.6481 16.4638 10.6481L30.3604 10.6481C27.7962 7.78453 24.1152 6 19.9793 6C12.2452 6 6 12.2666 6 20.0272C6 22.3513 6.57903 24.5093 7.57164 26.4598L23.3708 26.4598C25.2733 26.4598 26.8863 24.9243 26.8863 22.8493C26.8863 20.7743 25.2733 19.0312 23.3708 19.0312L16.712 19.0312C15.8434 19.0312 15.1403 18.4917 15.1403 17.6202C15.1403 16.7487 15.8434 16.2092 16.712 16.2092L23.3708 16.2092C27.0103 16.2092 29.9468 19.0727 29.9468 22.6833C29.9468 26.2938 26.969 29.1989 23.3708 29.1989L9.47415 29.1989L8.3161 33.847L13.1551 32.2284C15.1817 33.3905 17.4978 34.0545 20.0207 34.0545C27.7548 34.0545 34 27.7879 34 20.0272C33.9586 17.5787 33.3383 15.3377 32.3043 13.3871Z" fill="#CAD12C"/>
</svg>
