<svg width="40" height="40" viewBox="0 0 40 40" fill="none" xmlns="http://www.w3.org/2000/svg">
<circle cx="20" cy="20" r="20" fill="white"/>
<path fill-rule="evenodd" clip-rule="evenodd" d="M18.4577 10.4778L21.9751 7.72647L14.0712 9.49549L18.4577 10.4778ZM21.1936 11.0915L22.5219 8.3865L19.5389 10.7198L21.1936 11.0915ZM23.3004 11.5631V8.75925L22.0616 11.2861L23.3014 11.5631H23.3004ZM25.82 12.1284L24.1674 8.76234V11.7588L25.82 12.1284ZM16.2665 12.1933L17.5917 11.1564L13.8787 10.3234L16.2675 12.1923L16.2665 12.1933ZM31.2898 13.3548L24.9448 8.38753L26.8991 12.3704L31.2887 13.3538L31.2898 13.3548ZM14.5778 13.5144L15.5715 12.7359L13.337 10.9885L14.5768 13.5144H14.5778ZM19.4349 14.6728L20.8085 11.8772L18.6719 11.3984L16.9616 12.737L19.4349 14.6728ZM28.1173 14.8499L31.0962 14.1837L27.381 13.3496L28.1173 14.8499ZM12.5565 15.096L13.8817 14.0591L12.5576 11.3582V15.096H12.5565ZM24.1663 15.7344L27.2503 15.0445L26.2999 13.1087L24.1663 12.6299V15.7344ZM21.5406 16.3213L23.2993 15.928V12.4363L21.6745 12.0708L20.1299 15.2175L21.5406 16.3213ZM29.0543 16.76L31.2887 15.0116L28.5024 15.6356L29.0543 16.76ZM19.3463 16.8115L20.4605 16.5633L19.7448 16.0021L19.3463 16.8125V16.8115ZM16.5064 17.4478L18.2672 17.0545L19.0498 15.4585L16.2665 13.2806L14.9629 14.3L16.5064 17.4478ZM23.2993 17.697V16.8012L22.4086 16.9989L23.2993 17.697ZM12.5555 18.3323L15.6405 17.6424L14.2668 14.8437L12.5555 16.1823V18.3323ZM8.17002 18.528L11.6895 15.7735L11.6906 11.3572L8.17002 18.5269V18.528ZM17.289 19.0438L17.7853 18.0337L16.8915 18.2335L17.289 19.0438ZM30.1756 19.0438L31.8293 15.6767L29.4404 17.5456L30.1756 19.0449V19.0438ZM8.70958 19.1932L11.6895 18.5259V16.8619L8.70958 19.1932ZM25.577 19.4804L28.3593 17.3037L27.6364 15.8291L24.1663 16.6066V18.3756L25.577 19.4804ZM24.1653 20.5853L24.882 20.0241L24.1653 19.4619V20.5843V20.5853ZM11.6885 20.6471V19.3981L8.90317 20.0221L11.6885 20.6461V20.6471ZM16.0256 21.6171L16.8081 20.0241L16.0256 18.4281L12.5555 19.2045V20.8396L16.0256 21.6171ZM28.7444 21.9589L29.6948 20.0231L28.7454 18.0904L26.2721 20.0241L28.7444 21.9599V21.9589ZM17.7833 22.0114L17.289 21.0044L16.8915 21.8117L17.7833 22.0114ZM21.3254 22.8043L23.2983 21.2628V18.7844L21.3275 17.2419L18.8665 17.7917L17.7699 20.0241L18.8634 22.2534L21.3264 22.8053L21.3254 22.8043ZM11.6885 23.1822V21.5182L8.70958 20.851L11.6885 23.1822ZM23.2973 23.2471V22.3512L22.4066 23.0483L23.2973 23.2471ZM32.6088 24.0018L32.6098 16.0454L30.6565 20.0241L32.6088 24.0018ZM19.7428 24.0451L20.4594 23.4829L19.3443 23.2337L19.7428 24.0451ZM27.6343 24.2191L28.3593 22.7446L25.577 20.5678L24.1643 21.6727V23.4417L27.6343 24.2191ZM31.8293 24.3735L30.1756 21.0044L29.4394 22.5026L31.8293 24.3735ZM31.2887 25.0377L29.0543 23.2882L28.5013 24.4127L31.2887 25.0377ZM14.2668 25.2025L15.6405 22.4048L12.5565 21.7138V23.8618L14.2668 25.2025ZM27.38 26.6996L31.0972 25.8676L28.1162 25.2004L27.38 26.6996ZM16.2655 26.7666L19.0477 24.5888L18.2652 22.9927L16.5075 22.5984L14.9619 25.7461L16.2655 26.7655V26.7666ZM24.1643 27.4194L26.2999 26.9416L27.2503 25.0058L24.1653 24.3149V27.4194H24.1643ZM21.6724 27.9775L23.2973 27.614L23.2983 24.1202L21.5416 23.7259L20.1289 24.8307L21.6714 27.9775H21.6724ZM18.6709 28.6488L20.8044 28.1711L19.4339 25.3754L16.9595 27.3102L18.6709 28.6488ZM11.6895 28.688V24.2716L8.17002 21.5161L11.6875 28.688H11.6895ZM12.5545 28.688L13.8817 25.9881L12.5555 24.9502V28.688H12.5545ZM13.336 29.0576L15.5704 27.3092L14.5758 26.5318L13.336 29.0576ZM13.8766 29.7218L17.5897 28.8908L16.2655 27.8539L13.8766 29.7218ZM23.2973 31.291V28.4862L22.0575 28.7642L23.2973 31.291ZM24.1643 31.291L25.818 27.9219L24.1643 28.2915V31.291ZM22.5168 31.6597L21.1905 28.9578L19.5368 29.3284L22.5157 31.6597H22.5168ZM24.9438 31.6597L31.2898 26.6965L26.8991 27.6799L24.9438 31.6607V31.6597ZM21.9731 32.3228L18.4556 29.5694L14.0691 30.5507L21.9731 32.3228ZM23.7308 35C23.1541 35 22.6177 34.7467 22.2583 34.305C21.9957 33.9816 21.8516 33.5801 21.8485 33.1671L13.8066 31.3652C13.683 31.6102 13.5111 31.8213 13.2928 31.9923C12.956 32.2559 12.5514 32.3938 12.121 32.3938C11.5443 32.3938 11.0079 32.1416 10.6485 31.6998C10.3355 31.3137 10.1934 30.8308 10.25 30.3406C10.3056 29.8567 10.5486 29.4211 10.9358 29.1132L7.35965 21.823C7.22579 21.8518 7.0909 21.8652 6.95395 21.8652C6.37732 21.8652 5.84188 21.6129 5.48355 21.1722C4.83587 20.3763 4.97076 19.2117 5.78216 18.5774C6.11784 18.3148 6.52148 18.1758 6.95086 18.1758C7.08884 18.1758 7.22579 18.1913 7.36068 18.2201L10.9409 10.9278C10.8318 10.8423 10.735 10.7476 10.6536 10.6467C10.3406 10.2616 10.1985 9.77865 10.2562 9.28852C10.3118 8.79838 10.5589 8.35973 10.9523 8.05288C11.289 7.78928 11.6936 7.64924 12.1241 7.64924C12.7007 7.64924 13.2372 7.90255 13.5965 8.34532C13.6789 8.44623 13.751 8.55846 13.8128 8.68203L21.8547 6.88212C21.8578 6.32094 22.1121 5.803 22.56 5.4529C22.8967 5.1893 23.3014 5.05029 23.7318 5.05029C24.3084 5.05029 24.8459 5.3036 25.2043 5.74534C25.6512 6.29519 25.7387 7.04893 25.4339 7.68322L31.8849 12.7328C32.2196 12.4754 32.6201 12.3395 33.0444 12.3395C33.621 12.3395 34.1575 12.5928 34.5168 13.0345C35.1635 13.8305 35.0296 14.9951 34.2182 15.6294C33.9999 15.8003 33.7507 15.9187 33.4779 15.9815L33.4768 24.0718C33.8867 24.1666 34.2532 24.3941 34.5158 24.7175C34.8288 25.1026 34.9699 25.5855 34.9143 26.0746C34.8577 26.5647 34.6105 27.0044 34.2172 27.3123C33.8805 27.5749 33.4758 27.7139 33.0454 27.7139C32.6232 27.7139 32.2113 27.5749 31.8818 27.3205L25.4318 32.366C25.8025 33.1352 25.5853 34.065 24.9026 34.5974C24.5659 34.861 24.1612 35 23.7308 35Z" fill="#2EA836"/>
</svg>
