<?xml version="1.0" encoding="utf-8"?>
<!-- Generator: Adobe Illustrator 25.2.1, SVG Export Plug-In . SVG Version: 6.00 Build 0)  -->
<svg version="1.1" id="Layer_1" xmlns="http://www.w3.org/2000/svg" xmlns:xlink="http://www.w3.org/1999/xlink" x="0px" y="0px"
	 viewBox="0 0 179 41" style="enable-background:new 0 0 179 41;" xml:space="preserve">
<style type="text/css">
	.st0{fill:#41415B;}
	.st1{fill:#7A5CF2;}
</style>
<g>
	<path class="st0" d="M44.8,27.8c0,0-1.4,5.5,3.9,5.1c3.7-0.3,5.3-5.2,7-5.2s0,5.3,2.7,5.3c4.3,0,6.2-8.2,5.5-11.6
		C61.6,12.5,47.2,16.3,44.8,27.8z"/>
	<path class="st0" d="M76.8,17.1c-2.3-0.9-8.4-1-8.4,1.6c0,2,4.3,1.2,4.3,2.8c0,1.3-6,2.8-6.3,6.6c-0.1,1.7,1.2,4.9,6.8,4.9
		s7.6-3,8-7.5C81.5,22.4,80.8,18.7,76.8,17.1z"/>
	<path class="st1" d="M11.9,28.8c1.9,0,3.7-0.6,5.1-1.7l0.2-0.2c0.2-0.2,3.4-2.7,3.2-5.9c-0.1-1.9-1.2-3.1-2.2-3.4
		c-0.7-0.2-1.4,0-2,0.6c-0.4,0.4-0.4,1-0.3,1.3c0.1,0.6,0.4,1.1,0.7,1.4c0.3,0.2,0.4,0.7,0.2,1c-0.2,0.3-0.7,0.4-1,0.2
		c-0.7-0.5-1.2-1.4-1.3-2.3c-0.1-0.8,0.1-1.7,0.6-2.4c0.9-1.1,2.1-1.5,3.4-1.1c1.8,0.5,3,2.4,3.2,4.7c0.2,2.4-1.2,4.4-2.3,5.7
		c2.1-0.4,3.6-1.2,4.4-2.5c0.9-1.5,0.9-3.4,1-5c0-0.4,0-0.8,0.1-1.1c0.1-1.9,0.8-3.5,1.3-4.5c-0.8-2.1-2.3-3.8-4.1-5.1
		c-2.1-1.5-4.5-2.2-7.1-2.2c-6.8,0-12.4,5.5-12.4,12.3c0,3.2,1,5.9,2.9,7.8C7.3,27.9,9.6,28.8,11.9,28.8z"/>
	<path class="st0" d="M42,7c0,0-0.1,0-0.1-0.1c0.4-0.8,1.1-2,2.5-3.1C44.6,4,44.9,4,45.2,4c1.1,0,2-0.9,2-2s-0.9-2-2-2s-2,0.9-2,2
		c0,0.2,0,0.5,0.1,0.7c-1.5,1.3-2.4,2.6-2.9,3.6c-0.8-0.2-1.8-0.3-2.8-0.2c-2.5,0.3-6.3,2.1-9.4,6.9c-0.5,0.8-1.6,2.9-1.7,5
		c-0.2,3.4,0.6,9.7-8.6,10.2c-3.2,2.3-7.3,2.5-10.6,0.8c-3.5-0.2-6.4,0.7-7.1,3.1C-0.4,35,1.5,36.7,5,36.7c9.4,0,24.2,0,24.2,0
		s10.8,0.2,12.3-6.8c1.2-5.8-4.9-8.7-1.9-12.8c2-2.7,5.2-2.9,4.6-7.1C44.2,10,43.9,8.1,42,7z"/>
	<path class="st0" d="M119,18.3c0-1-0.8-1.8-1.8-1.8h-1.6c0.4-1.5,0.9-3.1,1.6-4.6c0.8-1.8,2-5.3-0.3-5.7c-2.1-0.4-4,2.2-4.8,4
		c-6.5,14.5-4.2,18.3-2.9,20.1c0.8,1,2.4,2.7,5.5,2.7c0.3,0,0.6,0,0.9,0c1.9-0.2,3.9-2.1,3.2-3.8c-0.5-1.1-3.4-1-4-3.1
		c-0.3-1-0.4-3.1,0-5.8h2.4C118.2,20.2,119,19.4,119,18.3z"/>
	<path class="st0" d="M91.4,16.8c-0.4-0.2-0.7-0.3-1.1-0.3c-0.2-1.4-0.6-2.4-0.9-3.2c0.2-0.3,0.3-0.7,0.3-1c0-1.1-0.9-2-2-2
		s-2,0.9-2,2s0.9,2,2,2c0.2,0,0.3,0,0.5-0.1c0.3,0.6,0.5,1.4,0.7,2.4c-0.9,0.3-1.6,0.9-2.1,1.8c-0.1,0.2-2.5,5.1-2.4,11.1
		c0,1.9,1.6,3.4,3.5,3.4c0,0,0,0,0.1,0c1.9,0,3.3-2.3,3.3-4.2c-0.1-4.2,0.2-5.5,0.7-7.3C92,20.7,93.1,17.7,91.4,16.8z"/>
	<path class="st0" d="M100.3,6.1c-1.9,0.2-2.5,2.1-2.3,4.5c1,10.5-2.3,15.1-3.2,17.3c-0.7,1.8-0.2,3.8,1.5,4.7
		c0.5,0.3,1.1,0.4,1.6,0.4c1.3,0,2.5-0.7,3.1-1.9c0.2-0.4,4.3-8.8,3-21.5C103.8,7.6,102.3,5.9,100.3,6.1z"/>
	<path class="st0" d="M143.5,17.1c-2.3-0.9-8.4-1-8.4,1.6c0,2,4.3,1.2,4.3,2.8c0,1.3-6,2.8-6.3,6.6c-0.1,1.7,1.2,4.9,6.8,4.9
		s7.6-3,8-7.5C148.2,22.4,147.5,18.7,143.5,17.1z"/>
	<path class="st0" d="M154.4,16.6c0-1.9,0.4-3.2,0.9-4.1c0.1,0,0.2,0,0.3,0c1.1,0,2-0.9,2-2s-0.9-2-2-2s-2,0.9-2,2
		c0,0.5,0.2,0.9,0.4,1.2c-0.5,1-1.1,2.6-1.1,4.8c-0.3,0.1-0.6,0.1-0.9,0.3c-1.7,0.8-0.7,3.9-0.5,4.7c0.5,1.7,0.8,3.1,0.7,7.3
		c0,1.9,1.3,4.2,3.3,4.2c0,0,0,0,0.1,0c1.9,0,3.5-1.5,3.5-3.4c0.1-6-2.3-10.9-2.4-11.1C156.2,17.5,155.4,16.9,154.4,16.6z"/>
	<path class="st0" d="M173.3,29.1c-0.5-1.1-3.4-1-4-3.1c-0.7-1.9-0.3-8.1,2.3-14.1c0.8-1.8,2-5.3-0.3-5.7c-2.1-0.4-4,2.2-4.8,4
		c-6.5,14.5-4.2,18.3-2.9,20.1c0.8,1,2.4,2.7,5.5,2.7c0.3,0,0.6,0,0.9,0C172.1,32.7,174.1,30.8,173.3,29.1z"/>
	<path class="st0" d="M128.4,16.5c-2.1,0.2-3.8,1.2-4.9,2.9c-2.6,3.9-1.2,9.6-0.9,11.1c0.4,1.5,1.7,2.4,3.2,2.4c0.3,0,0.5,0,0.8-0.1
		c1.7-0.4,2.8-2.2,2.3-4c-0.6-2.4-1-6.7-0.1-8c0.7-1,2.5-1.1,2.8-2.3C132.1,16.8,130.2,16.3,128.4,16.5z"/>
</g>
</svg>
