<?xml version="1.0" encoding="UTF-8"?>
<svg width="86px" height="40px" viewBox="0 0 86 40" version="1.1" xmlns="http://www.w3.org/2000/svg" xmlns:xlink="http://www.w3.org/1999/xlink">
    <g id="Symbols" stroke="none" stroke-width="1" fill="none" fill-rule="evenodd">
        <g id="top-banner-1280" transform="translate(-42.000000, -16.000000)" fill="#EB2E2C">
            <g id="top-banner">
                <path d="M83.5371269,36.4522001 L86.7860967,36.4522001 C87.2211806,36.4522001 87.4477332,36.8100189 87.2881166,37.2495138 L85.9918755,40.8160344 C85.8580035,41.1855213 85.447377,41.487593 85.0805163,41.487593 L81.7066851,41.487593 L83.5371269,36.4522001 Z M91.5153817,31.6138668 L79.266096,31.4155107 L70.3739075,55.7912723 L76.8950174,55.7912723 L80.3525186,46.8367257 L85.0946758,46.8367257 C87.9613382,46.8367257 89.3515471,47.0610107 90.4289591,43.7524827 L93.823386,34.1302668 C94.6510752,31.7875904 94.1606404,31.6138668 91.5153817,31.6138668 Z M101.386123,36.4522001 L104.633805,36.4522001 C105.070177,36.4522001 105.296729,36.8100189 105.137113,37.2495138 L103.840871,40.8160344 C103.706999,41.1855213 103.296373,41.487593 102.929512,41.487593 L99.555681,41.487593 L101.386123,36.4522001 Z M109.364378,31.6138668 L97.1150919,31.4155107 L88.2229034,55.7912723 L94.7440133,55.7912723 L98.2015144,46.8367257 L102.943672,46.8367257 C105.810334,46.8367257 107.200543,47.0610107 108.277955,43.7524827 L111.672382,34.1302668 C112.500071,31.7875904 112.008349,31.6138668 109.364378,31.6138668 Z M119.067907,31.3480955 L128,31.5244121 L126.254515,36.4768325 L120.042341,36.4768325 L119.058897,39.3562372 L123.134269,39.3562372 C124.50002,39.3899448 124.660924,39.7594316 124.086819,41.5485259 L120.297213,53.1439313 C119.781033,54.9070967 118.58777,55.9922213 116.326106,56 L97.980497,56 L100.158491,49.1858843 L115.489407,48.8928877 L116.704552,44.9529909 L112.674233,44.9529909 C110.782005,44.8985402 110.489803,43.828973 111.504141,41.2386756 L113.773528,34.4764177 C114.450612,32.5602717 116.25917,31.3143879 119.067907,31.3480955 M63.3757501,22.3033163 L65.7352436,16 L57.3193305,16 C56.4375776,19.6248606 54.8285394,22.0569917 51.9296963,22.381103 L44.3633552,22.381103 L42,28.858143 L52.6853006,28.858143 L45.3094697,49.5247751 C43.9630265,52.9590583 44.0106541,55.9045816 48.7141944,55.9045816 L67.6261853,55.9045816 L70.0847956,49.4288381 L57.1301076,49.4288381 C54.0240203,49.4288381 54.1218498,48.4668758 55.049943,45.1427905 L59.9324084,32.0862914 C60.9802141,29.4091322 63.113155,28.6468224 66.6813581,28.762206 L95.8062359,28.762206 L98.358814,22.381103 L63.3757501,22.3033163 Z M66.1041639,36.5218192 L68.6773377,36.5218192 C69.203815,36.5218192 69.4779951,36.9561283 69.2849105,37.4876708 L68.1972007,40.4824591 C68.0041161,41.0140016 67.4158518,41.4483107 66.8880873,41.4483107 L64.3149135,41.4483107 C63.7884362,41.4483107 63.5155433,41.0140016 63.7086279,40.4824591 L64.7950504,37.4876708 C64.988135,36.9561283 65.5763994,36.5218192 66.1041639,36.5218192 M64.2505519,31.2945523 L74.2973862,31.2945523 C75.530553,31.2945523 76.1587215,32.3109653 75.6927441,33.5529598 L71.5040959,44.7179454 C71.0381185,45.9599398 69.6479095,46.9763528 68.4147427,46.9763528 L58.3679084,46.9763528 C57.1334544,46.9763528 56.5065731,45.9599398 56.9725506,44.7179454 L61.1611987,33.5529598 C61.6258889,32.3109653 63.0173851,31.2945523 64.2505519,31.2945523" id="logo"></path>
            </g>
        </g>
    </g>
</svg>