<svg width="40" height="40" viewBox="0 0 40 40" fill="none" xmlns="http://www.w3.org/2000/svg">
<circle cx="20" cy="20" r="20" fill="white"/>
<path fill-rule="evenodd" clip-rule="evenodd" d="M11.3046 8.00049C10.0318 8.00049 9 9.03231 9 10.3051V12.9899C9 14.2627 10.0318 15.2945 11.3046 15.2945H15.3822V30.3132C15.3822 31.586 16.414 32.6178 17.6869 32.6178H20.3716C21.6444 32.6178 22.6762 31.586 22.6762 30.3132V13.0094C22.6763 13.0029 22.6763 12.9964 22.6763 12.9899V10.3051C22.6763 9.03231 21.6445 8.00049 20.3716 8.00049H17.6869H11.3046Z" fill="#3C90F7"/>
<path d="M28.1467 15.294C30.161 15.294 31.7938 13.6612 31.7938 11.647C31.7938 9.63282 30.161 8 28.1467 8C26.1325 8 24.4998 9.63282 24.4998 11.647C24.4998 13.6612 26.1325 15.294 28.1467 15.294Z" fill="#3C90F7"/>
</svg>
