<?xml version="1.0" encoding="UTF-8"?>
<svg xmlns="http://www.w3.org/2000/svg" xmlns:xlink="http://www.w3.org/1999/xlink" width="80px" height="80px" viewBox="0 0 80 80" version="1.1">
<defs>
<clipPath id="clip1">
  <path d="M 40 0 C 62.089844 0 80 17.910156 80 40 C 80 62.089844 62.089844 80 40 80 C 17.910156 80 0 62.089844 0 40 C 0 17.910156 17.910156 0 40 0 Z M 40 0 "/>
</clipPath>
<clipPath id="clip2">
  <path d="M 20 18 L 60 18 L 60 65 L 20 65 Z M 20 18 "/>
</clipPath>
<clipPath id="clip3">
  <path d="M 40 0 C 62.089844 0 80 17.910156 80 40 C 80 62.089844 62.089844 80 40 80 C 17.910156 80 0 62.089844 0 40 C 0 17.910156 17.910156 0 40 0 Z M 40 0 "/>
</clipPath>
<clipPath id="clip4">
  <path d="M 28 26 L 52 26 L 52 57 L 28 57 Z M 28 26 "/>
</clipPath>
<clipPath id="clip5">
  <path d="M 40 0 C 62.089844 0 80 17.910156 80 40 C 80 62.089844 62.089844 80 40 80 C 17.910156 80 0 62.089844 0 40 C 0 17.910156 17.910156 0 40 0 Z M 40 0 "/>
</clipPath>
<clipPath id="clip6">
  <path d="M 28 31 L 33 31 L 33 35 L 28 35 Z M 28 31 "/>
</clipPath>
<clipPath id="clip7">
  <path d="M 40 0 C 62.089844 0 80 17.910156 80 40 C 80 62.089844 62.089844 80 40 80 C 17.910156 80 0 62.089844 0 40 C 0 17.910156 17.910156 0 40 0 Z M 40 0 "/>
</clipPath>
</defs>
<g id="surface1">
<g clip-path="url(#clip1)" clip-rule="nonzero">
<rect x="0" y="0" width="80" height="80" style="fill:rgb(20.392157%,82.745098%,60%);fill-opacity:1;stroke:none;"/>
</g>
<g clip-path="url(#clip2)" clip-rule="nonzero">
<g clip-path="url(#clip3)" clip-rule="nonzero">
<path style=" stroke:none;fill-rule:nonzero;fill:rgb(100%,100%,100%);fill-opacity:1;" d="M 59.941406 40.015625 C 59.914062 38.96875 59.886719 37.984375 59.886719 37.003906 L 59.886719 18.800781 L 22.347656 18.800781 L 29.632812 22.757812 L 55.945312 22.757812 L 55.945312 37.003906 C 55.945312 38.039062 55.972656 39.097656 56 40.121094 C 56.105469 44 56.214844 48.011719 54.773438 51.371094 C 52.28125 57.175781 46.601562 60.929688 40.316406 60.929688 C 32.65625 60.929688 26.257812 55.988281 24.398438 48.636719 C 23.84375 46.441406 23.917969 44.175781 23.996094 41.769531 C 24.023438 40.921875 24.050781 40.046875 24.050781 39.167969 L 24.050781 29.726562 L 20.109375 27.632812 L 20.109375 39.167969 C 20.109375 39.984375 20.078125 40.828125 20.054688 41.644531 C 19.972656 44.214844 19.886719 46.871094 20.578125 49.613281 C 22.886719 58.746094 30.824219 64.886719 40.316406 64.886719 C 48.179688 64.886719 55.277344 60.195312 58.390625 52.9375 C 60.179688 48.78125 60.058594 44.324219 59.941406 40.015625 Z M 59.941406 40.015625 "/>
</g>
</g>
<g clip-path="url(#clip4)" clip-rule="nonzero">
<g clip-path="url(#clip5)" clip-rule="nonzero">
<path style=" stroke:none;fill-rule:nonzero;fill:rgb(100%,100%,100%);fill-opacity:1;" d="M 28.34375 45.542969 C 28.34375 45.617188 28.347656 45.691406 28.355469 45.769531 C 28.777344 49.503906 31.773438 56.582031 40.117188 56.582031 C 48.582031 56.582031 51.007812 49.398438 51.109375 45.597656 C 51.109375 45.578125 51.113281 45.5625 51.113281 45.542969 L 51.113281 28.183594 C 51.113281 27.089844 50.230469 26.203125 49.140625 26.203125 L 35.96875 26.203125 L 43.25 30.164062 L 47.167969 30.164062 L 47.167969 45.511719 C 47.132812 46.316406 46.667969 52.621094 40.117188 52.621094 C 33.597656 52.621094 32.441406 46.523438 32.285156 45.417969 L 32.285156 34.101562 L 28.378906 32.027344 C 28.359375 32.148438 28.34375 32.269531 28.34375 32.394531 Z M 28.34375 45.542969 "/>
</g>
</g>
<g clip-path="url(#clip6)" clip-rule="nonzero">
<g clip-path="url(#clip7)" clip-rule="nonzero">
<path style=" stroke:none;fill-rule:nonzero;fill:rgb(100%,100%,100%);fill-opacity:1;" d="M 28.386719 31.988281 C 28.378906 32 28.386719 32.015625 28.378906 32.027344 L 32.285156 34.101562 Z M 28.386719 31.988281 "/>
</g>
</g>
</g>
</svg>
