<svg width="340" height="255" viewBox="0 0 340 255" fill="none" xmlns="http://www.w3.org/2000/svg">
<path fill-rule="evenodd" clip-rule="evenodd" d="M78.671 0L53.2199 27.4831C61.5294 36.0374 69.7537 43.5619 77.8776 50.1391V93.3574C59.3002 83.1392 41.7312 70.406 25.1911 57.7499L0 84.4861C27.6719 106.067 52.5578 124.141 77.8776 135.214V206.792L114.463 217.017V147.715C151.468 157.384 185.4 157.662 215.808 152.358V244.775L252.394 255V142.491C288.667 128.72 317.849 107.531 340 86.6707L315.736 60.4698C293.74 79.91 272.993 94.0316 252.394 103.763V64.2813C262.803 57.0768 279.069 44.0925 289.902 32.573L265.829 6.57805C177.803 99.3875 114.463 36.3474 78.671 0ZM114.463 74.0003V109.52C145.792 120.821 179.601 124.968 215.808 116.235V82.2628C185.953 92.2283 151.619 92.4724 114.463 74.0003Z" fill="#D95134"/>
</svg>
