<svg width="40" height="40" viewBox="0 0 40 40" fill="none" xmlns="http://www.w3.org/2000/svg">
<circle cx="20" cy="20" r="20" fill="white"/>
<path d="M22.7159 9H16.4609V10.8071H22.7159V9Z" fill="#121212"/>
<path d="M22.7158 28.3232H16.4608V30.0919H22.7158V28.3232Z" fill="#121212"/>
<path d="M10.7817 14.5806V10.8071H14.6958V9H9V14.5806H10.7817Z" fill="#121212"/>
<path d="M28.2637 14.5806H30.0508V9H24.4756V10.8071H28.2637V14.5806Z" fill="#121212"/>
<path d="M30.0453 16.3496H28.2637V22.7431H30.0453V16.3496Z" fill="#121212"/>
<path d="M28.2637 24.5117V28.3236H24.4756V30.0923H30.0508V24.5117H28.2637Z" fill="#121212"/>
<path d="M10.7876 16.3491H9.00049V22.7426H10.7876V16.3491Z" fill="#121212"/>
<path d="M10.7817 24.5117H9V30.0923H14.6958V28.3236H10.7817V24.5117Z" fill="#121212"/>
</svg>
