<?xml version="1.0" encoding="utf-8"?>
<!-- Generator: Adobe Illustrator 25.2.3, SVG Export Plug-In . SVG Version: 6.00 Build 0)  -->
<svg version="1.1" id="Layer_1" xmlns="http://www.w3.org/2000/svg" xmlns:xlink="http://www.w3.org/1999/xlink" x="0px" y="0px"
	 viewBox="0 0 864 288" style="enable-background:new 0 0 864 288;" xml:space="preserve">
<g>
	<path d="M25.26,53.17v182.44h812.72V53.17H25.26z M36.75,64.65h165.32v159.47H36.75V64.65z M826.5,224.12H213.54V64.65H826.5
		V224.12z"/>
	<g>
		<g>
			<path d="M777.07,174.49v-0.86h6.15v0.86h-2.56v6.83h-1.02v-6.83H777.07z"/>
			<path d="M785.49,173.63l2.42,6.46l2.43-6.46h1.4v7.69h-0.97v-6.4h-0.02l-2.4,6.4h-0.87l-2.4-6.4h-0.02v6.4h-0.97v-7.69H785.49z"
				/>
		</g>
		<g>
			<g>
				<path d="M249.29,114.45h12.04l15.95,51.2l17-51.2h11.85l16.81,51.2l16.05-51.2h12.04l-21.97,66.87h-12.32l-16.53-51.01
					l-16.62,51.01h-12.32L249.29,114.45z"/>
				<path d="M363.92,114.45h32.19c12.42,0,21.02,8.41,21.02,20.54c0,9.07-4.87,16.24-12.61,19.2l16.05,27.13h-12.8l-15.19-25.6
					h-16.81v25.6h-11.85V114.45z M375.76,145.88h19.11c6.11,0,10.41-4.39,10.41-10.99c0-6.5-4.3-10.7-10.41-10.7h-19.11V145.88z"/>
				<path d="M460.97,114.45h12.13l29.61,66.87H490.2l-6.4-14.71h-33.53l-6.4,14.71h-12.51L460.97,114.45z M454.57,156.77h25.03
					l-12.51-28.75L454.57,156.77z"/>
				<path d="M517.42,181.32v-66.87h32c12.42,0,21.02,8.41,21.02,20.54c0,12.04-8.6,20.73-21.02,20.73h-20.16v25.6H517.42z
					 M548.18,145.88c6.11,0,10.41-4.39,10.41-10.99c0-6.5-4.3-10.7-10.41-10.7h-18.91v21.68H548.18z"/>
				<path d="M586.49,181.32v-66.87h32c12.42,0,21.02,8.41,21.02,20.54c0,12.04-8.6,20.73-21.02,20.73h-20.16v25.6H586.49z
					 M617.25,145.88c6.11,0,10.41-4.39,10.41-10.99c0-6.5-4.3-10.7-10.41-10.7h-18.91v21.68H617.25z"/>
				<path d="M704.37,114.45l-2.75,9.74H667.4v18.25h34.01v9.74H667.4v19.39h35.08l2.75,9.74h-49.67v-66.87H704.37z"/>
				<path d="M722.61,114.45h27.42c20.35,0,34.58,13.76,34.58,33.44c0,19.68-14.23,33.43-34.58,33.43h-28.33L722.61,114.45z
					 M750.03,124.19h-15.57v47.38h15.57c13.18,0,22.35-9.46,22.35-23.69C772.38,133.65,763.21,124.19,750.03,124.19z"/>
			</g>
		</g>
	</g>
	<g>
		<polygon points="138.9,127.52 131.76,151.2 124.26,127.52 114.35,127.52 106.7,151.21 99.65,127.52 88.65,127.52 101.58,167.95 
			111.81,167.95 119.29,144.39 126.68,167.95 136.91,167.95 149.91,127.52 		"/>
		<g>
			<path d="M174.01,145.21c0-13.4-4.86-25.68-12.9-35.19l6.88-6.88l-6.54-6.54l-6.89,6.89c-9.5-8.01-21.75-12.84-35.12-12.84
				c-13.5,0-25.88,4.93-35.41,13.09l-6.94-6.94l-6.54,6.54l6.98,6.98c-7.89,9.46-12.65,21.63-12.65,34.89
				c0,13.36,4.83,25.62,12.84,35.12l-6.91,6.91l6.54,6.54l6.91-6.91c9.51,8.04,21.79,12.9,35.19,12.9
				c13.26,0,25.42-4.76,34.89-12.65l6.91,6.91l6.54-6.54l-6.87-6.87C169.07,171.09,174.01,158.72,174.01,145.21z M119.45,191.25
				c-25.38,0-46.04-20.65-46.04-46.04c0-25.38,20.65-46.04,46.04-46.04c25.38,0,46.04,20.65,46.04,46.04
				C165.48,170.6,144.83,191.25,119.45,191.25z"/>
			<path d="M169.8,104.95l-2.43,2.43c8.5,10.73,13.11,23.92,13.11,37.82c0,14.01-4.69,27.29-13.31,38.07l2.43,2.43
				c9.26-11.43,14.3-25.58,14.3-40.5C183.89,130.38,178.93,116.34,169.8,104.95z"/>
			<path d="M119.4,84.11c13.9,0,27.08,4.61,37.82,13.11l2.43-2.43c-11.39-9.13-25.43-14.09-40.24-14.09
				c-14.92,0-29.06,5.04-40.5,14.3l2.43,2.43C92.11,88.8,105.4,84.11,119.4,84.11z"/>
			<path d="M58.32,145.19c0-13.79,4.54-26.88,12.9-37.56l-2.43-2.43c-9,11.34-13.89,25.29-13.89,39.99
				c0,14.81,4.96,28.85,14.09,40.24l2.43-2.43C62.94,172.28,58.32,159.09,58.32,145.19z"/>
			<path d="M119.4,206.27c-13.9,0-27.08-4.61-37.82-13.11l-2.43,2.43c11.39,9.13,25.43,14.09,40.24,14.09
				c14.7,0,28.64-4.89,39.99-13.89l-2.43-2.43C146.28,201.74,133.19,206.27,119.4,206.27z"/>
		</g>
	</g>
</g>
</svg>
