<svg width="40" height="40" viewBox="0 0 40 40" fill="none" xmlns="http://www.w3.org/2000/svg">
<circle cx="20" cy="20" r="20" fill="white"/>
<path d="M22.307 20.0342H30.346L26.011 30.6311C25.4074 32.1098 23.9806 33.0682 22.3893 33.0682H14.3502L18.6853 22.4712C19.2889 20.9652 20.7156 20.0342 22.307 20.0342Z" fill="#94C5FF"/>
<path d="M30.346 20.0342L25.4622 26.2226C24.7214 27.2083 23.5965 27.8381 22.2795 27.8381H16.4354L18.6578 22.4438C19.2614 20.9926 20.6882 20.0342 22.2795 20.0342H30.346Z" fill="#1A32AF"/>
<path d="M19.6183 13.5171H27.6573L23.3223 24.114C22.7186 25.5927 21.2919 26.5511 19.7006 26.5511H11.6615L15.9966 15.9541C16.6002 14.4755 18.0543 13.5171 19.6183 13.5171Z" fill="#0092FF"/>
<path d="M27.6845 13.5171L22.8007 19.7055C22.0599 20.6913 20.935 21.3211 19.618 21.3211H13.7739L15.9963 15.9267C16.5999 14.4755 18.0267 13.5171 19.618 13.5171H27.6845Z" fill="#1A32AF"/>
<path d="M16.9568 7H24.9958L20.6608 17.597C20.0571 19.0756 18.6304 20.034 17.0391 20.034H9L13.3351 9.43702C13.9387 7.95838 15.3654 7 16.9568 7Z" fill="#0055FF"/>
</svg>
