<svg id="Design" xmlns="http://www.w3.org/2000/svg" xmlns:xlink="http://www.w3.org/1999/xlink" viewBox="0 0 726.28 726.28"><defs><style>.cls-1{fill:#fff;}.cls-2{mask:url(#mask);}.cls-3{fill:url(#linear-gradient);}</style><mask id="mask" x="0" y="0" width="726.28" height="726.28" maskUnits="userSpaceOnUse"><g transform="translate(-116.85 -116.85)"><path class="cls-1" d="M490.16,573.51c5.59-5.33,5.74-15.44.62-23.08H469.29c-5.4,7.8-5.29,14.2.67,21.85,3.63,4.65,6.62,9.5,6.88,16.19,7.91-6.46,9.37-14.55,8.91-23.36l0,0h0l0,0v.05C489.41,566.65,489.58,570.16,490.16,573.51Z"/><path class="cls-1" d="M501.92,550.43H491.59c10.26,4.38,15.62,18.81,11.15,30.73A29.34,29.34,0,0,1,498.4,589c-6.71,8.54-19,19.45-18.41,32.27-12.27-7.66-12.61-20.27-12.67-34-3.12,1.19-3.76,3.91-4.8,6.36-10.64-15.61-9.16-36.08,6.12-43.2H458.06c-3.75,4.38-15.79,19.51-15.48,40.73.18,12.23,4.37,21.09,9,30.94A120.34,120.34,0,0,0,480,660.25a120.49,120.49,0,0,0,28.38-38.15c4.66-9.85,8.85-18.71,9-30.94C517.7,569.94,505.67,554.81,501.92,550.43Z"/><path class="cls-1" d="M423,498.31a320.61,320.61,0,0,1-8.19-48.93C389.2,488.06,390.28,518.1,393,532a2.77,2.77,0,0,0,5.2.7c6.18-12.17,18.49-18.73,28-22.14C425,506.5,424,502.4,423,498.31Z"/><path class="cls-1" d="M545.18,449.38A321,321,0,0,1,537,498.31c-1,4.09-2,8.19-3.21,12.27,9.55,3.41,21.85,10,28,22.14A2.78,2.78,0,0,0,567,532C569.7,518.1,570.77,488.06,545.18,449.38Z"/><path class="cls-1" d="M439.27,529.8c1.9,5.23,3.76,9.91,5.47,14h70.5c1.71-4.08,3.57-8.76,5.46-14Z"/><path class="cls-1" d="M479.93,391.68a28.77,28.77,0,1,0,28.76,28.76A28.79,28.79,0,0,0,479.93,391.68Zm0,52.43a23.67,23.67,0,1,1,23.66-23.67A23.67,23.67,0,0,1,479.93,444.11Z"/><path class="cls-1" d="M520.82,355.41c-13.18-26-30.35-45.12-40.83-55.68-10.48,10.56-27.66,29.73-40.84,55.68Z"/><path class="cls-1" d="M524,362.06h-88.1a164.38,164.38,0,0,0-14.71,54.27c-3,34,5.4,69,8.14,80.45,2.32,9.74,4.95,18.56,7.58,26.37H523c2.63-7.81,5.25-16.63,7.58-26.37,2.73-11.45,11.11-46.49,8.13-80.45A164.13,164.13,0,0,0,524,362.06Zm-44.11,89.6a31.22,31.22,0,1,1,31.21-31.22A31.25,31.25,0,0,1,479.93,451.66Z"/><polygon class="cls-1" points="475.54 187.24 403.78 157.07 403.78 240.77 475.54 276.55 475.54 187.24"/><polygon class="cls-1" points="484.43 276.55 556.2 240.77 556.2 157.07 484.43 187.24 484.43 276.55"/><polygon class="cls-1" points="549.78 150.13 479.99 116.85 410.19 150.13 479.99 179.46 549.78 150.13"/><polygon class="cls-1" points="403.78 807.35 475.54 843.13 475.54 753.82 403.78 723.65 403.78 807.35"/><polygon class="cls-1" points="484.43 843.13 556.2 807.35 556.2 723.65 484.43 753.82 484.43 843.13"/><polygon class="cls-1" points="479.99 683.43 410.19 716.7 479.99 746.04 549.78 716.7 479.99 683.43"/><polygon class="cls-1" points="649.11 666.81 720.88 702.59 720.88 613.28 649.11 583.11 649.11 666.81"/><polygon class="cls-1" points="725.32 542.89 655.53 576.17 725.32 605.5 795.12 576.17 725.32 542.89"/><polygon class="cls-1" points="729.77 613.28 729.77 702.59 801.54 666.81 801.54 583.11 729.77 613.28"/><polygon class="cls-1" points="158.44 666.81 230.21 702.59 230.21 613.28 158.44 583.11 158.44 666.81"/><polygon class="cls-1" points="239.1 702.59 310.86 666.81 310.86 583.11 239.1 613.28 239.1 702.59"/><polygon class="cls-1" points="234.65 542.89 164.86 576.17 234.65 605.5 304.45 576.17 234.65 542.89"/><polygon class="cls-1" points="230.21 329.89 158.44 299.73 158.44 383.42 230.21 419.2 230.21 329.89"/><polygon class="cls-1" points="239.1 419.2 310.86 383.42 310.86 299.73 239.1 329.89 239.1 419.2"/><polygon class="cls-1" points="304.45 292.78 234.65 259.51 164.86 292.78 234.65 322.12 304.45 292.78"/><polygon class="cls-1" points="729.77 419.2 801.54 383.42 801.54 299.73 729.77 329.89 729.77 419.2"/><polygon class="cls-1" points="720.88 329.89 649.11 299.73 649.11 383.42 720.88 419.2 720.88 329.89"/><polygon class="cls-1" points="795.12 292.78 725.32 259.51 655.53 292.78 725.32 322.12 795.12 292.78"/><polygon class="cls-1" points="394.89 243.71 316.77 288.81 319.75 290.23 319.75 293.63 398.59 248.11 394.89 246.27 394.89 243.71"/><polygon class="cls-1" points="565.09 246.27 561.38 248.11 640.22 293.63 640.22 290.23 643.21 288.81 565.09 243.71 565.09 246.27"/><polygon class="cls-1" points="231.82 534.39 234.65 533.04 237.49 534.39 237.49 429.94 234.65 431.35 231.82 429.94 231.82 534.39"/><polygon class="cls-1" points="319.75 672.31 317.08 673.64 394.89 718.57 394.89 714.16 396.91 713.19 319.75 668.64 319.75 672.31"/><polygon class="cls-1" points="722.49 534.39 725.32 533.04 728.16 534.39 728.16 429.94 725.32 431.35 722.49 429.94 722.49 534.39"/><polygon class="cls-1" points="640.22 668.64 563.07 713.19 565.09 714.16 565.09 718.56 642.9 673.64 640.22 672.31 640.22 668.64"/></g></mask><linearGradient id="linear-gradient" y1="726.28" x2="726.28" gradientUnits="userSpaceOnUse"><stop offset="0.28" stop-color="#1cc5f3"/><stop offset="0.49" stop-color="#bf2cb5"/><stop offset="0.72" stop-color="#ee952a"/></linearGradient></defs><g class="cls-2"><rect class="cls-3" width="726.28" height="726.28"/></g></svg>