<?xml version="1.0" encoding="utf-8"?>
<!-- Generator: Adobe Illustrator 26.1.0, SVG Export Plug-In . SVG Version: 6.00 Build 0)  -->
<svg version="1.1" id="Layer_1" xmlns="http://www.w3.org/2000/svg" xmlns:xlink="http://www.w3.org/1999/xlink" x="0px" y="0px"
	 viewBox="0 0 80 80" style="enable-background:new 0 0 80 80;" xml:space="preserve">
<style type="text/css">
	.st0{fill:#129487;}
	.st1{fill:#FFFFFF;}
	.st2{fill:#E4E4E4;}
</style>
<circle class="st0" cx="40" cy="40" r="40"/>
<g>
	<polygon class="st1" points="55.5,43.1 55.5,40.3 58.2,40.3 58.2,24 55.5,24 55.5,21.2 22.6,21.2 22.6,34.8 25.3,34.8 25.3,40.5 
		22.6,40.5 22.6,56.9 25.3,56.9 25.3,59.7 58.2,59.7 58.2,46.1 52.7,46.1 52.7,43.1 	"/>
	<g>
		<g>
			<polygon class="st2" points="50.1,23.9 50.1,26.6 50.1,29.4 50.1,32.2 50.1,34.9 50.1,37.7 52.8,37.7 52.8,34.9 52.8,32.2 
				52.8,29.4 52.8,26.6 52.8,23.9 			"/>
			<rect x="47.3" y="37.7" class="st2" width="2.8" height="2.8"/>
			<polygon class="st2" points="41.8,40.4 41.8,43.2 44.5,43.2 47.3,43.2 47.3,40.4 44.5,40.4 			"/>
			<rect x="39" y="43.2" class="st2" width="2.8" height="2.8"/>
			<polygon class="st2" points="50.1,48.7 50.1,51.5 47.3,51.5 44.5,51.5 41.8,51.5 39,51.5 36.3,51.5 33.5,51.5 30.8,51.5 28,51.5 
				25.3,51.5 25.3,54.3 28,54.3 30.8,54.3 33.5,54.3 36.3,54.3 39,54.3 41.8,54.3 44.5,54.3 47.3,54.3 50.1,54.3 52.8,54.3 
				52.8,51.5 52.8,48.7 52.8,46 50.1,46 			"/>
		</g>
		<g>
			<polygon class="st0" points="52.8,26.6 52.8,29.4 52.8,32.2 52.8,34.9 52.8,37.7 55.6,37.7 55.6,34.9 55.6,32.2 55.6,29.4 
				55.6,26.6 			"/>
			<rect x="50.1" y="37.7" class="st0" width="2.8" height="2.8"/>
			<rect x="47.3" y="40.4" class="st0" width="2.8" height="2.8"/>
			<rect x="41.8" y="43.2" class="st0" width="2.8" height="2.8"/>
			<polygon class="st0" points="33.5,34.9 36.3,34.9 39,34.9 41.8,34.9 41.8,32.2 39,32.2 36.3,32.2 33.5,32.2 30.8,32.2 28,32.2 
				28,34.9 30.8,34.9 			"/>
			<polygon class="st0" points="52.8,51.5 52.8,54.3 50.1,54.3 47.3,54.3 44.5,54.3 41.8,54.3 39,54.3 36.3,54.3 33.5,54.3 
				30.8,54.3 28,54.3 28,57 30.8,57 33.5,57 36.3,57 39,57 41.8,57 44.5,57 47.3,57 50.1,57 52.8,57 55.6,57 55.6,54.3 55.6,51.5 
				55.6,48.7 52.8,48.7 			"/>
		</g>
		<g>
			<polygon points="55.6,23.9 55.6,21.1 52.8,21.1 50.1,21.1 47.3,21.1 44.5,21.1 41.8,21.1 39,21.1 36.3,21.1 33.5,21.1 30.8,21.1 
				28,21.1 25.3,21.1 22.5,21.1 22.5,23.9 22.5,26.6 22.5,29.4 22.5,32.2 22.5,34.9 25.3,34.9 25.3,37.7 25.3,40.4 28,40.4 28,37.7 
				30.8,37.7 33.5,37.7 33.5,34.9 30.8,34.9 28,34.9 28,32.2 25.3,32.2 25.3,29.4 25.3,26.6 25.3,23.9 28,23.9 30.8,23.9 33.5,23.9 
				36.3,23.9 39,23.9 41.8,23.9 44.5,23.9 47.3,23.9 50.1,23.9 52.8,23.9 52.8,26.6 55.6,26.6 55.6,29.4 55.6,32.2 55.6,34.9 
				55.6,37.7 52.8,37.7 52.8,40.4 50.1,40.4 50.1,43.2 47.3,43.2 44.5,43.2 44.5,46 47.3,46 50.1,46 52.8,46 52.8,43.2 55.6,43.2 
				55.6,40.4 58.3,40.4 58.3,37.7 58.3,34.9 58.3,32.2 58.3,29.4 58.3,26.6 58.3,23.9 			"/>
			<polygon points="55.6,48.7 55.6,51.5 55.6,54.3 55.6,57 52.8,57 50.1,57 47.3,57 44.5,57 41.8,57 39,57 36.3,57 33.5,57 30.8,57 
				28,57 28,54.3 25.3,54.3 25.3,51.5 25.3,48.7 25.3,46 25.3,43.2 25.3,40.4 22.5,40.4 22.5,43.2 22.5,46 22.5,48.7 22.5,51.5 
				22.5,54.3 22.5,57 25.3,57 25.3,59.8 28,59.8 30.8,59.8 33.5,59.8 36.3,59.8 39,59.8 41.8,59.8 44.5,59.8 47.3,59.8 50.1,59.8 
				52.8,59.8 55.6,59.8 58.3,59.8 58.3,57 58.3,54.3 58.3,51.5 58.3,48.7 58.3,46 55.6,46 52.8,46 52.8,48.7 			"/>
		</g>
	</g>
</g>
</svg>
